ply
format ascii 1.0
comment Created by Open3D
element vertex 204
property double x
property double y
property double z
element face 712
property list uchar uint vertex_indices
end_header
490309 5.45378e+06 101.497
490309 5.45378e+06 111.568
490309 5.45378e+06 111.568
490309 5.45378e+06 111.568
490309 5.45378e+06 101.497
490309 5.45378e+06 101.497
490309 5.45378e+06 101.497
490312 5.45378e+06 101.497
490309 5.45378e+06 101.497
490309 5.45378e+06 111.568
490312 5.45378e+06 111.568
490309 5.45378e+06 111.568
490324 5.45376e+06 111.568
490323 5.45376e+06 101.497
490324 5.45376e+06 101.497
490324 5.45376e+06 101.497
490323 5.45376e+06 111.568
490324 5.45376e+06 111.568
490318 5.45376e+06 101.497
490319 5.45376e+06 101.497
490319 5.45376e+06 101.497
490319 5.45376e+06 111.568
490319 5.45376e+06 111.568
490318 5.45376e+06 111.568
490309 5.45377e+06 111.568
490309 5.45377e+06 111.568
490309 5.45377e+06 101.497
490309 5.45377e+06 101.497
490316 5.45376e+06 101.497
490315 5.45376e+06 111.568
490316 5.45376e+06 111.568
490316 5.45376e+06 111.568
490316 5.45376e+06 101.497
490315 5.45376e+06 101.497
490325 5.45377e+06 101.497
490325 5.45377e+06 101.497
490325 5.45377e+06 111.568
490325 5.45378e+06 101.497
490325 5.45377e+06 111.568
490325 5.45378e+06 111.568
490309 5.45377e+06 101.497
490309 5.45377e+06 111.568
490324 5.45376e+06 111.568
490324 5.45376e+06 101.497
490324 5.45376e+06 101.497
490324 5.45376e+06 111.568
490325 5.45377e+06 101.497
490325 5.45377e+06 111.568
490317 5.45376e+06 111.568
490317 5.45376e+06 101.497
490324 5.45377e+06 101.497
490324 5.45377e+06 101.497
490324 5.45377e+06 111.568
490324 5.45377e+06 111.568
490314 5.45378e+06 101.497
490314 5.45378e+06 111.568
490314 5.45376e+06 101.497
490314 5.45376e+06 111.568
490309 5.45377e+06 101.497
490309 5.45377e+06 111.568
490325 5.45377e+06 101.497
490325 5.45377e+06 111.568
490325 5.45378e+06 101.497
490325 5.45378e+06 111.568
490320 5.45378e+06 101.497
490320 5.45378e+06 111.568
490321 5.45378e+06 101.497
490324 5.45378e+06 101.497
490324 5.45378e+06 111.568
490321 5.45378e+06 111.568
490313 5.45378e+06 101.497
490313 5.45378e+06 101.497
490313 5.45378e+06 111.568
490313 5.45378e+06 111.568
490312 5.45378e+06 101.497
490312 5.45378e+06 111.568
490315 5.45378e+06 111.568
490315 5.45378e+06 101.497
490322 5.45376e+06 111.568
490322 5.45376e+06 101.497
490322 5.45376e+06 111.568
490322 5.45376e+06 101.497
490324 5.45376e+06 111.568
490324 5.45376e+06 101.497
490320 5.45376e+06 101.497
490320 5.45376e+06 101.497
490320 5.45376e+06 111.568
490320 5.45376e+06 111.568
490321 5.45376e+06 101.497
490321 5.45376e+06 111.568
490321 5.45376e+06 101.497
490321 5.45376e+06 111.568
490310 5.45376e+06 111.568
490310 5.45376e+06 101.497
490311 5.45376e+06 101.497
490310 5.45376e+06 101.497
490311 5.45376e+06 111.568
490310 5.45376e+06 111.568
490309 5.45377e+06 111.568
490309 5.45377e+06 101.497
490309 5.45377e+06 101.497
490309 5.45377e+06 111.568
490324 5.45377e+06 111.568
490324 5.45377e+06 101.497
490309 5.45377e+06 111.568
490309 5.45377e+06 101.497
490309 5.45377e+06 101.497
490309 5.45377e+06 111.568
490309 5.45377e+06 101.497
490309 5.45377e+06 111.568
490309 5.45377e+06 111.568
490309 5.45377e+06 101.497
490309 5.45376e+06 111.568
490309 5.45376e+06 101.497
490309 5.45376e+06 101.497
490309 5.45377e+06 111.568
490309 5.45376e+06 111.568
490309 5.45377e+06 101.497
490317 5.45378e+06 101.497
490317 5.45378e+06 111.568
490316 5.45378e+06 111.568
490316 5.45378e+06 101.497
490316 5.45378e+06 101.497
490316 5.45378e+06 111.568
490309 5.45377e+06 111.568
490309 5.45377e+06 101.497
490311 5.45378e+06 111.568
490311 5.45378e+06 101.497
490322 5.45376e+06 101.497
490322 5.45376e+06 111.568
490324 5.45377e+06 101.497
490324 5.45377e+06 111.568
490313 5.45376e+06 101.497
490312 5.45376e+06 111.568
490311 5.45376e+06 111.568
490312 5.45376e+06 101.497
490313 5.45376e+06 111.568
490311 5.45376e+06 101.497
490314 5.45376e+06 111.568
490314 5.45376e+06 101.497
490309 5.45377e+06 111.568
490309 5.45377e+06 101.497
490309 5.45377e+06 101.497
490309 5.45377e+06 111.568
490324 5.45377e+06 111.568
490324 5.45377e+06 101.497
490309 5.45377e+06 101.497
490309 5.45377e+06 111.568
490324 5.45377e+06 101.497
490324 5.45377e+06 111.568
490324 5.45378e+06 111.568
490325 5.45378e+06 111.568
490324 5.45378e+06 101.497
490325 5.45378e+06 101.497
490315 5.45378e+06 111.568
490315 5.45378e+06 101.497
490310 5.45378e+06 111.568
490310 5.45378e+06 101.497
490313 5.45378e+06 101.497
490313 5.45378e+06 111.568
490310 5.45378e+06 101.497
490310 5.45378e+06 111.568
490311 5.45378e+06 111.568
490311 5.45378e+06 101.497
490324 5.45377e+06 101.497
490324 5.45377e+06 111.568
490313 5.45376e+06 111.568
490313 5.45376e+06 101.497
490312 5.45376e+06 111.568
490312 5.45376e+06 101.497
490309 5.45377e+06 111.568
490309 5.45377e+06 101.497
490309 5.45377e+06 101.497
490309 5.45377e+06 111.568
490324 5.45378e+06 111.568
490324 5.45378e+06 101.497
490324 5.45378e+06 111.568
490324 5.45378e+06 101.497
490322 5.45378e+06 111.568
490322 5.45378e+06 101.497
490324 5.45378e+06 101.497
490324 5.45378e+06 111.568
490319 5.45378e+06 101.497
490319 5.45378e+06 111.568
490319 5.45378e+06 111.568
490319 5.45378e+06 101.497
490323 5.45378e+06 101.497
490323 5.45378e+06 111.568
490317 5.45378e+06 111.568
490317 5.45378e+06 101.497
490309 5.45377e+06 101.497
490309 5.45377e+06 111.568
490319 5.45378e+06 111.568
490319 5.45378e+06 101.497
490323 5.45378e+06 111.568
490323 5.45378e+06 101.497
490318 5.45378e+06 111.568
490318 5.45378e+06 101.497
490323 5.45378e+06 111.568
490323 5.45378e+06 101.497
490317 5.45378e+06 111.568
490317 5.45378e+06 101.497
490323 5.45378e+06 101.497
490323 5.45378e+06 111.568
3 3 1 0
3 0 2 3
3 3 2 1
3 0 1 4
3 5 2 0
3 0 4 5
3 8 7 6
3 6 8 9
3 10 7 6
3 11 10 6
3 11 9 6
3 9 10 11
3 15 13 12
3 15 14 12
3 15 14 13
3 12 13 16
3 12 14 17
3 12 16 17
3 18 19 20
3 21 20 18
3 22 19 18
3 23 22 18
3 23 21 18
3 21 22 23
3 30 29 28
3 31 30 28
3 29 30 31
3 32 31 28
3 33 32 28
3 33 29 28
3 41 40 9
3 9 11 41
3 8 9 40
3 11 9 8
3 40 8 6
3 11 8 6
3 6 27 40
3 27 11 6
3 41 40 24
3 11 24 41
3 40 27 24
3 27 24 11
3 42 17 14
3 17 15 14
3 44 42 14
3 44 42 15
3 14 15 44
3 42 17 12
3 12 15 42
3 17 15 12
3 22 23 48
3 19 22 23
3 18 19 49
3 23 19 18
3 49 33 18
3 23 29 48
3 48 30 29
3 33 30 29
3 28 30 48
3 28 30 33
3 28 48 49
3 49 33 28
3 50 49 48
3 49 50 51
3 53 52 48
3 52 50 48
3 49 48 20
3 19 20 49
3 20 21 48
3 21 22 48
3 53 48 47
3 46 49 51
3 36 47 48
3 47 36 35
3 49 46 35
3 35 46 47
3 36 38 48
3 38 36 35
3 34 35 49
3 38 35 34
3 55 54 48
3 55 48 38
3 54 49 48
3 34 49 54
3 18 33 56
3 56 23 18
3 29 56 57
3 23 56 57
3 57 29 23
3 29 33 56
3 38 64 65
3 61 64 65
3 38 61 65
3 64 38 34
3 61 38 34
3 64 60 34
3 64 61 60
3 34 60 61
3 67 66 64
3 68 67 64
3 69 66 64
3 64 65 69
3 64 65 68
3 65 68 69
3 71 70 8
3 73 72 70
3 9 72 73
3 70 71 73
3 55 70 72
3 9 55 72
3 70 54 8
3 70 55 54
3 74 71 8
3 73 74 75
3 9 73 75
3 71 73 74
3 7 8 74
3 10 74 75
3 75 10 9
3 74 10 7
3 76 75 10
3 76 10 7
3 75 10 7
3 76 75 74
3 7 74 75
3 77 76 74
3 77 76 7
3 77 74 7
3 76 73 72
3 71 73 76
3 71 72 73
3 77 76 71
3 77 71 70
3 70 71 72
3 76 55 54
3 76 72 55
3 72 55 54
3 72 70 54
3 77 76 54
3 77 70 54
3 44 78 79
3 15 44 79
3 44 15 12
3 78 42 12
3 78 44 42
3 44 42 12
3 16 78 80
3 81 80 78
3 81 80 16
3 78 79 81
3 81 79 13
3 81 16 13
3 16 15 13
3 79 15 13
3 78 16 12
3 16 15 12
3 14 17 43
3 83 82 43
3 14 43 83
3 17 45 82
3 82 45 43
3 45 43 17
3 13 16 82
3 13 82 83
3 13 14 83
3 16 17 82
3 20 84 85
3 20 21 84
3 87 84 21
3 21 86 87
3 88 85 84
3 89 87 86
3 90 88 84
3 87 89 91
3 80 84 87
3 80 87 91
3 80 81 84
3 90 84 81
3 95 93 92
3 95 94 92
3 95 94 93
3 97 96 92
3 92 94 96
3 92 93 97
3 100 98 58
3 98 99 100
3 58 99 100
3 98 59 58
3 101 99 98
3 101 98 59
3 50 102 103
3 49 50 103
3 102 52 50
3 49 50 52
3 102 52 48
3 52 49 48
3 85 88 103
3 102 89 86
3 20 85 103
3 102 86 21
3 103 49 20
3 20 21 49
3 21 48 102
3 49 48 21
3 103 102 90
3 103 90 88
3 102 91 90
3 89 91 102
3 25 55 104
3 54 104 105
3 26 54 105
3 104 55 54
3 104 27 24
3 24 25 104
3 27 25 24
3 27 104 105
3 26 27 105
3 27 26 25
3 106 99 58
3 58 59 106
3 99 101 106
3 107 106 101
3 107 106 59
3 107 101 59
3 109 108 106
3 31 106 107
3 106 107 109
3 31 107 109
3 106 32 31
3 108 106 32
3 107 109 110
3 107 108 109
3 106 108 111
3 106 107 108
3 101 107 110
3 99 101 107
3 99 106 107
3 99 106 111
3 31 109 110
3 111 110 32
3 32 108 111
3 31 32 110
3 100 110 111
3 111 100 99
3 101 100 99
3 98 101 110
3 110 100 98
3 101 100 98
3 96 97 112
3 112 96 94
3 94 112 113
3 93 94 113
3 95 112 113
3 93 95 113
3 97 95 93
3 112 97 92
3 112 95 92
3 92 95 97
3 116 114 112
3 112 115 116
3 116 115 114
3 117 113 112
3 112 113 114
3 113 114 117
3 112 115 117
3 114 115 117
3 34 54 118
3 55 118 119
3 119 55 38
3 118 55 54
3 65 118 119
3 38 65 119
3 65 38 34
3 118 64 34
3 118 65 64
3 34 64 65
3 77 55 54
3 121 77 54
3 55 76 120
3 55 76 77
3 55 119 120
3 119 55 54
3 121 120 118
3 121 118 54
3 118 119 120
3 119 118 54
3 120 121 122
3 77 121 122
3 123 122 120
3 123 120 76
3 9 41 124
3 41 9 8
3 8 40 125
3 41 40 8
3 125 54 8
3 124 55 9
3 54 55 105
3 125 105 54
3 124 104 55
3 105 104 55
3 27 40 41
3 27 40 125
3 124 41 24
3 41 27 24
3 105 27 24
3 125 105 27
3 24 104 124
3 105 104 24
3 126 77 76
3 126 76 10
3 77 76 10
3 77 126 127
3 7 126 127
3 127 77 7
3 126 10 7
3 7 10 77
3 128 90 81
3 80 91 129
3 128 79 44
3 79 44 42
3 42 78 129
3 42 78 79
3 128 81 79
3 81 80 79
3 78 80 129
3 80 79 78
3 128 103 90
3 90 91 103
3 91 102 129
3 103 102 91
3 44 103 128
3 129 102 42
3 131 130 102
3 131 130 42
3 131 102 42
3 42 44 130
3 44 103 130
3 130 103 102
3 132 133 135
3 136 133 132
3 132 134 136
3 136 134 133
3 137 134 132
3 132 135 137
3 100 138 139
3 100 111 139
3 138 100 98
3 111 100 98
3 138 110 98
3 111 110 98
3 29 57 138
3 29 33 57
3 139 138 56
3 139 56 33
3 138 57 56
3 33 56 57
3 32 33 139
3 29 31 138
3 139 111 32
3 111 32 31
3 31 110 138
3 111 110 31
3 135 140 141
3 141 137 135
3 133 134 140
3 140 135 133
3 94 137 141
3 94 134 137
3 140 134 96
3 94 96 134
3 113 140 141
3 141 113 94
3 113 96 94
3 96 112 140
3 140 113 112
3 96 112 113
3 142 117 115
3 113 117 142
3 113 115 117
3 115 113 112
3 143 142 115
3 143 115 112
3 113 141 142
3 141 113 112
3 142 141 140
3 112 140 141
3 143 142 140
3 143 140 112
3 50 52 103
3 145 103 50
3 52 102 144
3 52 102 103
3 102 131 144
3 131 103 102
3 103 130 131
3 145 130 103
3 144 131 52
3 50 130 145
3 147 146 59
3 147 107 59
3 58 59 146
3 58 59 107
3 58 106 146
3 58 106 107
3 30 146 147
3 30 31 147
3 32 31 30
3 146 32 28
3 146 30 28
3 28 30 32
3 31 107 147
3 107 32 31
3 146 106 32
3 32 106 107
3 64 67 148
3 64 65 67
3 149 148 68
3 149 68 65
3 148 68 67
3 65 67 68
3 148 61 60
3 65 61 60
3 61 148 149
3 149 65 61
3 60 64 148
3 60 64 65
3 39 150 151
3 150 39 37
3 151 39 37
3 150 152 153
3 37 150 152
3 153 152 37
3 153 151 150
3 153 151 37
3 122 123 154
3 122 154 155
3 77 122 155
3 154 123 76
3 127 77 76
3 77 127 155
3 154 126 76
3 127 126 76
3 126 154 156
3 154 155 157
3 157 155 127
3 157 156 154
3 77 76 75
3 75 76 159
3 158 77 74
3 74 75 77
3 71 77 158
3 77 73 71
3 73 76 159
3 77 76 73
3 71 73 75
3 159 75 73
3 71 74 158
3 71 74 75
3 160 5 4
3 161 160 1
3 161 2 1
3 160 4 1
3 160 127 5
3 161 126 2
3 156 160 161
3 126 156 161
3 160 157 127
3 156 157 160
3 5 6 11
3 163 6 5
3 162 11 2
3 2 5 11
3 5 127 163
3 2 126 162
3 11 7 6
3 6 7 163
3 10 11 162
3 7 10 11
3 7 127 163
3 127 10 7
3 162 126 10
3 127 126 10
3 52 53 165
3 164 51 50
3 165 164 131
3 165 131 52
3 50 130 164
3 130 131 164
3 47 164 165
3 165 53 47
3 46 51 164
3 164 47 46
3 167 139 56
3 56 57 139
3 57 138 166
3 139 138 57
3 167 166 132
3 132 139 167
3 166 136 132
3 166 138 136
3 18 23 166
3 23 57 166
3 57 23 18
3 18 56 57
3 18 166 167
3 167 56 18
3 135 141 169
3 133 135 141
3 168 140 133
3 133 140 141
3 169 141 100
3 98 140 168
3 100 139 169
3 139 100 98
3 168 138 98
3 98 138 139
3 133 136 168
3 133 135 136
3 132 135 169
3 132 135 136
3 169 139 132
3 136 138 168
3 171 170 100
3 100 141 171
3 98 100 170
3 170 140 98
3 170 143 140
3 140 141 143
3 142 143 170
3 143 142 141
3 142 170 171
3 141 142 171
3 28 30 147
3 173 172 147
3 30 147 173
3 28 146 172
3 146 147 172
3 28 146 147
3 30 48 49
3 30 48 173
3 172 49 28
3 28 30 49
3 25 26 172
3 25 172 173
3 173 55 25
3 172 54 26
3 55 49 48
3 48 55 173
3 172 54 49
3 49 54 55
3 66 67 175
3 174 69 68
3 177 176 174
3 174 176 178
3 174 175 177
3 179 177 175
3 179 175 66
3 69 174 178
3 68 149 174
3 67 68 149
3 175 148 67
3 149 148 67
3 174 149 63
3 174 63 62
3 62 63 149
3 175 174 62
3 62 148 175
3 149 148 62
3 175 177 180
3 180 177 176
3 177 176 175
3 181 180 176
3 181 176 174
3 174 175 176
3 62 175 180
3 180 63 62
3 175 63 62
3 175 174 63
3 63 180 181
3 181 174 63
3 182 66 64
3 64 65 66
3 65 69 183
3 65 66 69
3 182 179 66
3 69 178 183
3 182 183 184
3 184 183 178
3 182 184 185
3 179 182 185
3 119 65 64
3 183 182 119
3 183 119 65
3 64 118 182
3 118 119 182
3 64 118 119
3 186 63 62
3 63 62 39
3 187 186 63
3 187 63 39
3 186 62 37
3 37 39 62
3 37 152 186
3 152 39 37
3 186 152 150
3 39 150 152
3 187 186 150
3 187 150 39
3 118 119 188
3 121 119 118
3 189 188 118
3 118 121 189
3 188 120 119
3 121 120 119
3 120 123 188
3 120 121 123
3 122 188 189
3 121 122 189
3 122 123 188
3 123 122 121
3 25 190 191
3 191 173 25
3 25 26 190
3 173 26 25
3 190 172 26
3 26 172 173
3 191 190 59
3 191 147 59
3 58 59 190
3 58 59 147
3 58 146 190
3 58 146 147
3 191 173 147
3 146 147 173
3 146 172 190
3 146 172 173
3 192 185 184
3 192 184 183
3 185 184 183
3 182 192 193
3 185 192 193
3 182 185 193
3 182 183 192
3 182 183 185
3 194 187 184
3 184 185 187
3 186 194 195
3 185 186 195
3 186 187 194
3 185 186 187
3 194 184 178
3 179 185 195
3 195 194 177
3 177 179 195
3 176 177 194
3 194 178 176
3 192 193 196
3 183 192 196
3 193 192 183
3 193 196 197
3 182 193 197
3 182 183 193
3 119 183 196
3 118 119 196
3 118 119 183
3 118 196 197
3 118 182 197
3 118 182 183
3 198 187 186
3 187 186 62
3 199 198 186
3 199 186 62
3 63 187 198
3 187 63 62
3 62 180 181
3 62 180 199
3 198 181 63
3 181 63 62
3 176 181 198
3 176 177 198
3 176 177 181
3 177 198 199
3 199 180 177
3 181 180 177
3 118 119 197
3 197 200 201
3 118 197 201
3 200 197 196
3 200 196 119
3 197 196 119
3 188 189 200
3 200 188 119
3 189 188 119
3 189 200 201
3 118 189 201
3 118 119 189
3 187 198 199
3 203 198 187
3 202 199 186
3 199 187 186
3 187 194 195
3 187 194 203
3 202 195 186
3 195 187 186
3 202 199 177
3 176 177 199
3 176 198 203
3 176 198 199
3 195 194 176
3 203 194 176
3 177 195 202
3 176 177 195
