ply
format ascii 1.0
comment Created by Open3D
element vertex 194
property double x
property double y
property double z
element face 648
property list uchar uint vertex_indices
end_header
490277 5.45373e+06 104.872
490276 5.45373e+06 114.943
490281 5.45373e+06 104.872
490276 5.45373e+06 104.872
490281 5.45373e+06 114.943
490277 5.45373e+06 114.943
490281 5.45373e+06 114.943
490281 5.45373e+06 104.872
490274 5.45372e+06 104.872
490281 5.45372e+06 104.872
490281 5.45372e+06 114.943
490274 5.45372e+06 114.943
490275 5.45372e+06 114.943
490275 5.45372e+06 104.872
490281 5.45373e+06 104.872
490279 5.45373e+06 104.872
490279 5.45373e+06 114.943
490280 5.45373e+06 104.872
490281 5.45373e+06 114.943
490280 5.45373e+06 114.943
490281 5.45373e+06 104.872
490281 5.45373e+06 114.943
490281 5.45373e+06 114.943
490281 5.45373e+06 114.943
490281 5.45373e+06 104.872
490281 5.45373e+06 104.872
490266 5.45373e+06 104.872
490266 5.45373e+06 104.872
490266 5.45373e+06 114.943
490266 5.45373e+06 104.872
490266 5.45373e+06 114.943
490266 5.45373e+06 114.943
490265 5.45372e+06 114.943
490265 5.45372e+06 114.943
490265 5.45372e+06 114.943
490265 5.45372e+06 104.872
490265 5.45372e+06 104.872
490265 5.45372e+06 104.872
490281 5.45373e+06 104.872
490281 5.45373e+06 114.943
490278 5.45373e+06 114.943
490281 5.45373e+06 114.943
490281 5.45373e+06 104.872
490278 5.45373e+06 104.872
490277 5.45373e+06 114.943
490277 5.45373e+06 104.872
490276 5.45373e+06 104.872
490276 5.45373e+06 114.943
490275 5.45373e+06 104.872
490275 5.45373e+06 114.943
490281 5.45372e+06 114.943
490281 5.45372e+06 104.872
490281 5.45372e+06 104.872
490281 5.45372e+06 114.943
490267 5.45373e+06 104.872
490265 5.45373e+06 114.943
490267 5.45373e+06 114.943
490267 5.45373e+06 114.943
490267 5.45373e+06 104.872
490265 5.45373e+06 104.872
490266 5.45373e+06 114.943
490266 5.45373e+06 104.872
490269 5.45372e+06 104.872
490269 5.45372e+06 114.943
490270 5.45372e+06 104.872
490270 5.45372e+06 114.943
490265 5.45372e+06 114.943
490265 5.45372e+06 104.872
490266 5.45372e+06 104.872
490266 5.45372e+06 114.943
490266 5.45372e+06 114.943
490266 5.45372e+06 104.872
490273 5.45373e+06 114.943
490272 5.45373e+06 114.943
490273 5.45373e+06 104.872
490272 5.45373e+06 104.872
490275 5.45373e+06 104.872
490275 5.45373e+06 114.943
490273 5.45373e+06 104.872
490272 5.45372e+06 114.943
490273 5.45373e+06 114.943
490273 5.45372e+06 114.943
490272 5.45372e+06 104.872
490273 5.45372e+06 104.872
490271 5.45372e+06 114.943
490271 5.45372e+06 104.872
490278 5.45373e+06 104.872
490278 5.45373e+06 114.943
490280 5.45372e+06 114.943
490281 5.45372e+06 114.943
490281 5.45372e+06 104.872
490281 5.45372e+06 104.872
490280 5.45372e+06 104.872
490281 5.45372e+06 114.943
490276 5.45372e+06 104.872
490277 5.45372e+06 104.872
490278 5.45372e+06 104.872
490277 5.45372e+06 114.943
490276 5.45372e+06 114.943
490278 5.45372e+06 114.943
490281 5.45372e+06 114.943
490281 5.45372e+06 104.872
490281 5.45373e+06 114.943
490281 5.45373e+06 104.872
490281 5.45373e+06 114.943
490281 5.45373e+06 104.872
490281 5.45373e+06 114.943
490281 5.45373e+06 104.872
490265 5.45373e+06 114.943
490265 5.45373e+06 104.872
490268 5.45372e+06 114.943
490268 5.45372e+06 104.872
490274 5.45373e+06 104.872
490274 5.45373e+06 114.943
490272 5.45373e+06 104.872
490272 5.45373e+06 114.943
490265 5.45373e+06 104.872
490265 5.45372e+06 104.872
490265 5.45372e+06 114.943
490265 5.45373e+06 114.943
490268 5.45373e+06 114.943
490268 5.45373e+06 104.872
490269 5.45373e+06 104.872
490269 5.45373e+06 114.943
490265 5.45373e+06 104.872
490270 5.45373e+06 114.943
490265 5.45373e+06 114.943
490271 5.45373e+06 114.943
490271 5.45373e+06 104.872
490270 5.45373e+06 104.872
490265 5.45373e+06 114.943
490265 5.45373e+06 104.872
490269 5.45373e+06 114.943
490269 5.45373e+06 104.872
490271 5.45373e+06 114.943
490271 5.45373e+06 104.872
490265 5.45373e+06 104.872
490265 5.45373e+06 114.943
490265 5.45373e+06 114.943
490265 5.45373e+06 104.872
490278 5.45373e+06 104.872
490278 5.45373e+06 114.943
490265 5.45372e+06 114.943
490265 5.45372e+06 104.872
490281 5.45372e+06 104.872
490281 5.45372e+06 114.943
490281 5.45372e+06 114.943
490281 5.45372e+06 104.872
490277 5.45372e+06 104.872
490277 5.45372e+06 114.943
490281 5.45373e+06 114.943
490281 5.45373e+06 104.872
490281 5.45373e+06 104.872
490281 5.45373e+06 114.943
490265 5.45373e+06 114.943
490265 5.45373e+06 104.872
490268 5.45373e+06 114.943
490268 5.45373e+06 104.872
490265 5.45373e+06 114.943
490265 5.45373e+06 104.872
490265 5.45373e+06 104.872
490265 5.45373e+06 114.943
490265 5.45372e+06 114.943
490265 5.45372e+06 104.872
490265 5.45372e+06 114.943
490265 5.45372e+06 104.872
490280 5.45372e+06 104.872
490280 5.45372e+06 114.943
490274 5.45372e+06 104.872
490274 5.45372e+06 114.943
490270 5.45372e+06 104.872
490270 5.45372e+06 114.943
490265 5.45373e+06 114.943
490265 5.45373e+06 104.872
490265 5.45373e+06 104.872
490265 5.45373e+06 114.943
490265 5.45373e+06 114.943
490265 5.45373e+06 104.872
490268 5.45372e+06 104.872
490268 5.45372e+06 114.943
490267 5.45372e+06 114.943
490267 5.45372e+06 104.872
490281 5.45372e+06 104.872
490281 5.45372e+06 114.943
490268 5.45373e+06 114.943
490268 5.45373e+06 104.872
490281 5.45372e+06 104.872
490281 5.45372e+06 104.872
490281 5.45372e+06 114.943
490281 5.45372e+06 114.943
490279 5.45372e+06 104.872
490279 5.45372e+06 114.943
490281 5.45372e+06 114.943
490281 5.45372e+06 104.872
3 0 1 3
3 0 2 3
3 0 4 5
3 5 1 0
3 1 4 5
3 4 2 0
3 2 6 7
3 3 6 7
3 7 3 2
3 6 3 1
3 6 4 1
3 2 4 6
3 8 9 10
3 9 8 7
3 11 8 6
3 8 10 11
3 6 10 11
3 8 7 6
3 9 10 12
3 10 11 12
3 11 10 9
3 12 11 8
3 8 9 11
3 8 12 13
3 13 12 9
3 8 9 13
3 14 15 16
3 17 15 14
3 14 18 19
3 14 16 18
3 19 18 16
3 19 17 14
3 20 23 24
3 17 20 24
3 20 21 23
3 23 21 19
3 21 20 18
3 18 19 21
3 19 18 17
3 14 18 20
3 20 17 14
3 18 17 14
3 28 27 26
3 26 27 29
3 27 28 29
3 31 30 26
3 26 28 31
3 31 30 28
3 30 29 26
3 30 29 28
3 34 33 32
3 32 33 35
3 35 34 33
3 37 36 32
3 32 35 36
3 37 36 35
3 37 34 32
3 34 35 37
3 4 6 7
3 39 38 4
3 4 6 39
3 2 4 38
3 38 7 2
3 2 4 7
3 39 38 10
3 39 10 6
3 38 10 9
3 38 9 7
3 41 40 4
3 40 41 42
3 43 42 40
3 2 42 43
3 40 5 4
3 5 4 2
3 43 2 0
3 5 2 0
3 45 44 40
3 5 40 44
3 40 43 45
3 45 43 0
3 5 44 47
3 46 45 0
3 1 3 5
3 1 5 47
3 0 3 46
3 5 3 0
3 48 46 3
3 1 47 49
3 45 46 48
3 44 45 48
3 49 47 44
3 44 48 49
3 9 50 51
3 51 13 9
3 50 10 9
3 9 10 13
3 10 12 50
3 10 12 13
3 52 51 50
3 13 51 52
3 53 52 50
3 53 50 12
3 54 55 56
3 54 56 57
3 57 56 55
3 54 57 58
3 54 58 59
3 59 55 54
3 30 31 60
3 31 30 29
3 26 31 60
3 31 29 26
3 26 60 61
3 26 29 61
3 60 57 30
3 29 30 57
3 29 57 58
3 29 58 61
3 56 57 60
3 56 57 58
3 54 60 61
3 61 58 54
3 54 56 60
3 54 56 58
3 66 63 62
3 62 63 65
3 63 65 66
3 67 64 62
3 62 64 65
3 67 66 62
3 70 69 34
3 34 37 69
3 71 68 37
3 71 69 37
3 32 69 70
3 36 68 71
3 36 37 68
3 37 36 34
3 36 34 32
3 70 34 32
3 76 48 3
3 48 49 76
3 77 76 49
3 1 49 77
3 3 7 76
3 7 3 1
3 77 6 1
3 1 6 7
3 11 76 77
3 77 11 6
3 6 7 11
3 76 11 8
3 7 8 76
3 11 8 7
3 78 79 80
3 81 80 78
3 79 80 81
3 82 79 78
3 82 81 79
3 83 81 78
3 78 82 83
3 83 82 81
3 84 80 79
3 79 80 82
3 78 84 85
3 85 82 78
3 78 80 84
3 82 80 78
3 82 65 64
3 85 82 64
3 65 79 84
3 82 79 65
3 85 84 67
3 64 67 85
3 66 67 84
3 84 66 65
3 88 89 91
3 91 90 89
3 92 90 88
3 88 91 92
3 90 91 92
3 93 89 88
3 88 90 93
3 89 90 93
3 96 95 94
3 94 98 99
3 99 98 97
3 99 96 94
3 52 94 95
3 98 97 53
3 94 13 12
3 98 94 12
3 98 53 12
3 94 52 13
3 52 53 100
3 53 52 51
3 52 100 101
3 101 52 51
3 50 53 100
3 53 51 50
3 100 10 9
3 51 10 9
3 101 100 9
3 101 51 9
3 10 50 100
3 10 50 51
3 20 21 25
3 103 25 20
3 102 22 21
3 21 22 25
3 102 104 106
3 104 105 106
3 107 105 103
3 107 106 105
3 22 25 105
3 25 103 105
3 22 102 104
3 105 104 22
3 14 18 107
3 107 103 14
3 18 102 106
3 18 106 107
3 102 21 18
3 14 18 21
3 103 20 14
3 21 20 14
3 55 56 108
3 108 59 55
3 55 56 59
3 54 56 59
3 59 108 109
3 109 59 54
3 109 108 61
3 54 61 109
3 54 56 61
3 56 60 108
3 60 61 108
3 61 60 56
3 112 74 48
3 74 49 48
3 74 72 49
3 49 72 113
3 113 77 49
3 48 49 77
3 48 76 112
3 77 76 48
3 81 112 113
3 80 81 113
3 112 83 81
3 80 81 83
3 112 83 78
3 83 80 78
3 72 80 113
3 112 78 74
3 113 112 11
3 11 77 113
3 8 11 112
3 77 11 8
3 112 76 8
3 8 76 77
3 114 75 74
3 73 75 114
3 73 74 75
3 74 73 72
3 73 114 115
3 72 73 115
3 115 80 72
3 74 78 114
3 78 85 114
3 85 80 78
3 84 85 114
3 80 84 85
3 84 114 115
3 115 84 80
3 126 125 124
3 127 126 124
3 127 126 125
3 129 128 124
3 124 127 128
3 124 125 129
3 128 132 133
3 128 129 133
3 132 128 127
3 125 127 132
3 133 132 122
3 122 129 133
3 122 123 132
3 123 125 132
3 136 135 85
3 84 134 137
3 84 115 134
3 84 85 115
3 115 114 85
3 135 114 85
3 128 135 136
3 137 134 127
3 134 115 73
3 115 75 73
3 75 114 135
3 75 114 115
3 128 133 135
3 133 128 127
3 134 132 127
3 127 132 133
3 73 123 134
3 73 122 123
3 135 122 75
3 122 75 73
3 135 133 122
3 133 123 122
3 123 132 134
3 123 132 133
3 139 138 85
3 139 136 85
3 84 85 138
3 84 137 138
3 131 138 139
3 139 136 131
3 138 131 130
3 130 137 138
3 140 45 43
3 45 44 43
3 40 44 141
3 44 43 40
3 141 87 44
3 87 45 44
3 140 86 45
3 87 86 45
3 140 43 42
3 41 42 43
3 43 41 40
3 141 41 40
3 41 87 141
3 42 86 140
3 36 142 143
3 143 142 35
3 143 36 35
3 33 35 142
3 33 35 36
3 32 36 142
3 142 33 32
3 36 33 32
3 89 91 146
3 89 91 92
3 92 146 147
3 91 146 147
3 147 92 91
3 146 92 88
3 146 89 88
3 92 89 88
3 149 99 97
3 95 96 148
3 96 147 148
3 148 147 146
3 149 148 146
3 149 146 99
3 145 148 149
3 100 145 149
3 100 101 145
3 101 144 148
3 148 145 144
3 101 144 145
3 52 95 148
3 53 97 149
3 52 101 148
3 52 53 101
3 149 100 53
3 53 100 101
3 15 17 151
3 150 19 16
3 150 23 19
3 24 150 151
3 17 24 151
3 150 24 23
3 15 86 87
3 151 86 15
3 16 87 150
3 87 16 15
3 150 42 41
3 150 87 41
3 42 150 151
3 151 86 42
3 152 151 24
3 152 24 23
3 151 24 23
3 23 150 151
3 153 152 23
3 23 150 153
3 42 151 152
3 151 42 41
3 151 150 41
3 153 150 41
3 153 41 4
3 2 42 152
3 38 39 152
3 152 38 2
3 39 38 2
3 39 152 153
3 4 39 153
3 39 4 2
3 155 154 26
3 155 61 26
3 154 31 26
3 61 31 26
3 154 60 31
3 31 60 61
3 109 154 155
3 155 109 61
3 109 61 60
3 154 108 60
3 154 109 108
3 109 108 60
3 119 123 158
3 159 122 116
3 121 122 159
3 123 122 121
3 158 123 120
3 123 121 120
3 159 158 157
3 159 157 121
3 120 121 157
3 120 156 158
3 156 157 158
3 157 156 120
3 55 119 158
3 158 59 55
3 55 59 119
3 59 116 119
3 59 158 159
3 159 116 59
3 160 136 128
3 127 137 161
3 126 160 161
3 126 127 161
3 128 127 126
3 160 126 124
3 124 128 160
3 124 126 128
3 131 136 160
3 161 137 130
3 160 131 116
3 116 119 160
3 131 119 116
3 131 130 119
3 161 160 119
3 119 130 161
3 163 85 67
3 66 67 85
3 66 84 162
3 85 84 66
3 139 162 163
3 163 139 85
3 84 85 139
3 84 138 162
3 138 139 162
3 139 138 84
3 117 162 163
3 67 117 163
3 162 118 66
3 117 118 162
3 35 117 165
3 117 35 33
3 164 118 33
3 118 117 33
3 165 143 35
3 33 35 143
3 33 142 164
3 33 142 143
3 165 117 67
3 66 118 164
3 63 66 164
3 63 66 67
3 67 63 62
3 165 67 62
3 62 143 165
3 164 142 63
3 88 92 166
3 88 92 93
3 88 166 167
3 93 166 167
3 88 93 167
3 90 92 166
3 166 93 90
3 90 92 93
3 8 13 168
3 13 11 8
3 169 168 12
3 169 12 11
3 168 13 12
3 11 12 13
3 113 11 8
3 11 113 169
3 168 112 8
3 113 112 8
3 168 83 81
3 81 83 113
3 81 168 169
3 169 113 81
3 83 112 168
3 83 112 113
3 170 111 62
3 110 170 171
3 63 110 171
3 110 111 170
3 170 65 64
3 65 64 63
3 65 170 171
3 171 65 63
3 62 64 170
3 64 63 62
3 172 58 57
3 58 172 173
3 173 59 58
3 172 57 55
3 173 159 59
3 159 59 55
3 172 158 55
3 159 158 55
3 173 172 157
3 157 159 173
3 172 157 156
3 159 157 156
3 156 158 172
3 159 158 156
3 119 161 175
3 116 119 161
3 116 160 174
3 116 160 161
3 175 161 126
3 124 126 161
3 174 160 124
3 124 160 161
3 175 126 125
3 125 126 129
3 124 129 174
3 124 126 129
3 175 123 119
3 174 122 116
3 174 129 122
3 175 125 123
3 130 138 176
3 139 138 130
3 131 139 177
3 139 131 130
3 117 118 131
3 117 131 177
3 118 130 176
3 118 130 131
3 138 162 176
3 138 162 163
3 177 163 139
3 138 139 163
3 117 118 163
3 117 163 177
3 176 162 118
3 163 162 118
3 178 143 62
3 142 178 179
3 63 142 179
3 142 143 178
3 178 111 110
3 110 178 179
3 179 110 63
3 62 111 178
3 69 179 180
3 69 71 179
3 71 178 179
3 71 178 181
3 180 179 142
3 142 143 179
3 179 178 143
3 181 178 143
3 181 71 36
3 32 69 180
3 180 142 32
3 143 142 32
3 36 143 181
3 143 36 32
3 91 144 182
3 145 144 91
3 183 145 89
3 145 91 89
3 89 146 147
3 89 146 183
3 182 147 91
3 89 91 147
3 149 147 146
3 146 149 183
3 182 148 147
3 149 148 147
3 149 145 144
3 183 149 145
3 182 148 144
3 149 148 144
3 57 58 157
3 58 157 185
3 57 156 184
3 157 156 57
3 173 58 57
3 185 173 58
3 57 172 184
3 57 172 173
3 157 173 185
3 156 157 173
3 156 172 184
3 156 172 173
3 90 186 187
3 186 187 188
3 90 187 188
3 189 188 186
3 93 188 189
3 188 93 90
3 166 167 186
3 90 166 186
3 90 166 167
3 189 186 167
3 93 167 189
3 167 93 90
3 88 92 167
3 167 190 191
3 88 167 191
3 190 167 166
3 190 166 92
3 92 166 167
3 190 147 96
3 96 99 190
3 191 190 99
3 99 146 191
3 92 147 190
3 147 92 88
3 191 146 88
3 88 146 147
3 167 191 192
3 166 167 191
3 190 192 193
3 193 190 166
3 190 191 192
3 166 190 191
3 166 186 189
3 166 186 193
3 192 189 167
3 166 167 189
3 188 189 192
3 192 188 187
3 189 188 187
3 193 192 187
3 193 187 186
3 189 187 186
