ply
format ascii 1.0
comment Created by Open3D
element vertex 76
property double x
property double y
property double z
element face 256
property list uchar uint vertex_indices
end_header
490249 5.45373e+06 104.853
490249 5.45373e+06 114.923
490248 5.45373e+06 114.923
490248 5.45373e+06 114.923
490248 5.45373e+06 104.853
490248 5.45373e+06 104.853
490248 5.45373e+06 104.853
490248 5.45373e+06 104.853
490249 5.45373e+06 104.853
490248 5.45373e+06 114.923
490249 5.45373e+06 114.923
490248 5.45373e+06 114.923
490256 5.45373e+06 114.923
490254 5.45373e+06 104.853
490256 5.45373e+06 104.853
490254 5.45373e+06 114.923
490250 5.45374e+06 114.923
490251 5.45374e+06 104.853
490250 5.45374e+06 104.853
490251 5.45374e+06 114.923
490255 5.45373e+06 104.853
490256 5.45374e+06 114.923
490256 5.45374e+06 104.853
490256 5.45374e+06 114.923
490255 5.45373e+06 114.923
490256 5.45374e+06 104.853
490257 5.45373e+06 104.853
490257 5.45373e+06 114.923
490257 5.45374e+06 104.853
490257 5.45374e+06 114.923
490259 5.45373e+06 114.923
490260 5.45373e+06 114.923
490259 5.45373e+06 104.853
490260 5.45373e+06 104.853
490259 5.45373e+06 104.853
490259 5.45373e+06 114.923
490259 5.45373e+06 114.923
490259 5.45373e+06 104.853
490251 5.45373e+06 104.853
490251 5.45373e+06 114.923
490251 5.45373e+06 114.923
490251 5.45373e+06 104.853
490251 5.45373e+06 104.853
490251 5.45373e+06 114.923
490259 5.45373e+06 114.923
490259 5.45373e+06 104.853
490253 5.45373e+06 104.853
490252 5.45373e+06 114.923
490253 5.45374e+06 114.923
490252 5.45373e+06 104.853
490253 5.45373e+06 114.923
490253 5.45374e+06 104.853
490249 5.45373e+06 114.923
490249 5.45373e+06 104.853
490253 5.45374e+06 104.853
490253 5.45374e+06 114.923
490255 5.45374e+06 114.923
490255 5.45374e+06 104.853
490255 5.45373e+06 114.923
490255 5.45373e+06 104.853
490257 5.45373e+06 114.923
490257 5.45373e+06 104.853
490251 5.45374e+06 104.853
490251 5.45374e+06 114.923
490254 5.45374e+06 114.923
490254 5.45374e+06 104.853
490259 5.45373e+06 114.923
490259 5.45373e+06 104.853
490257 5.45373e+06 104.853
490257 5.45373e+06 114.923
490258 5.45373e+06 114.923
490258 5.45373e+06 104.853
490259 5.45373e+06 104.853
490259 5.45373e+06 114.923
490258 5.45373e+06 104.853
490258 5.45373e+06 114.923
3 0 1 2
3 3 1 0
3 3 2 1
3 0 2 4
3 2 3 4
3 5 3 0
3 0 4 5
3 5 4 3
3 6 7 8
3 7 8 9
3 9 10 11
3 10 9 8
3 11 10 1
3 0 6 8
3 2 9 11
3 2 4 9
3 7 6 4
3 4 7 9
3 1 2 4
3 1 2 11
3 0 4 6
3 4 1 0
3 16 5 3
3 17 5 3
3 5 16 18
3 16 17 18
3 5 17 18
3 19 16 3
3 19 17 16
3 19 17 3
3 23 22 20
3 21 22 23
3 24 23 20
3 24 23 21
3 25 22 20
3 21 22 25
3 25 20 14
3 12 14 20
3 12 20 24
3 24 21 12
3 27 26 12
3 12 21 27
3 26 25 14
3 26 14 12
3 25 26 28
3 21 25 28
3 29 28 26
3 21 28 29
3 29 27 26
3 29 27 21
3 31 32 33
3 30 32 34
3 32 33 34
3 35 31 30
3 35 32 30
3 31 32 35
3 30 31 36
3 31 33 36
3 33 34 37
3 33 36 37
3 37 36 28
3 34 30 28
3 37 34 28
3 30 29 28
3 29 30 36
3 36 29 28
3 8 41 42
3 10 40 43
3 10 39 40
3 39 10 8
3 42 40 38
3 42 38 8
3 40 39 38
3 8 38 39
3 18 40 42
3 42 41 18
3 40 18 16
3 43 40 16
3 44 35 32
3 35 34 32
3 45 44 34
3 45 44 32
3 45 34 32
3 44 34 30
3 44 35 30
3 35 34 30
3 46 48 50
3 50 48 47
3 46 48 51
3 46 49 51
3 39 46 50
3 39 47 50
3 46 39 38
3 49 46 38
3 1 10 52
3 53 8 0
3 10 43 52
3 53 41 8
3 18 41 53
3 52 43 16
3 18 5 3
3 5 18 53
3 52 16 3
3 18 16 3
3 52 3 1
3 5 3 1
3 0 5 53
3 5 1 0
3 54 51 48
3 54 51 49
3 55 54 48
3 47 48 55
3 55 54 39
3 55 47 39
3 54 39 38
3 54 49 38
3 19 55 56
3 17 19 56
3 17 56 57
3 57 54 17
3 56 55 48
3 48 51 56
3 55 51 48
3 51 54 55
3 57 56 51
3 51 54 57
3 56 24 20
3 24 22 20
3 57 56 20
3 57 56 22
3 20 22 57
3 23 24 56
3 56 23 22
3 22 23 24
3 12 24 58
3 24 14 12
3 20 58 59
3 59 20 14
3 20 24 58
3 14 20 24
3 58 15 13
3 13 14 15
3 13 58 59
3 59 14 13
3 58 15 12
3 15 14 12
3 12 27 60
3 60 14 12
3 27 14 12
3 26 60 61
3 14 60 61
3 14 26 61
3 60 27 26
3 14 26 27
3 19 55 63
3 17 54 62
3 19 18 16
3 16 19 63
3 62 18 17
3 19 18 17
3 38 39 55
3 63 55 39
3 62 54 38
3 38 54 55
3 42 40 16
3 63 40 16
3 18 42 62
3 42 18 16
3 42 40 39
3 39 40 63
3 62 42 38
3 38 39 42
3 57 51 48
3 65 57 51
3 64 56 48
3 57 56 48
3 59 15 13
3 65 59 13
3 15 58 64
3 15 58 59
3 20 24 57
3 65 57 20
3 24 56 64
3 57 56 24
3 20 24 59
3 20 59 65
3 64 58 24
3 59 58 24
3 48 50 64
3 51 50 48
3 65 51 46
3 51 50 46
3 64 50 15
3 13 15 50
3 65 46 13
3 50 46 13
3 61 66 67
3 28 61 67
3 66 61 60
3 66 60 29
3 34 29 28
3 67 66 34
3 67 34 28
3 29 30 66
3 30 34 66
3 29 30 34
3 29 60 69
3 28 61 68
3 68 61 26
3 26 27 61
3 69 60 27
3 61 60 27
3 68 28 26
3 28 27 26
3 27 29 69
3 29 28 27
3 70 60 12
3 61 60 12
3 14 70 71
3 14 61 71
3 70 14 12
3 61 14 12
3 67 61 60
3 71 70 67
3 61 67 71
3 70 67 66
3 70 66 60
3 67 66 60
3 72 67 66
3 67 66 30
3 73 72 66
3 73 66 30
3 34 67 72
3 67 34 30
3 72 45 44
3 45 44 30
3 73 72 44
3 30 44 73
3 72 45 34
3 45 34 30
3 73 67 66
3 75 73 66
3 67 72 74
3 67 72 73
3 71 70 66
3 66 70 75
3 74 71 67
3 71 67 66
3 74 72 45
3 45 72 73
3 75 73 44
3 73 45 44
3 45 71 74
3 44 45 71
3 44 70 75
3 71 70 44
