ply
format ascii 1.0
comment Created by Open3D
element vertex 68
property double x
property double y
property double z
element face 224
property list uchar uint vertex_indices
end_header
490246 5.45373e+06 114.899
490246 5.45373e+06 104.829
490246 5.45373e+06 104.829
490246 5.45373e+06 104.829
490246 5.45373e+06 114.899
490246 5.45373e+06 114.899
490250 5.45373e+06 104.829
490249 5.45373e+06 114.899
490247 5.45373e+06 114.899
490249 5.45373e+06 104.829
490250 5.45373e+06 114.899
490247 5.45373e+06 104.829
490251 5.45373e+06 104.829
490251 5.45373e+06 114.899
490251 5.45373e+06 114.899
490251 5.45373e+06 104.829
490249 5.45373e+06 114.899
490248 5.45373e+06 104.829
490248 5.45373e+06 114.899
490249 5.45373e+06 104.829
490252 5.45373e+06 114.899
490252 5.45373e+06 104.829
490253 5.45373e+06 104.829
490253 5.45373e+06 114.899
490246 5.45373e+06 114.899
490246 5.45373e+06 114.899
490246 5.45373e+06 104.829
490246 5.45373e+06 104.829
490247 5.45373e+06 114.899
490248 5.45373e+06 114.899
490248 5.45373e+06 104.829
490247 5.45373e+06 104.829
490253 5.45373e+06 114.899
490254 5.45373e+06 114.899
490253 5.45373e+06 104.829
490254 5.45373e+06 104.829
490249 5.45373e+06 114.899
490249 5.45373e+06 104.829
490254 5.45373e+06 104.829
490254 5.45373e+06 114.899
490249 5.45373e+06 114.899
490249 5.45373e+06 104.829
490251 5.45373e+06 114.899
490251 5.45373e+06 104.829
490250 5.45373e+06 104.829
490250 5.45373e+06 114.899
490253 5.45373e+06 114.899
490253 5.45373e+06 104.829
490252 5.45373e+06 114.899
490252 5.45373e+06 104.829
490246 5.45373e+06 104.829
490246 5.45373e+06 114.899
490247 5.45373e+06 104.829
490246 5.45373e+06 114.899
490247 5.45373e+06 114.899
490246 5.45373e+06 104.829
490248 5.45373e+06 114.899
490248 5.45373e+06 104.829
490253 5.45373e+06 114.899
490254 5.45373e+06 114.899
490253 5.45373e+06 104.829
490254 5.45373e+06 104.829
490252 5.45373e+06 114.899
490252 5.45373e+06 104.829
490246 5.45373e+06 104.829
490246 5.45373e+06 114.899
490254 5.45373e+06 114.899
490254 5.45373e+06 104.829
3 2 1 0
3 0 1 3
3 1 2 3
3 4 2 0
3 4 3 2
3 5 4 0
3 0 3 5
3 3 4 5
3 9 7 6
3 6 7 10
3 7 8 10
3 11 9 6
3 12 11 6
3 13 10 8
3 6 10 14
3 10 13 14
3 6 14 15
3 15 12 6
3 16 17 18
3 19 17 16
3 11 17 19
3 8 16 18
3 19 16 9
3 9 11 19
3 16 8 7
3 7 9 16
3 12 13 20
3 12 20 21
3 11 12 21
3 20 13 8
3 22 21 20
3 11 21 22
3 8 11 22
3 23 20 8
3 23 22 20
3 8 22 23
3 18 24 25
3 17 24 27
3 27 26 17
3 24 18 17
3 25 24 5
3 5 25 26
3 3 24 27
3 3 26 27
3 3 5 24
3 3 5 26
3 18 28 29
3 30 29 28
3 28 30 31
3 31 30 17
3 28 26 25
3 18 25 28
3 26 28 31
3 17 26 31
3 35 33 32
3 38 35 33
3 32 34 35
3 32 34 38
3 38 35 34
3 39 33 32
3 39 38 32
3 39 38 33
3 41 40 9
3 9 19 41
3 40 9 7
3 7 9 19
3 40 16 7
3 19 16 7
3 16 36 40
3 36 37 40
3 41 40 37
3 41 37 19
3 42 14 13
3 42 13 12
3 15 42 43
3 43 42 12
3 12 15 43
3 42 15 14
3 44 15 6
3 6 10 15
3 10 14 45
3 15 14 10
3 44 41 15
3 41 15 14
3 14 40 41
3 14 40 45
3 10 9 7
3 7 10 45
3 6 9 44
3 6 9 10
3 9 41 44
3 7 9 41
3 41 40 7
3 45 40 7
3 43 46 47
3 15 46 47
3 15 43 47
3 46 15 14
3 43 15 14
3 46 43 42
3 46 42 14
3 14 42 43
3 21 46 47
3 47 46 22
3 47 22 21
3 46 23 22
3 23 22 21
3 46 23 20
3 20 21 46
3 20 21 23
3 12 13 21
3 49 48 21
3 49 21 12
3 20 21 48
3 13 20 48
3 13 20 21
3 43 48 49
3 12 43 49
3 43 13 12
3 42 43 48
3 13 42 48
3 13 42 43
3 8 11 50
3 8 50 51
3 8 18 51
3 50 17 11
3 17 27 50
3 27 18 17
3 51 50 24
3 51 24 18
3 24 27 50
3 18 24 27
3 53 31 28
3 54 53 28
3 55 52 31
3 55 53 31
3 55 52 26
3 26 53 55
3 54 53 25
3 53 26 25
3 26 31 52
3 31 26 25
3 54 28 25
3 31 28 25
3 29 36 56
3 29 30 36
3 30 37 57
3 37 36 30
3 17 30 57
3 18 29 56
3 16 18 56
3 16 18 19
3 17 19 57
3 17 18 19
3 56 36 16
3 19 37 57
3 59 58 23
3 59 23 22
3 61 60 58
3 22 60 61
3 58 59 61
3 61 59 22
3 47 23 22
3 22 47 60
3 23 46 58
3 23 46 47
3 32 34 58
3 47 34 32
3 34 58 60
3 60 47 34
3 58 46 32
3 32 46 47
3 20 21 47
3 63 47 21
3 20 46 62
3 20 46 47
3 42 43 47
3 43 47 63
3 62 46 42
3 42 46 47
3 62 48 42
3 42 48 49
3 63 49 43
3 49 43 42
3 20 21 49
3 21 49 63
3 20 48 62
3 20 48 49
3 8 11 51
3 8 51 65
3 64 50 11
3 11 50 51
3 0 1 5
3 65 5 0
3 1 3 64
3 1 3 5
3 64 11 1
3 11 8 1
3 0 8 65
3 0 1 8
3 24 27 51
3 65 51 24
3 27 50 64
3 51 50 27
3 3 27 64
3 3 5 27
3 65 24 5
3 27 24 5
3 66 58 32
3 60 58 32
3 67 60 34
3 60 34 32
3 39 38 34
3 34 38 67
3 32 39 66
3 32 34 39
3 58 59 66
3 58 59 60
3 67 61 60
3 61 60 59
3 66 59 39
3 38 39 59
3 38 61 67
3 38 59 61
