ply
format ascii 1.0
comment Created by Open3D
element vertex 196
property double x
property double y
property double z
element face 676
property list uchar uint vertex_indices
end_header
490220 5.45373e+06 114.888
490220 5.45372e+06 104.817
490220 5.45373e+06 104.817
490220 5.45372e+06 104.817
490220 5.45372e+06 114.888
490220 5.45372e+06 114.888
490220 5.45372e+06 104.817
490220 5.45372e+06 114.888
490207 5.45373e+06 114.888
490209 5.45373e+06 104.817
490209 5.45373e+06 104.817
490207 5.45373e+06 104.817
490209 5.45373e+06 114.888
490209 5.45373e+06 114.888
490210 5.45373e+06 104.817
490210 5.45373e+06 114.888
490210 5.45373e+06 104.817
490210 5.45373e+06 114.888
490209 5.45372e+06 114.888
490203 5.45372e+06 104.817
490209 5.45372e+06 104.817
490203 5.45372e+06 114.888
490203 5.45373e+06 104.817
490203 5.45373e+06 114.888
490203 5.45373e+06 114.888
490202 5.45373e+06 114.888
490203 5.45373e+06 114.888
490202 5.45373e+06 104.817
490203 5.45373e+06 104.817
490203 5.45373e+06 104.817
490202 5.45373e+06 114.888
490202 5.45373e+06 104.817
490202 5.45373e+06 104.817
490203 5.45373e+06 114.888
490202 5.45373e+06 114.888
490203 5.45373e+06 104.817
490212 5.45373e+06 104.817
490212 5.45373e+06 114.888
490220 5.45373e+06 104.817
490220 5.45373e+06 104.817
490220 5.45373e+06 114.888
490220 5.45373e+06 104.817
490220 5.45373e+06 114.888
490220 5.45373e+06 114.888
490214 5.45373e+06 114.888
490215 5.45373e+06 104.817
490215 5.45373e+06 114.888
490217 5.45373e+06 114.888
490217 5.45373e+06 104.817
490214 5.45373e+06 104.817
490213 5.45373e+06 114.888
490213 5.45373e+06 104.817
490214 5.45373e+06 104.817
490214 5.45373e+06 114.888
490217 5.45372e+06 114.888
490217 5.45372e+06 104.817
490216 5.45372e+06 104.817
490216 5.45372e+06 114.888
490214 5.45372e+06 104.817
490214 5.45372e+06 114.888
490220 5.45373e+06 114.888
490220 5.45373e+06 104.817
490220 5.45373e+06 104.817
490220 5.45373e+06 114.888
490220 5.45373e+06 104.817
490220 5.45373e+06 114.888
490220 5.45373e+06 114.888
490220 5.45373e+06 104.817
490220 5.45373e+06 104.817
490216 5.45373e+06 104.817
490220 5.45373e+06 114.888
490220 5.45373e+06 104.817
490216 5.45373e+06 114.888
490220 5.45373e+06 114.888
490213 5.45373e+06 114.888
490213 5.45373e+06 104.817
490205 5.45372e+06 114.888
490205 5.45372e+06 104.817
490205 5.45372e+06 104.817
490203 5.45372e+06 104.817
490203 5.45372e+06 114.888
490205 5.45372e+06 114.888
490208 5.45372e+06 114.888
490208 5.45372e+06 104.817
490203 5.45372e+06 104.817
490203 5.45372e+06 104.817
490203 5.45372e+06 114.888
490203 5.45372e+06 114.888
490219 5.45372e+06 104.817
490219 5.45372e+06 114.888
490219 5.45372e+06 114.888
490219 5.45372e+06 104.817
490212 5.45373e+06 104.817
490212 5.45373e+06 114.888
490215 5.45372e+06 104.817
490215 5.45372e+06 114.888
490215 5.45373e+06 104.817
490215 5.45373e+06 114.888
490220 5.45373e+06 104.817
490220 5.45373e+06 114.888
490220 5.45373e+06 114.888
490220 5.45373e+06 104.817
490220 5.45373e+06 114.888
490220 5.45373e+06 104.817
490213 5.45372e+06 114.888
490213 5.45372e+06 104.817
490213 5.45372e+06 114.888
490211 5.45372e+06 104.817
490213 5.45372e+06 104.817
490211 5.45372e+06 114.888
490207 5.45372e+06 104.817
490207 5.45372e+06 104.817
490207 5.45372e+06 114.888
490207 5.45372e+06 114.888
490206 5.45372e+06 114.888
490206 5.45372e+06 104.817
490207 5.45373e+06 104.817
490207 5.45373e+06 114.888
490203 5.45373e+06 104.817
490203 5.45373e+06 114.888
490205 5.45373e+06 104.817
490204 5.45373e+06 114.888
490204 5.45373e+06 104.817
490204 5.45373e+06 104.817
490205 5.45373e+06 114.888
490204 5.45373e+06 114.888
490204 5.45372e+06 114.888
490204 5.45372e+06 104.817
490204 5.45372e+06 104.817
490204 5.45372e+06 114.888
490218 5.45373e+06 114.888
490218 5.45373e+06 104.817
490218 5.45373e+06 104.817
490218 5.45373e+06 114.888
490219 5.45373e+06 114.888
490219 5.45373e+06 104.817
490207 5.45373e+06 104.817
490207 5.45373e+06 114.888
490206 5.45373e+06 104.817
490206 5.45373e+06 114.888
490206 5.45373e+06 104.817
490206 5.45373e+06 114.888
490219 5.45372e+06 104.817
490219 5.45372e+06 114.888
490220 5.45372e+06 114.888
490220 5.45372e+06 104.817
490211 5.45372e+06 114.888
490211 5.45372e+06 104.817
490209 5.45372e+06 114.888
490209 5.45372e+06 104.817
490210 5.45372e+06 104.817
490210 5.45372e+06 114.888
490220 5.45373e+06 104.817
490220 5.45373e+06 114.888
490220 5.45373e+06 114.888
490220 5.45373e+06 104.817
490213 5.45372e+06 114.888
490213 5.45372e+06 104.817
490203 5.45373e+06 104.817
490203 5.45373e+06 114.888
490203 5.45372e+06 114.888
490203 5.45372e+06 114.888
490203 5.45372e+06 104.817
490203 5.45372e+06 104.817
490203 5.45372e+06 114.888
490203 5.45372e+06 104.817
490203 5.45372e+06 104.817
490203 5.45372e+06 114.888
490204 5.45372e+06 104.817
490204 5.45372e+06 114.888
490219 5.45373e+06 114.888
490219 5.45373e+06 104.817
490217 5.45373e+06 104.817
490217 5.45373e+06 114.888
490218 5.45372e+06 114.888
490218 5.45372e+06 104.817
490211 5.45373e+06 114.888
490211 5.45373e+06 104.817
490211 5.45372e+06 114.888
490211 5.45372e+06 104.817
490220 5.45373e+06 114.888
490220 5.45373e+06 104.817
490206 5.45372e+06 104.817
490206 5.45372e+06 114.888
490205 5.45373e+06 104.817
490205 5.45373e+06 114.888
490220 5.45372e+06 114.888
490220 5.45372e+06 104.817
490210 5.45372e+06 114.888
490210 5.45372e+06 104.817
490204 5.45373e+06 104.817
490204 5.45373e+06 114.888
490210 5.45372e+06 114.888
490210 5.45372e+06 104.817
490210 5.45372e+06 104.817
490210 5.45372e+06 114.888
3 0 2 3
3 3 2 1
3 5 4 0
3 4 3 0
3 0 2 6
3 1 2 6
3 7 6 0
3 0 5 7
3 8 9 11
3 8 10 11
3 11 10 9
3 13 10 8
3 13 12 8
3 12 9 8
3 14 11 9
3 12 11 9
3 14 11 8
3 12 11 8
3 15 14 8
3 8 12 15
3 17 16 14
3 14 15 17
3 17 15 13
3 16 14 10
3 12 13 15
3 9 10 14
3 20 19 18
3 10 19 20
3 21 19 18
3 21 18 13
3 16 18 20
3 20 16 10
3 18 17 13
3 16 17 18
3 22 13 10
3 10 11 22
3 13 11 10
3 8 22 23
3 13 22 23
3 23 13 8
3 8 11 22
3 13 11 8
3 24 25 26
3 27 25 24
3 29 27 24
3 29 28 27
3 23 24 26
3 29 24 22
3 22 28 29
3 24 23 22
3 30 26 25
3 25 27 30
3 28 30 31
3 31 30 27
3 27 28 31
3 30 28 26
3 34 33 21
3 19 32 35
3 35 32 31
3 35 33 31
3 30 31 33
3 30 33 34
3 34 21 13
3 32 19 10
3 13 23 34
3 23 13 10
3 10 22 32
3 10 22 23
3 23 26 34
3 22 28 32
3 28 31 32
3 26 28 31
3 26 30 31
3 26 30 34
3 16 20 36
3 36 17 16
3 20 17 16
3 18 36 37
3 37 36 17
3 17 18 37
3 18 20 36
3 17 18 20
3 38 39 41
3 41 40 38
3 39 40 41
3 38 39 42
3 39 40 42
3 38 42 43
3 38 40 43
3 43 42 40
3 47 46 44
3 49 48 44
3 45 48 49
3 48 47 44
3 44 46 50
3 45 49 51
3 44 49 52
3 49 51 52
3 53 50 44
3 44 52 53
3 6 54 55
3 54 55 56
3 56 55 6
3 57 56 54
3 7 54 57
3 6 7 54
3 61 6 2
3 7 6 2
3 0 7 60
3 0 2 7
3 62 61 2
3 0 60 63
3 61 62 64
3 65 63 60
3 61 56 6
3 7 57 60
3 56 61 64
3 65 60 57
3 68 69 71
3 70 72 73
3 69 68 48
3 47 48 68
3 47 68 73
3 73 72 47
3 67 68 71
3 66 68 73
3 73 70 66
3 68 67 66
3 50 53 74
3 74 53 52
3 52 74 75
3 75 52 51
3 37 50 74
3 36 37 74
3 36 74 75
3 75 51 36
3 76 77 78
3 79 78 76
3 79 78 77
3 81 80 76
3 80 79 76
3 81 77 76
3 78 76 20
3 78 76 19
3 78 20 19
3 19 21 76
3 21 20 19
3 76 20 18
3 18 21 76
3 21 20 18
3 18 20 82
3 18 20 78
3 83 82 20
3 78 82 83
3 20 78 83
3 18 76 82
3 82 78 76
3 18 76 78
3 85 84 35
3 33 35 84
3 84 85 86
3 84 86 87
3 33 84 87
3 87 86 33
3 90 89 88
3 5 88 90
3 5 89 90
3 1 5 88
3 91 88 1
3 91 89 88
3 17 92 93
3 17 37 93
3 92 17 16
3 37 17 16
3 16 36 92
3 16 36 37
3 36 75 92
3 36 37 75
3 92 75 74
3 75 74 37
3 93 92 74
3 37 74 93
3 46 94 95
3 46 65 95
3 94 46 45
3 94 64 45
3 56 64 94
3 95 65 57
3 94 58 55
3 94 59 58
3 59 58 55
3 59 55 54
3 95 94 59
3 54 59 95
3 55 56 94
3 57 56 55
3 95 57 54
3 54 55 57
3 45 64 96
3 97 65 46
3 96 64 62
3 63 65 97
3 62 69 96
3 97 72 63
3 96 48 45
3 46 47 97
3 96 69 48
3 47 72 97
3 66 98 99
3 99 73 66
3 66 67 98
3 73 67 66
3 67 68 98
3 67 68 73
3 47 99 100
3 48 98 101
3 47 73 99
3 47 48 73
3 98 68 48
3 73 68 48
3 98 42 39
3 103 98 39
3 42 98 99
3 42 99 102
3 103 101 98
3 99 100 102
3 104 95 59
3 104 59 58
3 95 59 58
3 105 104 94
3 58 104 105
3 58 94 105
3 104 95 94
3 95 94 58
3 111 110 79
3 112 111 79
3 80 112 113
3 79 80 112
3 78 79 110
3 78 79 80
3 110 78 76
3 80 78 76
3 113 110 76
3 76 80 113
3 113 110 82
3 113 112 82
3 111 110 83
3 82 83 110
3 114 78 76
3 83 78 76
3 115 114 83
3 78 114 115
3 78 83 115
3 114 82 76
3 114 83 82
3 83 82 76
3 116 22 11
3 11 22 23
3 117 116 8
3 8 23 117
3 116 11 8
3 23 11 8
3 22 116 118
3 119 118 116
3 119 117 116
3 23 117 119
3 120 121 122
3 123 122 120
3 121 122 123
3 125 124 120
3 124 121 120
3 125 124 121
3 125 123 120
3 121 123 125
3 127 126 85
3 127 126 77
3 127 85 77
3 77 81 126
3 126 86 85
3 81 86 126
3 87 128 129
3 129 87 86
3 87 86 85
3 84 85 128
3 128 87 84
3 84 85 87
3 85 127 128
3 127 86 85
3 86 126 127
3 86 126 129
3 128 80 79
3 129 128 80
3 80 81 129
3 77 79 128
3 128 127 77
3 77 81 127
3 81 126 127
3 81 126 129
3 100 101 130
3 47 100 130
3 48 130 131
3 101 130 131
3 48 101 131
3 47 48 130
3 132 131 101
3 131 101 100
3 130 131 132
3 131 130 100
3 133 132 130
3 100 130 133
3 101 103 132
3 133 102 100
3 132 133 134
3 102 133 134
3 135 132 103
3 132 134 135
3 136 11 8
3 117 11 8
3 137 136 8
3 8 117 137
3 136 116 11
3 117 116 11
3 140 138 136
3 136 137 141
3 141 139 137
3 141 140 136
3 119 137 139
3 118 136 138
3 117 118 119
3 137 119 117
3 136 118 116
3 116 117 118
3 142 55 3
3 3 4 55
3 54 55 142
3 4 54 55
3 54 142 143
3 143 54 4
3 4 5 143
3 142 3 1
3 90 142 143
3 5 90 143
3 90 5 1
3 1 88 142
3 142 90 88
3 90 88 1
3 1 5 144
3 145 144 1
3 145 144 6
3 145 6 1
3 144 7 6
3 5 7 144
3 37 50 146
3 147 146 36
3 147 51 36
3 36 37 146
3 45 51 147
3 146 50 46
3 147 108 45
3 46 106 146
3 107 146 147
3 147 108 107
3 107 109 146
3 107 108 109
3 146 109 106
3 109 108 106
3 148 149 150
3 150 149 111
3 111 112 150
3 148 150 151
3 151 148 112
3 112 150 151
3 149 111 83
3 82 112 148
3 18 20 148
3 18 20 83
3 149 148 20
3 149 83 20
3 18 82 148
3 18 82 83
3 152 62 2
3 153 152 0
3 0 63 153
3 152 2 0
3 152 72 69
3 72 152 153
3 63 72 153
3 152 69 62
3 155 154 71
3 155 71 69
3 70 71 154
3 154 72 70
3 154 153 72
3 153 72 69
3 69 152 153
3 69 152 155
3 0 153 154
3 0 2 154
3 153 2 0
3 153 152 2
3 2 154 155
3 155 152 2
3 45 108 157
3 156 106 46
3 46 95 156
3 95 46 45
3 157 94 45
3 45 94 95
3 157 105 94
3 105 95 94
3 95 104 156
3 105 104 95
3 58 105 157
3 105 59 58
3 156 104 59
3 59 104 105
3 157 108 58
3 58 59 108
3 59 106 156
3 59 106 108
3 158 29 22
3 22 23 29
3 159 158 24
3 159 24 23
3 158 29 24
3 29 24 23
3 118 119 158
3 119 158 159
3 23 119 159
3 22 118 158
3 79 80 160
3 161 160 80
3 79 80 161
3 79 160 162
3 163 162 79
3 79 161 163
3 160 164 165
3 160 161 164
3 161 164 165
3 165 162 160
3 165 163 162
3 165 163 161
3 19 35 166
3 21 33 167
3 166 85 35
3 33 86 167
3 167 86 81
3 77 85 166
3 81 78 76
3 167 81 76
3 77 78 166
3 81 78 77
3 166 78 19
3 78 21 19
3 167 76 21
3 21 76 78
3 87 164 169
3 165 164 87
3 168 165 84
3 165 87 84
3 87 129 169
3 129 87 84
3 84 128 168
3 84 128 129
3 162 165 168
3 162 164 165
3 160 162 164
3 169 164 160
3 129 80 79
3 169 129 80
3 168 128 79
3 129 128 79
3 79 162 168
3 79 80 162
3 162 160 80
3 80 160 169
3 102 134 170
3 135 170 171
3 171 135 103
3 170 135 134
3 171 103 39
3 42 102 170
3 38 43 170
3 38 39 43
3 38 170 171
3 171 39 38
3 170 43 42
3 43 42 39
3 173 134 133
3 133 134 135
3 132 135 172
3 132 133 135
3 173 133 130
3 133 131 130
3 131 132 172
3 133 132 131
3 135 171 172
3 171 135 134
3 173 172 170
3 173 170 134
3 172 171 170
3 134 170 171
3 93 172 173
3 173 93 74
3 74 75 93
3 172 93 92
3 172 92 75
3 93 92 75
3 48 131 172
3 47 48 131
3 47 130 173
3 131 130 47
3 172 75 52
3 75 53 52
3 173 74 53
3 53 74 75
3 172 49 48
3 49 48 47
3 44 47 173
3 44 47 49
3 172 52 49
3 49 52 53
3 44 49 53
3 173 53 44
3 6 55 175
3 55 7 6
3 174 54 7
3 7 54 55
3 175 145 6
3 145 7 6
3 7 144 174
3 7 144 145
3 91 145 175
3 174 144 89
3 174 90 89
3 89 90 91
3 175 91 88
3 88 90 91
3 174 143 90
3 88 90 143
3 88 142 175
3 88 142 143
3 54 143 174
3 54 55 143
3 143 142 55
3 175 142 55
3 176 93 92
3 93 92 16
3 177 176 92
3 177 92 16
3 17 93 176
3 93 17 16
3 14 15 176
3 14 15 16
3 14 176 177
3 14 16 177
3 15 17 176
3 17 16 15
3 179 178 107
3 107 147 179
3 178 109 107
3 147 109 107
3 178 146 109
3 109 146 147
3 150 178 179
3 147 150 179
3 150 151 178
3 178 151 146
3 181 180 67
3 67 71 181
3 66 70 180
3 66 67 180
3 71 155 181
3 70 71 155
3 180 154 70
3 155 154 70
3 2 180 181
3 181 155 2
3 0 2 180
3 155 2 0
3 0 154 180
3 0 154 155
3 182 110 83
3 113 110 83
3 82 113 183
3 82 83 113
3 182 115 83
3 82 83 115
3 82 114 183
3 82 114 115
3 78 115 182
3 115 78 76
3 183 114 76
3 115 114 76
3 78 110 182
3 78 110 113
3 183 113 76
3 113 78 76
3 124 140 141
3 124 184 185
3 185 141 124
3 184 124 120
3 184 140 120
3 140 124 120
3 185 184 139
3 139 141 185
3 138 139 184
3 138 140 184
3 187 145 91
3 89 144 186
3 1 5 145
3 187 145 1
3 5 144 186
3 5 144 145
3 1 91 187
3 186 89 5
3 150 151 188
3 151 150 149
3 189 188 149
3 189 188 150
3 189 150 149
3 188 151 148
3 148 149 188
3 148 149 151
3 120 122 190
3 124 122 120
3 191 190 121
3 121 124 191
3 190 122 121
3 121 122 124
3 185 124 120
3 191 185 124
3 190 184 120
3 120 184 185
3 190 119 118
3 119 190 191
3 119 139 191
3 118 138 190
3 138 139 185
3 139 185 191
3 138 184 190
3 185 184 138
3 18 148 192
3 18 148 149
3 193 192 20
3 193 149 20
3 18 20 192
3 18 20 149
3 148 149 189
3 189 192 193
3 193 189 149
3 188 189 192
3 148 188 192
3 148 188 189
3 146 151 195
3 194 150 147
3 150 189 194
3 150 151 189
3 195 188 151
3 151 188 189
3 147 146 37
3 37 146 195
3 194 147 36
3 36 37 147
3 189 193 194
3 188 189 193
3 188 192 193
3 195 192 188
3 18 20 37
3 18 37 195
3 194 36 20
3 37 36 20
3 194 193 20
3 18 20 193
3 18 192 193
3 18 192 195
