ply
format ascii 1.0
comment Created by Open3D
element vertex 54
property double x
property double y
property double z
element face 168
property list uchar uint vertex_indices
end_header
490301 5.45373e+06 113.248
490302 5.45373e+06 113.248
490302 5.45373e+06 103.178
490302 5.45373e+06 103.178
490301 5.45373e+06 103.178
490302 5.45373e+06 113.248
490301 5.45373e+06 113.248
490301 5.45373e+06 103.178
490301 5.45373e+06 113.248
490301 5.45373e+06 103.178
490300 5.45373e+06 103.178
490300 5.45373e+06 113.248
490299 5.45373e+06 113.248
490299 5.45373e+06 113.248
490300 5.45373e+06 113.248
490299 5.45373e+06 103.178
490300 5.45373e+06 103.178
490299 5.45373e+06 103.178
490302 5.45373e+06 103.178
490302 5.45373e+06 113.248
490302 5.45373e+06 113.248
490302 5.45373e+06 103.178
490302 5.45373e+06 113.248
490302 5.45373e+06 103.178
490302 5.45373e+06 103.178
490302 5.45373e+06 113.248
490296 5.45373e+06 103.178
490294 5.45373e+06 103.178
490296 5.45374e+06 113.248
490296 5.45374e+06 103.178
490294 5.45373e+06 113.248
490296 5.45373e+06 113.248
490298 5.45373e+06 103.178
490298 5.45373e+06 113.248
490298 5.45373e+06 113.248
490299 5.45373e+06 103.178
490298 5.45373e+06 103.178
490299 5.45373e+06 113.248
490297 5.45374e+06 113.248
490297 5.45374e+06 103.178
490297 5.45373e+06 113.248
490297 5.45373e+06 103.178
490294 5.45373e+06 113.248
490294 5.45373e+06 103.178
490294 5.45373e+06 103.178
490294 5.45373e+06 113.248
490295 5.45373e+06 103.178
490295 5.45373e+06 113.248
490300 5.45373e+06 113.248
490300 5.45373e+06 103.178
490297 5.45373e+06 103.178
490297 5.45373e+06 113.248
490295 5.45373e+06 103.178
490295 5.45373e+06 113.248
3 0 1 3
3 3 2 1
3 0 3 4
3 4 3 2
3 5 1 0
3 1 2 5
3 6 5 0
3 6 5 2
3 7 4 2
3 2 6 7
3 8 6 0
3 9 7 4
3 0 4 10
3 10 9 4
3 11 8 0
3 11 10 0
3 12 13 14
3 12 13 15
3 12 15 17
3 17 16 15
3 11 12 14
3 10 16 17
3 17 12 4
3 17 10 4
3 4 10 11
3 12 11 0
3 12 4 0
3 11 4 0
3 19 3 1
3 18 19 20
3 1 19 20
3 18 19 21
3 3 18 21
3 3 19 21
3 3 4 18
3 1 3 4
3 0 18 20
3 0 1 20
3 0 4 18
3 0 1 4
3 23 21 19
3 22 23 24
3 24 23 21
3 25 22 19
3 25 23 22
3 25 23 19
3 22 20 19
3 21 20 19
3 24 21 18
3 21 20 18
3 0 20 22
3 0 4 20
3 4 18 20
3 24 18 4
3 17 22 24
3 24 17 4
3 0 4 17
3 22 12 0
3 22 17 12
3 17 12 0
3 29 27 26
3 27 28 29
3 26 27 30
3 30 28 27
3 26 30 31
3 28 30 31
3 32 29 26
3 33 32 26
3 33 31 26
3 28 31 33
3 15 35 36
3 15 35 37
3 13 34 37
3 37 15 13
3 17 34 36
3 36 17 15
3 13 15 17
3 34 13 12
3 12 17 34
3 12 13 17
3 32 34 36
3 36 35 32
3 37 34 33
3 32 33 34
3 33 37 38
3 39 38 35
3 32 35 39
3 38 37 35
3 38 29 28
3 29 38 39
3 29 32 39
3 28 33 38
3 40 25 23
3 23 24 25
3 41 40 23
3 41 24 23
3 40 25 22
3 22 24 25
3 17 24 41
3 24 17 12
3 40 22 12
3 12 22 24
3 41 36 17
3 12 17 36
3 12 34 40
3 12 34 36
3 32 33 40
3 32 33 36
3 32 40 41
3 32 36 41
3 40 34 33
3 36 34 33
3 27 42 43
3 27 43 44
3 27 44 45
3 45 42 30
3 27 30 42
3 45 30 27
3 46 43 42
3 46 44 43
3 46 45 44
3 47 46 42
3 42 45 47
3 45 46 47
3 48 14 13
3 15 16 49
3 9 10 49
3 8 11 48
3 11 14 48
3 49 16 10
3 48 13 6
3 6 13 15
3 7 15 49
3 15 7 6
3 6 8 48
3 49 9 7
3 25 31 51
3 23 25 31
3 23 26 50
3 31 26 23
3 50 41 23
3 41 25 23
3 25 40 41
3 51 40 25
3 31 33 51
3 33 32 31
3 50 32 26
3 32 31 26
3 50 41 32
3 32 33 41
3 41 40 33
3 33 40 51
3 27 30 31
3 53 52 31
3 53 31 30
3 26 31 52
3 52 27 26
3 31 27 26
3 52 43 27
3 27 30 43
3 30 42 53
3 43 42 30
3 52 47 46
3 52 46 43
3 47 46 43
3 47 43 42
3 47 52 53
3 53 47 42
