ply
format ascii 1.0
comment Created by Open3D
element vertex 190
property double x
property double y
property double z
element face 664
property list uchar uint vertex_indices
end_header
490308 5.45373e+06 112.704
490308 5.45373e+06 102.634
490308 5.45373e+06 102.634
490308 5.45373e+06 102.634
490308 5.45373e+06 112.704
490308 5.45373e+06 112.704
490307 5.45372e+06 102.634
490307 5.45372e+06 102.634
490307 5.45372e+06 112.704
490307 5.45372e+06 102.634
490307 5.45372e+06 112.704
490307 5.45372e+06 112.704
490308 5.45373e+06 112.704
490308 5.45373e+06 102.634
490308 5.45373e+06 102.634
490308 5.45373e+06 112.704
490308 5.45373e+06 102.634
490308 5.45373e+06 112.704
490308 5.45373e+06 112.704
490308 5.45373e+06 102.634
490308 5.45372e+06 112.704
490313 5.45373e+06 102.634
490308 5.45372e+06 102.634
490308 5.45372e+06 102.634
490308 5.45372e+06 112.704
490313 5.45373e+06 112.704
490322 5.45373e+06 112.704
490323 5.45373e+06 102.634
490323 5.45373e+06 112.704
490323 5.45373e+06 102.634
490322 5.45373e+06 102.634
490323 5.45373e+06 112.704
490309 5.45372e+06 112.704
490308 5.45372e+06 102.634
490308 5.45372e+06 102.634
490308 5.45372e+06 112.704
490309 5.45372e+06 102.634
490308 5.45372e+06 112.704
490309 5.45372e+06 112.704
490309 5.45372e+06 102.634
490307 5.45372e+06 112.704
490307 5.45372e+06 102.634
490312 5.45372e+06 102.634
490312 5.45372e+06 112.704
490307 5.45372e+06 102.634
490307 5.45372e+06 112.704
490307 5.45372e+06 112.704
490307 5.45372e+06 102.634
490307 5.45372e+06 102.634
490307 5.45372e+06 112.704
490308 5.45372e+06 112.704
490308 5.45372e+06 102.634
490308 5.45372e+06 112.704
490308 5.45372e+06 102.634
490308 5.45373e+06 102.634
490308 5.45373e+06 112.704
490309 5.45373e+06 112.704
490309 5.45373e+06 102.634
490309 5.45373e+06 102.634
490315 5.45373e+06 102.634
490315 5.45373e+06 112.704
490309 5.45373e+06 112.704
490315 5.45373e+06 102.634
490316 5.45373e+06 112.704
490315 5.45373e+06 112.704
490316 5.45373e+06 102.634
490311 5.45373e+06 112.704
490311 5.45373e+06 102.634
490311 5.45373e+06 102.634
490311 5.45373e+06 112.704
490310 5.45373e+06 102.634
490310 5.45373e+06 112.704
490321 5.45373e+06 112.704
490321 5.45373e+06 102.634
490321 5.45373e+06 102.634
490321 5.45373e+06 112.704
490323 5.45372e+06 102.634
490323 5.45372e+06 102.634
490318 5.45373e+06 112.704
490318 5.45373e+06 102.634
490323 5.45372e+06 112.704
490323 5.45372e+06 112.704
490323 5.45372e+06 112.704
490323 5.45372e+06 102.634
490315 5.45372e+06 112.704
490315 5.45372e+06 102.634
490310 5.45372e+06 102.634
490310 5.45372e+06 112.704
490314 5.45372e+06 102.634
490314 5.45372e+06 112.704
490314 5.45372e+06 102.634
490314 5.45372e+06 112.704
490308 5.45372e+06 102.634
490308 5.45372e+06 112.704
490317 5.45373e+06 102.634
490317 5.45373e+06 112.704
490314 5.45373e+06 102.634
490314 5.45373e+06 112.704
490317 5.45373e+06 112.704
490317 5.45373e+06 102.634
490319 5.45373e+06 112.704
490319 5.45373e+06 102.634
490308 5.45373e+06 112.704
490308 5.45373e+06 102.634
490308 5.45373e+06 102.634
490308 5.45373e+06 112.704
490310 5.45373e+06 102.634
490310 5.45373e+06 112.704
490314 5.45373e+06 102.634
490314 5.45373e+06 112.704
490323 5.45373e+06 102.634
490323 5.45373e+06 112.704
490323 5.45373e+06 112.704
490323 5.45373e+06 102.634
490311 5.45372e+06 102.634
490313 5.45372e+06 102.634
490313 5.45372e+06 112.704
490311 5.45372e+06 112.704
490308 5.45372e+06 112.704
490308 5.45372e+06 102.634
490320 5.45372e+06 112.704
490321 5.45372e+06 112.704
490321 5.45372e+06 102.634
490319 5.45372e+06 112.704
490319 5.45372e+06 102.634
490320 5.45372e+06 102.634
490321 5.45372e+06 102.634
490321 5.45372e+06 112.704
490322 5.45372e+06 112.704
490322 5.45372e+06 102.634
490321 5.45372e+06 102.634
490321 5.45372e+06 112.704
490318 5.45372e+06 102.634
490318 5.45372e+06 112.704
490320 5.45372e+06 102.634
490320 5.45372e+06 112.704
490321 5.45372e+06 102.634
490321 5.45372e+06 112.704
490320 5.45372e+06 112.704
490320 5.45372e+06 102.634
490312 5.45373e+06 112.704
490312 5.45373e+06 102.634
490312 5.45373e+06 112.704
490312 5.45373e+06 102.634
490316 5.45373e+06 102.634
490316 5.45373e+06 112.704
490320 5.45373e+06 112.704
490320 5.45373e+06 102.634
490309 5.45373e+06 102.634
490309 5.45373e+06 112.704
490315 5.45373e+06 102.634
490315 5.45373e+06 112.704
490323 5.45372e+06 112.704
490323 5.45372e+06 102.634
490323 5.45372e+06 112.704
490323 5.45372e+06 102.634
490315 5.45372e+06 102.634
490315 5.45372e+06 112.704
490313 5.45372e+06 112.704
490313 5.45372e+06 102.634
490311 5.45372e+06 102.634
490311 5.45372e+06 112.704
490307 5.45372e+06 102.634
490307 5.45372e+06 112.704
490317 5.45372e+06 112.704
490317 5.45372e+06 102.634
490323 5.45372e+06 102.634
490323 5.45372e+06 112.704
490313 5.45373e+06 112.704
490313 5.45373e+06 102.634
490310 5.45373e+06 102.634
490310 5.45373e+06 112.704
490316 5.45372e+06 102.634
490316 5.45372e+06 112.704
490313 5.45372e+06 112.704
490313 5.45372e+06 102.634
490323 5.45372e+06 112.704
490323 5.45372e+06 102.634
490323 5.45372e+06 112.704
490323 5.45372e+06 102.634
490323 5.45372e+06 112.704
490323 5.45372e+06 102.634
490323 5.45372e+06 102.634
490323 5.45372e+06 112.704
490316 5.45373e+06 112.704
490316 5.45373e+06 102.634
490318 5.45372e+06 112.704
490318 5.45372e+06 102.634
490317 5.45372e+06 112.704
490317 5.45372e+06 102.634
3 0 1 2
3 3 1 0
3 3 2 1
3 4 3 0
3 5 4 0
3 0 2 5
3 6 7 8
3 9 7 6
3 6 10 11
3 10 8 6
3 11 10 8
3 11 9 6
3 12 14 15
3 12 13 16
3 16 14 12
3 13 14 16
3 17 13 12
3 12 15 17
3 3 4 18
3 3 18 19
3 2 3 19
3 4 5 18
3 18 15 5
3 2 5 15
3 2 14 19
3 15 14 2
3 13 17 18
3 18 17 15
3 19 18 13
3 19 14 13
3 23 21 20
3 20 22 23
3 21 22 23
3 20 22 24
3 20 21 25
3 20 24 25
3 28 27 26
3 27 28 29
3 30 27 26
3 26 29 30
3 27 29 30
3 26 28 31
3 31 29 26
3 28 29 31
3 32 34 36
3 36 34 33
3 37 34 32
3 32 35 37
3 38 35 32
3 39 38 32
3 32 36 39
3 33 36 39
3 34 40 41
3 33 34 41
3 34 37 40
3 40 37 35
3 33 39 41
3 35 38 40
3 40 38 8
3 41 39 7
3 41 40 9
3 7 9 41
3 8 11 40
3 40 11 9
3 49 48 11
3 49 11 10
3 9 11 48
3 9 10 11
3 6 9 48
3 6 9 10
3 45 48 49
3 10 45 49
3 45 47 48
3 48 47 6
3 50 24 22
3 22 23 24
3 51 50 22
3 23 50 51
3 51 23 22
3 50 24 20
3 50 23 20
3 24 23 20
3 53 52 21
3 21 23 53
3 52 25 21
3 25 23 21
3 20 25 52
3 20 23 25
3 23 51 53
3 51 23 20
3 52 50 20
3 20 50 51
3 44 52 53
3 53 51 44
3 44 46 52
3 46 50 52
3 2 5 54
3 1 2 54
3 1 2 5
3 54 1 0
3 5 1 0
3 0 54 55
3 55 54 5
3 0 5 55
3 59 58 56
3 57 58 59
3 60 59 56
3 61 60 56
3 14 15 56
3 14 15 16
3 14 56 58
3 14 16 58
3 12 15 56
3 12 15 16
3 12 17 56
3 17 16 12
3 13 16 58
3 13 16 17
3 61 56 17
3 58 57 13
3 60 62 64
3 64 63 62
3 64 63 60
3 62 60 59
3 59 60 63
3 65 62 59
3 62 63 65
3 59 63 65
3 0 55 66
3 55 1 0
3 1 54 67
3 1 54 55
3 69 66 55
3 68 67 54
3 70 67 66
3 3 67 70
3 71 66 4
3 71 70 66
3 4 3 1
3 67 3 1
3 0 4 66
3 4 1 0
3 66 60 59
3 60 66 69
3 59 66 67
3 59 67 68
3 27 28 72
3 27 28 30
3 74 72 30
3 27 72 74
3 27 30 74
3 72 30 26
3 72 28 26
3 26 28 30
3 79 77 76
3 76 78 79
3 76 80 81
3 80 78 76
3 78 80 81
3 76 77 81
3 82 81 80
3 82 81 77
3 81 80 77
3 76 80 82
3 76 77 80
3 76 82 83
3 83 82 77
3 76 77 83
3 22 84 85
3 85 22 21
3 22 24 84
3 24 25 84
3 79 84 85
3 21 79 85
3 78 79 84
3 25 78 84
3 86 39 36
3 39 38 36
3 87 38 32
3 32 36 38
3 87 86 43
3 87 43 32
3 43 36 32
3 36 42 86
3 86 43 42
3 43 42 36
3 8 38 87
3 7 39 86
3 87 86 10
3 8 10 87
3 7 8 10
3 6 10 86
3 6 7 86
3 6 7 10
3 22 24 88
3 22 85 88
3 22 24 85
3 89 88 24
3 89 84 24
3 85 84 24
3 88 89 91
3 84 89 91
3 91 90 88
3 90 88 85
3 92 51 22
3 22 24 92
3 51 24 22
3 51 50 24
3 24 92 93
3 24 50 93
3 44 51 92
3 44 46 92
3 93 92 46
3 93 50 46
3 94 79 21
3 95 78 25
3 96 94 21
3 25 95 97
3 98 97 95
3 94 96 99
3 100 98 95
3 94 99 101
3 79 94 101
3 78 95 100
3 21 25 102
3 21 25 53
3 21 102 103
3 103 53 21
3 25 52 102
3 53 52 25
3 2 53 103
3 53 5 2
3 5 52 102
3 53 52 5
3 102 55 5
3 2 5 55
3 103 54 2
3 2 54 55
3 105 104 102
3 55 102 105
3 104 103 102
3 54 103 104
3 106 70 67
3 71 70 67
3 66 71 107
3 71 67 66
3 106 67 59
3 59 60 106
3 59 60 67
3 67 66 60
3 107 106 60
3 107 66 60
3 3 70 106
3 107 71 4
3 106 19 3
3 3 4 19
3 18 106 107
3 4 18 107
3 106 19 18
3 4 18 19
3 108 99 96
3 97 98 109
3 64 108 109
3 109 98 64
3 62 99 108
3 108 64 62
3 109 108 25
3 25 97 109
3 21 25 108
3 108 96 21
3 79 101 110
3 78 100 111
3 78 81 111
3 77 79 110
3 111 100 72
3 110 101 74
3 110 30 26
3 110 74 30
3 26 30 74
3 26 110 111
3 111 72 26
3 26 72 74
3 110 83 77
3 83 81 77
3 110 83 82
3 83 82 81
3 111 110 82
3 81 82 111
3 26 31 112
3 31 30 26
3 29 112 113
3 113 30 29
3 112 31 29
3 31 30 29
3 112 111 26
3 26 30 111
3 113 112 110
3 113 110 30
3 110 111 112
3 111 110 30
3 115 114 42
3 42 43 114
3 114 115 116
3 117 116 114
3 117 114 43
3 117 116 43
3 24 93 118
3 22 24 93
3 22 92 93
3 119 92 22
3 93 117 118
3 119 114 92
3 116 117 118
3 118 116 115
3 115 116 117
3 114 115 117
3 119 118 115
3 119 115 114
3 118 89 24
3 22 24 89
3 22 88 119
3 89 88 22
3 90 91 118
3 118 91 89
3 91 90 89
3 90 118 119
3 88 90 119
3 88 89 90
3 123 121 120
3 124 123 120
3 125 124 120
3 122 124 125
3 126 125 120
3 122 125 126
3 127 126 120
3 120 121 127
3 129 128 122
3 122 126 129
3 121 122 128
3 128 127 121
3 130 129 128
3 126 129 130
3 131 128 127
3 131 130 128
3 121 132 133
3 133 132 123
3 121 123 133
3 132 122 121
3 132 124 122
3 132 124 123
3 134 126 125
3 134 127 126
3 127 126 125
3 120 125 134
3 127 125 120
3 135 134 120
3 127 134 135
3 120 127 135
3 136 131 130
3 131 136 137
3 127 136 137
3 137 131 127
3 136 127 126
3 126 130 136
3 127 135 138
3 126 127 135
3 126 134 135
3 126 134 139
3 138 137 127
3 137 127 126
3 126 136 139
3 126 136 137
3 135 137 138
3 137 135 134
3 137 136 134
3 139 136 134
3 141 68 54
3 140 69 55
3 143 142 140
3 142 140 69
3 140 141 143
3 68 141 143
3 140 105 104
3 55 105 140
3 141 140 104
3 54 104 141
3 144 99 62
3 62 64 144
3 145 144 64
3 64 98 145
3 100 101 144
3 100 144 145
3 98 100 145
3 144 101 99
3 146 145 100
3 100 101 145
3 144 145 146
3 101 144 145
3 144 146 147
3 101 144 147
3 73 75 146
3 75 74 73
3 73 146 147
3 73 74 147
3 146 75 72
3 72 74 75
3 74 101 147
3 72 100 146
3 148 19 13
3 19 17 13
3 18 148 149
3 17 18 149
3 148 19 18
3 17 18 19
3 149 148 61
3 149 61 17
3 57 61 148
3 13 57 148
3 142 143 150
3 142 150 151
3 151 142 69
3 68 143 150
3 59 62 150
3 59 62 64
3 60 64 151
3 59 60 64
3 150 68 59
3 151 69 60
3 62 64 109
3 151 150 109
3 64 109 151
3 62 108 150
3 108 109 150
3 62 108 109
3 155 153 83
3 154 152 82
3 76 80 83
3 76 83 155
3 80 82 152
3 83 82 80
3 76 79 80
3 155 79 76
3 78 80 152
3 78 79 80
3 152 84 78
3 78 84 85
3 155 85 79
3 85 79 78
3 85 153 155
3 84 152 154
3 154 156 157
3 84 154 157
3 156 154 153
3 156 153 85
3 156 91 90
3 156 90 85
3 91 156 157
3 157 91 84
3 42 43 158
3 42 158 159
3 159 158 115
3 159 115 42
3 158 116 115
3 43 116 158
3 43 87 161
3 87 43 42
3 160 86 42
3 87 86 42
3 161 117 43
3 42 43 117
3 42 114 160
3 117 114 42
3 161 87 10
3 6 10 87
3 6 86 160
3 6 86 87
3 10 117 161
3 160 114 6
3 10 117 163
3 162 114 6
3 163 117 93
3 92 114 162
3 163 45 10
3 6 47 162
3 45 46 47
3 163 46 45
3 162 47 44
3 47 46 44
3 163 93 46
3 44 46 93
3 44 92 162
3 93 92 44
3 129 164 165
3 153 164 165
3 129 153 165
3 153 154 164
3 128 129 164
3 164 154 128
3 83 153 166
3 153 154 166
3 82 166 167
3 167 166 154
3 167 154 82
3 82 83 166
3 169 141 104
3 141 105 104
3 105 140 168
3 141 140 105
3 103 104 105
3 169 104 103
3 102 105 168
3 105 103 102
3 25 102 168
3 25 102 103
3 169 103 21
3 21 25 103
3 169 143 141
3 143 142 141
3 140 142 168
3 140 141 142
3 142 151 168
3 142 143 151
3 169 150 143
3 143 150 151
3 168 109 25
3 21 25 109
3 21 108 109
3 21 108 169
3 168 151 109
3 108 109 151
3 108 150 151
3 108 150 169
3 59 60 107
3 60 107 171
3 170 106 59
3 107 106 59
3 171 61 60
3 57 59 170
3 57 61 149
3 61 149 171
3 170 148 57
3 149 148 57
3 149 19 18
3 171 149 18
3 19 148 170
3 19 148 149
3 19 106 170
3 19 106 107
3 171 107 18
3 18 19 107
3 173 172 157
3 154 157 173
3 153 154 157
3 156 157 172
3 153 156 172
3 153 156 157
3 172 165 153
3 153 154 165
3 164 165 172
3 165 164 154
3 164 172 173
3 173 164 154
3 91 157 174
3 157 91 90
3 90 156 157
3 90 156 175
3 175 159 156
3 159 157 156
3 157 158 174
3 159 158 157
3 159 116 115
3 115 159 175
3 174 158 116
3 159 158 116
3 119 91 90
3 175 119 90
3 174 118 91
3 91 118 119
3 116 118 174
3 116 118 119
3 115 119 175
3 119 116 115
3 176 131 128
3 131 129 128
3 130 176 177
3 129 130 177
3 176 131 130
3 129 130 131
3 176 178 180
3 180 179 176
3 179 177 176
3 181 179 177
3 178 176 128
3 181 177 129
3 182 83 82
3 82 83 167
3 82 182 183
3 183 167 82
3 83 166 182
3 83 166 167
3 179 181 182
3 183 182 180
3 183 180 178
3 182 180 179
3 182 181 129
3 183 178 128
3 129 153 182
3 128 154 183
3 153 154 167
3 183 167 154
3 153 166 182
3 153 166 167
3 184 146 145
3 184 147 146
3 147 146 145
3 147 184 185
3 144 147 185
3 144 145 147
3 62 144 145
3 62 144 185
3 184 145 64
3 62 64 145
3 62 64 65
3 65 184 185
3 62 65 185
3 184 65 63
3 63 64 184
3 63 64 65
3 128 129 165
3 187 186 165
3 129 165 187
3 186 164 128
3 164 165 186
3 165 164 128
3 121 133 186
3 133 122 121
3 187 186 132
3 187 132 122
3 132 133 186
3 122 132 133
3 186 128 121
3 129 128 121
3 122 129 187
3 129 122 121
3 132 133 187
3 132 187 189
3 188 186 133
3 187 186 133
3 164 186 188
3 164 186 187
3 189 188 165
3 189 187 165
3 164 165 188
3 164 165 187
3 125 124 123
3 125 188 189
3 124 125 189
3 188 125 120
3 188 123 120
3 125 123 120
3 188 133 123
3 133 124 123
3 124 132 189
3 133 132 124
