ply
format ascii 1.0
comment Created by Open3D
element vertex 58
property double x
property double y
property double z
element face 168
property list uchar uint vertex_indices
end_header
490213 5.45373e+06 115.191
490214 5.45373e+06 115.191
490214 5.45373e+06 105.121
490214 5.45373e+06 105.121
490213 5.45373e+06 105.121
490214 5.45373e+06 115.191
490214 5.45373e+06 105.121
490214 5.45373e+06 115.191
490215 5.45373e+06 115.191
490215 5.45373e+06 105.121
490215 5.45374e+06 105.121
490216 5.45373e+06 105.121
490215 5.45374e+06 115.191
490216 5.45373e+06 115.191
490217 5.45373e+06 115.191
490217 5.45373e+06 105.121
490220 5.45373e+06 115.191
490220 5.45373e+06 105.121
490217 5.45373e+06 105.121
490217 5.45373e+06 105.121
490217 5.45373e+06 115.191
490217 5.45373e+06 115.191
490217 5.45373e+06 105.121
490217 5.45373e+06 105.121
490217 5.45373e+06 115.191
490217 5.45373e+06 115.191
490218 5.45373e+06 115.191
490218 5.45373e+06 105.121
490220 5.45373e+06 115.191
490220 5.45373e+06 105.121
490212 5.45373e+06 105.121
490214 5.45374e+06 115.191
490212 5.45373e+06 115.191
490214 5.45374e+06 105.121
490212 5.45373e+06 105.121
490212 5.45373e+06 115.191
490215 5.45374e+06 115.191
490214 5.45374e+06 105.121
490215 5.45374e+06 105.121
490214 5.45374e+06 115.191
490215 5.45374e+06 105.121
490215 5.45374e+06 115.191
490220 5.45373e+06 105.121
490220 5.45373e+06 115.191
490220 5.45373e+06 115.191
490220 5.45373e+06 115.191
490220 5.45373e+06 105.121
490220 5.45373e+06 105.121
490220 5.45373e+06 115.191
490220 5.45373e+06 105.121
490212 5.45373e+06 115.191
490212 5.45373e+06 105.121
490217 5.45373e+06 115.191
490217 5.45373e+06 105.121
490220 5.45373e+06 115.191
490220 5.45373e+06 105.121
490220 5.45373e+06 105.121
490220 5.45373e+06 115.191
3 2 1 0
3 0 2 4
3 4 3 2
3 5 1 0
3 6 4 0
3 6 4 3
3 7 5 0
3 7 6 0
3 2 3 9
3 1 5 8
3 11 10 9
3 13 12 8
3 1 8 12
3 2 9 10
3 9 8 6
3 9 6 3
3 5 7 8
3 8 7 6
3 14 13 8
3 15 11 9
3 16 14 8
3 8 9 17
3 9 15 17
3 17 16 8
3 20 19 18
3 18 20 21
3 21 20 12
3 10 18 19
3 12 13 21
3 10 11 18
3 11 15 18
3 14 18 21
3 13 14 21
3 18 15 14
3 24 23 22
3 19 22 23
3 25 24 22
3 25 24 20
3 19 20 21
3 21 22 25
3 20 21 25
3 22 21 18
3 22 19 18
3 21 19 18
3 26 24 20
3 26 20 19
3 27 26 19
3 19 23 27
3 24 26 28
3 26 28 29
3 29 27 26
3 23 27 29
3 1 31 32
3 33 30 2
3 30 33 34
3 31 33 34
3 35 32 30
3 35 32 31
3 30 34 35
3 31 34 35
3 30 4 2
3 1 2 4
3 0 30 32
3 0 1 32
3 0 4 30
3 4 1 0
3 39 38 37
3 37 38 40
3 41 39 36
3 38 39 41
3 37 33 31
3 33 37 40
3 31 36 39
3 39 37 31
3 36 31 1
3 40 33 2
3 10 12 38
3 10 38 40
3 41 36 12
3 12 38 41
3 1 12 36
3 2 10 40
3 27 29 42
3 28 29 42
3 27 28 29
3 42 27 26
3 28 27 26
3 43 42 26
3 28 42 43
3 43 28 26
3 43 44 45
3 46 45 44
3 43 45 46
3 42 44 47
3 47 46 44
3 42 46 47
3 42 43 44
3 42 43 46
3 27 20 19
3 19 27 49
3 48 26 20
3 20 26 27
3 48 20 12
3 49 48 10
3 10 19 49
3 48 12 10
3 48 43 26
3 43 27 26
3 43 42 27
3 27 42 49
3 47 48 49
3 42 47 49
3 42 43 47
3 48 44 43
3 48 47 44
3 43 44 47
3 50 7 0
3 7 4 0
3 6 50 51
3 4 6 51
3 6 7 50
3 7 6 4
3 32 35 50
3 50 35 34
3 32 34 35
3 51 50 34
3 51 34 30
3 30 32 34
3 0 32 50
3 0 4 32
3 4 30 32
3 51 30 4
3 25 22 18
3 18 22 53
3 52 25 21
3 25 21 18
3 52 21 14
3 14 15 21
3 15 18 53
3 21 18 15
3 14 16 52
3 53 17 15
3 16 25 52
3 53 22 17
3 54 28 24
3 29 54 55
3 23 29 55
3 54 29 28
3 25 23 22
3 22 23 55
3 24 25 54
3 25 24 23
3 55 54 17
3 17 22 55
3 54 25 16
3 16 17 54
3 16 54 55
3 16 56 57
3 16 54 57
3 17 55 56
3 16 17 56
3 16 17 55
3 56 55 29
3 56 29 28
3 28 29 55
3 57 56 28
3 57 54 28
3 28 54 55
