ply
format ascii 1.0
comment Created by Open3D
element vertex 154
property double x
property double y
property double z
element face 572
property list uchar uint vertex_indices
end_header
490268 5.45378e+06 103.755
490268 5.45378e+06 113.826
490267 5.45378e+06 113.826
490267 5.45378e+06 113.826
490267 5.45378e+06 103.755
490267 5.45378e+06 103.755
490268 5.45377e+06 113.826
490270 5.45377e+06 113.826
490267 5.45378e+06 103.755
490270 5.45377e+06 103.755
490268 5.45377e+06 103.755
490267 5.45378e+06 113.826
490271 5.45377e+06 103.755
490271 5.45377e+06 113.826
490272 5.45377e+06 113.826
490272 5.45377e+06 103.755
490283 5.45377e+06 103.755
490283 5.45377e+06 113.826
490284 5.45378e+06 103.755
490283 5.45377e+06 103.755
490284 5.45378e+06 113.826
490283 5.45377e+06 113.826
490276 5.45377e+06 113.826
490276 5.45377e+06 103.755
490275 5.45377e+06 103.755
490273 5.45377e+06 103.755
490273 5.45377e+06 113.826
490275 5.45377e+06 113.826
490273 5.45377e+06 103.755
490273 5.45377e+06 113.826
490271 5.45377e+06 103.755
490271 5.45377e+06 113.826
490277 5.45377e+06 113.826
490277 5.45377e+06 103.755
490270 5.45377e+06 113.826
490270 5.45377e+06 103.755
490278 5.45377e+06 103.755
490278 5.45377e+06 113.826
490267 5.45378e+06 113.826
490267 5.45378e+06 103.755
490267 5.45378e+06 113.826
490267 5.45378e+06 103.755
490273 5.45378e+06 113.826
490273 5.45378e+06 103.755
490283 5.45378e+06 113.826
490283 5.45378e+06 103.755
490272 5.45378e+06 103.755
490272 5.45378e+06 113.826
490275 5.45378e+06 113.826
490275 5.45378e+06 103.755
490279 5.45377e+06 113.826
490282 5.45377e+06 103.755
490279 5.45377e+06 103.755
490280 5.45377e+06 103.755
490280 5.45377e+06 113.826
490282 5.45377e+06 113.826
490283 5.45377e+06 103.755
490283 5.45377e+06 113.826
490283 5.45378e+06 113.826
490279 5.45378e+06 103.755
490284 5.45378e+06 103.755
490283 5.45378e+06 103.755
490284 5.45378e+06 113.826
490279 5.45378e+06 113.826
490283 5.45377e+06 113.826
490283 5.45377e+06 103.755
490270 5.45377e+06 113.826
490270 5.45377e+06 103.755
490272 5.45378e+06 113.826
490272 5.45378e+06 103.755
490272 5.45377e+06 113.826
490272 5.45377e+06 103.755
490284 5.45378e+06 103.755
490284 5.45378e+06 113.826
490284 5.45378e+06 113.826
490284 5.45378e+06 103.755
490284 5.45378e+06 113.826
490284 5.45378e+06 103.755
490284 5.45378e+06 103.755
490284 5.45378e+06 113.826
490282 5.45378e+06 103.755
490282 5.45378e+06 113.826
490284 5.45378e+06 103.755
490284 5.45378e+06 113.826
490280 5.45378e+06 103.755
490280 5.45378e+06 113.826
490279 5.45378e+06 113.826
490279 5.45378e+06 103.755
490279 5.45378e+06 103.755
490279 5.45378e+06 113.826
490277 5.45378e+06 103.755
490276 5.45378e+06 113.826
490275 5.45378e+06 113.826
490276 5.45378e+06 103.755
490277 5.45378e+06 113.826
490275 5.45378e+06 103.755
490278 5.45378e+06 113.826
490278 5.45378e+06 103.755
490282 5.45377e+06 103.755
490282 5.45377e+06 113.826
490283 5.45377e+06 113.826
490283 5.45377e+06 103.755
490282 5.45377e+06 103.755
490282 5.45377e+06 113.826
490283 5.45377e+06 103.755
490283 5.45377e+06 113.826
490283 5.45377e+06 103.755
490283 5.45377e+06 113.826
490283 5.45377e+06 113.826
490283 5.45377e+06 103.755
490279 5.45377e+06 103.755
490279 5.45377e+06 113.826
490277 5.45377e+06 103.755
490277 5.45377e+06 113.826
490267 5.45378e+06 103.755
490267 5.45378e+06 113.826
490271 5.45378e+06 113.826
490270 5.45378e+06 103.755
490271 5.45378e+06 103.755
490270 5.45378e+06 113.826
490276 5.45378e+06 113.826
490276 5.45378e+06 103.755
490283 5.45377e+06 103.755
490283 5.45377e+06 113.826
490284 5.45378e+06 113.826
490284 5.45378e+06 103.755
490278 5.45378e+06 113.826
490278 5.45378e+06 103.755
490282 5.45377e+06 103.755
490282 5.45377e+06 113.826
490282 5.45377e+06 113.826
490282 5.45377e+06 103.755
490272 5.45378e+06 113.826
490272 5.45378e+06 103.755
490282 5.45378e+06 103.755
490282 5.45378e+06 113.826
490268 5.45378e+06 103.755
490268 5.45378e+06 113.826
490268 5.45378e+06 113.826
490268 5.45378e+06 103.755
490267 5.45378e+06 113.826
490267 5.45378e+06 103.755
490267 5.45378e+06 113.826
490267 5.45378e+06 103.755
490267 5.45378e+06 103.755
490267 5.45378e+06 113.826
490276 5.45378e+06 113.826
490276 5.45378e+06 103.755
490284 5.45378e+06 103.755
490284 5.45378e+06 113.826
490284 5.45378e+06 113.826
490284 5.45378e+06 103.755
490267 5.45378e+06 103.755
490267 5.45378e+06 113.826
3 2 1 0
3 0 1 3
3 3 2 1
3 0 3 4
3 2 3 4
3 5 2 0
3 0 4 5
3 2 4 5
3 6 7 9
3 9 8 7
3 6 8 10
3 6 9 10
3 8 9 10
3 6 7 11
3 11 8 6
3 7 8 11
3 2 5 6
3 1 2 6
3 1 2 5
3 5 1 0
3 5 6 10
3 0 5 10
3 12 10 6
3 0 10 12
3 1 6 13
3 6 12 13
3 15 14 0
3 15 14 12
3 0 12 15
3 14 1 0
3 14 13 1
3 12 13 14
3 16 17 19
3 16 18 19
3 20 18 16
3 21 20 16
3 21 17 16
3 17 20 21
3 17 21 22
3 17 19 22
3 21 19 17
3 23 22 16
3 23 22 19
3 16 19 23
3 22 21 16
3 21 19 16
3 22 23 24
3 25 23 22
3 25 24 23
3 22 26 27
3 26 25 22
3 27 24 22
3 29 28 26
3 29 27 26
3 25 26 28
3 24 25 28
3 15 24 28
3 14 27 29
3 0 15 28
3 28 1 0
3 15 1 0
3 1 14 15
3 1 28 29
3 1 14 29
3 32 31 30
3 27 30 31
3 32 31 27
3 30 32 33
3 24 30 33
3 30 27 24
3 7 31 34
3 34 9 7
3 31 9 7
3 35 34 9
3 35 30 9
3 31 30 9
3 34 31 13
3 34 13 12
3 35 34 12
3 12 30 35
3 6 11 38
3 38 10 6
3 11 10 6
3 10 38 39
3 8 38 39
3 39 10 8
3 8 11 38
3 11 10 8
3 40 1 0
3 4 1 0
3 41 40 0
3 41 40 4
3 0 4 41
3 1 3 40
3 3 4 40
3 1 3 4
3 42 29 26
3 29 26 25
3 42 29 28
3 29 28 25
3 43 42 28
3 25 28 43
3 44 42 26
3 45 43 42
3 25 43 45
3 42 44 45
3 47 46 42
3 48 47 46
3 48 47 42
3 46 48 49
3 43 46 49
3 46 43 42
3 52 51 50
3 50 52 53
3 51 52 53
3 50 53 54
3 50 51 55
3 50 54 55
3 56 23 16
3 16 21 23
3 56 23 22
3 23 22 21
3 57 56 22
3 21 22 57
3 57 56 20
3 20 21 57
3 18 20 56
3 18 20 21
3 16 18 56
3 21 18 16
3 22 57 64
3 64 23 22
3 57 23 22
3 64 57 56
3 23 56 57
3 56 64 65
3 23 64 65
3 23 56 65
3 67 12 10
3 13 12 10
3 66 13 6
3 13 10 6
3 67 35 12
3 35 13 12
3 66 34 13
3 13 34 35
3 67 10 9
3 10 9 7
3 66 7 6
3 6 7 10
3 9 35 67
3 35 9 7
3 66 34 7
3 35 34 7
3 42 47 68
3 68 43 42
3 47 43 42
3 43 46 47
3 69 68 43
3 69 46 43
3 47 48 68
3 48 49 68
3 47 48 49
3 46 47 49
3 69 68 49
3 69 49 46
3 12 13 15
3 71 15 12
3 13 14 70
3 13 14 15
3 71 24 15
3 14 27 70
3 70 31 13
3 12 30 71
3 27 31 70
3 31 27 24
3 71 30 24
3 24 30 31
3 20 72 73
3 17 20 73
3 18 19 72
3 72 20 18
3 19 23 72
3 23 19 17
3 23 22 17
3 73 22 17
3 23 25 72
3 26 25 23
3 22 23 26
3 73 26 22
3 73 72 44
3 73 44 26
3 72 45 44
3 25 45 72
3 74 73 20
3 74 20 18
3 73 20 18
3 75 74 18
3 18 72 75
3 18 72 73
3 74 45 44
3 44 73 74
3 73 45 44
3 73 72 45
3 45 74 75
3 75 72 45
3 76 77 78
3 78 77 61
3 79 77 76
3 79 76 58
3 80 78 76
3 80 78 61
3 58 76 81
3 76 80 81
3 80 81 82
3 82 80 78
3 78 80 81
3 81 78 76
3 83 82 81
3 76 81 83
3 82 75 74
3 82 78 75
3 78 75 74
3 83 82 74
3 74 76 83
3 74 76 78
3 59 63 84
3 84 61 59
3 59 61 63
3 84 61 58
3 58 61 63
3 85 84 58
3 85 84 63
3 58 63 85
3 85 84 81
3 85 84 44
3 44 81 85
3 84 45 44
3 84 81 80
3 84 80 45
3 86 85 63
3 86 63 59
3 85 63 59
3 86 85 84
3 85 84 59
3 84 86 87
3 59 86 87
3 87 84 59
3 88 63 59
3 88 87 59
3 59 63 87
3 86 87 88
3 87 86 63
3 86 88 89
3 63 88 89
3 89 86 63
3 90 91 93
3 90 91 94
3 94 92 90
3 94 92 91
3 95 92 90
3 95 93 90
3 96 89 63
3 96 63 59
3 89 63 59
3 96 89 88
3 89 88 59
3 97 96 88
3 97 96 59
3 97 88 59
3 98 53 51
3 98 54 53
3 99 98 55
3 54 98 99
3 99 55 54
3 51 55 98
3 103 102 100
3 101 102 103
3 100 101 104
3 104 102 100
3 104 102 101
3 105 101 100
3 105 103 100
3 105 103 101
3 106 101 65
3 107 106 64
3 64 105 107
3 106 65 64
3 106 104 101
3 101 104 105
3 107 105 100
3 105 104 100
3 51 104 106
3 51 55 106
3 107 106 55
3 55 100 107
3 109 52 51
3 55 52 51
3 50 55 108
3 50 52 55
3 55 107 108
3 107 55 51
3 107 106 51
3 51 106 109
3 110 109 108
3 52 109 110
3 111 110 108
3 52 110 111
3 50 108 111
3 111 52 50
3 108 107 64
3 108 65 64
3 107 65 64
3 109 108 65
3 109 106 65
3 65 106 107
3 36 110 112
3 36 37 110
3 113 111 37
3 111 110 37
3 112 110 109
3 109 110 111
3 113 111 108
3 111 109 108
3 37 33 32
3 113 37 32
3 33 36 112
3 37 36 33
3 112 109 65
3 109 65 64
3 64 108 109
3 113 108 64
3 65 64 22
3 113 64 22
3 112 65 23
3 65 23 22
3 113 32 27
3 24 33 112
3 27 23 22
3 22 27 113
3 23 24 112
3 23 24 27
3 38 39 114
3 39 38 6
3 115 114 38
3 115 38 6
3 114 39 10
3 39 10 6
3 10 6 2
3 2 114 115
3 115 6 2
3 2 5 114
3 114 10 5
3 2 5 10
3 118 117 116
3 0 117 118
3 116 117 119
3 1 116 119
3 1 29 116
3 29 1 0
3 29 28 0
3 118 28 0
3 118 43 28
3 43 29 28
3 29 42 116
3 29 42 43
3 118 116 69
3 118 69 43
3 69 43 42
3 42 68 116
3 68 69 116
3 69 68 42
3 48 92 120
3 92 95 120
3 95 92 48
3 121 120 95
3 121 95 49
3 95 49 48
3 42 48 120
3 120 43 42
3 43 120 121
3 121 49 43
3 105 101 20
3 20 105 123
3 18 101 122
3 18 20 101
3 122 56 18
3 57 56 18
3 123 57 20
3 57 20 18
3 122 101 65
3 123 105 64
3 122 65 56
3 65 57 56
3 123 64 57
3 65 64 57
3 79 78 77
3 78 124 125
3 125 78 77
3 76 79 124
3 124 78 76
3 79 78 76
3 124 62 60
3 62 61 60
3 125 124 60
3 60 61 125
3 58 62 124
3 58 61 62
3 61 77 125
3 124 79 58
3 84 87 127
3 87 85 84
3 85 86 126
3 87 86 85
3 86 89 126
3 86 87 89
3 87 88 127
3 89 88 87
3 88 97 127
3 97 89 88
3 89 96 126
3 97 96 89
3 127 97 90
3 90 94 97
3 126 96 94
3 94 96 97
3 43 45 127
3 45 44 43
3 42 44 126
3 44 43 42
3 44 85 126
3 85 45 44
3 45 84 85
3 45 84 127
3 127 93 43
3 126 91 42
3 126 94 91
3 94 93 91
3 94 93 90
3 90 93 127
3 103 54 53
3 129 128 103
3 129 103 54
3 102 103 128
3 53 102 128
3 53 102 103
3 99 54 53
3 129 128 99
3 129 99 54
3 98 99 128
3 53 98 128
3 53 98 99
3 104 103 102
3 102 104 131
3 100 103 130
3 104 103 100
3 103 129 130
3 102 103 129
3 131 128 102
3 102 128 129
3 99 129 130
3 98 99 129
3 98 128 129
3 98 128 131
3 55 99 130
3 51 55 99
3 51 98 131
3 51 98 99
3 131 104 51
3 130 100 55
3 48 49 132
3 69 49 48
3 133 132 49
3 49 69 133
3 132 68 48
3 69 68 48
3 118 132 133
3 69 118 133
3 68 69 118
3 132 116 68
3 132 118 116
3 118 116 68
3 85 81 80
3 135 85 81
3 80 84 134
3 80 84 85
3 135 81 58
3 61 80 134
3 134 84 61
3 85 84 61
3 135 85 58
3 58 61 85
3 40 41 136
3 1 40 41
3 40 136 137
3 1 40 137
3 0 41 136
3 41 1 0
3 138 137 136
3 119 137 138
3 139 138 136
3 117 136 139
3 137 119 1
3 136 117 0
3 140 138 119
3 140 119 117
3 141 140 117
3 117 139 141
3 143 142 140
3 142 143 144
3 140 141 143
3 144 143 141
3 140 142 145
3 142 144 145
3 144 141 139
3 138 140 145
3 121 43 42
3 43 121 147
3 146 120 42
3 121 120 42
3 147 93 43
3 42 91 146
3 91 92 146
3 147 95 93
3 121 95 92
3 147 121 95
3 92 120 146
3 121 120 92
3 148 75 74
3 83 75 74
3 149 148 74
3 149 83 74
3 75 82 148
3 75 82 83
3 80 81 148
3 80 81 83
3 149 148 81
3 81 83 149
3 148 82 80
3 83 82 80
3 150 74 44
3 75 74 44
3 45 75 151
3 75 45 44
3 150 149 74
3 149 75 74
3 75 148 151
3 75 148 149
3 45 80 151
3 44 81 150
3 81 149 150
3 80 81 149
3 149 148 80
3 80 148 151
3 4 144 152
3 144 4 3
3 153 145 3
3 145 144 3
3 3 40 41
3 3 40 153
3 152 41 4
3 3 4 41
3 40 41 137
3 40 137 153
3 152 136 41
3 41 136 137
3 138 145 153
3 152 144 139
3 137 138 139
3 137 138 153
3 152 139 136
3 139 137 136
