ply
format ascii 1.0
comment Created by Open3D
element vertex 120
property double x
property double y
property double z
element face 408
property list uchar uint vertex_indices
end_header
490202 5.45376e+06 115.018
490202 5.45376e+06 115.018
490202 5.45376e+06 104.947
490202 5.45376e+06 104.947
490202 5.45376e+06 104.947
490202 5.45376e+06 115.018
490202 5.45376e+06 115.018
490202 5.45376e+06 104.947
490207 5.45377e+06 115.018
490206 5.45377e+06 115.018
490209 5.45376e+06 115.018
490209 5.45376e+06 104.947
490206 5.45377e+06 104.947
490207 5.45377e+06 104.947
490202 5.45376e+06 115.018
490202 5.45376e+06 104.947
490209 5.45376e+06 104.947
490209 5.45376e+06 115.018
490202 5.45376e+06 104.947
490202 5.45376e+06 115.018
490210 5.45376e+06 104.947
490210 5.45376e+06 115.018
490210 5.45376e+06 115.018
490210 5.45376e+06 104.947
490210 5.45376e+06 104.947
490210 5.45376e+06 115.018
490210 5.45377e+06 104.947
490210 5.45377e+06 115.018
490202 5.45376e+06 115.018
490203 5.45376e+06 104.947
490203 5.45376e+06 115.018
490202 5.45376e+06 104.947
490202 5.45376e+06 104.947
490202 5.45376e+06 115.018
490206 5.45376e+06 104.947
490206 5.45376e+06 115.018
490202 5.45376e+06 115.018
490202 5.45376e+06 104.947
490202 5.45376e+06 115.018
490202 5.45377e+06 104.947
490202 5.45377e+06 115.018
490202 5.45376e+06 104.947
490208 5.45377e+06 104.947
490205 5.45377e+06 115.018
490208 5.45377e+06 115.018
490205 5.45377e+06 104.947
490204 5.45376e+06 115.018
490204 5.45376e+06 104.947
490208 5.45376e+06 104.947
490208 5.45376e+06 115.018
490209 5.45376e+06 115.018
490209 5.45376e+06 115.018
490209 5.45376e+06 104.947
490209 5.45376e+06 104.947
490209 5.45376e+06 104.947
490209 5.45376e+06 115.018
490206 5.45377e+06 115.018
490206 5.45377e+06 104.947
490202 5.45376e+06 115.018
490202 5.45376e+06 104.947
490202 5.45376e+06 104.947
490202 5.45376e+06 115.018
490202 5.45376e+06 115.018
490202 5.45376e+06 104.947
490204 5.45377e+06 115.018
490204 5.45377e+06 104.947
490202 5.45377e+06 104.947
490202 5.45377e+06 115.018
490203 5.45377e+06 115.018
490203 5.45377e+06 104.947
490209 5.45377e+06 104.947
490210 5.45377e+06 104.947
490209 5.45377e+06 104.947
490210 5.45377e+06 115.018
490209 5.45377e+06 115.018
490209 5.45377e+06 115.018
490210 5.45377e+06 115.018
490210 5.45377e+06 104.947
490205 5.45376e+06 115.018
490205 5.45376e+06 104.947
490208 5.45376e+06 115.018
490208 5.45376e+06 104.947
490209 5.45376e+06 104.947
490209 5.45376e+06 115.018
490209 5.45376e+06 115.018
490209 5.45376e+06 104.947
490202 5.45376e+06 104.947
490203 5.45376e+06 104.947
490203 5.45376e+06 115.018
490202 5.45376e+06 115.018
490203 5.45376e+06 115.018
490203 5.45376e+06 104.947
490205 5.45377e+06 115.018
490205 5.45377e+06 104.947
490209 5.45377e+06 115.018
490209 5.45377e+06 104.947
490205 5.45376e+06 115.018
490205 5.45376e+06 104.947
490202 5.45376e+06 104.947
490202 5.45376e+06 115.018
490203 5.45377e+06 115.018
490203 5.45377e+06 104.947
490205 5.45377e+06 115.018
490205 5.45377e+06 115.018
490205 5.45377e+06 104.947
490205 5.45377e+06 104.947
490210 5.45376e+06 104.947
490210 5.45376e+06 115.018
490206 5.45376e+06 104.947
490206 5.45376e+06 115.018
490207 5.45376e+06 115.018
490207 5.45376e+06 104.947
490207 5.45376e+06 115.018
490207 5.45376e+06 104.947
490205 5.45377e+06 104.947
490205 5.45377e+06 115.018
490204 5.45377e+06 115.018
490204 5.45377e+06 104.947
490207 5.45376e+06 115.018
490207 5.45376e+06 104.947
3 0 1 2
3 3 2 1
3 0 2 4
3 4 3 0
3 2 3 4
3 5 1 0
3 0 3 5
3 5 3 1
3 3 5 6
3 5 4 3
3 7 6 4
3 3 6 7
3 7 4 3
3 6 5 0
3 6 4 0
3 5 4 0
3 8 9 10
3 8 10 11
3 12 9 8
3 13 12 8
3 8 11 13
3 13 12 11
3 14 15 16
3 11 15 16
3 17 14 10
3 14 16 17
3 18 15 14
3 18 15 11
3 14 18 19
3 10 14 19
3 20 17 16
3 11 16 20
3 21 20 17
3 21 17 10
3 20 13 11
3 13 11 10
3 20 13 8
3 8 10 13
3 21 20 8
3 8 10 21
3 24 23 13
3 8 22 25
3 8 21 22
3 21 13 8
3 20 21 22
3 13 20 21
3 20 22 24
3 13 20 24
3 26 24 22
3 23 24 26
3 27 25 22
3 22 26 27
3 30 29 28
3 31 29 28
3 4 29 31
3 30 28 0
3 1 2 28
3 1 2 4
3 31 28 2
3 2 4 31
3 28 1 0
3 4 1 0
3 32 7 3
3 3 5 32
3 3 5 7
3 7 6 5
3 33 32 5
3 33 6 5
3 7 32 34
3 32 33 35
3 6 33 35
3 35 34 32
3 37 18 3
3 5 19 36
3 36 33 5
3 3 5 33
3 3 32 37
3 3 32 33
3 15 18 37
3 15 18 19
3 36 19 14
3 19 15 14
3 37 34 15
3 14 35 36
3 36 35 33
3 33 34 35
3 32 33 34
3 32 34 37
3 41 38 18
3 3 38 41
3 41 18 3
3 3 5 38
3 38 19 18
3 5 19 38
3 46 4 0
3 0 30 46
3 47 46 29
3 4 46 47
3 47 29 4
3 46 30 29
3 53 51 50
3 53 52 51
3 54 52 50
3 54 53 50
3 52 53 54
3 50 51 55
3 50 52 55
3 55 52 51
3 57 56 45
3 57 45 12
3 56 43 9
3 56 45 43
3 13 12 9
3 13 56 57
3 12 13 57
3 8 13 56
3 56 9 8
3 13 9 8
3 60 59 58
3 41 58 59
3 41 59 60
3 61 58 38
3 58 41 38
3 61 60 58
3 59 58 12
3 59 58 45
3 12 45 59
3 9 12 58
3 9 43 58
3 43 45 58
3 39 40 62
3 41 40 39
3 39 62 63
3 63 41 39
3 62 40 38
3 38 40 41
3 62 61 38
3 60 61 62
3 63 62 60
3 41 60 63
3 63 65 66
3 64 65 66
3 64 66 67
3 62 64 67
3 69 68 66
3 40 68 69
3 68 67 66
3 40 67 68
3 69 66 39
3 39 40 69
3 39 63 66
3 39 40 63
3 40 62 63
3 40 62 67
3 70 71 72
3 73 71 70
3 71 72 73
3 70 74 75
3 70 73 74
3 73 74 75
3 70 72 75
3 75 73 72
3 26 71 73
3 77 76 26
3 26 71 77
3 27 73 76
3 76 27 26
3 73 27 26
3 73 74 76
3 74 73 71
3 77 76 70
3 70 71 77
3 70 74 76
3 70 71 74
3 79 78 7
3 34 78 79
3 7 34 79
3 6 7 78
3 78 35 6
3 34 35 78
3 49 51 80
3 48 49 80
3 48 49 51
3 48 80 81
3 81 53 48
3 48 51 53
3 51 53 54
3 81 80 54
3 53 54 81
3 50 54 80
3 80 51 50
3 54 51 50
3 54 84 85
3 52 54 85
3 55 54 52
3 50 55 84
3 84 54 50
3 50 54 55
3 84 83 55
3 52 55 83
3 83 82 52
3 52 82 85
3 34 84 85
3 15 34 85
3 84 35 14
3 34 35 84
3 85 16 15
3 15 16 17
3 14 17 84
3 14 15 17
3 17 83 84
3 83 17 16
3 16 82 83
3 85 82 16
3 88 87 86
3 2 86 87
3 2 87 88
3 89 88 86
3 1 88 89
3 1 2 88
3 1 28 31
3 1 28 89
3 86 31 2
3 1 2 31
3 29 31 86
3 86 30 29
3 29 30 31
3 30 86 89
3 28 30 89
3 31 30 28
3 90 89 88
3 90 88 87
3 89 88 87
3 89 87 86
3 91 90 87
3 91 87 86
3 90 89 30
3 90 30 29
3 89 30 29
3 89 86 29
3 29 90 91
3 29 86 91
3 60 92 93
3 93 63 60
3 60 61 92
3 60 61 63
3 61 62 92
3 61 62 63
3 65 92 93
3 93 65 63
3 62 64 92
3 92 65 64
3 44 75 94
3 75 72 44
3 42 44 94
3 42 44 72
3 42 94 95
3 42 72 95
3 94 75 74
3 75 74 72
3 95 72 70
3 74 72 70
3 77 94 95
3 70 77 95
3 77 74 70
3 76 77 94
3 94 76 74
3 77 76 74
3 97 96 34
3 97 79 34
3 34 35 96
3 34 35 79
3 35 78 96
3 35 78 79
3 7 79 97
3 6 7 79
3 96 78 6
3 6 78 79
3 7 4 0
3 4 7 97
3 96 6 0
3 7 6 0
3 47 4 0
3 47 96 97
3 4 47 97
3 96 47 46
3 96 46 0
3 47 46 0
3 98 41 18
3 18 19 41
3 99 38 19
3 41 38 19
3 41 59 98
3 59 41 38
3 99 58 38
3 59 58 38
3 99 19 10
3 98 18 11
3 11 12 98
3 99 10 9
3 98 59 12
3 59 12 9
3 9 58 99
3 59 58 9
3 100 68 67
3 100 69 68
3 69 68 67
3 101 100 66
3 69 100 101
3 66 69 101
3 100 67 66
3 69 67 66
3 64 102 103
3 105 104 65
3 102 64 43
3 43 64 65
3 45 65 104
3 65 45 43
3 59 45 43
3 104 59 45
3 43 58 102
3 59 58 43
3 103 102 58
3 59 104 105
3 77 76 27
3 27 76 107
3 26 77 106
3 77 27 26
3 25 27 107
3 23 26 106
3 106 95 77
3 76 77 95
3 76 94 107
3 76 94 95
3 95 94 44
3 107 94 44
3 42 95 106
3 42 44 95
3 44 13 8
3 107 44 8
3 13 42 106
3 44 42 13
3 8 25 107
3 13 23 106
3 34 35 108
3 108 85 34
3 34 35 85
3 109 108 84
3 109 108 35
3 109 84 35
3 84 85 108
3 85 84 35
3 113 111 48
3 49 110 112
3 110 80 49
3 81 80 49
3 48 81 113
3 48 49 81
3 54 111 113
3 112 110 50
3 50 54 81
3 113 81 54
3 50 80 110
3 50 80 81
3 59 105 114
3 115 103 58
3 61 59 58
3 58 61 115
3 114 60 59
3 61 60 59
3 114 93 60
3 60 61 93
3 61 92 115
3 93 92 61
3 114 105 65
3 64 103 115
3 64 92 93
3 115 92 64
3 65 93 114
3 93 65 64
3 101 67 66
3 66 101 117
3 116 100 67
3 101 100 67
3 101 65 64
3 65 101 117
3 64 100 116
3 101 100 64
3 116 67 64
3 64 65 67
3 117 66 65
3 67 66 65
3 48 111 119
3 49 112 118
3 118 109 49
3 109 49 48
3 119 108 48
3 48 108 109
3 84 109 118
3 109 85 84
3 85 108 119
3 85 108 109
3 50 54 85
3 54 85 119
3 50 84 118
3 50 84 85
3 119 111 54
3 118 112 50
