ply
format ascii 1.0
comment Created by Open3D
element vertex 222
property double x
property double y
property double z
element face 752
property list uchar uint vertex_indices
end_header
490316 5.45374e+06 112.559
490316 5.45374e+06 102.489
490316 5.45374e+06 112.559
490317 5.45375e+06 102.489
490316 5.45374e+06 102.489
490317 5.45375e+06 112.559
490312 5.45375e+06 102.489
490311 5.45374e+06 112.559
490311 5.45375e+06 102.489
490311 5.45375e+06 112.559
490312 5.45375e+06 112.559
490311 5.45374e+06 102.489
490316 5.45375e+06 112.559
490316 5.45375e+06 102.489
490316 5.45375e+06 102.489
490316 5.45375e+06 112.559
490316 5.45375e+06 102.489
490316 5.45375e+06 112.559
490315 5.45375e+06 112.559
490315 5.45375e+06 102.489
490316 5.45374e+06 102.489
490316 5.45374e+06 112.559
490316 5.45374e+06 102.489
490316 5.45374e+06 112.559
490316 5.45374e+06 112.559
490316 5.45374e+06 102.489
490316 5.45374e+06 112.559
490316 5.45374e+06 112.559
490316 5.45374e+06 102.489
490316 5.45374e+06 102.489
490309 5.45375e+06 112.559
490309 5.45375e+06 112.559
490310 5.45375e+06 112.559
490309 5.45375e+06 102.489
490309 5.45375e+06 102.489
490310 5.45375e+06 102.489
490310 5.45375e+06 102.489
490310 5.45375e+06 112.559
490308 5.45374e+06 112.559
490308 5.45374e+06 102.489
490309 5.45374e+06 112.559
490309 5.45374e+06 102.489
490316 5.45374e+06 112.559
490316 5.45374e+06 102.489
490313 5.45375e+06 102.489
490316 5.45374e+06 102.489
490316 5.45374e+06 112.559
490313 5.45375e+06 112.559
490312 5.45374e+06 102.489
490311 5.45374e+06 112.559
490312 5.45374e+06 112.559
490298 5.45374e+06 112.559
490298 5.45374e+06 102.489
490311 5.45374e+06 102.489
490314 5.45375e+06 112.559
490314 5.45375e+06 102.489
490302 5.45374e+06 102.489
490303 5.45374e+06 112.559
490302 5.45374e+06 112.559
490303 5.45374e+06 112.559
490303 5.45374e+06 102.489
490303 5.45374e+06 102.489
490299 5.45374e+06 112.559
490299 5.45374e+06 102.489
490298 5.45374e+06 102.489
490301 5.45374e+06 112.559
490298 5.45374e+06 112.559
490301 5.45374e+06 102.489
490316 5.45374e+06 102.489
490316 5.45374e+06 112.559
490315 5.45374e+06 102.489
490315 5.45374e+06 112.559
490313 5.45374e+06 102.489
490316 5.45374e+06 112.559
490313 5.45374e+06 112.559
490316 5.45374e+06 102.489
490315 5.45375e+06 112.559
490315 5.45375e+06 102.489
490309 5.45374e+06 102.489
490309 5.45374e+06 112.559
490304 5.45374e+06 112.559
490305 5.45374e+06 102.489
490305 5.45374e+06 112.559
490304 5.45374e+06 102.489
490299 5.45374e+06 102.489
490299 5.45374e+06 112.559
490316 5.45374e+06 102.489
490316 5.45374e+06 112.559
490316 5.45374e+06 102.489
490316 5.45374e+06 112.559
490316 5.45374e+06 112.559
490316 5.45374e+06 102.489
490308 5.45375e+06 102.489
490308 5.45375e+06 112.559
490305 5.45375e+06 112.559
490307 5.45375e+06 112.559
490305 5.45375e+06 102.489
490307 5.45375e+06 102.489
490297 5.45375e+06 102.489
490293 5.45375e+06 102.489
490297 5.45375e+06 112.559
490293 5.45375e+06 112.559
490316 5.45374e+06 102.489
490316 5.45374e+06 112.559
490295 5.45375e+06 102.489
490295 5.45375e+06 112.559
490293 5.45375e+06 112.559
490292 5.45375e+06 112.559
490293 5.45375e+06 102.489
490292 5.45375e+06 102.489
490292 5.45375e+06 102.489
490292 5.45375e+06 102.489
490292 5.45375e+06 112.559
490292 5.45375e+06 112.559
490316 5.45374e+06 102.489
490316 5.45374e+06 112.559
490316 5.45374e+06 102.489
490316 5.45374e+06 112.559
490313 5.45374e+06 102.489
490313 5.45374e+06 112.559
490296 5.45375e+06 112.559
490296 5.45375e+06 102.489
490292 5.45374e+06 112.559
490292 5.45374e+06 102.489
490301 5.45374e+06 102.489
490301 5.45374e+06 112.559
490303 5.45375e+06 112.559
490302 5.45375e+06 112.559
490303 5.45375e+06 102.489
490302 5.45375e+06 102.489
490314 5.45374e+06 102.489
490314 5.45374e+06 112.559
490313 5.45374e+06 112.559
490313 5.45374e+06 102.489
490292 5.45374e+06 102.489
490292 5.45374e+06 112.559
490294 5.45374e+06 112.559
490292 5.45374e+06 102.489
490292 5.45374e+06 112.559
490294 5.45374e+06 102.489
490292 5.45374e+06 102.489
490292 5.45374e+06 102.489
490292 5.45374e+06 112.559
490292 5.45374e+06 112.559
490296 5.45374e+06 112.559
490296 5.45374e+06 102.489
490294 5.45375e+06 102.489
490294 5.45375e+06 112.559
490294 5.45375e+06 102.489
490294 5.45375e+06 112.559
490295 5.45374e+06 102.489
490295 5.45374e+06 112.559
490295 5.45374e+06 112.559
490296 5.45375e+06 112.559
490295 5.45374e+06 102.489
490296 5.45375e+06 102.489
490297 5.45374e+06 112.559
490297 5.45374e+06 102.489
490296 5.45375e+06 112.559
490296 5.45375e+06 102.489
490301 5.45375e+06 112.559
490300 5.45375e+06 102.489
490300 5.45375e+06 112.559
490301 5.45375e+06 102.489
490314 5.45375e+06 102.489
490314 5.45375e+06 112.559
490314 5.45374e+06 102.489
490314 5.45374e+06 112.559
490313 5.45374e+06 102.489
490313 5.45374e+06 112.559
490307 5.45374e+06 102.489
490307 5.45374e+06 112.559
490297 5.45374e+06 102.489
490297 5.45374e+06 112.559
490292 5.45375e+06 112.559
490292 5.45375e+06 102.489
490294 5.45375e+06 112.559
490294 5.45375e+06 102.489
490300 5.45375e+06 102.489
490300 5.45375e+06 112.559
490298 5.45375e+06 102.489
490298 5.45375e+06 112.559
490304 5.45375e+06 112.559
490305 5.45375e+06 112.559
490304 5.45375e+06 102.489
490305 5.45375e+06 102.489
490302 5.45375e+06 102.489
490302 5.45375e+06 112.559
490301 5.45375e+06 112.559
490301 5.45375e+06 102.489
490292 5.45374e+06 102.489
490292 5.45374e+06 112.559
490292 5.45374e+06 112.559
490292 5.45374e+06 102.489
490292 5.45374e+06 102.489
490292 5.45374e+06 112.559
490299 5.45375e+06 112.559
490298 5.45375e+06 112.559
490298 5.45375e+06 102.489
490299 5.45375e+06 102.489
490298 5.45375e+06 112.559
490298 5.45375e+06 102.489
490303 5.45375e+06 112.559
490303 5.45375e+06 102.489
490299 5.45375e+06 112.559
490299 5.45375e+06 102.489
490303 5.45375e+06 112.559
490303 5.45375e+06 102.489
490314 5.45375e+06 112.559
490314 5.45375e+06 102.489
490307 5.45375e+06 112.559
490307 5.45375e+06 102.489
490307 5.45374e+06 112.559
490307 5.45374e+06 102.489
490292 5.45374e+06 112.559
490292 5.45374e+06 112.559
490292 5.45374e+06 102.489
490292 5.45374e+06 102.489
490292 5.45374e+06 102.489
490292 5.45374e+06 112.559
490292 5.45374e+06 112.559
490292 5.45374e+06 102.489
3 6 8 9
3 6 7 10
3 10 9 6
3 7 9 10
3 6 7 11
3 11 8 6
3 12 5 3
3 13 5 3
3 3 12 14
3 3 13 14
3 5 12 15
3 5 13 15
3 16 14 12
3 16 14 13
3 12 16 17
3 13 16 17
3 17 15 12
3 17 15 13
3 22 2 1
3 24 23 22
3 2 22 24
3 2 23 24
3 25 23 22
3 1 22 25
3 2 26 27
3 1 2 27
3 28 27 26
3 1 27 28
3 29 28 26
3 1 28 29
3 25 26 29
3 1 25 29
3 2 23 26
3 26 25 23
3 30 31 32
3 33 31 30
3 35 34 30
3 30 33 34
3 33 34 35
3 30 32 35
3 8 34 36
3 8 9 34
3 37 30 9
3 34 30 9
3 34 35 36
3 32 35 36
3 35 34 32
3 34 32 30
3 32 36 37
3 37 32 30
3 37 36 7
3 37 9 7
3 7 11 36
3 36 11 8
3 32 37 38
3 38 35 32
3 32 35 37
3 35 38 39
3 39 36 35
3 35 36 37
3 40 38 7
3 41 40 38
3 38 39 41
3 11 39 41
3 38 37 7
3 37 11 7
3 37 36 11
3 11 36 39
3 45 43 42
3 45 44 42
3 43 44 45
3 42 43 46
3 47 46 42
3 42 44 47
3 50 49 48
3 50 48 7
3 7 49 50
3 48 49 53
3 11 48 53
3 48 11 7
3 10 47 54
3 54 47 44
3 6 54 55
3 55 54 44
3 55 44 6
3 6 10 54
3 59 58 56
3 57 58 59
3 61 59 56
3 56 60 61
3 56 58 62
3 62 58 57
3 62 60 57
3 56 62 63
3 63 60 56
3 60 62 63
3 64 65 66
3 66 64 62
3 66 65 62
3 67 65 64
3 63 64 67
3 64 63 62
3 14 16 68
3 16 17 68
3 14 16 17
3 17 14 12
3 69 68 17
3 69 17 12
3 3 14 68
3 14 5 3
3 5 12 14
3 69 12 5
3 21 68 69
3 5 21 69
3 3 5 21
3 68 21 20
3 68 20 3
3 21 20 3
3 70 29 25
3 23 25 29
3 70 29 26
3 23 26 29
3 71 70 26
3 71 26 23
3 23 24 25
3 71 70 24
3 71 24 23
3 70 24 22
3 70 25 22
3 22 24 25
3 72 73 74
3 74 73 10
3 75 73 72
3 75 72 6
3 74 10 7
3 11 10 7
3 72 11 6
3 11 10 6
3 50 72 74
3 7 50 74
3 50 11 7
3 72 48 11
3 72 50 48
3 50 48 11
3 77 76 20
3 19 76 77
3 19 20 77
3 18 21 76
3 76 19 18
3 76 21 20
3 79 40 7
3 11 41 78
3 78 41 39
3 41 40 39
3 79 78 38
3 38 40 79
3 78 39 38
3 38 39 40
3 78 53 49
3 79 78 49
3 79 49 7
3 11 53 78
3 39 81 83
3 38 80 82
3 80 79 38
3 38 39 79
3 79 78 39
3 83 78 39
3 57 79 80
3 57 60 79
3 60 78 83
3 60 78 79
3 57 59 80
3 83 61 60
3 82 80 59
3 83 81 61
3 52 64 84
3 85 84 51
3 51 66 85
3 51 52 84
3 62 63 84
3 62 63 66
3 62 84 85
3 85 66 62
3 63 64 84
3 66 64 63
3 87 69 17
3 69 17 16
3 16 68 86
3 69 68 16
3 16 77 86
3 77 17 16
3 77 76 17
3 87 76 17
3 21 69 87
3 69 21 20
3 86 68 20
3 69 68 20
3 86 77 20
3 77 21 20
3 21 76 77
3 21 76 87
3 4 20 88
3 4 20 21
3 0 88 89
3 0 21 89
3 0 4 88
3 0 4 21
3 18 19 88
3 89 88 18
3 89 21 18
3 88 20 19
3 4 45 91
3 90 42 0
3 0 89 90
3 0 4 89
3 90 89 88
3 89 88 4
3 91 90 88
3 91 88 4
3 44 45 91
3 47 45 44
3 90 47 42
3 42 45 47
3 55 90 91
3 91 55 44
3 44 47 55
3 90 54 47
3 90 55 54
3 55 54 47
3 92 34 30
3 34 31 30
3 30 92 93
3 93 92 31
3 93 31 30
3 92 34 33
3 92 33 31
3 34 33 31
3 93 94 95
3 97 95 94
3 94 96 97
3 97 96 92
3 30 93 94
3 94 34 30
3 93 34 30
3 34 92 93
3 34 94 96
3 96 92 34
3 0 42 103
3 102 45 4
3 42 45 46
3 42 46 103
3 43 45 102
3 46 45 43
3 103 73 0
3 4 75 102
3 10 73 103
3 102 75 6
3 103 47 10
3 6 44 102
3 46 47 103
3 102 44 43
3 106 101 99
3 107 106 101
3 99 101 107
3 108 106 99
3 109 108 106
3 109 108 99
3 106 107 109
3 99 107 109
3 111 110 108
3 112 111 110
3 106 108 110
3 106 110 113
3 113 112 110
3 113 112 106
3 115 114 0
3 0 73 115
3 114 4 0
3 114 75 4
3 75 114 116
3 117 115 73
3 24 114 115
3 24 115 117
3 114 24 22
3 116 114 22
3 50 118 119
3 119 74 50
3 118 50 48
3 74 50 48
3 48 72 118
3 48 72 74
3 73 74 119
3 75 74 73
3 72 75 118
3 75 74 72
3 119 118 117
3 119 117 73
3 75 116 118
3 116 117 118
3 120 105 100
3 120 100 98
3 98 100 105
3 98 104 105
3 98 120 121
3 98 104 121
3 105 120 122
3 123 122 120
3 120 121 123
3 123 121 104
3 58 62 63
3 58 62 125
3 56 63 124
3 63 58 56
3 65 67 124
3 65 124 125
3 62 65 125
3 63 67 124
3 124 125 127
3 125 126 127
3 124 127 129
3 129 128 124
3 81 124 128
3 126 125 82
3 125 82 59
3 124 81 61
3 124 61 56
3 61 58 56
3 125 59 58
3 58 59 61
3 132 119 117
3 132 117 116
3 119 117 116
3 119 118 116
3 133 132 116
3 116 118 133
3 50 119 132
3 119 50 48
3 133 118 48
3 119 118 48
3 50 131 132
3 131 50 48
3 132 131 130
3 48 130 131
3 130 132 133
3 48 130 133
3 137 135 134
3 134 135 138
3 134 136 138
3 138 136 135
3 139 136 134
3 134 137 139
3 141 140 134
3 140 141 142
3 134 138 143
3 143 142 138
3 143 140 134
3 140 142 143
3 144 142 141
3 134 138 144
3 138 142 144
3 134 144 145
3 145 141 134
3 141 144 145
3 147 146 105
3 122 146 147
3 147 122 105
3 146 123 122
3 146 105 104
3 104 123 146
3 99 108 148
3 99 101 108
3 101 106 149
3 108 106 101
3 113 108 106
3 149 148 113
3 106 113 149
3 110 113 148
3 108 110 148
3 108 110 113
3 99 104 148
3 99 104 105
3 149 105 101
3 105 101 99
3 147 105 104
3 147 148 149
3 149 147 105
3 104 146 148
3 148 147 146
3 104 146 147
3 153 152 151
3 150 154 155
3 152 153 156
3 150 155 157
3 145 150 157
3 156 152 144
3 154 150 139
3 136 151 152
3 136 138 152
3 136 138 139
3 134 139 150
3 139 138 134
3 138 144 152
3 145 144 138
3 150 145 134
3 134 138 145
3 100 153 158
3 98 155 159
3 159 121 98
3 121 100 98
3 100 120 158
3 100 120 121
3 159 155 154
3 158 153 151
3 159 154 123
3 158 151 122
3 159 123 121
3 123 122 121
3 120 122 158
3 122 121 120
3 160 161 162
3 163 161 160
3 163 160 67
3 67 161 163
3 65 67 160
3 65 160 162
3 164 89 88
3 88 91 164
3 88 89 91
3 165 164 89
3 165 90 89
3 91 90 89
3 164 55 54
3 164 91 55
3 91 55 54
3 165 164 54
3 54 90 165
3 54 90 91
3 71 24 22
3 24 71 167
3 166 70 22
3 71 70 22
3 131 166 167
3 71 131 167
3 70 71 131
3 166 131 130
3 166 130 70
3 131 130 70
3 166 116 22
3 166 117 116
3 167 166 117
3 24 117 167
3 116 133 168
3 133 117 116
3 133 132 117
3 169 132 117
3 168 133 130
3 133 131 130
3 133 132 131
3 169 132 131
3 117 167 169
3 167 117 116
3 168 166 116
3 167 166 116
3 131 167 169
3 167 131 130
3 168 166 130
3 167 166 130
3 35 39 170
3 32 35 39
3 38 170 171
3 171 38 32
3 38 39 170
3 32 38 39
3 31 33 170
3 31 170 171
3 171 32 31
3 33 35 170
3 145 157 172
3 144 145 172
3 173 172 156
3 144 172 173
3 173 156 144
3 172 157 156
3 64 66 172
3 172 64 52
3 173 172 66
3 173 172 51
3 173 66 51
3 172 52 51
3 106 112 174
3 175 111 108
3 107 108 109
3 108 109 175
3 174 107 106
3 106 107 108
3 109 111 112
3 175 111 109
3 174 112 107
3 107 109 112
3 176 147 146
3 147 149 176
3 149 147 146
3 148 176 177
3 177 176 146
3 177 148 146
3 148 149 176
3 146 148 149
3 178 161 67
3 178 162 161
3 65 178 179
3 162 178 179
3 179 162 65
3 65 67 178
3 65 67 180
3 67 66 65
3 181 180 65
3 66 180 181
3 181 66 65
3 180 66 64
3 180 67 64
3 67 66 64
3 94 182 183
3 182 96 94
3 96 182 184
3 185 184 96
3 182 82 81
3 184 182 81
3 81 184 185
3 183 182 82
3 186 129 127
3 129 127 125
3 187 186 125
3 187 186 127
3 187 127 125
3 124 125 186
3 186 129 124
3 124 125 129
3 188 187 127
3 127 129 188
3 127 129 187
3 187 186 129
3 129 188 189
3 129 186 189
3 189 188 163
3 189 163 67
3 65 67 163
3 160 163 188
3 65 160 188
3 65 160 163
3 65 125 188
3 65 67 125
3 189 124 67
3 125 124 67
3 125 187 188
3 124 125 187
3 124 186 187
3 189 186 124
3 122 123 190
3 147 123 122
3 122 190 191
3 122 147 191
3 190 146 123
3 123 146 147
3 190 177 146
3 177 147 146
3 177 176 147
3 147 176 191
3 190 113 110
3 110 113 149
3 113 190 191
3 191 149 113
3 110 148 190
3 110 148 149
3 148 177 190
3 148 149 177
3 149 176 177
3 191 176 149
3 122 191 192
3 122 123 191
3 193 192 190
3 193 190 123
3 192 191 190
3 123 190 191
3 123 154 193
3 122 151 192
3 192 151 136
3 193 192 139
3 193 154 139
3 136 139 192
3 197 196 181
3 198 197 196
3 199 198 196
3 180 198 199
3 65 179 196
3 65 67 179
3 199 196 178
3 199 178 67
3 196 179 178
3 67 178 179
3 196 181 65
3 65 67 181
3 67 180 181
3 67 180 199
3 201 198 180
3 200 197 181
3 200 173 66
3 173 66 64
3 173 172 64
3 64 172 201
3 66 181 200
3 181 66 64
3 64 180 181
3 201 180 64
3 156 173 200
3 173 157 156
3 201 172 157
3 173 172 157
3 200 156 153
3 201 157 155
3 200 153 100
3 201 155 98
3 98 198 201
3 98 100 198
3 100 197 200
3 100 197 198
3 203 202 128
3 81 128 203
3 202 128 126
3 202 126 82
3 203 202 184
3 203 184 81
3 184 82 81
3 182 184 202
3 82 182 202
3 184 182 82
3 204 179 162
3 204 162 161
3 161 162 179
3 205 204 161
3 205 178 161
3 161 178 179
3 199 204 205
3 205 199 178
3 178 179 199
3 204 199 196
3 204 196 179
3 199 196 179
3 207 206 189
3 129 189 207
3 127 129 189
3 188 189 206
3 127 188 206
3 127 188 189
3 184 206 207
3 184 203 207
3 206 184 182
3 203 184 182
3 206 202 182
3 203 202 182
3 206 127 126
3 128 129 207
3 126 128 203
3 207 203 128
3 126 202 206
3 126 202 203
3 165 164 88
3 209 164 88
3 208 165 89
3 165 89 88
3 208 89 18
3 18 19 208
3 89 19 18
3 209 208 19
3 209 88 19
3 89 88 19
3 54 165 208
3 208 55 54
3 165 55 54
3 55 208 209
3 55 164 209
3 55 164 165
3 210 95 93
3 95 97 210
3 211 210 97
3 92 97 211
3 170 171 210
3 33 170 171
3 170 210 211
3 211 170 33
3 31 171 210
3 171 33 31
3 93 92 33
3 33 92 211
3 210 93 31
3 93 33 31
3 212 171 38
3 38 39 171
3 39 170 213
3 171 170 39
3 38 82 212
3 213 81 39
3 82 183 212
3 213 185 81
3 212 183 94
3 96 185 213
3 97 96 95
3 213 97 96
3 94 95 212
3 96 95 94
3 95 97 211
3 213 211 97
3 95 210 212
3 211 210 95
3 170 171 211
3 170 211 213
3 212 210 171
3 171 210 211
3 138 214 215
3 134 216 217
3 217 216 194
3 215 214 195
3 135 195 214
3 217 194 137
3 134 137 138
3 217 137 134
3 214 138 135
3 138 137 135
3 194 216 218
3 218 195 194
3 195 218 219
3 219 215 195
3 218 216 134
3 138 215 219
3 140 143 218
3 143 140 138
3 219 218 143
3 219 143 138
3 134 140 218
3 134 138 140
3 192 193 220
3 136 192 220
3 193 192 136
3 221 220 193
3 221 193 139
3 136 139 193
3 221 139 137
3 135 136 220
3 220 195 135
3 194 220 221
3 137 194 221
3 194 195 220
