ply
format ascii 1.0
comment Created by Open3D
element vertex 196
property double x
property double y
property double z
element face 664
property list uchar uint vertex_indices
end_header
490253 5.45372e+06 104.962
490253 5.45372e+06 115.032
490253 5.45373e+06 115.032
490253 5.45372e+06 115.032
490253 5.45372e+06 104.962
490253 5.45373e+06 104.962
490255 5.45372e+06 104.962
490255 5.45372e+06 115.032
490255 5.45372e+06 115.032
490255 5.45372e+06 104.962
490262 5.45373e+06 115.032
490262 5.45373e+06 104.962
490254 5.45372e+06 115.032
490254 5.45372e+06 104.962
490245 5.45372e+06 104.962
490245 5.45372e+06 115.032
490245 5.45373e+06 104.962
490245 5.45372e+06 104.962
490245 5.45373e+06 115.032
490245 5.45372e+06 115.032
490246 5.45372e+06 115.032
490246 5.45372e+06 104.962
490246 5.45373e+06 104.962
490249 5.45373e+06 104.962
490254 5.45373e+06 115.032
490254 5.45373e+06 104.962
490249 5.45373e+06 115.032
490246 5.45373e+06 115.032
490262 5.45373e+06 115.032
490262 5.45373e+06 104.962
490262 5.45372e+06 104.962
490262 5.45372e+06 115.032
490251 5.45373e+06 104.962
490246 5.45373e+06 104.962
490246 5.45373e+06 115.032
490251 5.45373e+06 115.032
490250 5.45373e+06 115.032
490250 5.45373e+06 104.962
490250 5.45373e+06 104.962
490250 5.45373e+06 115.032
490253 5.45373e+06 115.032
490253 5.45373e+06 104.962
490262 5.45373e+06 115.032
490262 5.45373e+06 115.032
490262 5.45373e+06 115.032
490262 5.45373e+06 104.962
490262 5.45373e+06 104.962
490262 5.45373e+06 104.962
490262 5.45373e+06 104.962
490262 5.45373e+06 115.032
490254 5.45372e+06 104.962
490254 5.45372e+06 115.032
490254 5.45372e+06 115.032
490254 5.45372e+06 104.962
490250 5.45372e+06 104.962
490250 5.45372e+06 115.032
490250 5.45372e+06 115.032
490250 5.45372e+06 104.962
490245 5.45372e+06 104.962
490245 5.45372e+06 115.032
490248 5.45373e+06 104.962
490248 5.45373e+06 115.032
490246 5.45373e+06 104.962
490246 5.45373e+06 115.032
490246 5.45373e+06 115.032
490246 5.45373e+06 104.962
490262 5.45373e+06 104.962
490262 5.45373e+06 115.032
490262 5.45372e+06 104.962
490262 5.45372e+06 115.032
490262 5.45372e+06 115.032
490262 5.45372e+06 104.962
490246 5.45373e+06 115.032
490246 5.45373e+06 115.032
490246 5.45373e+06 104.962
490246 5.45373e+06 104.962
490256 5.45373e+06 115.032
490258 5.45373e+06 104.962
490256 5.45373e+06 104.962
490258 5.45373e+06 115.032
490262 5.45373e+06 115.032
490262 5.45373e+06 104.962
490262 5.45373e+06 115.032
490262 5.45373e+06 104.962
490255 5.45373e+06 104.962
490255 5.45373e+06 115.032
490258 5.45373e+06 104.962
490258 5.45373e+06 115.032
490258 5.45373e+06 115.032
490258 5.45373e+06 104.962
490259 5.45373e+06 104.962
490259 5.45373e+06 115.032
490262 5.45373e+06 104.962
490262 5.45373e+06 115.032
490262 5.45373e+06 115.032
490262 5.45373e+06 104.962
490261 5.45373e+06 115.032
490261 5.45373e+06 104.962
490251 5.45372e+06 104.962
490251 5.45372e+06 115.032
490249 5.45372e+06 104.962
490249 5.45372e+06 115.032
490249 5.45372e+06 115.032
490249 5.45372e+06 104.962
490246 5.45372e+06 115.032
490246 5.45372e+06 104.962
490246 5.45372e+06 104.962
490246 5.45372e+06 115.032
490249 5.45373e+06 104.962
490249 5.45373e+06 115.032
490246 5.45373e+06 104.962
490246 5.45373e+06 115.032
490261 5.45372e+06 115.032
490262 5.45372e+06 104.962
490261 5.45372e+06 104.962
490258 5.45372e+06 104.962
490258 5.45372e+06 115.032
490262 5.45372e+06 115.032
490262 5.45372e+06 104.962
490262 5.45372e+06 115.032
490261 5.45372e+06 115.032
490261 5.45372e+06 115.032
490261 5.45372e+06 115.032
490261 5.45372e+06 104.962
490261 5.45372e+06 104.962
490261 5.45372e+06 104.962
490246 5.45373e+06 115.032
490246 5.45373e+06 104.962
490262 5.45373e+06 115.032
490262 5.45373e+06 104.962
490262 5.45373e+06 104.962
490260 5.45373e+06 104.962
490260 5.45373e+06 115.032
490262 5.45373e+06 115.032
490252 5.45372e+06 104.962
490252 5.45372e+06 115.032
490246 5.45372e+06 115.032
490247 5.45372e+06 104.962
490246 5.45372e+06 104.962
490246 5.45372e+06 104.962
490247 5.45372e+06 115.032
490246 5.45372e+06 115.032
490246 5.45372e+06 115.032
490246 5.45372e+06 104.962
490246 5.45372e+06 104.962
490246 5.45372e+06 115.032
490247 5.45373e+06 115.032
490247 5.45373e+06 104.962
490247 5.45373e+06 104.962
490247 5.45373e+06 115.032
490246 5.45373e+06 104.962
490246 5.45373e+06 115.032
490255 5.45372e+06 115.032
490255 5.45372e+06 104.962
490256 5.45372e+06 104.962
490256 5.45372e+06 115.032
490257 5.45372e+06 115.032
490257 5.45372e+06 104.962
490256 5.45372e+06 104.962
490256 5.45372e+06 115.032
490260 5.45372e+06 104.962
490260 5.45372e+06 115.032
490246 5.45373e+06 104.962
490246 5.45373e+06 115.032
490257 5.45373e+06 104.962
490257 5.45373e+06 115.032
490261 5.45373e+06 115.032
490261 5.45373e+06 104.962
490260 5.45373e+06 104.962
490260 5.45373e+06 115.032
490262 5.45373e+06 104.962
490262 5.45373e+06 115.032
490248 5.45372e+06 104.962
490248 5.45372e+06 115.032
490248 5.45372e+06 115.032
490248 5.45372e+06 104.962
490246 5.45372e+06 104.962
490246 5.45372e+06 115.032
490248 5.45373e+06 104.962
490248 5.45373e+06 115.032
490246 5.45373e+06 104.962
490246 5.45373e+06 115.032
490246 5.45373e+06 104.962
490246 5.45373e+06 115.032
490259 5.45372e+06 104.962
490259 5.45372e+06 115.032
490262 5.45373e+06 104.962
490262 5.45373e+06 115.032
490247 5.45372e+06 115.032
490247 5.45372e+06 104.962
490260 5.45372e+06 104.962
490260 5.45372e+06 115.032
490257 5.45373e+06 104.962
490257 5.45373e+06 115.032
490260 5.45372e+06 104.962
490260 5.45372e+06 115.032
3 3 1 0
3 3 2 0
3 1 2 3
3 0 2 5
3 5 4 0
3 0 1 4
3 6 7 8
3 8 7 2
3 9 6 5
3 9 7 6
3 10 8 6
3 2 8 10
3 11 10 6
3 11 6 5
3 12 5 2
3 12 3 2
3 5 3 2
3 0 12 13
3 13 12 5
3 13 5 0
3 12 3 0
3 0 3 5
3 14 15 17
3 17 16 14
3 14 16 18
3 14 18 19
3 19 15 14
3 19 18 15
3 25 23 22
3 22 24 25
3 22 23 26
3 22 26 27
3 27 24 22
3 27 26 24
3 29 28 11
3 5 28 29
3 29 11 5
3 2 10 28
3 28 5 2
3 10 11 28
3 33 32 16
3 32 33 34
3 18 32 35
3 32 34 35
3 35 34 18
3 32 18 16
3 38 37 36
3 38 37 32
3 35 36 39
3 39 38 36
3 36 35 34
3 33 34 36
3 33 34 35
3 32 33 35
3 37 36 33
3 32 33 37
3 35 39 40
3 38 39 40
3 41 40 38
3 41 38 32
3 2 24 40
3 40 25 24
3 25 40 41
3 41 25 5
3 40 2 1
3 4 5 41
3 41 32 4
3 1 35 40
3 42 43 44
3 42 44 45
3 43 44 45
3 47 45 42
3 47 46 45
3 43 45 46
3 48 47 42
3 46 47 48
3 49 43 42
3 42 48 49
3 50 51 52
3 52 51 7
3 50 52 53
3 9 50 53
3 2 7 51
3 50 9 5
3 5 13 50
3 13 5 2
3 51 50 12
3 51 12 2
3 12 13 50
3 13 12 2
3 54 55 56
3 56 55 18
3 54 56 57
3 16 54 57
3 1 54 55
3 55 35 1
3 54 4 1
3 54 32 4
3 18 35 55
3 35 18 16
3 16 32 54
3 16 32 35
3 20 58 59
3 19 20 59
3 20 21 58
3 21 20 19
3 58 21 14
3 21 19 14
3 59 58 56
3 59 56 18
3 58 57 56
3 16 57 58
3 18 19 59
3 16 18 19
3 14 16 58
3 14 16 19
3 61 60 26
3 27 60 61
3 61 27 26
3 23 26 60
3 23 26 27
3 22 27 60
3 60 23 22
3 27 23 22
3 27 62 63
3 62 63 64
3 27 63 64
3 62 64 65
3 27 64 65
3 62 27 22
3 65 62 22
3 22 27 65
3 66 5 2
3 66 29 5
3 29 5 2
3 28 29 66
3 29 28 2
3 28 66 67
3 67 66 2
3 67 28 2
3 69 31 10
3 31 11 10
3 11 30 68
3 31 30 11
3 8 68 69
3 69 10 8
3 11 10 8
3 6 11 68
3 6 8 68
3 11 8 6
3 70 69 68
3 31 69 70
3 71 70 68
3 31 70 71
3 71 68 30
3 30 31 71
3 73 72 39
3 72 73 74
3 72 74 75
3 75 74 38
3 75 72 37
3 37 38 75
3 39 38 37
3 72 39 36
3 36 37 72
3 39 37 36
3 2 67 76
3 76 5 2
3 67 5 2
3 66 67 76
3 5 66 67
3 66 76 78
3 78 76 5
3 78 66 5
3 5 25 84
3 85 24 2
3 25 78 84
3 24 25 78
3 78 76 24
3 85 76 24
3 84 78 5
3 2 5 78
3 2 76 78
3 2 76 85
3 86 79 77
3 79 86 88
3 88 87 79
3 77 86 89
3 92 89 86
3 86 88 93
3 93 88 87
3 93 92 86
3 43 49 94
3 94 49 48
3 95 94 48
3 46 48 95
3 81 82 94
3 96 94 82
3 81 94 95
3 97 95 81
3 43 94 96
3 46 95 97
3 99 98 55
3 1 98 99
3 99 55 1
3 1 4 98
3 1 4 55
3 98 55 54
3 98 54 4
3 55 54 4
3 56 100 101
3 55 56 101
3 56 57 100
3 55 56 57
3 100 57 54
3 54 55 57
3 101 100 99
3 101 99 55
3 99 55 54
3 54 98 100
3 98 99 100
3 54 98 99
3 102 99 98
3 99 101 102
3 101 99 98
3 102 101 100
3 101 100 98
3 100 102 103
3 98 102 103
3 103 100 98
3 56 59 104
3 59 57 56
3 105 104 58
3 105 58 57
3 104 59 58
3 59 58 57
3 104 101 56
3 56 57 101
3 57 100 105
3 57 100 101
3 100 103 105
3 103 101 100
3 104 102 101
3 101 102 103
3 104 105 106
3 106 105 103
3 104 106 107
3 102 104 107
3 23 25 108
3 24 26 109
3 25 41 108
3 41 25 24
3 109 40 24
3 24 40 41
3 108 41 38
3 38 39 41
3 39 40 109
3 41 40 39
3 109 73 39
3 38 74 108
3 108 74 23
3 26 73 109
3 110 26 23
3 111 110 26
3 111 110 73
3 111 73 26
3 110 74 73
3 23 74 110
3 115 114 112
3 113 114 115
3 116 115 112
3 117 116 112
3 112 114 118
3 118 114 113
3 113 117 118
3 112 118 119
3 119 117 112
3 119 118 117
3 122 121 120
3 120 122 123
3 123 122 121
3 120 124 125
3 120 123 125
3 125 124 123
3 120 121 124
3 121 123 124
3 75 126 127
3 17 75 127
3 75 17 15
3 126 75 72
3 126 72 15
3 15 72 75
3 16 17 127
3 15 18 126
3 126 34 33
3 127 126 33
3 127 33 16
3 18 34 126
3 81 82 128
3 82 96 128
3 97 128 129
3 129 128 81
3 129 97 81
3 96 97 128
3 128 129 130
3 128 129 131
3 129 130 131
3 128 131 132
3 128 132 133
3 128 130 133
3 3 134 135
3 1 3 135
3 4 3 1
3 0 4 134
3 134 3 0
3 4 3 0
3 135 134 99
3 135 99 1
3 1 4 99
3 134 99 98
3 134 98 4
3 99 98 4
3 136 137 139
3 137 138 139
3 140 137 136
3 140 138 137
3 141 140 136
3 138 140 141
3 20 136 142
3 143 142 136
3 136 139 143
3 143 139 21
3 20 21 144
3 21 139 144
3 145 136 20
3 20 144 145
3 144 139 138
3 145 144 138
3 145 141 136
3 138 141 145
3 27 61 146
3 22 27 61
3 147 60 22
3 61 60 22
3 148 147 22
3 27 146 149
3 110 147 148
3 149 146 111
3 146 111 61
3 60 110 147
3 151 149 27
3 22 148 150
3 22 27 63
3 27 63 151
3 150 62 22
3 22 62 63
3 150 148 62
3 151 149 63
3 7 8 152
3 7 8 9
3 153 152 6
3 6 9 153
3 6 8 152
3 9 8 6
3 152 53 52
3 53 152 153
3 9 53 153
3 152 52 7
3 6 153 154
3 6 8 154
3 6 8 153
3 155 154 8
3 155 152 8
3 153 152 8
3 154 153 53
3 154 53 52
3 153 53 52
3 52 152 153
3 155 154 52
3 52 152 155
3 156 69 8
3 6 8 69
3 6 68 69
3 6 68 157
3 156 155 8
3 6 8 155
3 6 154 155
3 6 154 157
3 158 157 154
3 155 156 159
3 159 158 155
3 154 155 158
3 156 70 69
3 71 70 69
3 71 69 68
3 68 71 157
3 156 117 70
3 70 71 117
3 71 113 157
3 117 113 71
3 116 117 156
3 113 115 157
3 115 157 158
3 159 156 116
3 160 125 124
3 121 124 160
3 125 124 121
3 160 125 120
3 120 121 125
3 120 160 161
3 121 160 161
3 161 121 120
3 75 72 36
3 36 72 163
3 162 75 37
3 75 37 36
3 162 37 33
3 33 34 37
3 34 36 163
3 37 36 34
3 127 126 72
3 72 126 163
3 162 127 75
3 127 75 72
3 33 127 162
3 33 34 127
3 34 126 163
3 127 126 34
3 66 78 164
3 78 67 66
3 76 164 165
3 165 76 67
3 76 78 164
3 67 76 78
3 164 83 66
3 66 67 83
3 67 80 165
3 67 80 83
3 92 93 164
3 164 92 83
3 93 164 165
3 80 93 165
3 43 46 166
3 166 96 43
3 167 166 46
3 46 97 167
3 128 132 166
3 128 129 132
3 131 166 167
3 129 131 167
3 131 132 166
3 129 131 132
3 166 128 96
3 96 128 129
3 97 129 167
3 96 97 129
3 130 131 168
3 169 168 133
3 132 133 169
3 130 133 168
3 168 167 90
3 168 91 90
3 90 91 167
3 91 166 167
3 91 168 169
3 91 166 169
3 131 167 168
3 131 132 167
3 167 166 132
3 169 166 132
3 86 92 170
3 92 88 86
3 93 170 171
3 171 93 88
3 170 93 92
3 93 92 88
3 91 90 88
3 88 91 171
3 170 90 86
3 86 88 90
3 130 133 169
3 171 169 133
3 130 168 170
3 169 168 130
3 91 169 171
3 90 91 169
3 170 168 90
3 90 168 169
3 128 129 133
3 128 133 171
3 170 130 129
3 129 130 133
3 129 128 82
3 171 170 82
3 82 128 171
3 170 129 81
3 170 82 81
3 129 82 81
3 173 172 107
3 102 107 173
3 172 106 103
3 106 107 172
3 172 103 98
3 103 99 98
3 103 102 99
3 99 102 173
3 135 172 173
3 99 135 173
3 135 99 98
3 98 134 172
3 134 135 172
3 98 134 135
3 106 107 174
3 174 173 107
3 106 107 173
3 175 174 172
3 106 174 175
3 106 172 175
3 172 173 174
3 106 172 173
3 105 106 176
3 107 106 105
3 104 105 107
3 177 107 104
3 58 105 176
3 105 59 58
3 177 104 59
3 105 104 59
3 142 174 177
3 176 175 143
3 106 175 176
3 106 107 175
3 107 174 175
3 177 174 107
3 20 21 59
3 177 59 20
3 21 58 176
3 21 58 59
3 20 142 177
3 176 143 21
3 61 111 179
3 178 110 60
3 23 26 61
3 26 61 179
3 178 60 23
3 23 60 61
3 111 26 23
3 179 111 26
3 23 110 178
3 23 110 111
3 111 74 73
3 111 180 181
3 181 111 73
3 110 111 180
3 74 110 180
3 74 110 111
3 180 75 74
3 75 74 73
3 181 180 72
3 181 73 72
3 180 75 72
3 72 73 75
3 183 149 111
3 110 148 182
3 63 149 183
3 62 148 182
3 181 63 62
3 183 181 63
3 182 180 62
3 62 180 181
3 110 111 181
3 111 181 183
3 182 180 110
3 110 180 181
3 158 159 184
3 185 184 159
3 185 159 116
3 115 158 184
3 114 115 184
3 116 115 114
3 112 184 185
3 185 116 112
3 112 114 184
3 116 114 112
3 83 92 186
3 186 83 80
3 187 186 80
3 187 93 80
3 93 171 187
3 171 93 92
3 92 170 186
3 171 170 92
3 82 186 187
3 187 171 82
3 81 82 186
3 171 82 81
3 186 170 81
3 171 170 81
3 189 188 137
3 137 139 189
3 188 140 137
3 137 139 140
3 136 140 188
3 140 139 136
3 172 188 189
3 189 175 172
3 172 173 188
3 172 173 175
3 173 174 188
3 175 174 173
3 143 142 139
3 139 143 189
3 188 142 136
3 136 139 142
3 143 175 189
3 188 174 142
3 161 125 120
3 191 161 120
3 125 160 190
3 125 160 161
3 190 125 118
3 118 119 190
3 118 119 125
3 191 190 119
3 119 120 191
3 119 120 125
3 185 161 160
3 191 190 185
3 191 185 161
3 160 184 190
3 184 185 190
3 160 184 185
3 76 78 192
3 76 78 165
3 76 192 193
3 76 165 193
3 192 164 78
3 165 164 78
3 92 93 165
3 193 165 93
3 92 164 192
3 92 164 165
3 77 79 192
3 193 192 79
3 79 87 193
3 77 89 192
3 193 93 87
3 89 92 192
3 114 118 194
3 114 118 119
3 195 119 112
3 112 114 119
3 195 191 119
3 118 119 191
3 118 190 194
3 118 190 191
3 112 114 185
3 195 185 112
3 114 184 194
3 114 184 185
3 195 191 185
3 184 185 191
3 184 190 194
3 184 190 191
