ply
format ascii 1.0
comment Created by Open3D
element vertex 154
property double x
property double y
property double z
element face 540
property list uchar uint vertex_indices
end_header
490326 5.45374e+06 111.118
490326 5.45374e+06 111.118
490326 5.45374e+06 111.118
490326 5.45374e+06 101.048
490326 5.45374e+06 101.048
490326 5.45374e+06 101.048
490337 5.45374e+06 111.118
490335 5.45374e+06 101.048
490335 5.45374e+06 101.048
490337 5.45374e+06 101.048
490335 5.45374e+06 111.118
490335 5.45374e+06 111.118
490341 5.45374e+06 111.118
490341 5.45374e+06 101.048
490341 5.45374e+06 101.048
490340 5.45374e+06 101.048
490341 5.45374e+06 111.118
490340 5.45374e+06 111.118
490341 5.45374e+06 111.118
490341 5.45374e+06 101.048
490341 5.45374e+06 101.048
490342 5.45374e+06 101.048
490342 5.45374e+06 111.118
490341 5.45374e+06 111.118
490341 5.45374e+06 111.118
490341 5.45374e+06 101.048
490341 5.45374e+06 101.048
490341 5.45374e+06 111.118
490341 5.45374e+06 111.118
490341 5.45374e+06 101.048
490329 5.45374e+06 101.048
490329 5.45374e+06 111.118
490328 5.45374e+06 111.118
490328 5.45374e+06 101.048
490334 5.45374e+06 111.118
490334 5.45374e+06 101.048
490335 5.45374e+06 101.048
490335 5.45374e+06 111.118
490334 5.45374e+06 111.118
490334 5.45374e+06 101.048
490341 5.45374e+06 111.118
490341 5.45374e+06 101.048
490341 5.45374e+06 101.048
490341 5.45374e+06 111.118
490341 5.45374e+06 111.118
490341 5.45374e+06 101.048
490326 5.45374e+06 101.048
490326 5.45374e+06 101.048
490326 5.45374e+06 111.118
490326 5.45374e+06 111.118
490326 5.45374e+06 101.048
490326 5.45374e+06 111.118
490341 5.45374e+06 111.118
490341 5.45374e+06 101.048
490326 5.45374e+06 101.048
490326 5.45374e+06 111.118
490332 5.45374e+06 101.048
490334 5.45374e+06 101.048
490333 5.45374e+06 101.048
490333 5.45374e+06 111.118
490334 5.45374e+06 111.118
490332 5.45374e+06 111.118
490326 5.45374e+06 101.048
490326 5.45374e+06 111.118
490327 5.45374e+06 111.118
490327 5.45374e+06 101.048
490328 5.45374e+06 101.048
490328 5.45374e+06 111.118
490334 5.45374e+06 111.118
490334 5.45374e+06 101.048
490341 5.45374e+06 111.118
490341 5.45374e+06 101.048
490338 5.45374e+06 111.118
490338 5.45374e+06 101.048
490338 5.45374e+06 111.118
490338 5.45374e+06 101.048
490337 5.45374e+06 101.048
490337 5.45374e+06 111.118
490337 5.45374e+06 101.048
490337 5.45374e+06 111.118
490328 5.45374e+06 111.118
490328 5.45374e+06 101.048
490328 5.45374e+06 101.048
490328 5.45374e+06 111.118
490327 5.45374e+06 111.118
490327 5.45374e+06 101.048
490328 5.45374e+06 101.048
490328 5.45374e+06 111.118
490331 5.45374e+06 111.118
490331 5.45374e+06 101.048
490333 5.45374e+06 111.118
490333 5.45374e+06 101.048
490332 5.45374e+06 101.048
490332 5.45374e+06 111.118
490335 5.45374e+06 111.118
490335 5.45374e+06 101.048
490336 5.45374e+06 101.048
490336 5.45374e+06 111.118
490341 5.45374e+06 101.048
490339 5.45374e+06 101.048
490341 5.45374e+06 111.118
490339 5.45374e+06 111.118
490331 5.45374e+06 111.118
490331 5.45374e+06 101.048
490326 5.45374e+06 111.118
490326 5.45374e+06 101.048
490341 5.45374e+06 101.048
490341 5.45374e+06 111.118
490341 5.45374e+06 101.048
490341 5.45374e+06 111.118
490338 5.45374e+06 101.048
490338 5.45374e+06 111.118
490339 5.45374e+06 111.118
490339 5.45374e+06 101.048
490326 5.45374e+06 101.048
490326 5.45374e+06 111.118
490330 5.45374e+06 111.118
490330 5.45374e+06 101.048
490327 5.45374e+06 101.048
490327 5.45374e+06 111.118
490340 5.45374e+06 101.048
490340 5.45374e+06 111.118
490341 5.45374e+06 111.118
490341 5.45374e+06 101.048
490340 5.45374e+06 111.118
490340 5.45374e+06 101.048
490341 5.45374e+06 101.048
490341 5.45374e+06 111.118
490330 5.45374e+06 101.048
490330 5.45374e+06 111.118
490331 5.45374e+06 101.048
490331 5.45374e+06 111.118
490331 5.45374e+06 101.048
490331 5.45374e+06 111.118
490329 5.45374e+06 111.118
490329 5.45374e+06 101.048
490329 5.45374e+06 101.048
490329 5.45374e+06 111.118
490330 5.45374e+06 111.118
490330 5.45374e+06 101.048
490332 5.45374e+06 101.048
490332 5.45374e+06 111.118
490334 5.45374e+06 111.118
490334 5.45374e+06 101.048
490341 5.45374e+06 101.048
490341 5.45374e+06 111.118
490338 5.45374e+06 111.118
490338 5.45374e+06 101.048
490338 5.45374e+06 111.118
490338 5.45374e+06 101.048
490330 5.45374e+06 111.118
490330 5.45374e+06 101.048
490330 5.45374e+06 101.048
490330 5.45374e+06 111.118
3 6 7 9
3 6 8 9
3 9 8 7
3 6 8 11
3 11 10 6
3 6 7 10
3 14 13 12
3 12 13 15
3 13 14 15
3 16 14 12
3 17 16 12
3 12 15 17
3 15 24 25
3 14 15 25
3 24 17 16
3 15 17 24
3 19 24 25
3 25 19 14
3 14 16 19
3 24 23 19
3 16 23 24
3 16 19 23
3 26 22 21
3 27 22 21
3 22 26 28
3 26 27 28
3 22 27 28
3 29 27 26
3 29 26 21
3 29 27 21
3 30 4 1
3 30 5 4
3 1 4 5
3 0 1 5
3 31 30 1
3 31 1 0
3 30 31 32
3 32 31 0
3 30 32 33
3 5 30 33
3 35 34 9
3 35 9 7
3 7 9 10
3 6 10 34
3 6 9 34
3 10 9 6
3 36 35 7
3 37 34 10
3 34 37 38
3 39 38 34
3 39 35 34
3 35 36 39
3 42 41 40
3 20 40 41
3 20 41 42
3 43 40 18
3 40 20 18
3 43 42 40
3 13 44 45
3 15 44 45
3 45 15 13
3 15 17 44
3 13 15 17
3 12 17 44
3 44 13 12
3 17 13 12
3 48 47 1
3 49 46 1
3 1 48 49
3 46 4 1
3 4 46 47
3 47 4 1
3 50 47 46
3 51 49 46
3 51 49 48
3 51 50 46
3 52 28 22
3 52 22 21
3 28 22 21
3 52 28 26
3 28 26 21
3 53 52 26
3 53 52 21
3 53 26 21
3 50 51 54
3 51 54 55
3 55 54 48
3 48 51 55
3 47 50 54
3 47 48 54
3 58 57 56
3 59 58 56
3 56 57 60
3 56 60 61
3 61 59 56
3 59 60 61
3 3 5 62
3 5 3 2
3 0 2 63
3 5 2 0
3 64 63 2
3 3 62 65
3 63 32 0
3 5 33 62
3 32 63 64
3 65 62 33
3 67 66 64
3 67 66 32
3 32 64 67
3 66 33 32
3 66 65 33
3 64 65 66
3 68 38 37
3 68 37 36
3 36 68 69
3 69 39 36
3 68 59 38
3 39 58 69
3 57 60 68
3 68 60 59
3 57 68 69
3 69 58 57
3 15 70 71
3 15 45 71
3 15 17 70
3 15 17 45
3 70 44 17
3 45 44 17
3 71 45 13
3 45 13 12
3 12 44 70
3 12 44 45
3 71 70 14
3 71 14 13
3 14 16 70
3 16 14 13
3 12 16 70
3 16 13 12
3 72 43 18
3 18 20 72
3 20 72 73
3 73 42 20
3 43 72 74
3 72 74 75
3 75 73 72
3 75 73 42
3 76 9 8
3 11 9 8
3 77 76 6
3 77 11 6
3 76 9 6
3 11 9 6
3 76 75 42
3 77 76 43
3 43 74 77
3 76 43 42
3 79 77 74
3 75 76 78
3 11 77 79
3 78 76 8
3 49 51 80
3 50 51 80
3 51 50 49
3 81 80 46
3 81 80 50
3 81 50 46
3 80 49 46
3 50 49 46
3 50 81 82
3 50 51 82
3 50 51 81
3 82 81 80
3 81 80 51
3 83 82 80
3 83 82 51
3 83 80 51
3 48 55 84
3 47 48 84
3 47 48 55
3 54 55 84
3 47 54 55
3 54 84 85
3 47 84 85
3 47 54 85
3 86 85 84
3 81 85 86
3 87 86 84
3 80 84 87
3 80 83 84
3 83 81 80
3 84 83 82
3 83 82 81
3 85 84 82
3 85 82 81
3 38 59 90
3 39 58 91
3 59 61 90
3 58 59 61
3 56 61 90
3 61 58 56
3 91 90 56
3 91 58 56
3 35 38 39
3 91 90 35
3 35 39 91
3 34 38 90
3 34 35 90
3 34 35 38
3 56 89 92
3 92 89 88
3 93 92 88
3 61 88 93
3 92 91 56
3 56 61 91
3 90 91 92
3 61 90 91
3 90 92 93
3 93 90 61
3 94 11 8
3 10 11 94
3 8 94 95
3 95 8 7
3 36 37 94
3 94 37 10
3 36 94 95
3 7 36 95
3 96 95 36
3 36 37 96
3 36 37 95
3 95 94 37
3 97 96 37
3 97 94 37
3 79 96 97
3 11 79 97
3 96 79 78
3 96 78 8
3 8 95 96
3 8 11 95
3 11 94 97
3 11 94 95
3 104 67 64
3 67 65 64
3 66 104 105
3 65 66 105
3 66 67 104
3 65 66 67
3 105 104 3
3 3 65 105
3 104 64 2
3 2 3 104
3 72 73 106
3 18 72 73
3 72 106 107
3 107 106 18
3 107 72 18
3 106 20 18
3 20 73 106
3 18 20 73
3 24 25 108
3 23 24 25
3 24 108 109
3 109 24 23
3 19 25 108
3 25 23 19
3 23 40 41
3 23 40 109
3 108 41 19
3 41 23 19
3 108 42 41
3 108 43 42
3 43 42 41
3 109 108 43
3 40 43 109
3 40 41 43
3 110 9 6
3 17 9 6
3 111 110 6
3 111 110 17
3 111 17 6
3 110 17 15
3 110 15 9
3 17 15 9
3 15 17 25
3 113 25 15
3 112 24 17
3 25 24 17
3 17 111 112
3 15 17 111
3 15 110 111
3 15 110 113
3 112 109 24
3 24 25 109
3 25 108 109
3 113 108 25
3 112 111 109
3 113 110 108
3 46 49 114
3 4 46 114
3 4 46 49
3 115 114 49
3 115 114 1
3 115 49 1
3 114 4 1
3 49 4 1
3 1 31 116
3 31 4 1
3 117 116 30
3 117 30 4
3 116 31 30
3 31 30 4
3 116 115 1
3 115 4 1
3 114 115 116
3 4 114 115
3 114 116 117
3 4 114 117
3 50 51 55
3 119 55 51
3 118 54 50
3 55 54 50
3 119 83 51
3 50 51 83
3 50 82 118
3 50 82 83
3 118 85 54
3 54 55 85
3 119 84 55
3 85 84 55
3 82 85 118
3 82 83 85
3 85 84 83
3 83 84 119
3 121 120 100
3 100 101 121
3 101 100 99
3 120 99 98
3 98 100 120
3 98 99 100
3 120 121 122
3 122 121 101
3 99 120 123
3 120 122 123
3 100 121 124
3 98 100 121
3 125 120 98
3 121 120 98
3 124 123 122
3 121 122 124
3 121 122 123
3 120 121 123
3 125 124 123
3 125 123 120
3 22 100 124
3 124 22 21
3 21 124 125
3 125 98 21
3 126 53 21
3 53 22 21
3 52 126 127
3 22 52 127
3 52 53 126
3 22 52 53
3 98 100 126
3 21 98 126
3 127 126 100
3 127 100 22
3 129 128 102
3 87 128 129
3 87 102 129
3 86 87 128
3 86 87 102
3 102 103 128
3 86 103 128
3 103 102 86
3 30 117 130
3 130 31 30
3 117 31 30
3 31 130 131
3 131 116 31
3 117 116 31
3 132 130 117
3 116 131 133
3 88 89 130
3 88 130 131
3 133 131 88
3 89 130 132
3 31 131 134
3 131 31 30
3 130 131 134
3 131 130 30
3 130 134 135
3 30 130 135
3 31 32 134
3 33 32 31
3 135 33 30
3 30 31 33
3 134 67 66
3 67 66 33
3 135 134 66
3 135 66 33
3 32 67 134
3 67 33 32
3 49 80 81
3 49 80 137
3 46 81 136
3 81 49 46
3 81 86 136
3 80 87 137
3 86 87 129
3 137 136 129
3 137 129 87
3 136 129 128
3 86 128 136
3 86 128 129
3 115 49 46
3 115 136 137
3 49 115 137
3 136 115 114
3 136 114 46
3 115 114 46
3 139 138 114
3 139 138 117
3 139 117 114
3 138 115 114
3 117 115 114
3 115 116 138
3 116 117 138
3 115 116 117
3 140 60 57
3 57 60 61
3 60 140 141
3 141 61 60
3 56 57 140
3 61 57 56
3 141 133 88
3 140 132 89
3 141 88 61
3 140 89 56
3 116 117 140
3 116 140 141
3 116 133 141
3 117 132 140
3 142 97 37
3 36 37 97
3 143 142 96
3 143 96 36
3 142 97 96
3 36 96 97
3 37 68 142
3 37 68 69
3 143 69 36
3 69 37 36
3 142 68 60
3 69 68 60
3 57 142 143
3 57 69 143
3 57 60 142
3 57 60 69
3 144 107 106
3 106 123 144
3 107 144 145
3 145 122 107
3 123 125 144
3 125 123 122
3 145 124 122
3 122 124 125
3 22 124 125
3 145 144 22
3 22 124 145
3 144 125 21
3 21 22 144
3 21 22 125
3 107 106 73
3 147 106 73
3 72 107 146
3 72 73 107
3 75 74 73
3 73 75 147
3 146 74 72
3 74 73 72
3 146 101 99
3 147 146 99
3 99 123 147
3 146 122 101
3 147 123 106
3 107 122 146
3 78 146 147
3 75 78 147
3 78 79 146
3 146 79 74
3 43 77 148
3 42 43 77
3 149 76 42
3 77 76 42
3 148 109 43
3 109 43 42
3 42 108 149
3 109 108 42
3 109 111 148
3 149 110 108
3 148 77 6
3 77 9 6
3 9 76 149
3 9 76 77
3 9 110 111
3 9 110 149
3 148 111 6
3 111 9 6
3 150 137 129
3 137 129 128
3 151 136 128
3 137 136 128
3 115 137 150
3 137 115 114
3 114 136 151
3 114 136 137
3 139 115 114
3 151 139 114
3 115 138 150
3 115 138 139
3 150 138 129
3 128 139 151
3 152 139 117
3 116 117 139
3 116 138 153
3 116 138 139
3 116 117 141
3 116 141 153
3 152 140 117
3 141 140 117
3 103 140 152
3 103 140 141
3 153 141 102
3 102 103 141
3 152 128 103
3 103 128 129
3 153 129 102
3 129 103 102
3 128 139 152
3 153 138 129
