ply
format ascii 1.0
comment Created by Open3D
element vertex 50
property double x
property double y
property double z
element face 156
property list uchar uint vertex_indices
end_header
490321 5.45373e+06 112.243
490320 5.45373e+06 102.173
490321 5.45373e+06 102.173
490321 5.45373e+06 102.173
490321 5.45373e+06 112.243
490320 5.45373e+06 112.243
490320 5.45373e+06 102.173
490320 5.45373e+06 112.243
490322 5.45373e+06 102.173
490322 5.45373e+06 112.243
490323 5.45373e+06 102.173
490323 5.45373e+06 112.243
490323 5.45373e+06 102.173
490323 5.45373e+06 102.173
490323 5.45373e+06 112.243
490323 5.45373e+06 112.243
490323 5.45373e+06 112.243
490323 5.45373e+06 102.173
490323 5.45373e+06 112.243
490323 5.45373e+06 102.173
490320 5.45373e+06 112.243
490319 5.45373e+06 112.243
490319 5.45373e+06 102.173
490319 5.45373e+06 112.243
490319 5.45373e+06 102.173
490320 5.45373e+06 102.173
490320 5.45373e+06 102.173
490320 5.45373e+06 112.243
490321 5.45373e+06 112.243
490321 5.45373e+06 102.173
490323 5.45373e+06 102.173
490323 5.45373e+06 112.243
490323 5.45373e+06 112.243
490323 5.45373e+06 102.173
490322 5.45373e+06 112.243
490322 5.45373e+06 102.173
490319 5.45373e+06 112.243
490319 5.45373e+06 102.173
490319 5.45373e+06 102.173
490319 5.45373e+06 112.243
490323 5.45373e+06 112.243
490323 5.45373e+06 102.173
490323 5.45373e+06 102.173
490323 5.45373e+06 112.243
490322 5.45373e+06 102.173
490322 5.45373e+06 112.243
490323 5.45373e+06 102.173
490323 5.45373e+06 112.243
490323 5.45373e+06 112.243
490323 5.45373e+06 102.173
3 2 1 0
3 3 2 0
3 3 2 1
3 4 3 0
3 5 1 0
3 0 4 5
3 1 5 6
3 7 6 5
3 4 5 7
3 1 3 6
3 8 6 3
3 6 7 9
3 4 7 9
3 9 8 6
3 12 11 10
3 10 12 13
3 10 14 15
3 10 11 15
3 15 14 11
3 14 13 10
3 18 17 16
3 8 17 18
3 16 17 19
3 19 17 8
3 18 16 9
3 18 9 8
3 16 15 9
3 10 15 16
3 10 16 19
3 8 10 19
3 20 21 22
3 23 21 20
3 21 22 23
3 25 24 20
3 25 22 20
3 25 24 22
3 24 23 20
3 24 23 22
3 1 2 26
3 1 2 5
3 27 5 0
3 5 2 0
3 27 7 5
3 1 5 7
3 1 6 26
3 7 6 1
3 6 25 26
3 27 20 7
3 2 25 26
3 0 20 27
3 30 29 3
3 4 28 31
3 13 29 30
3 31 28 14
3 29 13 12
3 11 14 28
3 28 15 11
3 15 12 11
3 10 12 15
3 29 12 10
3 29 8 3
3 4 9 28
3 9 15 28
3 29 10 8
3 32 18 17
3 19 18 17
3 33 32 17
3 17 19 33
3 16 18 32
3 16 18 19
3 10 32 33
3 33 19 10
3 10 15 32
3 10 15 19
3 15 16 32
3 15 16 19
3 35 34 25
3 35 25 2
3 0 20 34
3 20 25 34
3 30 34 35
3 3 30 35
3 30 31 34
3 34 31 4
3 4 3 2
3 2 3 35
3 34 4 0
3 4 2 0
3 23 24 37
3 38 37 24
3 39 36 23
3 23 37 39
3 7 20 36
3 38 25 6
3 20 23 36
3 20 23 25
3 24 25 38
3 25 24 23
3 39 37 8
3 8 37 38
3 9 36 39
3 8 9 39
3 6 7 8
3 6 8 38
3 36 9 7
3 9 8 7
3 14 31 40
3 13 14 40
3 13 40 41
3 13 30 41
3 35 31 30
3 41 40 35
3 30 35 41
3 31 34 40
3 34 35 40
3 31 34 35
3 42 25 22
3 42 22 21
3 25 22 21
3 43 42 20
3 21 42 43
3 20 21 43
3 20 25 42
3 20 21 25
3 44 35 25
3 20 25 35
3 34 44 45
3 20 34 45
3 34 35 44
3 20 34 35
3 20 25 43
3 20 43 45
3 44 42 25
3 43 42 25
3 47 46 44
3 43 46 47
3 44 45 47
3 47 45 43
3 42 44 46
3 46 43 42
3 45 47 48
3 48 47 46
3 47 46 45
3 46 45 44
3 49 48 46
3 49 46 44
3 34 35 41
3 49 48 41
3 49 41 35
3 34 40 48
3 40 41 48
3 34 40 41
3 48 45 34
3 34 35 45
3 35 44 45
3 35 44 49
