ply
format ascii 1.0
comment Created by Open3D
element vertex 190
property double x
property double y
property double z
element face 664
property list uchar uint vertex_indices
end_header
490219 5.45378e+06 115.243
490221 5.45378e+06 105.172
490219 5.45378e+06 105.172
490220 5.45378e+06 105.172
490221 5.45378e+06 115.243
490220 5.45378e+06 115.243
490221 5.45378e+06 105.172
490221 5.45378e+06 115.243
490205 5.45378e+06 115.243
490205 5.45378e+06 105.172
490213 5.45377e+06 105.172
490205 5.45378e+06 105.172
490205 5.45378e+06 115.243
490213 5.45377e+06 115.243
490211 5.45377e+06 115.243
490219 5.45377e+06 115.243
490219 5.45377e+06 105.172
490219 5.45377e+06 115.243
490219 5.45377e+06 105.172
490211 5.45377e+06 105.172
490204 5.45377e+06 115.243
490205 5.45377e+06 115.243
490204 5.45377e+06 115.243
490205 5.45377e+06 105.172
490204 5.45377e+06 105.172
490204 5.45377e+06 105.172
490218 5.45378e+06 115.243
490218 5.45378e+06 105.172
490220 5.45378e+06 105.172
490220 5.45378e+06 115.243
490204 5.45377e+06 105.172
490204 5.45377e+06 115.243
490206 5.45378e+06 115.243
490204 5.45377e+06 105.172
490204 5.45377e+06 115.243
490206 5.45378e+06 105.172
490205 5.45378e+06 105.172
490205 5.45378e+06 115.243
490204 5.45377e+06 105.172
490204 5.45377e+06 115.243
490205 5.45378e+06 105.172
490205 5.45378e+06 115.243
490205 5.45378e+06 105.172
490212 5.45379e+06 115.243
490205 5.45378e+06 115.243
490212 5.45379e+06 105.172
490208 5.45379e+06 105.172
490208 5.45379e+06 115.243
490206 5.45378e+06 115.243
490206 5.45378e+06 105.172
490208 5.45379e+06 115.243
490208 5.45379e+06 105.172
490210 5.45379e+06 105.172
490207 5.45379e+06 105.172
490207 5.45379e+06 115.243
490210 5.45379e+06 115.243
490206 5.45378e+06 115.243
490212 5.45379e+06 115.243
490212 5.45379e+06 105.172
490206 5.45378e+06 105.172
490220 5.45377e+06 115.243
490220 5.45377e+06 105.172
490220 5.45377e+06 115.243
490220 5.45377e+06 105.172
490220 5.45377e+06 105.172
490220 5.45377e+06 115.243
490205 5.45378e+06 115.243
490205 5.45378e+06 105.172
490204 5.45377e+06 115.243
490204 5.45377e+06 105.172
490219 5.45378e+06 115.243
490219 5.45378e+06 105.172
490219 5.45378e+06 105.172
490219 5.45378e+06 115.243
490219 5.45377e+06 105.172
490219 5.45377e+06 115.243
490211 5.45379e+06 115.243
490211 5.45379e+06 105.172
490218 5.45379e+06 115.243
490218 5.45379e+06 105.172
490217 5.45377e+06 115.243
490217 5.45377e+06 105.172
490216 5.45377e+06 105.172
490216 5.45377e+06 115.243
490217 5.45377e+06 115.243
490217 5.45377e+06 105.172
490220 5.45377e+06 115.243
490220 5.45377e+06 105.172
490207 5.45377e+06 105.172
490207 5.45377e+06 115.243
490207 5.45377e+06 105.172
490207 5.45377e+06 115.243
490205 5.45377e+06 115.243
490205 5.45377e+06 105.172
490205 5.45378e+06 115.243
490205 5.45378e+06 105.172
490205 5.45377e+06 105.172
490205 5.45377e+06 115.243
490204 5.45377e+06 115.243
490206 5.45377e+06 105.172
490205 5.45377e+06 105.172
490205 5.45377e+06 115.243
490204 5.45377e+06 105.172
490206 5.45377e+06 115.243
490219 5.45378e+06 115.243
490219 5.45378e+06 105.172
490216 5.45379e+06 105.172
490216 5.45379e+06 115.243
490220 5.45378e+06 115.243
490220 5.45378e+06 105.172
490220 5.45377e+06 115.243
490216 5.45377e+06 105.172
490216 5.45377e+06 115.243
490216 5.45377e+06 105.172
490220 5.45377e+06 105.172
490216 5.45377e+06 115.243
490218 5.45377e+06 105.172
490218 5.45377e+06 115.243
490215 5.45379e+06 115.243
490215 5.45379e+06 105.172
490214 5.45379e+06 115.243
490214 5.45379e+06 105.172
490217 5.45379e+06 115.243
490217 5.45379e+06 105.172
490218 5.45379e+06 105.172
490218 5.45379e+06 115.243
490205 5.45378e+06 115.243
490205 5.45378e+06 105.172
490216 5.45377e+06 115.243
490216 5.45377e+06 105.172
490205 5.45377e+06 115.243
490205 5.45377e+06 105.172
490205 5.45377e+06 115.243
490205 5.45377e+06 105.172
490204 5.45377e+06 115.243
490204 5.45377e+06 105.172
490214 5.45379e+06 115.243
490214 5.45379e+06 105.172
490221 5.45378e+06 115.243
490221 5.45378e+06 105.172
490216 5.45379e+06 115.243
490216 5.45379e+06 105.172
490213 5.45379e+06 115.243
490213 5.45379e+06 105.172
490210 5.45377e+06 115.243
490209 5.45377e+06 105.172
490210 5.45377e+06 105.172
490209 5.45377e+06 115.243
490218 5.45377e+06 115.243
490220 5.45377e+06 105.172
490218 5.45377e+06 105.172
490220 5.45377e+06 115.243
490220 5.45377e+06 105.172
490220 5.45377e+06 115.243
490204 5.45377e+06 115.243
490204 5.45377e+06 105.172
490215 5.45379e+06 115.243
490215 5.45379e+06 105.172
490220 5.45378e+06 105.172
490220 5.45378e+06 115.243
490220 5.45377e+06 105.172
490220 5.45377e+06 115.243
490217 5.45379e+06 115.243
490217 5.45379e+06 105.172
490220 5.45377e+06 115.243
490220 5.45377e+06 105.172
490208 5.45377e+06 115.243
490208 5.45377e+06 105.172
490205 5.45377e+06 105.172
490205 5.45377e+06 115.243
490215 5.45379e+06 115.243
490215 5.45379e+06 105.172
490215 5.45377e+06 105.172
490215 5.45377e+06 115.243
490214 5.45377e+06 115.243
490214 5.45377e+06 105.172
490214 5.45377e+06 115.243
490214 5.45377e+06 105.172
490211 5.45377e+06 115.243
490211 5.45377e+06 105.172
490210 5.45377e+06 105.172
490210 5.45377e+06 115.243
490220 5.45377e+06 115.243
490220 5.45377e+06 105.172
490216 5.45377e+06 105.172
490216 5.45377e+06 115.243
490220 5.45377e+06 115.243
490220 5.45377e+06 105.172
490213 5.45377e+06 115.243
490213 5.45377e+06 105.172
3 2 1 0
3 3 2 0
3 1 2 3
3 0 1 4
3 0 4 5
3 5 3 0
3 10 9 8
3 11 9 8
3 9 10 11
3 12 11 8
3 13 10 8
3 13 12 8
3 14 15 17
3 17 16 14
3 14 18 19
3 14 16 19
3 19 18 16
3 14 15 18
3 22 21 20
3 20 21 23
3 20 22 24
3 20 24 25
3 20 23 25
3 25 24 23
3 27 26 10
3 27 26 3
3 27 10 3
3 3 5 26
3 5 13 26
3 26 13 10
3 1 4 28
3 28 3 1
3 29 28 5
3 29 28 4
3 4 5 29
3 28 5 3
3 24 25 30
3 22 24 30
3 25 24 22
3 20 30 34
3 22 30 34
3 34 22 20
3 20 25 30
3 20 22 25
3 39 38 30
3 38 33 30
3 33 38 39
3 30 31 34
3 30 34 39
3 39 34 31
3 33 31 30
3 31 33 39
3 44 43 42
3 26 43 44
3 42 43 45
3 45 42 27
3 12 13 44
3 42 11 10
3 10 27 42
3 27 13 10
3 13 26 27
3 13 26 44
3 44 37 12
3 42 36 11
3 36 37 41
3 44 42 41
3 44 41 37
3 36 40 42
3 40 41 42
3 41 40 36
3 32 46 47
3 48 47 46
3 48 47 32
3 49 48 46
3 32 48 49
3 46 35 32
3 49 46 35
3 49 35 32
3 53 52 51
3 52 53 54
3 50 54 55
3 52 54 55
3 47 50 55
3 46 51 52
3 54 50 48
3 54 49 48
3 53 51 49
3 54 53 49
3 47 48 50
3 47 48 49
3 46 49 51
3 49 47 46
3 55 56 57
3 56 57 58
3 59 58 56
3 52 58 59
3 47 55 56
3 46 52 59
3 56 41 32
3 32 35 41
3 40 41 56
3 35 40 41
3 40 56 59
3 59 40 35
3 32 47 56
3 47 35 32
3 35 46 59
3 47 46 35
3 62 61 60
3 63 62 61
3 60 61 64
3 64 63 60
3 64 63 61
3 60 62 65
3 60 63 65
3 62 63 65
3 9 11 12
3 9 11 67
3 66 12 8
3 12 9 8
3 11 36 67
3 66 37 12
3 67 36 9
3 8 37 66
3 22 34 68
3 68 24 22
3 34 24 22
3 30 34 68
3 24 30 34
3 30 68 69
3 24 68 69
3 69 30 24
3 71 70 3
3 2 3 71
3 70 5 3
3 5 3 2
3 70 5 0
3 0 2 5
3 72 71 70
3 2 71 72
3 73 72 70
3 2 72 73
3 73 70 0
3 0 2 73
3 77 76 45
3 77 58 45
3 76 57 43
3 43 45 76
3 52 76 77
3 77 58 52
3 55 57 76
3 52 55 76
3 71 78 79
3 72 78 79
3 71 72 79
3 78 73 72
3 71 72 73
3 78 71 70
3 70 73 78
3 73 71 70
3 16 17 80
3 16 17 19
3 19 80 81
3 16 80 81
3 81 19 16
3 80 19 14
3 14 17 80
3 14 17 19
3 83 82 80
3 84 83 80
3 81 82 85
3 82 81 80
3 86 83 82
3 83 84 86
3 82 86 87
3 87 85 82
3 20 34 92
3 92 25 20
3 34 25 20
3 30 34 92
3 25 30 34
3 30 92 93
3 93 92 25
3 93 30 25
3 93 92 9
3 93 92 36
3 9 36 93
3 8 9 92
3 92 37 8
3 92 37 36
3 8 13 94
3 94 9 8
3 13 9 8
3 9 94 95
3 10 94 95
3 9 10 95
3 94 13 10
3 9 10 13
3 10 23 96
3 96 23 21
3 97 96 21
3 97 21 13
3 96 95 10
3 10 13 95
3 13 94 97
3 95 94 13
3 96 93 9
3 93 9 8
3 96 93 92
3 93 92 8
3 97 96 92
3 8 92 97
3 9 95 96
3 95 9 8
3 97 94 8
3 95 94 8
3 102 99 98
3 102 100 99
3 98 99 103
3 98 101 103
3 102 98 69
3 69 100 102
3 68 69 98
3 101 98 68
3 105 27 3
3 3 5 27
3 5 26 104
3 5 26 27
3 71 5 3
3 71 104 105
3 3 71 105
3 104 70 5
3 104 71 70
3 5 70 71
3 106 105 104
3 27 105 106
3 107 104 26
3 107 106 104
3 5 13 108
3 108 13 10
3 109 108 10
3 109 10 3
3 28 29 108
3 29 28 3
3 109 108 28
3 3 28 109
3 108 29 5
3 29 5 3
3 110 112 113
3 110 113 114
3 111 113 114
3 110 112 115
3 87 110 114
3 87 111 114
3 86 87 110
3 86 110 115
3 116 85 81
3 117 116 80
3 80 84 117
3 116 81 80
3 117 116 86
3 84 86 117
3 86 87 116
3 116 87 85
3 124 123 122
3 124 123 79
3 125 124 122
3 125 124 79
3 78 122 125
3 125 79 78
3 71 122 123
3 71 79 123
3 122 71 70
3 79 71 70
3 122 78 70
3 79 78 70
3 42 44 45
3 42 45 127
3 126 44 43
3 43 44 45
3 40 41 59
3 40 59 127
3 126 56 41
3 59 56 41
3 41 44 126
3 40 41 44
3 40 42 127
3 40 42 44
3 45 58 127
3 43 57 126
3 57 58 59
3 127 59 58
3 126 57 56
3 59 57 56
3 128 86 83
3 83 86 87
3 128 83 82
3 87 83 82
3 82 128 129
3 82 87 129
3 129 128 111
3 87 111 129
3 128 115 111
3 128 115 86
3 25 23 21
3 131 25 23
3 130 21 20
3 20 21 25
3 131 93 25
3 93 25 20
3 20 92 130
3 20 92 93
3 130 97 21
3 97 23 21
3 97 96 23
3 23 96 131
3 92 97 130
3 97 93 92
3 93 96 131
3 93 96 97
3 132 24 22
3 69 24 22
3 24 132 133
3 133 69 24
3 22 68 132
3 22 68 69
3 133 102 69
3 68 69 102
3 68 98 132
3 68 98 102
3 132 103 99
3 99 102 103
3 133 132 99
3 99 102 133
3 98 103 132
3 98 102 103
3 134 101 68
3 100 134 135
3 69 100 135
3 100 101 134
3 30 34 134
3 30 34 69
3 30 134 135
3 30 69 135
3 134 68 34
3 69 68 34
3 26 120 136
3 136 27 26
3 27 136 137
3 137 121 27
3 137 136 119
3 119 121 137
3 119 120 121
3 136 120 118
3 118 119 136
3 120 119 118
3 138 4 1
3 6 4 1
3 139 138 1
3 139 138 6
3 139 6 1
3 138 7 4
3 6 7 138
3 4 6 7
3 141 140 124
3 119 124 141
3 140 125 124
3 125 124 119
3 118 125 140
3 125 119 118
3 106 119 141
3 107 118 140
3 105 140 141
3 141 106 105
3 107 106 105
3 104 107 140
3 140 105 104
3 107 105 104
3 142 121 120
3 121 142 143
3 27 121 143
3 142 120 26
3 142 43 26
3 143 142 45
3 143 45 27
3 43 45 142
3 14 19 144
3 14 19 145
3 146 144 19
3 146 145 19
3 14 144 147
3 147 145 14
3 147 144 21
3 23 145 146
3 10 144 146
3 146 23 10
3 144 13 10
3 13 21 144
3 16 149 150
3 151 148 17
3 16 17 81
3 150 81 16
3 148 80 17
3 81 80 17
3 148 117 80
3 117 81 80
3 81 116 117
3 150 116 81
3 117 148 153
3 116 150 152
3 152 150 149
3 148 151 153
3 155 154 23
3 23 24 155
3 21 22 154
3 154 23 21
3 133 154 155
3 24 133 155
3 133 24 22
3 154 133 132
3 154 132 22
3 133 132 22
3 27 156 157
3 157 106 27
3 156 27 26
3 26 107 156
3 157 156 119
3 157 119 106
3 107 118 156
3 118 119 156
3 110 112 114
3 159 158 112
3 159 112 110
3 158 114 113
3 158 113 112
3 112 113 114
3 1 4 29
3 4 29 159
3 158 28 1
3 29 28 1
3 158 109 108
3 109 108 29
3 159 158 108
3 29 108 159
3 158 109 28
3 28 29 109
3 1 139 158
3 139 4 1
3 159 138 4
3 4 138 139
3 158 139 114
3 110 138 159
3 87 114 160
3 86 87 114
3 161 110 86
3 86 110 114
3 87 116 160
3 117 116 87
3 161 117 86
3 86 87 117
3 117 153 161
3 116 152 160
3 139 152 160
3 153 152 139
3 161 153 138
3 153 139 138
3 114 139 160
3 161 138 110
3 123 124 163
3 125 124 123
3 162 125 122
3 125 123 122
3 124 141 163
3 124 125 141
3 162 140 125
3 141 140 125
3 71 123 163
3 123 71 70
3 162 122 70
3 123 122 70
3 163 105 71
3 105 71 70
3 70 104 162
3 70 104 105
3 163 141 105
3 104 105 141
3 104 140 162
3 104 140 141
3 164 65 63
3 65 64 63
3 165 164 64
3 165 164 63
3 63 64 165
3 60 64 164
3 60 65 164
3 65 64 60
3 167 145 23
3 166 147 21
3 155 23 21
3 23 155 167
3 21 154 166
3 21 154 155
3 167 155 133
3 155 133 132
3 132 154 166
3 132 154 155
3 89 90 145
3 90 145 167
3 89 147 166
3 89 145 147
3 99 103 133
3 167 133 99
3 103 132 166
3 133 132 103
3 88 90 91
3 167 90 88
3 166 91 89
3 91 90 89
3 166 103 91
3 88 99 167
3 135 134 34
3 169 134 34
3 30 135 168
3 30 34 135
3 38 39 168
3 39 38 34
3 39 168 169
3 34 39 169
3 30 38 168
3 30 34 38
3 101 134 135
3 101 134 169
3 168 135 100
3 135 101 100
3 168 100 99
3 169 103 101
3 169 168 91
3 91 103 169
3 88 91 168
3 168 99 88
3 137 27 26
3 27 137 171
3 170 136 26
3 137 136 26
3 157 27 26
3 27 157 171
3 170 156 26
3 157 156 26
3 171 137 119
3 137 119 118
3 118 136 170
3 137 136 118
3 171 157 119
3 157 119 118
3 118 156 170
3 157 156 118
3 172 113 111
3 112 113 172
3 173 172 115
3 173 172 112
3 173 115 112
3 111 115 172
3 174 159 108
3 159 109 108
3 109 158 159
3 109 158 175
3 108 174 176
3 177 175 109
3 112 159 174
3 112 113 159
3 159 158 113
3 175 158 113
3 174 173 112
3 112 113 173
3 173 172 113
3 113 172 175
3 14 173 174
3 175 172 19
3 14 174 178
3 179 175 19
3 178 176 174
3 175 177 179
3 180 146 10
3 146 13 10
3 13 144 181
3 13 144 146
3 10 179 180
3 181 178 13
3 19 146 180
3 146 19 14
3 181 144 14
3 146 144 14
3 14 178 181
3 180 179 19
3 75 74 18
3 18 182 183
3 183 74 18
3 15 75 182
3 182 18 15
3 75 18 15
3 182 75 62
3 61 62 75
3 61 74 183
3 61 74 75
3 64 62 61
3 183 64 61
3 182 62 60
3 60 62 64
3 60 64 165
3 183 182 165
3 183 165 64
3 164 165 182
3 60 164 182
3 165 164 60
3 129 128 115
3 115 128 185
3 184 129 111
3 129 115 111
3 185 173 115
3 111 115 173
3 111 172 184
3 173 172 111
3 14 173 185
3 184 172 19
3 82 129 184
3 129 83 82
3 185 128 83
3 83 128 129
3 81 82 184
3 81 82 83
3 185 83 80
3 83 81 80
3 81 80 14
3 185 80 14
3 19 81 184
3 81 19 14
3 187 186 152
3 187 152 149
3 152 153 186
3 186 153 151
3 165 186 187
3 187 183 165
3 186 165 164
3 183 165 164
3 164 182 186
3 183 182 164
3 187 149 16
3 186 151 17
3 16 18 187
3 186 17 15
3 18 183 187
3 183 18 15
3 186 182 15
3 183 182 15
3 108 176 188
3 189 177 109
3 109 13 10
3 189 109 10
3 13 108 188
3 13 108 109
3 188 178 13
3 10 179 189
3 189 179 177
3 176 178 188
