ply
format ascii 1.0
comment Created by Open3D
element vertex 40
property double x
property double y
property double z
element face 124
property list uchar uint vertex_indices
end_header
490308 5.45373e+06 112.861
490309 5.45373e+06 102.79
490308 5.45373e+06 102.79
490309 5.45373e+06 102.79
490309 5.45373e+06 112.861
490309 5.45373e+06 112.861
490308 5.45373e+06 102.79
490308 5.45373e+06 112.861
490308 5.45373e+06 112.861
490309 5.45373e+06 112.861
490308 5.45373e+06 112.861
490309 5.45373e+06 102.79
490308 5.45373e+06 102.79
490308 5.45373e+06 102.79
490308 5.45373e+06 112.861
490308 5.45373e+06 102.79
490308 5.45372e+06 102.79
490308 5.45373e+06 102.79
490308 5.45372e+06 112.861
490308 5.45373e+06 112.861
490308 5.45373e+06 112.861
490308 5.45373e+06 102.79
490309 5.45372e+06 102.79
490308 5.45372e+06 102.79
490309 5.45372e+06 112.861
490309 5.45372e+06 102.79
490308 5.45372e+06 112.861
490309 5.45372e+06 112.861
490309 5.45372e+06 112.861
490309 5.45372e+06 102.79
490309 5.45373e+06 112.861
490309 5.45373e+06 102.79
490309 5.45372e+06 112.861
490309 5.45372e+06 102.79
490309 5.45373e+06 102.79
490309 5.45373e+06 112.861
490309 5.45373e+06 112.861
490309 5.45373e+06 102.79
490309 5.45373e+06 112.861
490309 5.45373e+06 102.79
3 0 2 3
3 3 2 1
3 0 4 5
3 0 3 4
3 0 6 7
3 0 5 7
3 6 2 0
3 1 2 6
3 10 9 8
3 8 9 11
3 8 10 12
3 8 12 13
3 13 11 8
3 11 12 13
3 14 15 16
3 17 15 14
3 17 16 15
3 14 16 18
3 18 17 16
3 14 18 19
3 19 17 14
3 17 18 19
3 20 19 10
3 17 19 20
3 17 20 21
3 12 17 21
3 21 20 13
3 21 13 12
3 13 12 10
3 8 13 20
3 20 10 8
3 8 10 13
3 20 5 1
3 21 20 1
3 21 20 6
3 1 6 21
3 20 7 6
3 20 7 5
3 22 23 25
3 25 24 22
3 25 24 23
3 22 26 27
3 27 24 22
3 24 26 27
3 26 23 22
3 23 24 26
3 24 27 28
3 24 25 28
3 27 25 24
3 22 27 28
3 27 25 22
3 29 28 22
3 25 28 29
3 22 25 29
3 31 30 2
3 3 30 31
3 2 3 31
3 30 4 3
3 2 3 4
3 30 4 0
3 0 2 30
3 0 2 4
3 15 16 33
3 18 16 15
3 32 18 14
3 14 15 18
3 35 32 14
3 15 33 34
3 33 23 16
3 23 18 16
3 32 26 18
3 18 23 26
3 32 27 26
3 27 26 23
3 22 23 33
3 22 23 27
3 29 32 33
3 33 29 22
3 22 27 29
3 32 28 27
3 32 29 28
3 27 28 29
3 33 32 11
3 34 33 11
3 9 32 35
3 32 11 9
3 19 17 15
3 15 17 37
3 36 19 14
3 14 15 19
3 10 19 36
3 37 17 12
3 37 12 11
3 9 10 36
3 36 35 9
3 11 34 37
3 14 35 36
3 37 34 15
3 4 5 38
3 3 4 38
3 3 38 39
3 1 3 39
3 11 33 39
3 33 11 9
3 9 32 38
3 33 32 9
3 39 38 29
3 39 33 29
3 28 29 38
3 28 29 33
3 38 32 28
3 28 32 33
3 39 13 11
3 13 11 9
3 8 9 38
3 8 9 13
3 39 21 1
3 1 5 21
3 5 20 38
3 21 20 5
3 39 21 13
3 21 13 8
3 38 20 8
3 21 20 8
