ply
format ascii 1.0
comment Created by Open3D
element vertex 102
property double x
property double y
property double z
element face 344
property list uchar uint vertex_indices
end_header
490215 5.45374e+06 104.852
490220 5.45374e+06 114.923
490212 5.45374e+06 114.923
490220 5.45374e+06 104.852
490215 5.45374e+06 114.923
490212 5.45374e+06 104.852
490222 5.45375e+06 104.852
490222 5.45375e+06 114.923
490222 5.45375e+06 114.923
490222 5.45375e+06 104.852
490222 5.45375e+06 114.923
490222 5.45375e+06 104.852
490221 5.45375e+06 114.923
490219 5.45375e+06 104.852
490220 5.45375e+06 104.852
490221 5.45375e+06 104.852
490219 5.45375e+06 114.923
490220 5.45375e+06 114.923
490222 5.45375e+06 104.852
490222 5.45375e+06 114.923
490218 5.45374e+06 104.852
490218 5.45374e+06 114.923
490217 5.45375e+06 114.923
490217 5.45375e+06 104.852
490217 5.45374e+06 114.923
490216 5.45374e+06 104.852
490216 5.45374e+06 114.923
490217 5.45374e+06 104.852
490218 5.45375e+06 114.923
490218 5.45375e+06 104.852
490212 5.45375e+06 114.923
490212 5.45375e+06 104.852
490212 5.45375e+06 104.852
490212 5.45375e+06 114.923
490212 5.45375e+06 114.923
490212 5.45375e+06 104.852
490212 5.45374e+06 114.923
490212 5.45375e+06 104.852
490212 5.45374e+06 104.852
490212 5.45375e+06 114.923
490212 5.45374e+06 114.923
490212 5.45374e+06 104.852
490212 5.45374e+06 104.852
490212 5.45374e+06 114.923
490222 5.45375e+06 104.852
490222 5.45375e+06 104.852
490222 5.45375e+06 114.923
490222 5.45375e+06 114.923
490222 5.45375e+06 114.923
490222 5.45375e+06 104.852
490212 5.45375e+06 104.852
490212 5.45375e+06 114.923
490212 5.45375e+06 104.852
490213 5.45375e+06 114.923
490212 5.45375e+06 114.923
490213 5.45375e+06 104.852
490212 5.45375e+06 114.923
490212 5.45375e+06 104.852
490217 5.45375e+06 104.852
490216 5.45375e+06 114.923
490217 5.45375e+06 114.923
490216 5.45375e+06 104.852
490218 5.45375e+06 114.923
490218 5.45375e+06 104.852
490222 5.45375e+06 114.923
490222 5.45375e+06 104.852
490212 5.45374e+06 104.852
490212 5.45374e+06 114.923
490214 5.45374e+06 104.852
490214 5.45374e+06 114.923
490214 5.45374e+06 114.923
490214 5.45374e+06 104.852
490212 5.45375e+06 104.852
490212 5.45375e+06 114.923
490215 5.45375e+06 114.923
490214 5.45375e+06 104.852
490214 5.45375e+06 114.923
490214 5.45375e+06 104.852
490215 5.45375e+06 104.852
490214 5.45375e+06 114.923
490214 5.45374e+06 104.852
490214 5.45374e+06 114.923
490212 5.45374e+06 114.923
490212 5.45374e+06 104.852
490215 5.45375e+06 114.923
490215 5.45375e+06 104.852
490217 5.45375e+06 104.852
490217 5.45375e+06 114.923
490220 5.45374e+06 104.852
490221 5.45374e+06 114.923
490221 5.45374e+06 104.852
490220 5.45374e+06 114.923
490222 5.45374e+06 114.923
490222 5.45374e+06 104.852
490212 5.45375e+06 114.923
490212 5.45375e+06 104.852
490221 5.45374e+06 104.852
490222 5.45374e+06 114.923
490222 5.45374e+06 104.852
490221 5.45374e+06 114.923
490222 5.45374e+06 114.923
490222 5.45374e+06 104.852
3 9 7 6
3 6 7 10
3 6 8 10
3 10 8 7
3 11 8 6
3 6 9 11
3 9 13 18
3 7 18 19
3 19 16 7
3 7 9 18
3 13 14 18
3 16 14 13
3 19 17 16
3 14 16 17
3 14 15 18
3 17 15 14
3 12 18 19
3 12 17 19
3 12 15 18
3 12 15 17
3 21 20 10
3 21 10 7
3 10 9 7
3 6 10 20
3 20 9 6
3 6 9 10
3 22 21 20
3 22 21 7
3 23 20 9
3 23 22 20
3 4 24 26
3 24 25 26
3 27 25 24
3 0 25 27
3 4 21 24
3 21 4 0
3 27 20 0
3 0 20 21
3 21 22 24
3 22 23 24
3 23 22 21
3 23 21 20
3 27 24 23
3 27 23 20
3 7 16 28
3 28 16 13
3 29 28 13
3 9 13 29
3 23 28 29
3 29 23 9
3 28 22 7
3 28 23 22
3 31 30 25
3 32 31 25
3 30 26 25
3 26 30 33
3 34 33 30
3 30 34 35
3 35 31 30
3 31 32 35
3 40 41 42
3 41 40 38
3 42 41 38
3 40 42 43
3 36 40 43
3 36 38 40
3 44 45 46
3 45 44 11
3 11 45 46
3 47 46 44
3 8 44 47
3 8 46 47
3 8 11 44
3 8 11 46
3 12 47 48
3 48 15 12
3 12 15 47
3 15 44 47
3 15 48 49
3 15 44 49
3 48 47 8
3 8 11 48
3 8 11 47
3 47 44 11
3 49 48 11
3 49 44 11
3 52 51 50
3 53 52 51
3 54 51 50
3 54 53 50
3 54 53 51
3 50 52 55
3 55 53 50
3 52 53 55
3 56 54 53
3 56 55 53
3 53 54 55
3 50 54 56
3 50 54 55
3 50 56 57
3 57 56 55
3 50 55 57
3 60 59 58
3 26 59 60
3 58 59 61
3 25 58 61
3 25 27 58
3 25 26 27
3 60 58 24
3 24 26 60
3 58 27 24
3 24 26 27
3 23 62 63
3 23 29 63
3 62 23 22
3 29 23 22
3 62 28 22
3 29 28 22
3 62 60 59
3 59 61 62
3 61 60 59
3 58 60 62
3 58 60 61
3 58 62 63
3 63 62 61
3 63 61 58
3 63 62 13
3 63 29 13
3 62 16 13
3 13 16 29
3 16 28 62
3 29 28 16
3 65 11 9
3 7 8 64
3 19 18 9
3 65 18 9
3 64 19 7
3 7 9 19
3 65 49 11
3 8 11 49
3 8 48 64
3 8 48 49
3 15 18 19
3 15 18 65
3 12 19 64
3 12 15 19
3 15 49 65
3 49 15 12
3 64 48 12
3 12 48 49
3 34 35 66
3 31 35 66
3 35 34 31
3 30 31 66
3 34 31 30
3 30 66 67
3 34 66 67
3 67 34 30
3 68 4 0
3 0 5 68
3 0 4 5
3 69 68 4
3 2 68 69
3 2 4 69
3 2 5 68
3 5 4 2
3 5 42 71
3 70 43 2
3 2 69 70
3 2 5 69
3 70 69 68
3 5 68 69
3 71 70 68
3 71 68 5
3 71 42 38
3 36 43 70
3 70 67 36
3 67 38 36
3 38 66 71
3 67 66 38
3 30 67 70
3 70 31 30
3 67 31 30
3 31 66 67
3 31 70 71
3 71 66 31
3 37 39 72
3 37 52 72
3 37 39 52
3 73 72 39
3 39 51 73
3 39 51 52
3 54 72 73
3 51 54 73
3 54 52 51
3 72 54 50
3 72 52 50
3 50 52 54
3 77 76 74
3 77 76 75
3 78 77 74
3 78 77 75
3 79 76 74
3 75 76 79
3 57 74 78
3 78 57 55
3 57 55 53
3 74 57 56
3 74 56 53
3 57 56 53
3 75 55 53
3 55 75 78
3 79 74 53
3 79 75 53
3 4 26 81
3 80 25 0
3 81 69 4
3 69 4 0
3 0 68 80
3 69 68 0
3 68 71 80
3 68 69 71
3 81 70 69
3 71 70 69
3 80 31 25
3 25 26 31
3 26 30 81
3 31 30 26
3 80 71 31
3 71 31 30
3 30 70 71
3 30 70 81
3 2 43 82
3 5 82 83
3 5 42 83
3 82 5 2
3 40 41 82
3 82 43 40
3 40 41 43
3 83 82 41
3 83 42 41
3 43 42 41
3 85 84 78
3 85 84 77
3 77 78 85
3 76 77 84
3 78 77 76
3 74 78 84
3 74 76 84
3 74 76 78
3 60 27 24
3 24 60 87
3 86 58 27
3 60 58 27
3 86 27 23
3 27 23 22
3 22 24 87
3 27 24 22
3 60 62 63
3 60 62 87
3 86 63 58
3 58 60 63
3 23 63 86
3 63 23 22
3 87 62 22
3 63 62 22
3 88 89 90
3 91 89 88
3 10 89 91
3 6 88 90
3 3 20 88
3 21 20 3
3 1 21 91
3 21 3 1
3 6 20 88
3 21 20 6
3 91 21 10
3 21 10 6
3 1 3 92
3 92 91 88
3 1 91 92
3 88 92 93
3 3 88 93
3 93 92 3
3 61 85 95
3 85 61 59
3 94 84 59
3 59 84 85
3 26 33 94
3 95 32 25
3 25 61 95
3 94 59 26
3 95 35 32
3 33 34 94
3 57 78 95
3 78 57 56
3 56 74 94
3 78 74 56
3 95 85 78
3 74 78 85
3 74 84 94
3 85 84 74
3 50 54 57
3 50 57 95
3 54 56 94
3 57 56 54
3 94 73 54
3 50 54 73
3 50 72 73
3 95 72 50
3 34 39 94
3 39 37 34
3 37 35 34
3 35 37 95
3 39 73 94
3 37 39 73
3 37 72 95
3 73 72 37
3 89 97 99
3 90 96 98
3 92 97 98
3 99 97 92
3 93 96 98
3 98 93 92
3 96 90 88
3 91 90 88
3 99 91 89
3 89 90 91
3 96 93 88
3 88 91 93
3 99 92 91
3 93 92 91
3 11 10 6
3 101 100 11
3 101 11 6
3 100 10 8
3 8 11 100
3 11 10 8
3 100 89 10
3 6 90 101
3 98 100 101
3 90 98 101
3 100 98 97
3 100 97 89
