ply
format ascii 1.0
comment Created by Open3D
element vertex 220
property double x
property double y
property double z
element face 732
property list uchar uint vertex_indices
end_header
490231 5.45374e+06 114.905
490231 5.45374e+06 104.834
490231 5.45374e+06 104.834
490231 5.45374e+06 114.905
490231 5.45374e+06 114.905
490231 5.45374e+06 104.834
490231 5.45374e+06 114.905
490231 5.45374e+06 104.834
490244 5.45375e+06 114.905
490255 5.45375e+06 104.834
490256 5.45375e+06 104.834
490244 5.45375e+06 104.834
490255 5.45375e+06 114.905
490256 5.45375e+06 114.905
490252 5.45375e+06 114.905
490257 5.45374e+06 104.834
490252 5.45374e+06 104.834
490252 5.45375e+06 104.834
490257 5.45374e+06 114.905
490252 5.45374e+06 114.905
490257 5.45374e+06 114.905
490257 5.45375e+06 104.834
490257 5.45375e+06 104.834
490257 5.45374e+06 104.834
490257 5.45375e+06 114.905
490257 5.45375e+06 114.905
490231 5.45374e+06 104.834
490231 5.45375e+06 104.834
490231 5.45374e+06 114.905
490231 5.45375e+06 114.905
490257 5.45375e+06 104.834
490257 5.45375e+06 114.905
490257 5.45374e+06 104.834
490257 5.45374e+06 104.834
490257 5.45374e+06 104.834
490257 5.45374e+06 114.905
490257 5.45374e+06 114.905
490257 5.45374e+06 114.905
490256 5.45374e+06 114.905
490257 5.45374e+06 114.905
490256 5.45374e+06 104.834
490257 5.45374e+06 104.834
490257 5.45375e+06 114.905
490257 5.45375e+06 104.834
490257 5.45375e+06 104.834
490257 5.45375e+06 114.905
490253 5.45375e+06 114.905
490253 5.45375e+06 104.834
490249 5.45375e+06 104.834
490249 5.45375e+06 114.905
490231 5.45374e+06 114.905
490231 5.45374e+06 104.834
490233 5.45374e+06 104.834
490233 5.45374e+06 114.905
490257 5.45374e+06 104.834
490257 5.45374e+06 104.834
490257 5.45374e+06 114.905
490257 5.45374e+06 114.905
490257 5.45375e+06 104.834
490257 5.45375e+06 114.905
490257 5.45375e+06 114.905
490257 5.45375e+06 104.834
490249 5.45375e+06 114.905
490248 5.45375e+06 104.834
490249 5.45375e+06 104.834
490248 5.45375e+06 114.905
490249 5.45374e+06 104.834
490249 5.45374e+06 114.905
490254 5.45375e+06 114.905
490254 5.45375e+06 104.834
490231 5.45375e+06 114.905
490231 5.45375e+06 114.905
490231 5.45375e+06 104.834
490231 5.45375e+06 104.834
490231 5.45375e+06 104.834
490231 5.45375e+06 114.905
490231 5.45375e+06 104.834
490231 5.45375e+06 114.905
490231 5.45375e+06 104.834
490231 5.45375e+06 114.905
490231 5.45375e+06 104.834
490231 5.45375e+06 114.905
490231 5.45375e+06 104.834
490231 5.45375e+06 114.905
490251 5.45374e+06 104.834
490254 5.45374e+06 114.905
490251 5.45374e+06 114.905
490254 5.45374e+06 104.834
490253 5.45374e+06 104.834
490253 5.45374e+06 114.905
490256 5.45374e+06 114.905
490256 5.45374e+06 104.834
490234 5.45375e+06 114.905
490234 5.45375e+06 104.834
490232 5.45374e+06 104.834
490232 5.45374e+06 114.905
490244 5.45374e+06 114.905
490244 5.45374e+06 104.834
490234 5.45374e+06 114.905
490234 5.45374e+06 104.834
490235 5.45374e+06 114.905
490235 5.45374e+06 104.834
490236 5.45374e+06 114.905
490236 5.45374e+06 104.834
490257 5.45374e+06 114.905
490257 5.45374e+06 104.834
490254 5.45375e+06 114.905
490254 5.45375e+06 104.834
490231 5.45375e+06 114.905
490231 5.45375e+06 104.834
490235 5.45375e+06 104.834
490235 5.45375e+06 114.905
490249 5.45374e+06 114.905
490249 5.45374e+06 104.834
490250 5.45374e+06 104.834
490250 5.45374e+06 114.905
490251 5.45375e+06 104.834
490251 5.45375e+06 114.905
490253 5.45374e+06 114.905
490253 5.45374e+06 104.834
490234 5.45374e+06 104.834
490234 5.45374e+06 114.905
490232 5.45375e+06 104.834
490232 5.45375e+06 114.905
490232 5.45375e+06 114.905
490232 5.45375e+06 104.834
490233 5.45375e+06 104.834
490233 5.45375e+06 114.905
490235 5.45375e+06 114.905
490237 5.45375e+06 114.905
490238 5.45375e+06 114.905
490238 5.45375e+06 104.834
490235 5.45375e+06 104.834
490237 5.45375e+06 104.834
490237 5.45375e+06 104.834
490237 5.45374e+06 104.834
490237 5.45374e+06 114.905
490237 5.45375e+06 114.905
490233 5.45375e+06 104.834
490233 5.45375e+06 114.905
490236 5.45375e+06 104.834
490236 5.45375e+06 114.905
490236 5.45374e+06 114.905
490236 5.45374e+06 104.834
490237 5.45375e+06 104.834
490237 5.45375e+06 114.905
490238 5.45374e+06 114.905
490238 5.45374e+06 104.834
490238 5.45374e+06 104.834
490238 5.45374e+06 114.905
490241 5.45375e+06 104.834
490239 5.45375e+06 104.834
490239 5.45375e+06 114.905
490240 5.45375e+06 104.834
490241 5.45375e+06 114.905
490240 5.45375e+06 114.905
490243 5.45375e+06 114.905
490246 5.45375e+06 114.905
490242 5.45374e+06 104.834
490242 5.45374e+06 114.905
490243 5.45375e+06 104.834
490246 5.45375e+06 104.834
490242 5.45375e+06 104.834
490242 5.45375e+06 114.905
490240 5.45375e+06 104.834
490240 5.45375e+06 114.905
490240 5.45374e+06 104.834
490240 5.45374e+06 114.905
490240 5.45374e+06 114.905
490240 5.45374e+06 104.834
490239 5.45374e+06 104.834
490239 5.45374e+06 114.905
490248 5.45374e+06 104.834
490248 5.45374e+06 114.905
490248 5.45374e+06 114.905
490248 5.45374e+06 104.834
490247 5.45375e+06 114.905
490247 5.45375e+06 104.834
490248 5.45375e+06 114.905
490248 5.45375e+06 104.834
490246 5.45375e+06 104.834
490246 5.45375e+06 114.905
490252 5.45375e+06 104.834
490252 5.45375e+06 114.905
490237 5.45374e+06 104.834
490237 5.45374e+06 114.905
490233 5.45375e+06 104.834
490233 5.45375e+06 114.905
490235 5.45374e+06 114.905
490235 5.45374e+06 104.834
490236 5.45375e+06 104.834
490236 5.45375e+06 114.905
490246 5.45374e+06 114.905
490246 5.45374e+06 104.834
490244 5.45374e+06 104.834
490244 5.45374e+06 114.905
490247 5.45374e+06 114.905
490247 5.45374e+06 104.834
490250 5.45375e+06 114.905
490250 5.45375e+06 104.834
490244 5.45375e+06 104.834
490244 5.45375e+06 114.905
490242 5.45375e+06 114.905
490242 5.45375e+06 104.834
490239 5.45375e+06 104.834
490239 5.45375e+06 114.905
490239 5.45374e+06 104.834
490239 5.45374e+06 114.905
490247 5.45374e+06 104.834
490247 5.45374e+06 114.905
490241 5.45374e+06 104.834
490241 5.45374e+06 104.834
490241 5.45374e+06 114.905
490241 5.45374e+06 114.905
490241 5.45375e+06 114.905
490241 5.45375e+06 104.834
490242 5.45374e+06 114.905
490242 5.45374e+06 104.834
490247 5.45375e+06 104.834
490247 5.45375e+06 114.905
3 0 3 4
3 0 2 3
3 4 3 2
3 0 1 2
3 5 2 1
3 5 4 2
3 0 4 6
3 0 6 7
3 7 1 0
3 7 5 1
3 14 15 17
3 17 16 14
3 17 16 15
3 14 15 18
3 14 16 19
3 14 18 19
3 15 18 30
3 30 23 15
3 20 23 30
3 20 30 31
3 31 30 18
3 18 20 31
3 34 33 32
3 35 33 32
3 35 34 33
3 37 36 32
3 37 35 32
3 35 36 37
3 36 34 32
3 34 35 36
3 38 37 32
3 32 37 39
3 39 38 37
3 40 38 32
3 38 39 40
3 32 39 41
3 41 40 32
3 41 40 39
3 10 13 42
3 42 13 12
3 13 12 10
3 10 42 43
3 9 10 43
3 9 10 12
3 45 42 12
3 9 43 44
3 24 42 45
3 21 24 42
3 21 42 43
3 21 43 44
3 50 29 28
3 27 29 50
3 27 28 29
3 28 27 26
3 27 50 51
3 26 27 51
3 52 51 50
3 26 51 52
3 53 52 50
3 53 50 28
3 54 41 39
3 41 54 55
3 55 41 39
3 56 54 39
3 57 56 54
3 57 56 39
3 57 55 54
3 57 55 39
3 25 58 59
3 24 25 59
3 21 22 58
3 24 22 21
3 22 25 58
3 22 24 25
3 21 43 58
3 21 24 43
3 42 43 58
3 43 42 24
3 59 58 42
3 59 42 24
3 43 13 10
3 10 43 61
3 60 42 13
3 13 42 43
3 42 59 60
3 42 43 59
3 59 58 43
3 61 58 43
3 13 25 60
3 13 22 25
3 61 22 10
3 22 13 10
3 60 59 25
3 22 25 59
3 61 58 22
3 59 58 22
3 48 49 62
3 48 62 64
3 48 63 64
3 65 62 49
3 66 64 62
3 66 64 63
3 67 66 62
3 62 65 67
3 21 44 69
3 24 45 68
3 9 68 69
3 9 44 69
3 68 45 12
3 9 12 68
3 68 31 24
3 31 24 21
3 30 68 69
3 69 30 21
3 30 31 68
3 21 30 31
3 71 70 29
3 27 29 70
3 27 70 73
3 73 72 27
3 70 71 75
3 75 74 70
3 74 73 70
3 72 73 74
3 73 76 78
3 76 77 78
3 73 77 78
3 76 73 70
3 77 73 70
3 79 76 70
3 76 77 79
3 79 77 70
3 73 74 80
3 74 75 80
3 73 74 75
3 80 73 70
3 75 73 70
3 81 80 70
3 75 80 81
3 70 75 81
3 82 51 27
3 27 29 82
3 27 29 51
3 82 51 50
3 29 50 51
3 50 82 83
3 83 82 29
3 29 50 83
3 88 87 85
3 23 87 88
3 89 88 85
3 89 85 20
3 89 20 18
3 15 23 88
3 15 16 88
3 19 88 89
3 89 19 18
3 88 19 16
3 35 33 23
3 23 33 91
3 90 35 20
3 35 23 20
3 91 87 23
3 20 85 90
3 38 85 90
3 38 40 85
3 91 87 40
3 87 85 40
3 37 33 32
3 32 33 91
3 35 37 90
3 33 35 37
3 37 38 90
3 40 38 37
3 91 40 32
3 32 37 40
3 93 92 72
3 74 92 93
3 72 74 93
3 92 75 71
3 74 75 92
3 71 72 92
3 4 94 95
3 95 6 4
3 4 5 94
3 5 7 94
3 7 26 94
3 28 26 7
3 95 28 6
3 28 7 6
3 52 53 94
3 95 94 53
3 95 53 28
3 26 52 94
3 53 95 98
3 52 53 98
3 52 53 95
3 94 95 98
3 95 94 52
3 99 98 94
3 52 98 99
3 99 94 52
3 37 34 32
3 32 34 105
3 36 37 104
3 34 36 37
3 32 37 41
3 105 41 32
3 104 39 37
3 41 39 37
3 104 56 36
3 56 36 34
3 56 54 34
3 34 54 105
3 104 56 39
3 56 41 39
3 41 54 56
3 105 54 41
3 106 12 9
3 9 12 69
3 9 106 107
3 9 69 107
3 106 68 12
3 12 68 69
3 30 31 69
3 107 69 30
3 31 68 106
3 69 68 31
3 31 30 15
3 107 30 15
3 18 31 106
3 15 18 31
3 18 17 15
3 107 17 15
3 106 18 14
3 14 17 18
3 107 106 47
3 107 47 17
3 14 46 106
3 46 47 106
3 109 72 27
3 108 71 29
3 108 83 29
3 27 29 83
3 82 108 109
3 27 82 109
3 82 83 108
3 27 82 83
3 109 93 72
3 71 72 93
3 108 92 71
3 93 92 71
3 110 109 108
3 93 109 110
3 111 110 108
3 92 108 111
3 114 113 66
3 67 112 115
3 84 113 114
3 114 86 84
3 115 112 86
3 86 114 115
3 113 84 16
3 19 86 112
3 112 113 116
3 116 113 16
3 112 116 117
3 19 112 117
3 113 112 48
3 48 64 113
3 112 49 48
3 48 49 64
3 112 62 49
3 49 62 64
3 64 66 113
3 67 66 64
3 112 67 62
3 67 64 62
3 118 86 19
3 16 84 119
3 19 89 118
3 89 19 16
3 89 88 16
3 119 88 16
3 84 86 87
3 84 87 119
3 85 86 118
3 87 86 85
3 118 89 85
3 89 87 85
3 87 88 89
3 87 88 119
3 120 52 51
3 53 52 51
3 50 53 121
3 53 51 50
3 120 99 52
3 52 53 99
3 53 98 121
3 99 98 53
3 83 51 50
3 121 120 83
3 121 83 50
3 82 83 120
3 51 82 120
3 51 82 83
3 100 101 120
3 120 101 99
3 101 100 99
3 98 99 100
3 100 120 121
3 98 100 121
3 123 79 70
3 79 73 70
3 73 76 122
3 73 76 79
3 79 123 124
3 125 122 76
3 123 81 70
3 81 73 70
3 73 80 122
3 73 80 81
3 81 123 124
3 125 122 80
3 126 93 74
3 74 75 126
3 74 75 93
3 126 93 92
3 75 92 93
3 92 126 127
3 127 126 75
3 75 92 127
3 92 111 128
3 110 128 132
3 93 110 132
3 128 111 110
3 128 127 92
3 127 93 92
3 126 128 132
3 93 126 132
3 128 127 126
3 93 126 127
3 129 133 134
3 133 134 135
3 134 135 136
3 137 136 134
3 129 134 137
3 129 136 137
3 79 138 139
3 79 124 139
3 138 79 76
3 138 125 76
3 81 138 139
3 139 124 81
3 138 81 80
3 138 125 80
3 140 103 102
3 101 103 140
3 101 102 103
3 100 140 141
3 141 140 102
3 100 102 141
3 140 101 100
3 102 101 100
3 140 143 144
3 145 142 141
3 142 141 102
3 102 103 141
3 141 140 103
3 143 140 103
3 103 135 143
3 102 136 142
3 137 142 145
3 144 143 134
3 136 137 142
3 137 136 135
3 134 135 137
3 143 135 134
3 103 146 147
3 147 135 103
3 146 103 102
3 102 136 146
3 149 148 146
3 148 147 146
3 135 147 148
3 149 146 136
3 150 151 152
3 153 151 150
3 150 152 154
3 155 154 150
3 155 154 152
3 155 153 150
3 156 157 159
3 156 160 161
3 161 160 158
3 161 157 156
3 156 162 163
3 156 160 162
3 158 160 162
3 156 159 163
3 165 164 152
3 165 155 152
3 151 152 164
3 151 153 164
3 164 166 167
3 166 164 153
3 164 165 167
3 167 165 155
3 170 169 168
3 170 169 147
3 171 170 168
3 171 168 146
3 168 97 96
3 96 97 147
3 97 168 169
3 169 147 97
3 96 146 168
3 147 146 96
3 172 114 66
3 173 115 67
3 175 174 172
3 114 172 175
3 174 173 172
3 115 173 174
3 173 67 65
3 172 66 63
3 172 173 176
3 176 173 65
3 172 176 177
3 63 172 177
3 63 177 179
3 178 176 65
3 11 177 179
3 178 176 8
3 178 65 49
3 48 63 179
3 49 48 11
3 179 48 11
3 178 49 8
3 49 11 8
3 180 177 176
3 180 177 11
3 176 180 181
3 8 176 181
3 157 180 181
3 181 157 8
3 180 161 157
3 11 161 180
3 17 47 182
3 183 182 46
3 183 46 14
3 182 47 46
3 16 17 182
3 19 17 16
3 14 19 183
3 14 17 19
3 182 117 116
3 117 182 183
3 19 117 183
3 182 116 16
3 184 133 131
3 129 131 133
3 130 184 185
3 129 130 185
3 184 131 130
3 129 130 131
3 133 135 184
3 185 136 129
3 184 149 148
3 135 148 184
3 185 184 149
3 185 149 136
3 126 132 186
3 132 127 126
3 186 132 128
3 127 128 132
3 128 186 187
3 127 128 187
3 75 127 187
3 74 75 127
3 74 126 186
3 74 126 127
3 187 81 75
3 74 75 81
3 186 80 74
3 81 80 74
3 187 186 139
3 187 139 81
3 139 81 80
3 186 138 80
3 186 139 138
3 139 138 80
3 109 110 111
3 189 110 109
3 108 111 188
3 111 109 108
3 100 141 188
3 141 101 100
3 141 140 101
3 101 140 189
3 111 141 188
3 189 140 110
3 82 83 109
3 189 109 82
3 83 108 188
3 83 108 109
3 82 120 121
3 82 120 189
3 83 121 188
3 82 83 121
3 101 120 121
3 189 120 101
3 188 121 100
3 121 101 100
3 190 132 110
3 132 111 110
3 190 132 128
3 132 128 111
3 191 190 128
3 191 128 111
3 191 141 111
3 110 140 190
3 191 145 141
3 140 144 190
3 137 145 191
3 190 144 134
3 129 190 191
3 129 137 191
3 129 133 190
3 129 133 137
3 190 134 133
3 133 134 137
3 157 181 192
3 157 161 192
3 157 161 181
3 192 181 180
3 161 180 181
3 193 192 180
3 193 192 161
3 193 180 161
3 96 159 195
3 194 158 97
3 195 192 96
3 97 193 194
3 194 161 158
3 195 159 157
3 194 193 161
3 193 161 157
3 193 192 157
3 157 192 195
3 174 175 196
3 197 196 175
3 114 175 197
3 115 174 196
3 96 115 196
3 115 114 96
3 97 196 197
3 97 114 197
3 196 97 96
3 114 97 96
3 198 117 116
3 113 116 117
3 116 198 199
3 113 116 199
3 198 117 112
3 112 113 117
3 198 49 48
3 113 49 48
3 199 198 48
3 48 113 199
3 198 112 49
3 113 112 49
3 151 152 200
3 151 152 154
3 154 200 201
3 201 200 152
3 201 154 152
3 150 154 200
3 200 151 150
3 154 151 150
3 160 161 200
3 157 160 161
3 156 157 201
3 160 157 156
3 11 161 200
3 8 200 201
3 201 157 8
3 8 11 200
3 156 160 163
3 163 200 201
3 156 163 201
3 200 162 160
3 200 163 162
3 160 162 163
3 154 201 202
3 202 154 150
3 201 154 150
3 201 200 150
3 150 202 203
3 203 200 150
3 163 201 202
3 162 163 201
3 162 200 201
3 162 200 203
3 202 163 159
3 158 159 202
3 158 202 203
3 203 162 158
3 205 171 165
3 164 170 204
3 204 170 147
3 146 171 205
3 151 152 165
3 205 165 152
3 151 164 204
3 165 164 151
3 147 148 204
3 147 148 149
3 205 149 146
3 149 147 146
3 131 151 204
3 152 151 131
3 205 152 130
3 152 131 130
3 185 131 130
3 205 185 130
3 204 184 131
3 185 184 131
3 185 149 148
3 205 185 149
3 148 184 204
3 185 184 148
3 171 169 168
3 168 171 207
3 169 170 206
3 169 170 171
3 206 170 164
3 207 171 165
3 166 169 206
3 167 168 207
3 164 166 206
3 164 165 166
3 165 167 207
3 165 166 167
3 172 173 208
3 208 175 172
3 172 173 175
3 209 208 173
3 173 174 209
3 175 174 173
3 197 196 174
3 174 196 209
3 208 197 175
3 197 175 174
3 97 197 208
3 197 97 96
3 209 196 96
3 197 196 96
3 192 193 208
3 192 208 209
3 96 192 209
3 208 193 97
3 210 211 212
3 97 210 211
3 210 212 213
3 213 212 96
3 210 169 166
3 210 167 166
3 167 210 213
3 213 168 167
3 97 169 210
3 169 97 96
3 96 168 213
3 96 168 169
3 154 153 150
3 215 153 150
3 214 155 154
3 153 154 155
3 212 213 214
3 211 212 214
3 211 212 213
3 210 211 213
3 211 214 215
3 215 211 210
3 215 166 153
3 214 167 155
3 214 213 167
3 213 167 166
3 213 210 166
3 215 210 166
3 203 154 150
3 215 214 203
3 215 203 150
3 214 203 202
3 154 202 214
3 154 202 203
3 96 212 216
3 97 211 217
3 217 158 97
3 216 159 96
3 203 159 158
3 217 203 158
3 216 202 159
3 159 202 203
3 217 215 211
3 215 212 211
3 212 214 216
3 212 214 215
3 215 203 202
3 217 215 203
3 216 214 202
3 215 214 202
3 192 193 209
3 219 209 192
3 193 208 218
3 193 208 209
3 180 193 218
3 180 181 193
3 219 192 181
3 193 192 181
3 177 180 218
3 177 180 181
3 219 181 176
3 181 177 176
3 177 176 173
3 219 176 173
3 172 177 218
3 172 173 177
3 172 173 209
3 173 209 219
3 218 208 172
3 209 208 172
