ply
format ascii 1.0
comment Created by Open3D
element vertex 36
property double x
property double y
property double z
element face 112
property list uchar uint vertex_indices
end_header
490311 5.45373e+06 102.513
490313 5.45373e+06 102.513
490313 5.45373e+06 112.584
490311 5.45373e+06 102.513
490311 5.45373e+06 112.584
490311 5.45373e+06 112.584
490313 5.45373e+06 112.584
490313 5.45373e+06 102.513
490309 5.45373e+06 102.513
490312 5.45373e+06 102.513
490312 5.45373e+06 112.584
490309 5.45373e+06 112.584
490313 5.45373e+06 102.513
490313 5.45373e+06 112.584
490313 5.45373e+06 112.584
490313 5.45373e+06 102.513
490309 5.45373e+06 112.584
490308 5.45373e+06 102.513
490309 5.45373e+06 102.513
490308 5.45373e+06 112.584
490308 5.45373e+06 102.513
490308 5.45373e+06 112.584
490310 5.45373e+06 102.513
490310 5.45373e+06 112.584
490311 5.45373e+06 112.584
490312 5.45373e+06 102.513
490312 5.45373e+06 112.584
490311 5.45373e+06 102.513
490313 5.45373e+06 112.584
490313 5.45373e+06 102.513
490309 5.45373e+06 112.584
490309 5.45373e+06 102.513
490313 5.45373e+06 102.513
490313 5.45373e+06 112.584
490313 5.45373e+06 112.584
490313 5.45373e+06 102.513
3 2 1 0
3 3 1 0
3 3 2 1
3 0 3 4
3 2 3 4
3 5 4 0
3 5 2 0
3 2 4 5
3 8 7 6
3 7 8 9
3 11 8 6
3 6 10 11
3 6 7 12
3 7 9 12
3 13 10 6
3 6 12 13
3 15 14 9
3 15 14 12
3 15 12 9
3 9 10 14
3 10 13 14
3 14 13 12
3 18 16 8
3 8 17 18
3 19 17 8
3 11 16 19
3 16 11 8
3 8 11 19
3 16 18 20
3 20 18 17
3 17 19 20
3 21 19 16
3 16 20 21
3 21 20 19
3 22 4 3
3 3 4 5
3 4 22 23
3 5 22 23
3 23 5 4
3 22 5 0
3 22 3 0
3 5 3 0
3 5 24 26
3 0 25 27
3 5 23 24
3 23 5 0
3 24 23 22
3 0 22 23
3 27 24 22
3 27 22 0
3 18 24 27
3 8 18 27
3 18 11 8
3 11 16 24
3 24 18 16
3 18 16 11
3 27 9 8
3 24 11 10
3 27 25 9
3 26 24 10
3 2 5 28
3 1 2 28
3 1 2 5
3 5 1 0
3 1 28 29
3 0 1 29
3 5 26 28
3 28 26 25
3 29 28 25
3 29 25 0
3 31 30 22
3 22 27 31
3 30 23 22
3 22 23 27
3 23 24 30
3 27 24 23
3 20 30 31
3 18 20 31
3 20 21 30
3 18 20 21
3 16 21 30
3 21 18 16
3 31 27 18
3 27 18 16
3 30 24 16
3 27 24 16
3 14 15 32
3 10 14 15
3 14 32 33
3 10 14 33
3 32 15 9
3 15 10 9
3 25 29 32
3 29 26 25
3 33 32 28
3 33 28 26
3 32 29 28
3 29 28 26
3 33 26 10
3 9 25 32
3 1 34 35
3 35 29 1
3 34 2 1
3 1 2 29
3 2 28 34
3 2 28 29
3 28 33 34
3 28 29 33
3 35 34 32
3 35 32 29
3 32 33 34
3 33 32 29
