ply
format ascii 1.0
comment Created by Open3D
element vertex 204
property double x
property double y
property double z
element face 684
property list uchar uint vertex_indices
end_header
490286 5.45372e+06 103.651
490286 5.45372e+06 113.722
490287 5.45372e+06 103.651
490287 5.45372e+06 113.722
490286 5.45372e+06 113.722
490286 5.45372e+06 103.651
490286 5.45372e+06 103.651
490286 5.45373e+06 103.651
490286 5.45372e+06 113.722
490286 5.45373e+06 113.722
490286 5.45372e+06 103.651
490286 5.45372e+06 113.722
490303 5.45373e+06 113.722
490303 5.45373e+06 103.651
490303 5.45373e+06 103.651
490303 5.45373e+06 103.651
490303 5.45373e+06 113.722
490303 5.45373e+06 113.722
490303 5.45373e+06 113.722
490303 5.45373e+06 113.722
490303 5.45373e+06 103.651
490303 5.45373e+06 103.651
490303 5.45373e+06 103.651
490303 5.45373e+06 113.722
490303 5.45373e+06 113.722
490303 5.45373e+06 103.651
490302 5.45373e+06 103.651
490302 5.45373e+06 113.722
490302 5.45373e+06 113.722
490302 5.45373e+06 103.651
490301 5.45373e+06 103.651
490301 5.45373e+06 113.722
490300 5.45373e+06 113.722
490300 5.45373e+06 103.651
490300 5.45373e+06 103.651
490300 5.45373e+06 113.722
490288 5.45373e+06 113.722
490286 5.45373e+06 103.651
490286 5.45373e+06 103.651
490286 5.45373e+06 113.722
490288 5.45373e+06 103.651
490286 5.45373e+06 113.722
490299 5.45373e+06 113.722
490299 5.45373e+06 103.651
490290 5.45372e+06 113.722
490294 5.45372e+06 103.651
490290 5.45372e+06 103.651
490286 5.45372e+06 103.651
490286 5.45372e+06 113.722
490294 5.45372e+06 113.722
490286 5.45372e+06 113.722
490286 5.45372e+06 103.651
490303 5.45373e+06 103.651
490303 5.45373e+06 103.651
490303 5.45373e+06 113.722
490303 5.45373e+06 113.722
490298 5.45373e+06 113.722
490298 5.45373e+06 103.651
490300 5.45373e+06 103.651
490300 5.45373e+06 113.722
490299 5.45373e+06 113.722
490299 5.45373e+06 103.651
490295 5.45372e+06 113.722
490294 5.45372e+06 103.651
490303 5.45372e+06 113.722
490303 5.45372e+06 103.651
490295 5.45372e+06 103.651
490294 5.45372e+06 113.722
490295 5.45372e+06 113.722
490295 5.45372e+06 103.651
490293 5.45372e+06 113.722
490293 5.45372e+06 103.651
490297 5.45372e+06 113.722
490297 5.45372e+06 103.651
490294 5.45373e+06 103.651
490294 5.45373e+06 113.722
490295 5.45373e+06 113.722
490295 5.45373e+06 113.722
490295 5.45373e+06 103.651
490295 5.45373e+06 103.651
490286 5.45372e+06 103.651
490286 5.45372e+06 113.722
490286 5.45372e+06 103.651
490286 5.45372e+06 113.722
490286 5.45372e+06 113.722
490286 5.45372e+06 103.651
490302 5.45373e+06 113.722
490302 5.45373e+06 103.651
490289 5.45373e+06 103.651
490289 5.45373e+06 113.722
490289 5.45373e+06 113.722
490289 5.45373e+06 103.651
490287 5.45373e+06 113.722
490287 5.45373e+06 113.722
490287 5.45373e+06 103.651
490287 5.45373e+06 103.651
490290 5.45373e+06 103.651
490290 5.45373e+06 113.722
490293 5.45373e+06 113.722
490293 5.45373e+06 103.651
490287 5.45372e+06 113.722
490287 5.45372e+06 103.651
490287 5.45372e+06 103.651
490287 5.45372e+06 113.722
490287 5.45372e+06 103.651
490287 5.45372e+06 113.722
490303 5.45372e+06 103.651
490303 5.45372e+06 113.722
490303 5.45372e+06 113.722
490303 5.45372e+06 103.651
490296 5.45373e+06 103.651
490296 5.45373e+06 113.722
490303 5.45373e+06 103.651
490303 5.45373e+06 113.722
490297 5.45373e+06 113.722
490297 5.45373e+06 103.651
490303 5.45373e+06 103.651
490303 5.45373e+06 113.722
490288 5.45372e+06 113.722
490288 5.45372e+06 103.651
490286 5.45372e+06 113.722
490286 5.45372e+06 103.651
490289 5.45372e+06 103.651
490289 5.45372e+06 113.722
490286 5.45372e+06 103.651
490286 5.45372e+06 113.722
490286 5.45373e+06 113.722
490286 5.45373e+06 103.651
490297 5.45373e+06 103.651
490297 5.45373e+06 113.722
490303 5.45372e+06 113.722
490303 5.45372e+06 103.651
490302 5.45372e+06 103.651
490303 5.45372e+06 113.722
490303 5.45372e+06 103.651
490302 5.45372e+06 113.722
490302 5.45372e+06 103.651
490299 5.45372e+06 113.722
490302 5.45372e+06 113.722
490299 5.45372e+06 103.651
490302 5.45372e+06 113.722
490302 5.45372e+06 103.651
490292 5.45372e+06 113.722
490292 5.45372e+06 103.651
490293 5.45373e+06 113.722
490293 5.45373e+06 103.651
490292 5.45373e+06 103.651
490292 5.45373e+06 113.722
490286 5.45373e+06 103.651
490286 5.45373e+06 113.722
490286 5.45373e+06 103.651
490286 5.45373e+06 113.722
490289 5.45372e+06 103.651
490289 5.45372e+06 113.722
490287 5.45373e+06 103.651
490287 5.45373e+06 113.722
490287 5.45373e+06 113.722
490287 5.45373e+06 103.651
490290 5.45373e+06 103.651
490290 5.45373e+06 113.722
490297 5.45372e+06 113.722
490298 5.45372e+06 103.651
490297 5.45372e+06 103.651
490298 5.45372e+06 113.722
490296 5.45372e+06 103.651
490296 5.45372e+06 113.722
490289 5.45372e+06 103.651
490289 5.45372e+06 113.722
490286 5.45373e+06 103.651
490286 5.45373e+06 113.722
490291 5.45373e+06 113.722
490291 5.45373e+06 103.651
490296 5.45373e+06 103.651
490296 5.45373e+06 113.722
490302 5.45372e+06 113.722
490302 5.45372e+06 103.651
490302 5.45372e+06 103.651
490302 5.45372e+06 113.722
490302 5.45372e+06 103.651
490302 5.45372e+06 113.722
490296 5.45372e+06 113.722
490296 5.45372e+06 103.651
490294 5.45373e+06 113.722
490294 5.45373e+06 103.651
490286 5.45372e+06 103.651
490286 5.45372e+06 113.722
490302 5.45372e+06 113.722
490302 5.45372e+06 113.722
490302 5.45372e+06 103.651
490302 5.45372e+06 113.722
490302 5.45372e+06 103.651
490302 5.45372e+06 103.651
490300 5.45372e+06 113.722
490300 5.45372e+06 103.651
490301 5.45372e+06 113.722
490301 5.45372e+06 103.651
490286 5.45373e+06 103.651
490286 5.45373e+06 113.722
490294 5.45373e+06 103.651
490294 5.45373e+06 113.722
490302 5.45372e+06 113.722
490302 5.45372e+06 103.651
490301 5.45372e+06 103.651
490301 5.45372e+06 113.722
3 0 2 3
3 1 2 3
3 4 1 0
3 0 3 4
3 4 3 1
3 0 1 5
3 5 2 0
3 5 2 1
3 15 13 12
3 13 14 15
3 12 15 16
3 12 16 17
3 12 18 19
3 20 18 12
3 12 13 20
3 21 20 13
3 12 17 19
3 21 14 13
3 18 22 23
3 22 23 24
3 18 23 24
3 18 20 22
3 18 20 24
3 25 24 22
3 25 22 20
3 25 24 20
3 27 26 17
3 27 26 16
3 27 17 16
3 26 15 14
3 15 16 26
3 14 17 26
3 28 17 14
3 17 27 28
3 14 17 27
3 29 28 26
3 29 28 14
3 14 26 29
3 28 27 26
3 27 26 14
3 31 30 19
3 32 31 30
3 32 31 19
3 33 32 30
3 21 30 33
3 30 21 19
3 18 20 23
3 35 34 23
3 18 23 35
3 22 23 34
3 20 22 34
3 20 22 23
3 20 21 34
3 35 19 18
3 21 33 34
3 32 34 35
3 35 32 19
3 32 33 34
3 36 37 39
3 39 38 37
3 40 37 36
3 36 38 40
3 37 38 40
3 41 38 36
3 36 39 41
3 38 39 41
3 24 25 42
3 42 24 23
3 25 24 23
3 42 23 22
3 22 23 25
3 22 42 43
3 43 42 25
3 22 25 43
3 44 45 46
3 47 46 45
3 49 45 44
3 44 48 49
3 44 48 50
3 51 50 44
3 51 46 44
3 51 47 46
3 52 43 25
3 24 25 52
3 24 25 43
3 24 52 54
3 24 42 54
3 43 42 24
3 57 56 52
3 43 52 57
3 56 54 52
3 56 54 42
3 35 58 59
3 59 35 23
3 22 23 35
3 22 34 58
3 58 35 34
3 35 34 22
3 58 43 22
3 43 23 22
3 59 58 42
3 23 42 59
3 58 43 42
3 43 42 23
3 57 60 61
3 61 57 43
3 60 57 56
3 42 56 60
3 31 32 60
3 31 32 33
3 30 60 61
3 61 33 30
3 30 31 60
3 33 31 30
3 32 35 60
3 32 33 35
3 61 34 33
3 33 34 35
3 60 59 42
3 59 43 42
3 59 58 43
3 43 58 61
3 35 59 60
3 59 35 34
3 61 58 34
3 34 58 59
3 62 64 65
3 66 65 62
3 66 65 63
3 67 64 62
3 68 67 62
3 69 68 62
3 62 66 69
3 69 66 63
3 71 70 69
3 71 69 63
3 67 68 70
3 68 69 70
3 71 63 45
3 70 67 49
3 71 70 46
3 45 46 71
3 49 46 45
3 70 49 44
3 70 46 44
3 49 46 44
3 76 75 74
3 77 75 74
3 77 76 75
3 74 77 79
3 78 76 74
3 74 78 79
3 80 81 82
3 82 80 46
3 44 80 83
3 83 81 80
3 83 81 44
3 44 46 80
3 84 8 6
3 85 84 6
3 6 82 85
3 84 81 8
3 81 83 84
3 81 82 83
3 84 83 80
3 83 82 80
3 85 84 80
3 80 82 85
3 86 28 27
3 29 28 27
3 26 86 87
3 87 29 26
3 26 27 86
3 29 27 26
3 29 17 14
3 87 29 14
3 17 28 86
3 29 28 17
3 86 31 19
3 19 21 31
3 87 86 30
3 21 30 87
3 86 31 30
3 31 30 21
3 14 21 87
3 86 19 17
3 90 89 88
3 90 89 36
3 40 88 91
3 88 89 91
3 88 40 37
3 37 39 88
3 37 39 40
3 90 88 39
3 36 39 90
3 36 39 40
3 93 92 41
3 38 41 93
3 95 94 92
3 95 94 38
3 92 93 95
3 38 93 95
3 41 40 38
3 40 92 94
3 94 40 38
3 92 40 36
3 36 41 92
3 41 40 36
3 96 91 40
3 96 91 89
3 97 96 36
3 89 96 97
3 97 89 36
3 96 40 36
3 0 2 4
3 2 100 101
3 0 2 101
3 3 4 100
3 100 3 2
3 4 3 2
3 102 101 100
3 0 101 102
3 103 102 100
3 103 100 4
3 105 104 103
3 105 103 4
3 104 102 0
3 102 103 104
3 1 5 104
3 5 4 1
3 105 104 1
3 105 4 1
3 0 5 104
3 5 4 0
3 108 107 106
3 64 107 108
3 106 107 109
3 109 106 65
3 75 106 108
3 75 77 108
3 79 77 75
3 74 75 106
3 74 79 106
3 79 75 74
3 106 47 45
3 106 48 47
3 48 106 108
3 108 49 48
3 110 106 79
3 106 110 111
3 106 108 111
3 111 108 77
3 49 67 108
3 45 63 106
3 63 65 106
3 108 67 64
3 112 55 53
3 55 54 53
3 55 112 113
3 54 55 113
3 112 53 52
3 52 53 54
3 57 56 54
3 54 56 113
3 112 57 52
3 57 54 52
3 114 113 56
3 57 112 115
3 111 113 114
3 115 112 110
3 113 112 108
3 113 111 108
3 108 110 111
3 106 108 112
3 106 110 112
3 106 108 110
3 55 116 117
3 55 113 117
3 53 55 116
3 53 55 113
3 116 112 53
3 53 112 113
3 107 109 116
3 107 108 109
3 117 116 107
3 107 108 117
3 106 109 116
3 106 108 109
3 117 113 108
3 106 108 113
3 106 112 116
3 106 112 113
3 1 11 118
3 118 11 10
3 11 10 1
3 119 118 10
3 119 10 5
3 10 5 1
3 118 105 1
3 1 5 105
3 104 105 118
3 105 104 5
3 119 118 104
3 5 104 119
3 80 120 121
3 121 85 80
3 80 83 120
3 80 83 85
3 83 84 120
3 85 84 83
3 122 121 120
3 119 121 122
3 123 122 120
3 123 120 118
3 10 85 121
3 10 11 85
3 120 84 11
3 11 84 85
3 121 119 10
3 119 11 10
3 11 118 120
3 11 118 119
3 6 51 124
3 125 50 8
3 124 51 46
3 51 50 46
3 125 50 44
3 50 46 44
3 124 82 6
3 8 81 125
3 46 82 124
3 44 81 125
3 128 61 60
3 56 60 61
3 129 128 60
3 129 60 56
3 57 61 128
3 61 57 56
3 129 128 114
3 129 114 56
3 128 115 114
3 57 115 128
3 107 109 130
3 131 130 109
3 65 130 131
3 131 109 65
3 130 107 64
3 130 65 64
3 138 137 136
3 62 137 138
3 136 137 139
3 66 136 139
3 66 64 62
3 64 136 138
3 62 64 138
3 65 66 136
3 64 65 136
3 64 65 66
3 133 134 136
3 138 136 133
3 140 138 136
3 140 138 133
3 141 140 136
3 134 136 141
3 102 103 142
3 103 105 142
3 105 103 102
3 143 142 102
3 143 104 102
3 105 104 102
3 119 142 143
3 143 119 104
3 104 105 119
3 142 119 118
3 105 118 142
3 119 118 105
3 143 142 71
3 143 142 46
3 143 71 46
3 44 46 142
3 71 46 44
3 142 70 44
3 70 71 142
3 71 70 44
3 76 78 144
3 76 78 99
3 145 144 78
3 145 99 78
3 76 98 144
3 99 98 76
3 144 146 147
3 144 145 146
3 99 145 146
3 147 144 98
3 148 149 150
3 151 149 148
3 9 148 151
3 9 149 151
3 7 148 150
3 148 9 7
3 6 8 148
3 50 148 151
3 151 148 8
3 8 50 151
3 50 51 148
3 148 51 6
3 153 123 118
3 119 122 152
3 119 143 152
3 143 119 118
3 152 143 142
3 143 142 118
3 153 152 142
3 153 142 118
3 80 83 152
3 152 121 80
3 80 83 121
3 153 152 83
3 83 120 153
3 83 120 121
3 152 122 121
3 123 122 121
3 123 121 120
3 120 123 153
3 37 88 154
3 37 88 90
3 155 154 39
3 155 90 39
3 37 39 154
3 37 39 90
3 89 90 91
3 155 90 89
3 88 91 154
3 88 90 91
3 157 156 154
3 156 155 154
3 156 155 89
3 157 154 91
3 89 91 97
3 89 97 159
3 91 96 158
3 97 96 91
3 158 157 91
3 156 158 159
3 159 156 89
3 158 157 156
3 159 158 147
3 98 147 159
3 158 147 146
3 99 146 158
3 96 99 158
3 96 97 99
3 97 98 159
3 97 98 99
3 139 161 162
3 137 160 163
3 161 73 72
3 73 161 162
3 163 160 72
3 163 161 72
3 139 162 164
3 165 160 137
3 73 162 164
3 72 160 165
3 166 80 46
3 46 80 83
3 44 83 167
3 83 46 44
3 80 83 153
3 83 153 167
3 166 152 80
3 153 152 80
3 166 143 46
3 143 46 44
3 44 142 167
3 143 142 44
3 153 143 142
3 142 153 167
3 166 152 143
3 153 152 143
3 127 126 39
3 39 126 169
3 168 127 37
3 127 39 37
3 168 157 127
3 169 156 126
3 37 39 155
3 169 155 39
3 37 154 168
3 37 154 155
3 157 156 155
3 155 156 169
3 154 157 168
3 154 155 157
3 156 159 170
3 156 157 170
3 156 157 159
3 157 158 159
3 171 170 157
3 157 158 171
3 170 159 147
3 146 147 170
3 146 147 159
3 159 158 146
3 146 170 171
3 146 158 171
3 114 115 129
3 114 129 173
3 172 128 115
3 129 128 115
3 78 128 172
3 78 128 129
3 173 129 76
3 76 78 129
3 111 114 173
3 172 115 110
3 172 110 79
3 77 111 173
3 76 77 173
3 172 79 78
3 137 140 174
3 139 174 175
3 175 141 139
3 174 139 137
3 174 135 133
3 135 134 133
3 175 174 132
3 132 134 175
3 174 135 132
3 132 134 135
3 134 141 175
3 174 140 133
3 138 65 64
3 177 138 64
3 65 136 176
3 65 136 138
3 133 134 138
3 133 138 177
3 176 136 134
3 138 136 134
3 176 134 131
3 134 133 131
3 177 133 130
3 133 131 130
3 176 131 65
3 131 65 64
3 177 130 64
3 131 130 64
3 139 138 137
3 179 138 137
3 178 139 136
3 136 138 139
3 138 140 141
3 179 140 138
3 136 141 178
3 141 138 136
3 137 140 179
3 178 141 139
3 180 165 137
3 139 164 181
3 180 137 62
3 66 139 181
3 72 165 180
3 181 180 73
3 73 164 181
3 72 73 180
3 62 68 180
3 68 66 62
3 69 180 181
3 181 69 66
3 180 69 68
3 69 68 66
3 144 145 182
3 144 147 182
3 144 145 147
3 145 182 183
3 183 146 145
3 145 146 147
3 183 182 150
3 183 150 146
3 149 150 182
3 147 149 182
3 151 51 50
3 50 151 185
3 51 148 184
3 51 148 151
3 48 50 185
3 47 51 184
3 108 48 47
3 185 108 48
3 184 106 47
3 47 106 108
3 185 151 75
3 184 148 74
3 74 106 184
3 108 106 74
3 75 108 185
3 108 75 74
3 186 187 188
3 189 187 186
3 189 188 187
3 186 188 190
3 191 190 186
3 191 190 188
3 186 189 191
3 188 189 191
3 137 163 192
3 193 161 139
3 194 192 163
3 161 193 195
3 192 174 137
3 175 174 137
3 139 175 193
3 175 139 137
3 135 192 194
3 195 193 132
3 135 174 192
3 175 174 135
3 193 175 132
3 132 135 175
3 127 157 196
3 126 156 197
3 171 170 156
3 156 170 197
3 157 171 196
3 171 157 156
3 9 126 127
3 9 126 197
3 7 127 196
3 7 9 127
3 197 149 9
3 7 150 196
3 146 171 196
3 146 147 171
3 197 170 147
3 147 170 171
3 196 150 146
3 147 149 197
3 149 182 183
3 199 182 149
3 150 183 198
3 149 150 183
3 151 150 149
3 149 151 199
3 148 150 198
3 151 150 148
3 74 148 198
3 199 151 75
3 78 76 75
3 75 76 199
3 198 78 74
3 78 75 74
3 198 145 78
3 76 78 145
3 76 144 199
3 145 144 76
3 198 183 145
3 144 145 183
3 144 182 199
3 144 182 183
3 194 195 200
3 201 200 195
3 132 200 201
3 201 195 132
3 135 194 200
3 132 135 200
3 188 201 202
3 201 188 187
3 187 200 203
3 201 200 187
3 186 187 190
3 203 187 186
3 202 190 188
3 190 188 187
3 202 201 195
3 194 195 201
3 203 200 194
3 201 200 194
3 203 194 163
3 202 195 161
3 161 190 202
3 161 163 190
3 203 186 163
3 163 186 190
