ply
format ascii 1.0
comment Created by Open3D
element vertex 176
property double x
property double y
property double z
element face 588
property list uchar uint vertex_indices
end_header
490227 5.45372e+06 114.868
490227 5.45372e+06 104.797
490227 5.45372e+06 114.868
490225 5.45373e+06 104.797
490227 5.45372e+06 104.797
490225 5.45373e+06 114.868
490239 5.45372e+06 114.868
490237 5.45372e+06 104.797
490236 5.45372e+06 114.868
490236 5.45372e+06 104.797
490239 5.45372e+06 104.797
490237 5.45372e+06 114.868
490227 5.45372e+06 114.868
490227 5.45372e+06 104.797
490229 5.45372e+06 104.797
490226 5.45373e+06 104.797
490229 5.45372e+06 114.868
490226 5.45373e+06 114.868
490225 5.45373e+06 114.868
490225 5.45373e+06 114.868
490225 5.45373e+06 114.868
490225 5.45373e+06 104.797
490225 5.45373e+06 104.797
490225 5.45373e+06 104.797
490225 5.45373e+06 104.797
490225 5.45373e+06 114.868
490225 5.45373e+06 114.868
490225 5.45373e+06 104.797
490234 5.45372e+06 104.797
490232 5.45372e+06 114.868
490232 5.45372e+06 104.797
490234 5.45372e+06 114.868
490234 5.45372e+06 114.868
490234 5.45372e+06 104.797
490241 5.45373e+06 104.797
490241 5.45373e+06 114.868
490239 5.45372e+06 104.797
490239 5.45372e+06 114.868
490241 5.45372e+06 114.868
490241 5.45372e+06 114.868
490241 5.45372e+06 104.797
490241 5.45372e+06 104.797
490226 5.45373e+06 114.868
490226 5.45373e+06 104.797
490233 5.45373e+06 104.797
490233 5.45373e+06 114.868
490226 5.45373e+06 104.797
490226 5.45373e+06 114.868
490226 5.45373e+06 104.797
490226 5.45373e+06 114.868
490227 5.45373e+06 114.868
490227 5.45373e+06 104.797
490241 5.45373e+06 104.797
490241 5.45373e+06 114.868
490241 5.45373e+06 114.868
490241 5.45373e+06 114.868
490241 5.45373e+06 104.797
490241 5.45373e+06 104.797
490241 5.45373e+06 114.868
490241 5.45373e+06 104.797
490238 5.45373e+06 114.868
490238 5.45373e+06 104.797
490241 5.45372e+06 114.868
490241 5.45372e+06 104.797
490241 5.45372e+06 114.868
490241 5.45373e+06 104.797
490241 5.45372e+06 104.797
490241 5.45373e+06 114.868
490241 5.45373e+06 114.868
490241 5.45373e+06 104.797
490241 5.45373e+06 104.797
490241 5.45373e+06 114.868
490234 5.45373e+06 114.868
490234 5.45373e+06 104.797
490235 5.45373e+06 104.797
490235 5.45373e+06 114.868
490234 5.45373e+06 104.797
490234 5.45373e+06 114.868
490240 5.45372e+06 114.868
490240 5.45372e+06 104.797
490241 5.45372e+06 104.797
490241 5.45372e+06 114.868
490235 5.45372e+06 104.797
490235 5.45372e+06 114.868
490230 5.45373e+06 104.797
490230 5.45373e+06 114.868
490239 5.45373e+06 114.868
490239 5.45373e+06 104.797
490231 5.45373e+06 114.868
490231 5.45373e+06 104.797
490237 5.45373e+06 114.868
490237 5.45373e+06 104.797
490241 5.45372e+06 104.797
490241 5.45372e+06 114.868
490225 5.45373e+06 104.797
490225 5.45373e+06 114.868
490225 5.45373e+06 104.797
490225 5.45373e+06 114.868
490225 5.45373e+06 114.868
490225 5.45373e+06 104.797
490236 5.45373e+06 104.797
490236 5.45373e+06 114.868
490241 5.45372e+06 114.868
490241 5.45372e+06 104.797
490241 5.45372e+06 104.797
490241 5.45372e+06 114.868
490229 5.45374e+06 114.868
490229 5.45374e+06 104.797
490229 5.45374e+06 104.797
490229 5.45374e+06 114.868
490241 5.45373e+06 104.797
490241 5.45373e+06 114.868
490241 5.45373e+06 114.868
490241 5.45373e+06 104.797
490228 5.45374e+06 104.797
490228 5.45374e+06 114.868
490235 5.45372e+06 104.797
490235 5.45372e+06 114.868
490233 5.45372e+06 104.797
490232 5.45372e+06 114.868
490233 5.45372e+06 114.868
490232 5.45372e+06 104.797
490239 5.45373e+06 114.868
490239 5.45373e+06 104.797
490241 5.45373e+06 114.868
490241 5.45373e+06 104.797
490225 5.45373e+06 114.868
490225 5.45373e+06 104.797
490231 5.45373e+06 104.797
490231 5.45373e+06 114.868
490241 5.45373e+06 114.868
490241 5.45373e+06 104.797
490241 5.45372e+06 114.868
490241 5.45372e+06 104.797
490234 5.45372e+06 104.797
490234 5.45372e+06 114.868
490237 5.45373e+06 114.868
490237 5.45373e+06 104.797
490229 5.45372e+06 104.797
490229 5.45372e+06 114.868
490228 5.45372e+06 114.868
490228 5.45372e+06 104.797
490227 5.45372e+06 114.868
490227 5.45372e+06 104.797
490227 5.45372e+06 114.868
490227 5.45372e+06 104.797
490227 5.45372e+06 114.868
490227 5.45372e+06 104.797
490225 5.45373e+06 114.868
490225 5.45373e+06 104.797
490236 5.45373e+06 104.797
490236 5.45373e+06 114.868
490241 5.45373e+06 104.797
490241 5.45373e+06 114.868
490228 5.45374e+06 104.797
490228 5.45374e+06 114.868
490227 5.45374e+06 114.868
490227 5.45374e+06 104.797
490228 5.45372e+06 114.868
490228 5.45372e+06 104.797
490241 5.45373e+06 114.868
490241 5.45373e+06 104.797
490241 5.45373e+06 104.797
490241 5.45373e+06 114.868
490241 5.45373e+06 104.797
490241 5.45373e+06 114.868
490235 5.45373e+06 104.797
490235 5.45373e+06 114.868
490241 5.45373e+06 104.797
490241 5.45373e+06 114.868
490241 5.45373e+06 114.868
490241 5.45373e+06 104.797
490239 5.45373e+06 104.797
490239 5.45373e+06 114.868
490235 5.45373e+06 114.868
490235 5.45373e+06 104.797
3 6 8 9
3 10 7 6
3 6 9 10
3 10 9 7
3 6 7 11
3 11 8 6
3 12 13 15
3 13 14 15
3 17 16 12
3 12 15 17
3 4 12 13
3 4 13 14
3 12 4 0
3 16 12 0
3 20 19 18
3 18 19 21
3 21 20 19
3 22 20 18
3 20 21 22
3 23 22 18
3 23 21 18
3 23 22 21
3 20 22 26
3 26 25 20
3 20 22 25
3 24 26 27
3 22 26 27
3 27 24 22
3 24 25 26
3 22 24 25
3 14 32 33
3 14 33 34
3 14 16 32
3 35 32 16
3 33 32 7
3 34 33 7
3 32 11 7
3 11 32 35
3 7 10 36
3 11 10 7
3 6 11 37
3 11 10 6
3 36 34 7
3 36 35 34
3 35 36 37
3 11 35 37
3 38 37 36
3 37 38 39
3 40 38 36
3 41 40 36
3 6 37 39
3 41 36 10
3 42 43 44
3 15 42 43
3 44 43 15
3 45 44 42
3 17 42 45
3 15 17 42
3 46 44 43
3 44 45 46
3 43 44 45
3 47 46 45
3 47 45 42
3 45 43 42
3 15 17 46
3 15 43 46
3 15 17 43
3 47 46 17
3 47 42 17
3 17 42 43
3 48 23 21
3 48 21 19
3 23 21 19
3 18 19 23
3 19 48 49
3 18 19 49
3 22 23 48
3 23 22 20
3 18 20 23
3 49 20 18
3 48 27 22
3 27 22 20
3 49 26 20
3 27 26 20
3 48 50 51
3 27 48 51
3 50 49 48
3 26 49 50
3 55 53 52
3 53 55 58
3 59 57 52
3 57 55 52
3 52 53 60
3 53 58 60
3 61 59 52
3 52 60 61
3 41 62 66
3 40 41 66
3 62 39 38
3 62 41 39
3 64 63 62
3 64 62 37
3 62 63 66
3 66 63 36
3 37 38 62
3 37 38 40
3 40 37 36
3 66 40 36
3 70 69 57
3 55 57 69
3 70 69 68
3 55 68 69
3 68 70 71
3 55 68 71
3 70 59 57
3 58 59 70
3 58 70 71
3 55 58 71
3 14 34 73
3 72 35 16
3 74 73 34
3 35 72 75
3 73 74 76
3 77 75 72
3 44 73 76
3 77 72 45
3 73 15 14
3 16 17 72
3 73 44 15
3 17 45 72
3 10 78 79
3 9 10 79
3 8 9 10
3 78 10 6
3 6 8 78
3 6 8 10
3 80 79 78
3 9 79 80
3 80 9 8
3 81 80 78
3 81 78 8
3 81 80 8
3 83 82 11
3 8 82 83
3 83 11 8
3 82 9 7
3 8 9 82
3 7 11 82
3 88 45 44
3 45 77 88
3 76 77 88
3 76 88 89
3 89 88 44
3 89 76 44
3 91 90 61
3 91 90 59
3 59 61 91
3 58 59 90
3 90 60 58
3 60 61 90
3 67 65 64
3 93 67 64
3 63 65 92
3 63 64 65
3 92 65 34
3 35 67 93
3 34 36 92
3 34 36 37
3 93 37 35
3 37 35 34
3 36 63 92
3 93 64 37
3 95 94 47
3 95 47 17
3 15 17 47
3 46 47 94
3 15 46 94
3 47 46 15
3 94 5 3
3 3 13 94
3 13 5 3
3 13 12 5
3 5 94 95
3 95 12 5
3 13 15 94
3 17 15 13
3 12 13 17
3 95 17 12
3 47 96 97
3 97 47 45
3 47 45 44
3 96 47 46
3 44 46 96
3 47 46 44
3 96 89 44
3 89 45 44
3 97 96 88
3 45 88 97
3 96 89 88
3 45 88 89
3 85 100 101
3 101 85 60
3 85 61 60
3 100 85 84
3 61 84 100
3 61 84 85
3 100 91 61
3 60 61 91
3 90 91 100
3 91 90 60
3 90 100 101
3 60 90 101
3 79 102 103
3 103 80 79
3 81 80 79
3 78 81 102
3 102 79 78
3 81 79 78
3 104 103 102
3 80 103 104
3 80 81 104
3 105 102 81
3 105 104 102
3 105 104 81
3 84 106 108
3 108 107 106
3 108 107 84
3 85 106 109
3 106 107 109
3 84 85 106
3 54 56 110
3 54 56 111
3 112 111 110
3 54 110 112
3 54 111 112
3 113 111 110
3 113 110 56
3 113 111 56
3 26 27 114
3 27 26 25
3 115 114 26
3 115 114 25
3 115 26 25
3 114 27 24
3 24 25 114
3 24 25 27
3 109 114 115
3 85 114 115
3 85 109 115
3 114 109 107
3 114 85 84
3 84 107 114
3 117 116 11
3 117 83 11
3 7 11 116
3 7 11 83
3 116 82 7
3 7 82 83
3 117 116 31
3 31 83 117
3 28 31 116
3 83 31 28
3 28 82 116
3 28 82 83
3 16 119 120
3 14 118 121
3 118 33 14
3 14 16 33
3 32 118 120
3 16 32 120
3 118 33 32
3 16 32 33
3 29 30 118
3 120 118 29
3 120 119 29
3 121 118 30
3 60 86 122
3 60 61 86
3 123 122 87
3 123 87 61
3 86 87 122
3 87 86 61
3 60 122 124
3 125 124 122
3 122 123 125
3 61 123 125
3 3 99 127
3 3 5 99
3 126 98 5
3 5 98 99
3 127 99 96
3 97 98 126
3 5 95 126
3 95 5 3
3 127 94 3
3 95 94 3
3 126 95 47
3 95 47 46
3 95 94 46
3 46 94 127
3 47 97 126
3 97 47 46
3 46 96 97
3 127 96 46
3 101 128 129
3 85 101 129
3 101 85 84
3 128 100 84
3 128 101 100
3 84 100 101
3 129 128 25
3 129 115 25
3 24 25 128
3 24 25 115
3 24 114 128
3 24 114 115
3 85 115 129
3 115 85 84
3 128 114 84
3 84 114 115
3 70 71 130
3 69 70 71
3 70 130 131
3 69 130 131
3 69 70 131
3 130 69 68
3 130 71 68
3 68 69 71
3 130 67 35
3 65 67 130
3 65 130 131
3 34 65 131
3 130 75 74
3 35 75 130
3 131 130 74
3 131 74 34
3 133 132 41
3 133 41 10
3 6 39 132
3 39 41 132
3 10 79 133
3 79 10 6
3 132 78 6
3 79 78 6
3 103 132 133
3 79 103 133
3 103 79 78
3 132 102 78
3 132 103 102
3 103 102 78
3 7 33 134
3 33 11 7
3 135 32 11
3 33 32 11
3 7 11 117
3 11 117 135
3 134 116 7
3 7 116 117
3 117 31 28
3 135 117 31
3 28 116 134
3 117 116 28
3 135 120 32
3 120 33 32
3 33 118 134
3 33 118 120
3 31 120 135
3 28 31 120
3 134 118 28
3 120 118 28
3 136 71 58
3 71 59 58
3 70 136 137
3 59 70 137
3 136 71 70
3 59 70 71
3 91 59 58
3 137 91 59
3 58 90 136
3 91 90 58
3 90 101 136
3 101 91 90
3 100 136 137
3 137 100 91
3 100 101 136
3 91 100 101
3 29 119 139
3 138 121 30
3 29 139 140
3 141 138 30
3 139 119 16
3 14 121 138
3 142 140 139
3 138 141 143
3 4 14 138
3 139 16 0
3 142 139 0
3 0 4 142
3 4 138 143
3 143 142 4
3 144 145 146
3 1 145 146
3 147 145 144
3 1 144 147
3 147 145 1
3 2 144 146
3 1 2 144
3 146 2 1
3 25 98 148
3 99 98 25
3 149 99 24
3 99 25 24
3 88 129 148
3 149 128 89
3 148 129 25
3 24 25 129
3 24 128 129
3 24 128 149
3 97 96 89
3 89 96 149
3 148 97 88
3 97 89 88
3 96 99 149
3 148 98 97
3 70 137 150
3 150 71 70
3 70 71 137
3 71 150 151
3 71 136 151
3 71 136 137
3 150 137 100
3 100 101 150
3 100 101 137
3 137 136 101
3 151 150 101
3 151 136 101
3 152 125 124
3 153 152 124
3 153 124 60
3 61 125 152
3 53 60 61
3 53 152 153
3 153 60 53
3 52 61 152
3 152 53 52
3 61 53 52
3 107 109 154
3 107 109 115
3 109 154 155
3 155 115 109
3 154 114 107
3 107 114 115
3 154 156 157
3 50 156 157
3 156 155 154
3 50 155 156
3 51 154 157
3 157 51 50
3 26 27 115
3 26 115 155
3 27 114 154
3 27 114 115
3 155 50 26
3 154 51 27
3 140 142 158
3 159 143 141
3 142 143 147
3 159 147 143
3 142 144 158
3 147 144 142
3 145 146 147
3 145 147 159
3 144 146 158
3 147 146 144
3 29 140 158
3 159 141 30
3 146 145 30
3 30 145 159
3 158 146 29
3 146 30 29
3 160 153 152
3 52 152 153
3 152 160 161
3 161 160 52
3 52 152 161
3 160 153 53
3 160 53 52
3 153 53 52
3 162 161 56
3 161 56 54
3 160 162 163
3 163 160 54
3 160 161 162
3 54 160 161
3 54 56 112
3 54 112 163
3 56 110 162
3 112 110 56
3 164 162 110
3 110 112 164
3 162 163 165
3 112 163 165
3 165 164 162
3 165 164 112
3 100 150 166
3 100 150 151
3 167 151 101
3 100 101 151
3 70 71 166
3 151 71 70
3 167 166 71
3 71 151 167
3 166 150 70
3 70 150 151
3 77 88 89
3 77 166 167
3 167 88 77
3 76 89 166
3 166 77 76
3 89 77 76
3 167 129 88
3 89 128 166
3 166 128 100
3 100 128 129
3 101 129 167
3 100 101 129
3 124 125 168
3 153 125 124
3 169 168 124
3 124 153 169
3 168 152 125
3 153 152 125
3 168 169 170
3 170 169 160
3 161 168 171
3 168 170 171
3 168 161 152
3 161 153 152
3 153 160 161
3 153 160 169
3 173 172 165
3 173 165 163
3 164 165 172
3 165 164 163
3 172 164 162
3 162 163 164
3 160 163 173
3 160 161 163
3 172 162 161
3 163 162 161
3 161 171 172
3 173 170 160
3 173 170 169
3 169 170 171
3 172 171 168
3 168 169 171
3 87 123 172
3 86 87 172
3 86 87 123
3 86 172 173
3 173 122 86
3 123 122 86
3 122 123 124
3 173 124 122
3 172 125 123
3 123 124 125
3 173 169 124
3 124 125 169
3 172 168 125
3 169 168 125
3 167 166 70
3 175 166 70
3 71 167 174
3 70 71 167
3 71 130 174
3 71 130 131
3 175 131 70
3 131 71 70
3 174 130 75
3 131 130 75
3 74 131 175
3 131 75 74
3 175 76 74
3 75 77 174
3 76 166 167
3 76 166 175
3 174 167 77
3 167 77 76
