ply
format ascii 1.0
comment Created by Open3D
element vertex 154
property double x
property double y
property double z
element face 532
property list uchar uint vertex_indices
end_header
490339 5.45375e+06 111.193
490339 5.45375e+06 101.123
490339 5.45375e+06 101.123
490339 5.45375e+06 101.123
490339 5.45375e+06 111.193
490339 5.45375e+06 111.193
490330 5.45376e+06 101.123
490330 5.45375e+06 111.193
490326 5.45376e+06 111.193
490330 5.45376e+06 111.193
490330 5.45375e+06 101.123
490326 5.45376e+06 101.123
490336 5.45376e+06 111.193
490335 5.45376e+06 101.123
490336 5.45376e+06 101.123
490337 5.45376e+06 101.123
490335 5.45376e+06 111.193
490337 5.45376e+06 111.193
490334 5.45376e+06 111.193
490334 5.45376e+06 101.123
490339 5.45376e+06 101.123
490339 5.45376e+06 111.193
490331 5.45375e+06 111.193
490331 5.45375e+06 101.123
490331 5.45376e+06 101.123
490331 5.45376e+06 111.193
490330 5.45376e+06 111.193
490330 5.45376e+06 101.123
490339 5.45375e+06 101.123
490339 5.45375e+06 111.193
490340 5.45375e+06 111.193
490340 5.45375e+06 101.123
490340 5.45375e+06 101.123
490340 5.45375e+06 111.193
490340 5.45375e+06 111.193
490340 5.45376e+06 101.123
490340 5.45376e+06 111.193
490340 5.45375e+06 101.123
490335 5.45375e+06 101.123
490335 5.45375e+06 111.193
490333 5.45376e+06 111.193
490333 5.45376e+06 101.123
490333 5.45375e+06 101.123
490333 5.45376e+06 101.123
490333 5.45376e+06 111.193
490333 5.45375e+06 111.193
490333 5.45375e+06 111.193
490332 5.45375e+06 111.193
490333 5.45375e+06 101.123
490332 5.45375e+06 101.123
490330 5.45375e+06 111.193
490330 5.45375e+06 101.123
490327 5.45375e+06 101.123
490327 5.45375e+06 111.193
490332 5.45375e+06 101.123
490332 5.45375e+06 111.193
490339 5.45375e+06 111.193
490339 5.45375e+06 101.123
490326 5.45376e+06 101.123
490326 5.45375e+06 111.193
490326 5.45376e+06 111.193
490326 5.45375e+06 101.123
490327 5.45376e+06 111.193
490326 5.45376e+06 101.123
490326 5.45376e+06 111.193
490327 5.45376e+06 101.123
490332 5.45376e+06 101.123
490332 5.45376e+06 111.193
490340 5.45375e+06 111.193
490340 5.45375e+06 101.123
490340 5.45375e+06 111.193
490340 5.45375e+06 101.123
490340 5.45375e+06 111.193
490340 5.45375e+06 101.123
490338 5.45375e+06 101.123
490338 5.45375e+06 111.193
490340 5.45376e+06 101.123
490340 5.45376e+06 111.193
490340 5.45376e+06 101.123
490340 5.45376e+06 111.193
490336 5.45375e+06 111.193
490336 5.45375e+06 101.123
490331 5.45375e+06 111.193
490331 5.45375e+06 101.123
490326 5.45375e+06 111.193
490326 5.45375e+06 101.123
490326 5.45375e+06 101.123
490326 5.45375e+06 111.193
490329 5.45375e+06 101.123
490329 5.45375e+06 111.193
490327 5.45375e+06 111.193
490327 5.45375e+06 101.123
490326 5.45375e+06 101.123
490326 5.45375e+06 111.193
490329 5.45376e+06 101.123
490329 5.45376e+06 111.193
490329 5.45376e+06 111.193
490329 5.45376e+06 101.123
490329 5.45376e+06 111.193
490329 5.45376e+06 101.123
490327 5.45376e+06 111.193
490327 5.45376e+06 101.123
490327 5.45376e+06 101.123
490327 5.45376e+06 111.193
490328 5.45376e+06 101.123
490328 5.45376e+06 111.193
490331 5.45376e+06 101.123
490331 5.45376e+06 111.193
490330 5.45376e+06 101.123
490330 5.45376e+06 111.193
490326 5.45376e+06 111.193
490326 5.45376e+06 101.123
490338 5.45375e+06 111.193
490338 5.45375e+06 101.123
490338 5.45375e+06 101.123
490338 5.45375e+06 111.193
490337 5.45375e+06 101.123
490337 5.45375e+06 111.193
490334 5.45375e+06 111.193
490334 5.45375e+06 101.123
490335 5.45375e+06 101.123
490335 5.45375e+06 111.193
490340 5.45376e+06 111.193
490340 5.45376e+06 101.123
490340 5.45376e+06 101.123
490340 5.45376e+06 111.193
490328 5.45375e+06 111.193
490328 5.45375e+06 101.123
490326 5.45375e+06 101.123
490326 5.45375e+06 111.193
490329 5.45375e+06 101.123
490329 5.45375e+06 111.193
490337 5.45375e+06 101.123
490337 5.45375e+06 111.193
490340 5.45376e+06 111.193
490340 5.45376e+06 101.123
490338 5.45376e+06 101.123
490338 5.45376e+06 111.193
490327 5.45375e+06 111.193
490327 5.45375e+06 101.123
490326 5.45375e+06 101.123
490326 5.45375e+06 111.193
490326 5.45375e+06 111.193
490326 5.45375e+06 101.123
490328 5.45376e+06 101.123
490328 5.45376e+06 111.193
490336 5.45375e+06 111.193
490336 5.45375e+06 101.123
490339 5.45376e+06 111.193
490339 5.45376e+06 101.123
490338 5.45376e+06 111.193
490338 5.45376e+06 101.123
490339 5.45376e+06 101.123
490339 5.45376e+06 111.193
3 0 1 2
3 3 2 0
3 1 2 3
3 0 3 4
3 5 1 0
3 0 4 5
3 6 7 9
3 6 8 9
3 7 8 9
3 6 7 10
3 6 10 11
3 11 8 6
3 12 13 14
3 12 14 15
3 13 14 15
3 17 16 12
3 12 15 17
3 12 13 16
3 19 18 13
3 14 18 19
3 19 14 13
3 13 16 18
3 13 14 16
3 18 14 12
3 12 16 18
3 12 14 16
3 22 10 7
3 7 9 22
3 7 9 10
3 6 22 23
3 23 22 10
3 23 10 6
3 6 9 22
3 6 9 10
3 24 23 6
3 6 9 24
3 6 9 23
3 22 23 24
3 23 22 9
3 25 24 22
3 25 24 9
3 25 22 9
3 6 9 26
3 26 25 9
3 6 9 25
3 24 25 26
3 6 24 25
3 24 26 27
3 27 26 6
3 27 24 6
3 30 29 28
3 30 29 4
3 31 28 3
3 28 30 31
3 1 3 28
3 29 28 5
3 4 5 29
3 1 5 28
3 33 32 4
3 33 32 30
3 4 30 33
3 3 4 32
3 3 31 32
3 32 31 30
3 39 38 16
3 39 38 17
3 39 17 16
3 15 17 38
3 13 16 38
3 13 15 38
3 43 41 40
3 41 42 43
3 40 43 44
3 40 44 45
3 19 40 41
3 42 41 19
3 18 40 45
3 40 19 18
3 45 46 47
3 42 45 46
3 46 48 49
3 42 46 48
3 42 48 49
3 49 47 46
3 55 54 45
3 45 47 55
3 54 45 42
3 42 49 54
3 55 54 50
3 47 50 55
3 54 51 50
3 51 50 47
3 49 51 54
3 47 49 51
3 1 5 56
3 56 29 5
3 29 5 1
3 28 29 56
3 29 28 1
3 28 56 57
3 1 56 57
3 1 28 57
3 8 11 58
3 58 59 60
3 8 58 60
3 8 59 60
3 61 58 11
3 61 59 58
3 64 63 58
3 58 60 62
3 58 60 64
3 64 62 60
3 58 62 65
3 65 63 58
3 41 43 66
3 44 43 41
3 67 66 40
3 40 44 67
3 66 41 40
3 40 41 44
3 66 43 42
3 67 45 44
3 55 45 42
3 55 66 67
3 67 55 45
3 66 55 54
3 42 54 66
3 55 54 42
3 37 68 69
3 35 37 69
3 35 36 37
3 68 37 34
3 34 36 68
3 37 36 34
3 36 68 70
3 71 69 35
3 70 68 17
3 68 17 15
3 69 68 15
3 15 69 71
3 32 37 73
3 32 33 37
3 72 34 33
3 33 34 37
3 74 73 37
3 34 72 75
3 72 33 30
3 33 31 30
3 33 32 31
3 73 32 31
3 74 73 31
3 30 72 75
3 23 10 7
3 10 23 83
3 7 22 82
3 23 22 7
3 82 50 7
3 83 51 10
3 51 54 55
3 83 54 51
3 82 55 50
3 55 51 50
3 22 67 82
3 23 66 83
3 82 67 55
3 67 55 54
3 83 66 54
3 54 66 67
3 59 61 84
3 59 61 85
3 86 84 61
3 86 85 84
3 86 85 61
3 59 84 87
3 84 85 87
3 59 85 87
3 10 51 88
3 89 88 50
3 7 50 89
3 50 51 88
3 88 11 10
3 88 11 8
3 89 88 8
3 89 8 7
3 90 89 50
3 90 51 50
3 89 51 50
3 88 90 91
3 51 90 91
3 91 88 51
3 90 89 88
3 51 88 89
3 90 92 93
3 93 92 52
3 92 91 90
3 52 90 91
3 92 91 52
3 93 90 53
3 52 53 90
3 93 53 52
3 97 95 94
3 94 95 98
3 94 96 98
3 98 96 95
3 99 96 94
3 94 97 99
3 62 64 100
3 63 65 101
3 63 64 102
3 100 101 102
3 102 101 63
3 103 100 64
3 103 102 100
3 103 102 64
3 100 104 105
3 100 101 104
3 104 101 65
3 62 100 105
3 25 106 107
3 22 25 107
3 22 23 25
3 23 24 106
3 24 25 106
3 23 24 25
3 107 67 22
3 106 66 23
3 107 106 40
3 40 67 107
3 40 41 106
3 40 41 67
3 41 66 106
3 67 66 41
3 95 97 108
3 95 108 109
3 109 108 96
3 95 96 109
3 96 99 108
3 108 99 97
3 95 109 110
3 95 97 109
3 97 108 109
3 111 108 97
3 110 98 95
3 98 97 95
3 94 98 110
3 94 97 98
3 94 110 111
3 111 97 94
3 110 109 26
3 26 27 109
3 27 108 109
3 111 108 27
3 58 60 110
3 11 58 60
3 58 110 111
3 11 58 111
3 8 60 110
3 60 11 8
3 110 9 8
3 8 9 11
3 6 11 111
3 6 9 11
3 110 26 9
3 9 26 27
3 111 27 6
3 6 9 27
3 112 31 30
3 29 30 112
3 31 30 29
3 113 112 31
3 28 31 113
3 31 29 28
3 112 56 29
3 56 57 112
3 29 56 57
3 57 112 113
3 113 57 28
3 57 29 28
3 114 74 31
3 114 75 74
3 75 114 115
3 30 75 115
3 114 113 31
3 30 31 113
3 113 112 30
3 115 112 30
3 114 81 57
3 81 57 56
3 80 114 115
3 115 80 56
3 80 81 114
3 56 80 81
3 57 113 114
3 56 57 113
3 113 112 56
3 56 112 115
3 34 37 116
3 37 69 116
3 34 37 69
3 68 69 116
3 34 68 69
3 68 116 117
3 34 116 117
3 117 68 34
3 38 39 118
3 39 38 13
3 38 118 119
3 13 38 119
3 118 39 16
3 13 16 39
3 19 16 13
3 119 19 13
3 118 18 16
3 16 18 19
3 118 45 18
3 119 42 19
3 42 45 48
3 119 118 48
3 119 48 42
3 118 46 45
3 118 48 46
3 48 46 45
3 38 119 120
3 119 39 38
3 118 119 120
3 39 118 119
3 118 120 121
3 121 118 39
3 120 81 69
3 120 81 80
3 121 120 80
3 121 80 68
3 39 17 15
3 121 39 17
3 15 38 120
3 39 38 15
3 120 69 15
3 69 17 15
3 69 68 17
3 17 68 121
3 35 122 123
3 123 71 35
3 35 36 122
3 36 70 122
3 122 123 124
3 124 123 15
3 125 124 122
3 125 122 17
3 15 71 123
3 122 70 17
3 86 126 127
3 85 86 127
3 87 86 85
3 126 86 84
3 84 87 126
3 87 86 84
3 129 128 126
3 85 128 129
3 128 127 126
3 85 127 128
3 129 126 87
3 129 87 85
3 88 91 130
3 88 89 91
3 89 90 91
3 89 90 131
3 91 127 130
3 90 126 131
3 130 86 61
3 86 61 59
3 131 84 59
3 86 84 59
3 130 127 86
3 127 86 84
3 131 126 84
3 84 126 127
3 130 61 11
3 131 59 8
3 8 11 89
3 8 89 131
3 11 88 130
3 89 88 11
3 132 74 37
3 34 75 133
3 34 37 117
3 133 132 117
3 133 117 34
3 37 116 132
3 116 117 132
3 37 116 117
3 74 75 115
3 133 132 115
3 75 115 133
3 114 115 132
3 74 114 132
3 74 114 115
3 134 79 76
3 79 76 35
3 76 134 135
3 35 76 135
3 134 79 36
3 79 36 35
3 35 36 123
3 135 123 35
3 36 122 134
3 36 122 123
3 124 125 134
3 123 124 125
3 135 134 124
3 123 124 135
3 122 125 134
3 125 123 122
3 76 135 136
3 76 79 136
3 135 79 76
3 136 135 134
3 79 134 135
3 137 136 134
3 137 136 79
3 137 134 79
3 138 129 126
3 126 127 129
3 139 128 127
3 129 128 127
3 140 129 128
3 128 139 140
3 129 138 141
3 129 140 141
3 142 141 138
3 142 141 140
3 143 140 139
3 143 142 140
3 139 127 91
3 138 126 90
3 90 93 138
3 90 91 93
3 91 92 139
3 93 92 91
3 142 138 93
3 93 142 143
3 143 139 92
3 92 93 143
3 144 111 94
3 111 98 94
3 98 110 145
3 98 110 111
3 111 110 60
3 145 110 60
3 58 111 144
3 58 60 111
3 58 65 144
3 58 60 65
3 145 62 60
3 65 62 60
3 94 104 144
3 104 98 94
3 98 105 145
3 98 104 105
3 145 105 62
3 65 104 144
3 80 115 146
3 80 81 115
3 147 114 81
3 115 114 81
3 116 132 133
3 147 132 116
3 146 133 117
3 116 117 133
3 114 132 133
3 147 132 114
3 115 133 146
3 114 115 133
3 146 117 68
3 68 69 117
3 147 116 69
3 117 116 69
3 68 80 146
3 69 81 147
3 136 137 148
3 137 136 76
3 136 148 149
3 76 148 149
3 76 136 149
3 148 137 79
3 76 79 148
3 137 79 76
3 20 21 148
3 14 20 21
3 20 148 149
3 149 148 14
3 14 20 149
3 148 21 12
3 12 14 148
3 12 14 21
3 150 17 12
3 12 14 17
3 151 15 14
3 17 15 14
3 151 124 15
3 150 125 17
3 12 14 149
3 151 149 14
3 12 148 150
3 12 148 149
3 149 137 136
3 136 149 151
3 150 148 137
3 137 148 149
3 150 137 134
3 137 135 134
3 135 136 151
3 137 136 135
3 150 134 125
3 125 134 135
3 151 135 124
3 135 125 124
3 76 149 152
3 149 79 76
3 153 148 79
3 79 148 149
3 77 78 79
3 153 79 77
3 152 78 76
3 76 78 79
3 152 78 20
3 78 21 20
3 153 77 21
3 78 77 21
3 21 148 149
3 21 148 153
3 152 149 20
3 149 21 20
