ply
format ascii 1.0
comment Created by Open3D
element vertex 186
property double x
property double y
property double z
element face 672
property list uchar uint vertex_indices
end_header
490263 5.45378e+06 114.927
490263 5.45378e+06 104.856
490263 5.45378e+06 114.927
490263 5.45378e+06 104.856
490263 5.45378e+06 114.927
490263 5.45378e+06 104.856
490262 5.45377e+06 114.927
490263 5.45377e+06 104.856
490262 5.45377e+06 104.856
490262 5.45377e+06 104.856
490262 5.45377e+06 114.927
490263 5.45377e+06 114.927
490263 5.45378e+06 104.856
490262 5.45378e+06 114.927
490263 5.45378e+06 114.927
490262 5.45378e+06 104.856
490262 5.45377e+06 104.856
490262 5.45377e+06 114.927
490259 5.45377e+06 114.927
490262 5.45377e+06 114.927
490262 5.45377e+06 104.856
490259 5.45377e+06 104.856
490253 5.45377e+06 104.856
490257 5.45377e+06 114.927
490253 5.45377e+06 114.927
490257 5.45377e+06 114.927
490257 5.45377e+06 104.856
490257 5.45377e+06 104.856
490252 5.45377e+06 114.927
490254 5.45377e+06 104.856
490252 5.45377e+06 104.856
490254 5.45377e+06 114.927
490262 5.45377e+06 114.927
490262 5.45377e+06 104.856
490261 5.45378e+06 104.856
490261 5.45378e+06 114.927
490260 5.45378e+06 114.927
490260 5.45378e+06 104.856
490260 5.45378e+06 104.856
490260 5.45378e+06 114.927
490259 5.45378e+06 114.927
490259 5.45378e+06 104.856
490251 5.45377e+06 114.927
490251 5.45377e+06 104.856
490255 5.45377e+06 114.927
490255 5.45377e+06 104.856
490256 5.45377e+06 104.856
490256 5.45377e+06 114.927
490252 5.45377e+06 104.856
490252 5.45377e+06 114.927
490252 5.45377e+06 114.927
490252 5.45377e+06 104.856
490252 5.45377e+06 114.927
490252 5.45377e+06 104.856
490248 5.45377e+06 104.856
490248 5.45377e+06 114.927
490252 5.45377e+06 104.856
490252 5.45377e+06 114.927
490259 5.45377e+06 104.856
490259 5.45377e+06 114.927
490259 5.45377e+06 114.927
490259 5.45377e+06 104.856
490256 5.45377e+06 114.927
490256 5.45377e+06 104.856
490259 5.45377e+06 114.927
490259 5.45377e+06 104.856
490262 5.45378e+06 114.927
490262 5.45378e+06 104.856
490263 5.45378e+06 114.927
490263 5.45378e+06 104.856
490263 5.45378e+06 104.856
490263 5.45378e+06 114.927
490257 5.45378e+06 114.927
490257 5.45378e+06 104.856
490263 5.45377e+06 114.927
490263 5.45377e+06 104.856
490252 5.45377e+06 114.927
490252 5.45377e+06 104.856
490262 5.45377e+06 114.927
490262 5.45377e+06 104.856
490252 5.45377e+06 104.856
490252 5.45377e+06 114.927
490256 5.45378e+06 114.927
490257 5.45378e+06 104.856
490256 5.45378e+06 104.856
490257 5.45378e+06 114.927
490248 5.45378e+06 114.927
490252 5.45378e+06 114.927
490248 5.45378e+06 114.927
490252 5.45378e+06 104.856
490248 5.45378e+06 104.856
490248 5.45378e+06 104.856
490248 5.45377e+06 114.927
490248 5.45377e+06 104.856
490248 5.45378e+06 104.856
490248 5.45378e+06 114.927
490259 5.45377e+06 104.856
490259 5.45377e+06 114.927
490259 5.45377e+06 104.856
490259 5.45377e+06 114.927
490258 5.45377e+06 114.927
490258 5.45377e+06 104.856
490259 5.45377e+06 114.927
490259 5.45377e+06 104.856
490263 5.45378e+06 114.927
490263 5.45378e+06 104.856
490254 5.45378e+06 114.927
490254 5.45378e+06 104.856
490254 5.45378e+06 104.856
490254 5.45378e+06 114.927
490258 5.45378e+06 114.927
490258 5.45378e+06 104.856
490256 5.45378e+06 104.856
490256 5.45378e+06 114.927
490256 5.45378e+06 114.927
490256 5.45378e+06 104.856
490263 5.45378e+06 114.927
490263 5.45378e+06 104.856
490263 5.45378e+06 114.927
490263 5.45378e+06 104.856
490248 5.45377e+06 104.856
490248 5.45377e+06 104.856
490248 5.45377e+06 114.927
490248 5.45377e+06 114.927
490248 5.45378e+06 114.927
490248 5.45378e+06 104.856
490249 5.45378e+06 104.856
490248 5.45378e+06 104.856
490248 5.45378e+06 114.927
490249 5.45378e+06 114.927
490251 5.45378e+06 114.927
490253 5.45378e+06 104.856
490251 5.45378e+06 104.856
490253 5.45378e+06 114.927
490248 5.45378e+06 104.856
490248 5.45378e+06 114.927
490248 5.45378e+06 114.927
490248 5.45378e+06 104.856
490255 5.45378e+06 114.927
490255 5.45378e+06 104.856
490253 5.45378e+06 104.856
490253 5.45378e+06 114.927
490248 5.45378e+06 114.927
490248 5.45378e+06 104.856
490250 5.45377e+06 104.856
490248 5.45377e+06 104.856
490248 5.45377e+06 114.927
490250 5.45377e+06 114.927
490263 5.45378e+06 104.856
490263 5.45378e+06 114.927
490263 5.45378e+06 114.927
490263 5.45378e+06 104.856
490249 5.45378e+06 104.856
490249 5.45378e+06 114.927
490248 5.45378e+06 104.856
490248 5.45378e+06 114.927
490255 5.45378e+06 114.927
490255 5.45378e+06 104.856
490248 5.45377e+06 104.856
490248 5.45377e+06 114.927
490249 5.45377e+06 114.927
490249 5.45377e+06 104.856
490248 5.45377e+06 114.927
490248 5.45377e+06 104.856
490248 5.45378e+06 104.856
490248 5.45378e+06 114.927
490250 5.45378e+06 114.927
490250 5.45378e+06 104.856
490250 5.45378e+06 104.856
490250 5.45378e+06 114.927
490248 5.45378e+06 114.927
490248 5.45378e+06 104.856
490248 5.45377e+06 114.927
490248 5.45377e+06 104.856
490250 5.45378e+06 104.856
490250 5.45378e+06 114.927
490248 5.45378e+06 114.927
490248 5.45378e+06 104.856
490248 5.45377e+06 114.927
490248 5.45377e+06 104.856
490248 5.45378e+06 104.856
490248 5.45378e+06 114.927
490248 5.45378e+06 114.927
490248 5.45378e+06 104.856
490248 5.45378e+06 114.927
490248 5.45378e+06 104.856
3 6 7 8
3 9 8 6
3 7 8 9
3 10 9 6
3 7 9 10
3 6 7 11
3 11 10 6
3 11 10 7
3 12 13 14
3 2 13 14
3 15 13 12
3 3 12 15
3 4 12 14
3 14 4 2
3 4 3 2
3 4 5 12
3 3 5 12
3 3 4 5
3 16 9 8
3 16 10 9
3 8 9 10
3 6 8 16
3 10 8 6
3 6 16 17
3 10 16 17
3 17 10 6
3 17 18 19
3 20 19 18
3 18 17 16
3 21 18 16
3 18 20 21
3 16 20 21
3 24 23 22
3 22 24 25
3 25 24 23
3 22 23 26
3 27 26 22
3 27 25 22
3 22 28 30
3 28 29 30
3 22 29 30
3 28 29 31
3 31 28 24
3 22 24 28
3 32 17 10
3 32 10 9
3 9 10 17
3 9 16 17
3 33 32 9
3 33 16 9
3 21 32 33
3 33 21 16
3 16 17 21
3 32 18 17
3 32 21 18
3 21 18 17
3 13 14 15
3 35 14 13
3 34 15 12
3 15 14 12
3 14 35 36
3 37 34 12
3 15 34 37
3 36 35 13
3 4 5 14
3 4 14 39
3 38 12 5
3 5 12 14
3 38 37 12
3 36 37 38
3 36 38 39
3 14 36 39
3 38 5 1
3 5 4 1
3 39 4 0
3 4 1 0
3 38 39 40
3 40 39 0
3 38 40 41
3 41 38 1
3 43 42 21
3 43 42 20
3 43 21 20
3 19 20 42
3 19 20 21
3 42 19 18
3 18 21 42
3 18 19 21
3 44 31 29
3 44 31 24
3 45 44 29
3 22 29 45
3 44 46 47
3 47 44 25
3 44 45 46
3 27 45 46
3 24 25 44
3 27 25 24
3 22 24 27
3 45 27 22
3 50 49 31
3 51 48 29
3 48 30 29
3 29 30 31
3 28 30 31
3 28 31 49
3 30 48 53
3 28 49 52
3 54 53 48
3 55 54 53
3 55 52 49
3 55 53 52
3 49 50 55
3 48 51 54
3 52 56 57
3 28 52 57
3 30 53 56
3 52 53 56
3 56 24 22
3 22 30 56
3 30 24 22
3 24 28 30
3 24 56 57
3 24 28 57
3 60 59 58
3 18 59 60
3 58 59 61
3 21 58 61
3 21 33 58
3 33 21 18
3 58 33 32
3 33 32 18
3 60 58 32
3 60 32 18
3 62 61 59
3 62 59 47
3 61 62 63
3 46 61 63
3 63 62 27
3 27 46 63
3 62 47 25
3 25 27 62
3 63 61 59
3 65 64 63
3 65 63 61
3 64 63 62
3 59 62 64
3 59 62 63
3 64 60 59
3 61 60 59
3 58 64 65
3 65 61 58
3 58 60 64
3 58 60 61
3 37 66 67
3 15 37 67
3 66 37 36
3 66 36 13
3 66 13 2
3 3 15 67
3 68 66 2
3 2 3 68
3 69 67 66
3 3 67 69
3 66 68 69
3 69 68 3
3 74 11 6
3 6 8 74
3 11 8 6
3 75 74 7
3 8 74 75
3 75 8 7
3 74 11 7
3 7 8 11
3 77 51 43
3 42 50 76
3 77 43 21
3 43 21 18
3 18 42 76
3 43 42 18
3 21 61 77
3 76 59 18
3 77 61 46
3 47 59 76
3 77 46 45
3 45 46 47
3 44 47 76
3 44 45 47
3 29 51 77
3 76 50 31
3 77 45 29
3 45 31 29
3 31 44 76
3 45 44 31
3 6 17 78
3 17 8 6
3 79 16 8
3 8 16 17
3 79 20 16
3 17 19 78
3 79 75 20
3 19 74 78
3 75 8 6
3 8 75 79
3 78 74 6
3 6 74 75
3 52 80 81
3 52 57 81
3 52 53 80
3 52 53 57
3 80 56 53
3 57 56 53
3 81 80 24
3 81 57 24
3 22 24 80
3 22 24 57
3 22 56 80
3 22 56 57
3 82 83 84
3 73 82 84
3 73 83 84
3 82 73 72
3 85 82 72
3 82 83 85
3 88 87 86
3 89 87 86
3 91 90 86
3 86 89 90
3 89 90 91
3 86 88 91
3 97 96 32
3 32 60 97
3 96 33 32
3 60 33 32
3 96 58 33
3 60 58 33
3 96 65 58
3 58 60 65
3 64 65 96
3 60 64 65
3 64 96 97
3 60 64 97
3 27 63 98
3 25 27 63
3 99 98 62
3 99 62 25
3 98 63 62
3 63 62 25
3 99 25 23
3 26 27 98
3 26 98 101
3 98 100 101
3 26 100 101
3 98 99 100
3 100 99 23
3 100 26 23
3 63 65 103
3 62 63 65
3 102 64 62
3 65 64 62
3 102 99 62
3 99 63 62
3 63 98 99
3 103 98 63
3 102 99 64
3 99 65 64
3 99 98 65
3 65 98 103
3 104 40 0
3 105 104 41
3 105 41 1
3 104 41 40
3 0 71 104
3 0 1 71
3 70 71 104
3 1 70 71
3 70 104 105
3 105 70 1
3 108 107 106
3 107 106 84
3 108 107 84
3 109 108 106
3 109 106 82
3 106 84 82
3 39 40 110
3 41 40 39
3 38 39 41
3 38 41 111
3 111 73 38
3 73 39 38
3 110 72 39
3 39 72 73
3 105 110 111
3 41 105 111
3 105 41 40
3 110 104 40
3 110 105 104
3 105 104 40
3 110 85 72
3 83 85 110
3 111 110 83
3 111 83 73
3 112 84 83
3 83 84 85
3 82 85 113
3 82 84 85
3 115 114 112
3 84 112 115
3 112 113 114
3 82 113 114
3 112 113 116
3 116 113 85
3 112 116 117
3 117 112 83
3 7 118 119
3 119 75 7
3 7 11 118
3 75 11 7
3 11 74 118
3 75 74 11
3 20 75 119
3 118 74 19
3 119 43 20
3 43 20 19
3 19 42 118
3 43 42 19
3 43 115 119
3 42 114 118
3 118 114 113
3 115 114 113
3 112 118 119
3 119 115 112
3 118 113 112
3 115 113 112
3 121 120 93
3 93 121 122
3 92 120 123
3 92 122 123
3 92 93 120
3 92 93 122
3 54 55 122
3 123 122 55
3 54 120 121
3 122 121 54
3 123 55 50
3 120 54 51
3 42 120 123
3 123 50 42
3 43 51 120
3 42 43 120
3 125 126 127
3 128 127 126
3 128 127 125
3 126 125 124
3 128 125 124
3 129 126 124
3 129 128 126
3 129 128 124
3 87 89 130
3 132 131 130
3 132 130 89
3 89 131 132
3 87 130 133
3 130 131 133
3 89 132 134
3 87 89 134
3 87 89 132
3 87 134 135
3 87 130 135
3 87 130 132
3 137 136 134
3 137 134 132
3 134 135 136
3 136 135 130
3 108 138 139
3 139 108 84
3 108 109 138
3 82 109 138
3 139 138 115
3 84 115 139
3 114 115 138
3 138 114 82
3 87 89 140
3 89 131 140
3 87 140 141
3 141 133 87
3 140 131 107
3 133 131 107
3 106 133 141
3 106 107 133
3 140 109 108
3 107 108 140
3 109 108 107
3 106 107 109
3 109 140 141
3 106 109 141
3 92 93 142
3 94 93 92
3 94 142 143
3 143 142 93
3 93 94 143
3 142 95 92
3 94 95 142
3 95 94 92
3 146 145 142
3 144 143 142
3 145 143 142
3 143 144 145
3 147 144 142
3 147 146 142
3 148 117 7
3 7 11 148
3 149 148 11
3 11 116 149
3 71 104 105
3 71 148 149
3 149 104 71
3 148 71 70
3 70 105 148
3 70 71 105
3 148 111 105
3 104 105 111
3 104 110 149
3 104 110 111
3 148 117 83
3 149 116 85
3 83 111 148
3 83 85 111
3 111 110 85
3 149 110 85
3 7 117 151
3 150 116 11
3 7 11 119
3 151 119 7
3 11 118 150
3 11 118 119
3 113 116 150
3 117 116 113
3 112 113 117
3 112 117 151
3 151 119 112
3 112 113 119
3 150 118 113
3 119 118 113
3 153 152 128
3 153 129 128
3 152 128 127
3 129 128 127
3 152 127 126
3 126 127 129
3 125 152 154
3 155 154 152
3 152 153 155
3 155 153 124
3 153 129 124
3 129 125 124
3 125 126 152
3 125 126 129
3 139 156 157
3 108 139 157
3 108 109 139
3 156 138 109
3 138 139 156
3 139 138 109
3 87 141 156
3 87 89 156
3 87 89 141
3 141 140 89
3 89 156 157
3 89 140 157
3 156 141 109
3 108 109 141
3 108 140 141
3 157 140 108
3 158 147 144
3 159 158 147
3 146 147 159
3 158 145 144
3 143 145 158
3 143 145 146
3 159 158 142
3 159 146 142
3 158 143 142
3 146 143 142
3 147 159 160
3 159 147 144
3 160 159 158
3 159 158 144
3 161 160 158
3 161 158 144
3 161 144 43
3 160 147 42
3 42 123 160
3 123 43 42
3 161 160 120
3 43 120 161
3 120 123 160
3 43 120 123
3 92 142 162
3 92 142 143
3 93 143 163
3 92 93 143
3 142 159 162
3 159 143 142
3 158 162 163
3 143 158 163
3 162 159 158
3 143 158 159
3 92 123 162
3 92 93 123
3 163 120 93
3 123 120 93
3 120 123 161
3 163 162 161
3 163 161 120
3 160 161 162
3 123 160 162
3 161 160 123
3 135 136 137
3 135 164 165
3 165 136 135
3 134 135 164
3 134 137 164
3 134 135 137
3 125 154 164
3 124 164 165
3 165 155 124
3 124 125 164
3 155 165 166
3 154 164 167
3 164 137 132
3 165 136 130
3 167 164 132
3 130 165 166
3 128 133 169
3 168 131 127
3 127 128 131
3 133 131 128
3 169 168 153
3 169 153 128
3 153 128 127
3 152 153 168
3 127 152 168
3 153 152 127
3 166 167 168
3 168 167 132
3 166 168 169
3 130 166 169
3 168 132 131
3 133 132 131
3 130 132 133
3 169 133 130
3 94 170 171
3 171 94 90
3 94 95 170
3 90 94 95
3 170 95 86
3 86 90 95
3 171 90 89
3 87 89 90
3 86 87 170
3 86 87 90
3 157 170 171
3 89 157 171
3 87 89 157
3 87 156 170
3 170 157 156
3 157 156 87
3 173 172 158
3 173 172 161
3 173 161 158
3 172 159 158
3 161 159 158
3 159 160 172
3 172 161 160
3 161 160 159
3 154 167 174
3 175 166 155
3 175 169 166
3 166 167 169
3 167 168 174
3 167 168 169
3 153 155 175
3 155 154 153
3 152 154 174
3 154 153 152
3 153 169 175
3 152 153 169
3 174 168 152
3 169 168 152
3 177 176 144
3 43 144 177
3 42 147 176
3 176 147 144
3 177 115 43
3 176 114 42
3 177 139 115
3 114 115 139
3 114 138 176
3 139 138 114
3 177 157 139
3 138 139 157
3 138 156 176
3 138 156 157
3 171 176 177
3 177 171 157
3 156 157 171
3 156 170 176
3 170 171 176
3 156 170 171
3 179 163 158
3 158 159 163
3 178 162 159
3 163 162 159
3 158 173 179
3 173 159 158
3 159 172 178
3 159 172 173
3 161 163 179
3 160 161 163
3 178 162 160
3 163 162 160
3 179 173 161
3 173 161 160
3 160 172 178
3 173 172 160
3 164 165 180
3 180 164 134
3 134 164 165
3 181 180 165
3 181 165 135
3 134 135 165
3 180 134 89
3 135 134 89
3 181 135 87
3 87 89 135
3 180 91 88
3 89 91 180
3 88 180 181
3 87 88 181
3 94 171 183
3 94 95 171
3 182 170 95
3 171 170 95
3 171 177 183
3 170 171 177
3 182 176 170
3 170 176 177
3 183 177 144
3 177 147 144
3 182 176 147
3 147 176 177
3 183 143 94
3 94 95 143
3 95 142 182
3 143 142 95
3 183 144 143
3 143 144 147
3 182 147 142
3 147 143 142
3 165 164 91
3 91 164 185
3 184 165 88
3 165 91 88
3 181 180 91
3 185 180 91
3 184 181 88
3 181 91 88
3 181 180 164
3 164 180 185
3 165 181 184
3 164 165 181
