ply
format ascii 1.0
comment Created by Open3D
element vertex 368
property double x
property double y
property double z
element face 1444
property list uchar uint vertex_indices
end_header
490235 5.45379e+06 105.223
490237 5.45378e+06 115.293
490235 5.45379e+06 115.293
490227 5.45378e+06 115.293
490227 5.45378e+06 105.223
490237 5.45378e+06 105.223
490235 5.45379e+06 115.293
490239 5.45378e+06 105.223
490235 5.45379e+06 105.223
490241 5.45378e+06 105.223
490239 5.45378e+06 115.293
490241 5.45378e+06 115.293
490225 5.45378e+06 105.223
490225 5.45378e+06 115.293
490226 5.45379e+06 115.293
490225 5.45378e+06 115.293
490225 5.45378e+06 105.223
490226 5.45379e+06 105.223
490225 5.45378e+06 115.293
490225 5.45378e+06 105.223
490225 5.45377e+06 105.223
490225 5.45377e+06 115.293
490225 5.45377e+06 105.223
490225 5.45377e+06 115.293
490225 5.45378e+06 115.293
490225 5.45378e+06 105.223
490241 5.45378e+06 105.223
490241 5.45378e+06 115.293
490226 5.45379e+06 105.223
490226 5.45379e+06 115.293
490226 5.45379e+06 115.293
490226 5.45379e+06 105.223
490226 5.45378e+06 115.293
490226 5.45378e+06 105.223
490226 5.45378e+06 105.223
490232 5.45377e+06 105.223
490232 5.45377e+06 115.293
490226 5.45378e+06 115.293
490226 5.45378e+06 115.293
490226 5.45378e+06 105.223
490232 5.45377e+06 115.293
490232 5.45377e+06 105.223
490241 5.45378e+06 115.293
490241 5.45377e+06 105.223
490241 5.45377e+06 115.293
490241 5.45377e+06 105.223
490241 5.45378e+06 105.223
490241 5.45377e+06 115.293
490235 5.45379e+06 105.223
490234 5.45379e+06 115.293
490235 5.45379e+06 115.293
490234 5.45379e+06 105.223
490232 5.45379e+06 105.223
490232 5.45379e+06 115.293
490235 5.45379e+06 105.223
490235 5.45379e+06 115.293
490241 5.45378e+06 105.223
490239 5.45378e+06 105.223
490239 5.45378e+06 115.293
490241 5.45378e+06 115.293
490241 5.45378e+06 115.293
490241 5.45378e+06 105.223
490241 5.45378e+06 105.223
490241 5.45378e+06 115.293
490251 5.45376e+06 105.223
490251 5.45376e+06 115.293
490241 5.45378e+06 105.223
490241 5.45378e+06 115.293
490241 5.45378e+06 105.223
490241 5.45378e+06 115.293
490227 5.45378e+06 115.293
490226 5.45378e+06 105.223
490226 5.45378e+06 115.293
490227 5.45378e+06 105.223
490227 5.45378e+06 105.223
490227 5.45378e+06 115.293
490229 5.45377e+06 115.293
490229 5.45377e+06 105.223
490225 5.45378e+06 105.223
490225 5.45378e+06 115.293
490226 5.45379e+06 105.223
490226 5.45379e+06 115.293
490226 5.45377e+06 105.223
490225 5.45377e+06 115.293
490226 5.45377e+06 115.293
490225 5.45377e+06 105.223
490225 5.45377e+06 115.293
490225 5.45377e+06 105.223
490227 5.45378e+06 115.293
490227 5.45378e+06 105.223
490231 5.45376e+06 105.223
490231 5.45376e+06 115.293
490231 5.45376e+06 105.223
490233 5.45376e+06 115.293
490231 5.45376e+06 115.293
490233 5.45376e+06 105.223
490233 5.45376e+06 105.223
490233 5.45376e+06 115.293
490226 5.45377e+06 105.223
490231 5.45376e+06 115.293
490227 5.45377e+06 115.293
490227 5.45377e+06 105.223
490226 5.45377e+06 115.293
490231 5.45376e+06 105.223
490231 5.45376e+06 115.293
490231 5.45376e+06 105.223
490226 5.45377e+06 115.293
490226 5.45377e+06 105.223
490226 5.45377e+06 115.293
490226 5.45377e+06 105.223
490237 5.45378e+06 105.223
490237 5.45378e+06 115.293
490241 5.45378e+06 115.293
490241 5.45378e+06 105.223
490241 5.45378e+06 105.223
490241 5.45378e+06 115.293
490252 5.45376e+06 105.223
490252 5.45376e+06 105.223
490252 5.45376e+06 115.293
490252 5.45376e+06 115.293
490252 5.45376e+06 105.223
490252 5.45376e+06 115.293
490252 5.45376e+06 105.223
490252 5.45376e+06 115.293
490250 5.45376e+06 115.293
490252 5.45376e+06 115.293
490250 5.45376e+06 105.223
490252 5.45376e+06 105.223
490231 5.45379e+06 115.293
490231 5.45379e+06 105.223
490227 5.45379e+06 105.223
490232 5.45379e+06 105.223
490227 5.45379e+06 115.293
490232 5.45379e+06 115.293
490228 5.45379e+06 105.223
490228 5.45379e+06 115.293
490226 5.45378e+06 115.293
490226 5.45378e+06 105.223
490227 5.45379e+06 115.293
490227 5.45379e+06 105.223
490228 5.45379e+06 115.293
490228 5.45379e+06 105.223
490226 5.45379e+06 105.223
490226 5.45379e+06 115.293
490227 5.45378e+06 115.293
490227 5.45378e+06 105.223
490250 5.45376e+06 115.293
490250 5.45376e+06 105.223
490249 5.45376e+06 105.223
490249 5.45376e+06 115.293
490252 5.45376e+06 115.293
490252 5.45376e+06 105.223
490240 5.45377e+06 115.293
490240 5.45377e+06 105.223
490240 5.45377e+06 115.293
490240 5.45377e+06 105.223
490240 5.45377e+06 105.223
490240 5.45377e+06 105.223
490240 5.45377e+06 115.293
490240 5.45377e+06 115.293
490234 5.45376e+06 105.223
490234 5.45376e+06 115.293
490232 5.45376e+06 115.293
490232 5.45376e+06 105.223
490234 5.45377e+06 105.223
490234 5.45377e+06 115.293
490231 5.45376e+06 115.293
490231 5.45376e+06 105.223
490229 5.45377e+06 105.223
490229 5.45377e+06 115.293
490226 5.45378e+06 105.223
490226 5.45378e+06 115.293
490231 5.45379e+06 115.293
490231 5.45379e+06 105.223
490230 5.45379e+06 105.223
490230 5.45379e+06 115.293
490241 5.45378e+06 105.223
490241 5.45378e+06 115.293
490241 5.45378e+06 105.223
490241 5.45378e+06 115.293
490241 5.45378e+06 105.223
490241 5.45378e+06 115.293
490252 5.45376e+06 115.293
490252 5.45376e+06 115.293
490252 5.45376e+06 105.223
490252 5.45376e+06 105.223
490252 5.45376e+06 105.223
490252 5.45376e+06 115.293
490249 5.45376e+06 105.223
490249 5.45376e+06 115.293
490251 5.45376e+06 105.223
490251 5.45376e+06 115.293
490226 5.45378e+06 115.293
490226 5.45378e+06 105.223
490230 5.45379e+06 115.293
490230 5.45379e+06 105.223
490229 5.45379e+06 105.223
490229 5.45379e+06 115.293
490231 5.45377e+06 105.223
490231 5.45377e+06 115.293
490227 5.45377e+06 105.223
490231 5.45376e+06 105.223
490231 5.45376e+06 115.293
490227 5.45377e+06 115.293
490248 5.45376e+06 105.223
490248 5.45376e+06 115.293
490251 5.45376e+06 105.223
490252 5.45376e+06 105.223
490252 5.45376e+06 115.293
490251 5.45376e+06 115.293
490251 5.45376e+06 115.293
490251 5.45376e+06 105.223
490251 5.45376e+06 115.293
490251 5.45376e+06 105.223
490249 5.45376e+06 105.223
490249 5.45376e+06 115.293
490240 5.45377e+06 105.223
490240 5.45377e+06 115.293
490240 5.45377e+06 105.223
490240 5.45377e+06 115.293
490240 5.45377e+06 115.293
490240 5.45377e+06 105.223
490240 5.45377e+06 115.293
490240 5.45377e+06 105.223
490240 5.45377e+06 105.223
490240 5.45377e+06 115.293
490240 5.45377e+06 105.223
490240 5.45377e+06 115.293
490228 5.45377e+06 105.223
490228 5.45377e+06 115.293
490226 5.45378e+06 105.223
490226 5.45378e+06 115.293
490231 5.45376e+06 115.293
490231 5.45376e+06 105.223
490233 5.45379e+06 105.223
490233 5.45379e+06 115.293
490233 5.45379e+06 115.293
490233 5.45379e+06 105.223
490227 5.45378e+06 115.293
490227 5.45378e+06 105.223
490228 5.45379e+06 105.223
490228 5.45379e+06 115.293
490229 5.45379e+06 115.293
490229 5.45379e+06 105.223
490247 5.45376e+06 105.223
490247 5.45376e+06 115.293
490252 5.45376e+06 105.223
490252 5.45376e+06 115.293
490250 5.45376e+06 115.293
490250 5.45376e+06 105.223
490233 5.45377e+06 115.293
490233 5.45377e+06 105.223
490247 5.45376e+06 115.293
490247 5.45376e+06 105.223
490232 5.45376e+06 105.223
490232 5.45376e+06 115.293
490232 5.45376e+06 115.293
490232 5.45376e+06 105.223
490228 5.45377e+06 105.223
490228 5.45377e+06 115.293
490241 5.45378e+06 115.293
490241 5.45378e+06 105.223
490241 5.45378e+06 115.293
490241 5.45378e+06 105.223
490241 5.45378e+06 105.223
490241 5.45378e+06 115.293
490231 5.45377e+06 115.293
490231 5.45377e+06 105.223
490247 5.45376e+06 105.223
490247 5.45376e+06 115.293
490248 5.45376e+06 105.223
490248 5.45376e+06 115.293
490252 5.45376e+06 115.293
490252 5.45376e+06 105.223
490243 5.45376e+06 115.293
490243 5.45376e+06 105.223
490236 5.45376e+06 115.293
490236 5.45376e+06 105.223
490240 5.45377e+06 115.293
490240 5.45377e+06 105.223
490242 5.45376e+06 105.223
490242 5.45376e+06 115.293
490232 5.45376e+06 105.223
490232 5.45376e+06 115.293
490231 5.45376e+06 105.223
490231 5.45376e+06 115.293
490241 5.45378e+06 105.223
490241 5.45378e+06 115.293
490241 5.45378e+06 115.293
490241 5.45378e+06 105.223
490236 5.45376e+06 105.223
490236 5.45376e+06 115.293
490246 5.45376e+06 105.223
490246 5.45376e+06 115.293
490252 5.45376e+06 115.293
490252 5.45376e+06 105.223
490240 5.45377e+06 115.293
490240 5.45377e+06 105.223
490231 5.45376e+06 105.223
490231 5.45376e+06 115.293
490231 5.45376e+06 105.223
490231 5.45376e+06 115.293
490236 5.45376e+06 115.293
490236 5.45376e+06 105.223
490241 5.45378e+06 115.293
490241 5.45378e+06 105.223
490238 5.45376e+06 105.223
490239 5.45376e+06 105.223
490239 5.45376e+06 115.293
490238 5.45376e+06 115.293
490231 5.45377e+06 115.293
490231 5.45377e+06 105.223
490241 5.45376e+06 115.293
490241 5.45376e+06 105.223
490241 5.45376e+06 105.223
490241 5.45376e+06 115.293
490245 5.45376e+06 115.293
490245 5.45376e+06 105.223
490243 5.45376e+06 115.293
490243 5.45376e+06 105.223
490235 5.45376e+06 115.293
490235 5.45376e+06 105.223
490241 5.45376e+06 115.293
490241 5.45376e+06 105.223
490237 5.45376e+06 105.223
490237 5.45376e+06 115.293
490247 5.45376e+06 105.223
490247 5.45376e+06 115.293
490240 5.45376e+06 105.223
490240 5.45376e+06 115.293
490242 5.45376e+06 115.293
490242 5.45376e+06 105.223
490235 5.45376e+06 115.293
490235 5.45376e+06 105.223
490241 5.45376e+06 115.293
490241 5.45376e+06 105.223
490245 5.45376e+06 105.223
490245 5.45376e+06 115.293
490242 5.45376e+06 105.223
490242 5.45376e+06 115.293
490242 5.45376e+06 105.223
490242 5.45376e+06 115.293
490238 5.45376e+06 105.223
490238 5.45376e+06 115.293
490246 5.45376e+06 115.293
490246 5.45376e+06 105.223
490246 5.45376e+06 115.293
490246 5.45376e+06 105.223
490245 5.45376e+06 105.223
490245 5.45376e+06 115.293
490244 5.45376e+06 105.223
490244 5.45376e+06 115.293
490244 5.45376e+06 115.293
490244 5.45376e+06 115.293
490244 5.45376e+06 105.223
490244 5.45376e+06 105.223
490244 5.45376e+06 115.293
490244 5.45376e+06 105.223
490243 5.45376e+06 115.293
490243 5.45376e+06 105.223
490245 5.45376e+06 105.223
490245 5.45376e+06 115.293
490243 5.45376e+06 115.293
490243 5.45376e+06 105.223
490243 5.45376e+06 115.293
490243 5.45376e+06 105.223
490245 5.45376e+06 105.223
490245 5.45376e+06 115.293
3 0 1 2
3 0 2 3
3 3 2 1
3 0 4 5
3 4 3 0
3 5 1 0
3 8 7 6
3 6 8 9
3 9 8 7
3 11 10 6
3 6 9 11
3 6 7 10
3 20 21 22
3 22 21 18
3 23 21 20
3 18 21 23
3 19 20 22
3 18 19 22
3 24 23 20
3 15 23 24
3 25 24 20
3 25 20 12
3 15 18 23
3 19 18 15
3 20 19 12
3 19 15 12
3 26 5 4
3 3 4 26
3 1 5 26
3 27 26 1
3 3 26 27
3 27 3 1
3 28 17 14
3 29 17 14
3 30 28 14
3 30 29 28
3 30 29 14
3 17 28 31
3 28 29 31
3 17 29 31
3 35 33 32
3 35 34 33
3 32 35 36
3 37 36 32
3 38 37 32
3 39 38 32
3 32 33 39
3 33 34 39
3 41 40 34
3 41 40 35
3 34 35 41
3 40 36 35
3 34 37 40
3 36 37 40
3 45 44 42
3 42 43 46
3 42 45 46
3 46 45 43
3 47 43 42
3 47 44 42
3 48 49 50
3 2 48 50
3 50 49 2
3 48 2 0
3 51 48 0
3 51 49 48
3 52 4 3
3 4 3 2
3 53 52 2
3 3 52 53
3 53 3 2
3 52 4 0
3 0 2 52
3 0 2 4
3 5 8 54
3 55 6 1
3 0 5 54
3 5 2 0
3 1 2 55
3 1 2 5
3 55 50 6
3 50 8 6
3 8 48 54
3 50 48 8
3 50 2 0
3 2 50 55
3 54 48 0
3 50 48 0
3 57 56 7
3 56 57 58
3 59 56 10
3 56 58 59
3 10 58 59
3 7 10 56
3 60 5 1
3 62 61 60
3 5 60 62
3 62 61 5
3 63 60 1
3 63 61 60
3 65 60 59
3 65 64 60
3 65 64 59
3 56 59 60
3 56 59 64
3 56 60 62
3 64 62 60
3 56 62 64
3 43 64 66
3 64 65 66
3 67 66 65
3 67 65 47
3 46 66 68
3 66 68 69
3 66 67 69
3 69 67 42
3 66 46 43
3 43 46 47
3 47 46 42
3 67 47 42
3 38 70 72
3 39 71 73
3 70 73 74
3 74 73 71
3 70 74 75
3 75 72 70
3 33 70 73
3 73 39 33
3 39 38 33
3 70 33 32
3 32 38 70
3 38 33 32
3 23 24 76
3 24 25 76
3 23 24 25
3 77 76 20
3 77 76 25
3 77 25 20
3 76 23 20
3 25 23 20
3 78 25 24
3 24 78 79
3 15 24 79
3 78 25 12
3 78 16 13
3 16 15 13
3 79 78 13
3 13 15 79
3 12 16 78
3 12 15 16
3 14 17 80
3 30 17 14
3 30 80 81
3 14 80 81
3 14 30 81
3 80 30 28
3 80 28 17
3 17 28 30
3 82 83 84
3 23 82 84
3 84 83 23
3 85 82 20
3 82 23 20
3 85 83 82
3 86 23 21
3 21 22 86
3 21 22 23
3 20 22 23
3 87 86 22
3 20 22 87
3 85 86 87
3 87 85 20
3 86 85 83
3 86 83 23
3 36 69 88
3 88 69 68
3 89 88 68
3 89 68 35
3 89 35 33
3 33 35 36
3 32 36 88
3 36 33 32
3 4 73 89
3 88 70 3
3 89 73 33
3 32 33 73
3 32 70 88
3 32 70 73
3 3 27 88
3 3 4 27
3 88 27 26
3 4 26 27
3 26 88 89
3 89 26 4
3 90 91 92
3 94 91 90
3 91 93 94
3 95 92 90
3 97 96 90
3 90 94 97
3 93 94 97
3 96 95 90
3 98 100 101
3 102 100 98
3 102 100 99
3 103 101 98
3 104 102 98
3 104 102 99
3 105 104 98
3 105 103 98
3 84 100 106
3 107 101 82
3 100 102 106
3 102 101 100
3 98 101 107
3 102 101 98
3 108 106 102
3 98 107 109
3 109 108 85
3 109 107 85
3 83 106 108
3 83 85 108
3 83 84 106
3 83 84 85
3 82 85 107
3 85 84 82
3 1 6 111
3 110 8 5
3 5 61 110
3 111 63 1
3 58 63 111
3 110 61 57
3 110 57 7
3 10 58 111
3 7 8 110
3 10 8 7
3 6 10 111
3 6 8 10
3 112 27 1
3 1 5 27
3 112 27 26
3 27 26 5
3 26 112 113
3 5 26 113
3 62 112 113
3 113 62 5
3 62 5 1
3 60 62 112
3 1 60 112
3 62 60 1
3 26 113 114
3 113 27 26
3 115 114 112
3 115 112 27
3 114 113 112
3 27 112 113
3 68 69 114
3 68 89 114
3 89 69 68
3 69 114 115
3 115 88 69
3 89 88 69
3 114 89 26
3 89 27 26
3 27 88 89
3 27 88 115
3 117 116 64
3 116 65 64
3 117 65 64
3 116 117 118
3 65 117 118
3 116 118 119
3 65 116 119
3 119 118 65
3 125 123 122
3 122 124 125
3 125 124 123
3 122 124 126
3 127 126 122
3 122 123 127
3 128 129 134
3 128 129 130
3 129 130 134
3 128 130 132
3 128 134 135
3 135 132 128
3 137 136 74
3 137 74 71
3 136 75 74
3 72 75 136
3 14 81 136
3 14 17 136
3 81 17 14
3 137 136 80
3 137 136 17
3 137 80 17
3 136 81 80
3 17 80 81
3 136 16 13
3 13 72 136
3 16 136 137
3 137 71 16
3 138 132 29
3 132 130 29
3 31 130 139
3 130 31 29
3 28 30 31
3 28 31 139
3 29 30 138
3 29 30 31
3 140 138 135
3 134 139 141
3 139 134 130
3 132 135 138
3 30 81 138
3 28 30 81
3 139 80 28
3 28 80 81
3 139 141 142
3 138 140 143
3 81 138 143
3 80 139 142
3 74 75 144
3 74 75 137
3 74 144 145
3 137 144 145
3 145 137 74
3 144 136 75
3 144 137 136
3 137 136 75
3 124 126 146
3 124 125 146
3 124 125 126
3 146 125 122
3 122 125 126
3 147 146 122
3 147 146 126
3 122 126 147
3 149 148 47
3 47 124 149
3 43 47 148
3 148 126 43
3 148 147 126
3 124 126 147
3 146 147 148
3 147 146 124
3 146 148 149
3 124 146 149
3 150 123 119
3 150 119 116
3 151 150 116
3 116 127 151
3 150 125 123
3 127 125 123
3 122 125 127
3 151 127 122
3 147 150 151
3 122 147 151
3 147 125 122
3 150 147 146
3 150 146 125
3 147 146 125
3 44 45 152
3 46 45 44
3 153 152 46
3 45 152 153
3 45 46 153
3 42 46 152
3 42 44 152
3 42 44 46
3 157 155 154
3 157 156 154
3 155 156 157
3 154 155 158
3 159 158 154
3 154 156 159
3 161 160 93
3 93 97 161
3 95 96 160
3 160 95 93
3 160 161 162
3 97 161 162
3 160 162 163
3 163 160 96
3 164 158 155
3 164 156 155
3 159 164 165
3 158 164 165
3 158 159 165
3 164 159 156
3 167 166 103
3 105 166 167
3 103 105 167
3 104 105 166
3 166 104 99
3 99 103 166
3 168 77 20
3 77 23 20
3 76 168 169
3 23 76 169
3 168 77 76
3 23 76 77
3 84 168 169
3 23 84 169
3 84 23 20
3 168 84 82
3 168 82 20
3 84 82 20
3 34 41 170
3 34 37 41
3 171 40 37
3 41 40 37
3 170 41 25
3 24 40 171
3 38 170 171
3 37 38 171
3 38 39 170
3 170 39 34
3 170 79 78
3 25 78 170
3 25 78 79
3 171 170 79
3 171 79 24
3 79 25 24
3 53 52 4
3 4 172 173
3 4 52 173
3 3 53 172
3 3 4 172
3 3 4 53
3 53 133 172
3 52 131 173
3 129 131 133
3 173 172 129
3 173 131 129
3 128 133 172
3 128 129 172
3 128 129 133
3 174 129 128
3 174 173 129
3 128 129 173
3 173 172 128
3 175 174 128
3 128 172 175
3 4 173 174
3 173 4 3
3 173 172 3
3 3 172 175
3 175 70 3
3 174 73 4
3 174 74 73
3 73 74 75
3 175 75 70
3 70 73 75
3 174 145 74
3 74 75 145
3 174 145 144
3 145 144 75
3 175 174 144
3 175 144 75
3 59 58 57
3 58 59 177
3 176 57 56
3 56 57 59
3 177 63 58
3 57 61 176
3 63 62 60
3 60 63 177
3 61 62 176
3 61 62 63
3 59 60 62
3 59 60 177
3 176 62 56
3 62 59 56
3 60 62 65
3 181 65 60
3 180 64 62
3 65 64 62
3 180 67 66
3 180 66 64
3 67 66 64
3 67 180 181
3 181 67 65
3 67 65 64
3 112 113 180
3 60 112 113
3 181 180 112
3 60 112 181
3 180 113 62
3 60 62 113
3 182 183 184
3 120 183 184
3 185 184 182
3 120 184 185
3 183 182 121
3 120 121 183
3 120 185 186
3 121 182 187
3 189 187 182
3 182 188 189
3 188 185 182
3 188 186 185
3 119 65 64
3 65 119 191
3 190 116 64
3 119 116 64
3 119 123 191
3 190 127 116
3 123 124 191
3 126 127 190
3 47 65 191
3 190 64 43
3 191 124 47
3 43 126 190
3 193 192 134
3 134 141 193
3 192 140 135
3 192 135 134
3 193 142 141
3 192 143 140
3 80 142 193
3 81 143 192
3 137 192 193
3 193 137 80
3 80 81 137
3 192 136 81
3 192 137 136
3 137 136 81
3 196 195 194
3 145 195 196
3 197 196 194
3 197 194 144
3 194 175 144
3 175 145 144
3 145 174 175
3 145 174 195
3 128 175 194
3 128 129 175
3 175 174 129
3 195 174 129
3 134 194 195
3 129 134 195
3 134 135 194
3 129 134 135
3 194 135 128
3 135 129 128
3 198 41 25
3 40 198 199
3 24 40 199
3 40 41 198
3 25 77 198
3 77 25 24
3 199 198 76
3 199 76 24
3 198 77 76
3 77 76 24
3 202 201 200
3 203 202 200
3 203 202 99
3 201 200 103
3 200 101 100
3 203 200 100
3 99 100 203
3 101 103 200
3 43 47 204
3 43 47 149
3 149 204 205
3 205 204 47
3 205 149 47
3 148 149 204
3 43 148 204
3 43 148 149
3 187 204 205
3 121 204 205
3 121 187 205
3 204 121 120
3 204 187 186
3 120 186 204
3 206 184 183
3 184 206 207
3 207 184 183
3 209 206 183
3 183 208 209
3 208 207 183
3 206 210 211
3 211 207 206
3 211 210 207
3 210 209 206
3 210 209 208
3 207 208 210
3 183 209 212
3 212 184 183
3 209 184 183
3 213 212 206
3 184 212 213
3 184 206 213
3 212 209 206
3 184 206 209
3 185 188 214
3 214 189 188
3 189 188 185
3 182 185 214
3 182 185 189
3 182 214 215
3 189 214 215
3 215 189 182
3 43 45 216
3 44 45 216
3 217 216 44
3 44 47 217
3 43 216 218
3 216 218 219
3 219 217 216
3 219 217 47
3 44 45 153
3 221 220 153
3 45 153 221
3 152 153 220
3 220 152 44
3 153 152 44
3 44 217 220
3 44 45 217
3 216 220 221
3 221 216 45
3 216 217 220
3 217 216 45
3 224 223 222
3 157 222 223
3 157 223 224
3 225 224 222
3 225 222 154
3 222 157 154
3 227 226 165
3 227 226 159
3 159 165 227
3 156 159 226
3 156 159 165
3 164 165 226
3 156 164 226
3 156 164 165
3 229 228 100
3 84 100 229
3 100 101 228
3 228 101 82
3 229 169 84
3 169 84 82
3 82 168 228
3 82 168 169
3 228 77 76
3 76 77 169
3 76 228 229
3 229 169 76
3 77 168 228
3 77 168 169
3 38 72 231
3 230 71 39
3 231 171 38
3 171 39 38
3 39 170 230
3 39 170 171
3 79 171 231
3 171 79 78
3 230 170 78
3 171 170 78
3 231 72 13
3 16 71 230
3 79 16 13
3 13 79 231
3 230 78 16
3 79 78 16
3 232 97 94
3 96 97 232
3 97 96 94
3 90 232 233
3 96 232 233
3 90 96 233
3 90 94 232
3 96 94 90
3 235 133 131
3 236 235 133
3 131 234 237
3 237 235 131
3 234 131 52
3 236 133 53
3 234 52 0
3 53 52 0
3 236 53 2
3 53 2 0
3 49 51 235
3 49 235 236
3 237 234 51
3 51 235 237
3 2 49 236
3 0 51 234
3 137 238 239
3 137 145 239
3 238 137 136
3 145 137 136
3 238 144 136
3 145 144 136
3 239 238 196
3 145 196 239
3 196 197 238
3 238 197 144
3 137 239 240
3 239 137 136
3 241 240 238
3 241 238 136
3 240 239 238
3 239 238 136
3 137 193 240
3 193 137 136
3 241 192 136
3 193 192 136
3 193 192 135
3 241 240 135
3 135 192 241
3 134 135 240
3 240 193 134
3 134 135 193
3 243 196 195
3 197 196 195
3 194 197 242
3 197 195 194
3 243 239 196
3 196 197 239
3 197 238 242
3 239 238 197
3 238 241 242
3 241 239 238
3 241 240 239
3 243 240 239
3 134 135 195
3 243 195 134
3 242 194 135
3 135 194 195
3 135 241 242
3 134 135 241
3 134 240 241
3 134 240 243
3 244 219 218
3 43 218 244
3 219 244 245
3 245 219 47
3 245 244 205
3 245 205 47
3 43 47 205
3 204 205 244
3 43 204 244
3 43 204 205
3 247 246 121
3 121 205 247
3 246 121 120
3 120 121 205
3 120 204 246
3 120 204 205
3 149 205 247
3 148 149 205
3 246 204 148
3 205 204 148
3 146 149 247
3 149 147 146
3 246 148 147
3 147 148 149
3 147 151 246
3 151 147 146
3 150 151 246
3 146 150 151
3 247 246 150
3 247 150 146
3 248 215 212
3 212 213 248
3 212 213 215
3 214 215 248
3 213 214 215
3 214 248 249
3 213 248 249
3 249 214 213
3 42 46 153
3 251 153 46
3 42 152 250
3 153 152 42
3 36 69 250
3 35 36 250
3 35 250 251
3 251 68 35
3 46 68 251
3 250 69 42
3 152 153 221
3 251 221 153
3 152 220 250
3 221 220 152
3 216 217 221
3 216 221 251
3 250 220 217
3 217 220 221
3 218 217 216
3 251 218 216
3 217 219 250
3 217 218 219
3 251 224 218
3 219 225 250
3 250 225 154
3 157 224 251
3 158 157 155
3 155 157 251
3 154 158 250
3 154 157 158
3 158 165 250
3 155 158 165
3 164 250 251
3 251 164 155
3 164 165 250
3 155 164 165
3 254 41 35
3 35 36 41
3 40 254 255
3 255 40 36
3 254 41 40
3 41 40 36
3 35 251 254
3 35 36 251
3 36 250 255
3 251 250 36
3 164 251 254
3 254 165 164
3 164 165 251
3 165 250 251
3 165 254 255
3 255 250 165
3 164 165 256
3 165 255 256
3 164 165 255
3 254 255 256
3 164 254 255
3 254 256 257
3 164 256 257
3 257 254 164
3 203 202 201
3 202 203 259
3 200 201 258
3 203 201 200
3 76 202 259
3 258 201 77
3 229 77 76
3 259 229 76
3 77 228 258
3 77 228 229
3 203 101 100
3 259 203 100
3 101 200 258
3 203 200 101
3 100 101 229
3 100 229 259
3 258 228 101
3 229 228 101
3 260 10 7
3 261 260 7
3 261 260 9
3 261 9 7
3 10 11 260
3 260 11 9
3 262 59 10
3 59 10 7
3 263 262 56
3 7 56 263
3 262 59 56
3 59 56 7
3 261 10 7
3 263 262 261
3 263 261 7
3 260 261 262
3 10 260 262
3 10 260 261
3 181 67 66
3 181 264 265
3 265 181 67
3 180 181 264
3 66 180 264
3 181 180 66
3 68 69 264
3 67 68 69
3 265 264 69
3 67 69 265
3 264 68 66
3 66 67 68
3 76 199 266
3 199 77 76
3 198 266 267
3 77 198 267
3 198 199 266
3 77 198 199
3 267 201 77
3 266 202 76
3 266 255 202
3 254 266 267
3 267 254 201
3 266 255 254
3 269 225 219
3 218 224 268
3 245 219 218
3 219 245 269
3 268 244 218
3 218 244 245
3 268 224 223
3 225 224 223
3 269 268 222
3 222 225 269
3 268 223 222
3 225 223 222
3 268 253 244
3 252 253 268
3 252 268 269
3 245 252 269
3 205 245 271
3 204 205 245
3 270 244 204
3 245 244 204
3 244 253 270
3 271 252 245
3 189 215 271
3 215 189 188
3 270 214 188
3 188 214 215
3 270 253 214
3 253 215 214
3 215 252 271
3 253 252 215
3 271 189 187
3 186 188 270
3 187 205 271
3 186 187 205
3 270 204 186
3 186 204 205
3 272 215 182
3 182 185 272
3 182 185 215
3 185 214 215
3 185 272 273
3 273 214 185
3 249 272 273
3 214 249 273
3 214 215 249
3 272 248 215
3 272 249 248
3 249 248 215
3 159 157 156
3 157 274 275
3 156 157 275
3 154 159 274
3 274 157 154
3 159 157 154
3 226 227 274
3 156 226 227
3 226 274 275
3 156 226 275
3 159 227 274
3 156 159 227
3 276 167 166
3 277 276 257
3 167 276 277
3 277 257 167
3 256 257 276
3 166 256 276
3 164 226 227
3 164 278 279
3 164 226 279
3 164 165 278
3 165 227 278
3 164 165 227
3 278 279 280
3 280 279 226
3 281 280 278
3 281 278 227
3 96 233 282
3 233 97 96
3 283 232 97
3 97 232 233
3 162 232 233
3 283 232 162
3 282 233 163
3 233 163 162
3 97 162 283
3 282 163 96
3 90 233 284
3 90 94 233
3 285 284 232
3 285 232 94
3 284 233 232
3 94 232 233
3 90 92 284
3 94 92 90
3 91 94 285
3 91 92 94
3 98 109 284
3 108 284 285
3 285 108 102
3 108 109 284
3 285 104 91
3 92 105 284
3 102 104 105
3 102 104 285
3 284 105 98
3 105 102 98
3 68 114 286
3 68 114 115
3 287 286 69
3 287 115 69
3 68 69 286
3 68 69 115
3 115 113 112
3 112 115 287
3 286 114 113
3 115 114 113
3 286 181 180
3 113 180 286
3 181 180 113
3 181 286 287
3 287 181 112
3 112 113 181
3 288 287 69
3 68 69 287
3 68 286 289
3 68 286 287
3 181 287 288
3 180 181 287
3 180 286 287
3 289 286 180
3 288 265 69
3 68 69 265
3 68 264 265
3 68 264 289
3 181 265 288
3 180 181 265
3 180 264 265
3 289 264 180
3 256 257 290
3 257 277 290
3 256 257 277
3 276 290 291
3 256 290 291
3 256 276 291
3 276 277 290
3 256 276 277
3 269 292 293
3 293 292 222
3 222 269 293
3 292 223 222
3 269 223 222
3 268 269 292
3 292 268 223
3 269 268 223
3 185 184 183
3 295 185 184
3 182 183 294
3 182 183 185
3 182 185 273
3 295 273 185
3 294 272 182
3 273 272 182
3 213 184 183
3 184 213 295
3 183 212 294
3 213 212 183
3 249 213 212
3 295 249 213
3 294 248 212
3 249 248 212
3 295 273 249
3 248 249 273
3 248 272 294
3 248 272 273
3 157 223 297
3 223 157 154
3 296 222 154
3 223 222 154
3 297 296 275
3 297 275 157
3 275 157 154
3 274 275 296
3 154 274 296
3 154 274 275
3 296 293 222
3 293 223 222
3 292 293 296
3 223 292 293
3 292 296 297
3 223 292 297
3 99 103 298
3 103 167 298
3 99 103 167
3 299 298 99
3 299 166 99
3 167 166 99
3 298 257 167
3 256 298 299
3 299 256 166
3 256 257 298
3 254 257 300
3 254 255 257
3 255 256 301
3 257 256 255
3 299 103 99
3 301 299 99
3 300 298 103
3 103 298 299
3 256 257 299
3 256 299 301
3 257 298 300
3 299 298 257
3 99 202 301
3 103 201 300
3 202 255 301
3 201 254 300
3 104 105 302
3 104 105 167
3 303 302 105
3 303 167 105
3 104 166 302
3 104 166 167
3 277 302 303
3 303 277 167
3 277 167 166
3 276 277 302
3 166 276 302
3 277 276 166
3 304 59 56
3 263 59 56
3 305 304 56
3 305 263 56
3 59 262 304
3 59 262 263
3 263 261 260
3 261 263 305
3 304 262 260
3 263 262 260
3 178 179 304
3 261 179 178
3 178 304 305
3 305 261 178
3 304 260 179
3 261 260 179
3 267 255 254
3 254 267 311
3 255 266 310
3 255 266 267
3 198 199 267
3 311 267 198
3 310 266 199
3 267 266 199
3 41 198 199
3 41 198 311
3 310 199 40
3 40 41 199
3 40 255 310
3 255 41 40
3 311 254 41
3 41 254 255
3 314 313 312
3 313 312 280
3 314 313 280
3 312 281 280
3 281 312 315
3 312 314 315
3 292 316 317
3 317 316 297
3 317 297 292
3 316 293 292
3 292 293 297
3 293 296 316
3 296 297 316
3 293 296 297
3 226 227 318
3 226 227 275
3 275 318 319
3 226 318 319
3 226 275 319
3 318 275 274
3 318 274 227
3 275 274 227
3 91 104 320
3 104 105 320
3 321 320 105
3 321 105 92
3 320 161 93
3 161 95 93
3 160 320 321
3 95 160 321
3 160 161 320
3 161 160 95
3 92 95 321
3 320 93 91
3 322 309 308
3 307 308 322
3 307 308 309
3 306 322 323
3 307 322 323
3 323 307 306
3 322 309 306
3 309 307 306
3 280 281 322
3 279 280 281
3 280 322 323
3 279 280 323
3 322 281 278
3 278 279 281
3 256 291 322
3 256 257 291
3 323 322 290
3 323 290 257
3 322 291 290
3 291 290 257
3 165 256 322
3 165 256 257
3 323 257 164
3 164 165 257
3 322 278 165
3 279 278 165
3 164 279 323
3 164 165 279
3 160 321 324
3 324 161 160
3 321 161 160
3 320 321 324
3 161 320 321
3 320 324 325
3 161 324 325
3 325 320 161
3 276 277 291
3 325 324 291
3 325 291 276
3 290 291 324
3 324 290 277
3 291 290 277
3 277 303 324
3 276 277 303
3 302 324 325
3 325 302 276
3 302 303 324
3 276 302 303
3 252 326 327
3 327 326 269
3 327 269 252
3 326 253 252
3 252 253 269
3 268 269 326
3 253 268 326
3 253 268 269
3 328 313 312
3 312 313 315
3 312 328 329
3 315 328 329
3 329 315 312
3 314 315 328
3 313 314 328
3 313 314 315
3 307 323 328
3 328 308 307
3 323 308 307
3 322 323 328
3 308 322 323
3 322 328 329
3 308 328 329
3 329 322 308
3 331 330 313
3 331 330 280
3 331 313 280
3 330 281 280
3 313 281 280
3 312 313 330
3 281 312 330
3 281 312 313
3 333 303 105
3 104 105 303
3 104 302 332
3 104 302 303
3 105 321 333
3 104 105 321
3 104 320 332
3 104 320 321
3 302 325 332
3 302 303 325
3 333 324 303
3 325 324 303
3 320 325 332
3 320 321 325
3 325 324 321
3 321 324 333
3 280 314 335
3 334 315 281
3 335 323 280
3 280 281 323
3 281 322 334
3 281 322 323
3 334 329 315
3 314 315 329
3 314 328 335
3 314 328 329
3 322 329 334
3 322 323 329
3 329 328 323
3 335 328 323
3 336 317 292
3 336 293 292
3 317 293 292
3 336 317 316
3 293 316 317
3 316 336 337
3 293 336 337
3 293 316 337
3 339 281 227
3 338 280 226
3 319 318 227
3 339 318 227
3 226 319 338
3 226 227 319
3 338 331 280
3 331 281 280
3 339 330 281
3 281 330 331
3 340 338 319
3 318 339 341
3 331 338 340
3 341 339 330
3 342 323 306
3 306 309 342
3 323 309 306
3 343 342 309
3 309 322 343
3 309 322 323
3 290 323 342
3 323 291 290
3 343 322 291
3 323 322 291
3 290 291 325
3 325 342 343
3 291 325 343
3 290 324 342
3 324 325 342
3 290 324 325
3 344 327 269
3 268 269 327
3 268 326 345
3 268 326 327
3 268 292 293
3 268 292 345
3 344 293 269
3 268 269 293
3 293 344 346
3 347 345 292
3 348 345 326
3 327 344 349
3 326 327 349
3 349 348 326
3 349 346 344
3 345 347 348
3 352 351 350
3 350 352 353
3 351 352 353
3 350 353 355
3 350 354 355
3 350 351 354
3 274 275 319
3 357 319 275
3 274 318 356
3 274 318 319
3 317 355 357
3 356 353 316
3 357 340 319
3 318 341 356
3 357 355 340
3 341 353 356
3 296 297 317
3 297 317 357
3 356 316 296
3 296 316 317
3 274 275 297
3 275 297 357
3 356 296 274
3 297 296 274
3 358 313 312
3 331 313 312
3 313 358 359
3 331 358 359
3 313 331 359
3 358 330 312
3 358 331 330
3 331 330 312
3 337 360 361
3 293 337 361
3 337 293 292
3 360 336 292
3 360 337 336
3 337 336 292
3 293 346 361
3 360 347 292
3 361 360 349
3 346 349 361
3 348 349 360
3 360 348 347
3 331 340 363
3 362 341 330
3 359 331 330
3 363 359 331
3 330 358 362
3 330 358 359
3 354 359 363
3 362 358 351
3 363 355 354
3 351 353 362
3 340 355 363
3 362 353 341
3 365 364 348
3 365 350 348
3 348 349 364
3 349 352 364
3 364 352 351
3 354 352 351
3 365 354 350
3 350 352 354
3 359 364 365
3 365 359 354
3 351 358 364
3 364 359 358
3 367 361 337
3 361 337 336
3 336 360 366
3 336 360 361
3 349 361 367
3 348 349 361
3 366 360 348
3 361 360 348
3 337 317 316
3 367 337 316
3 317 336 366
3 317 336 337
3 367 352 349
3 348 350 366
3 366 355 317
3 316 353 367
3 367 353 352
3 352 353 355
3 350 355 366
3 350 352 355
