ply
format ascii 1.0
comment Created by Open3D
element vertex 216
property double x
property double y
property double z
element face 784
property list uchar uint vertex_indices
end_header
490338 5.45378e+06 101.138
490340 5.45378e+06 111.209
490339 5.45378e+06 111.209
490338 5.45378e+06 111.209
490340 5.45378e+06 101.138
490339 5.45378e+06 101.138
490336 5.45378e+06 111.209
490337 5.45378e+06 111.209
490337 5.45378e+06 101.138
490334 5.45378e+06 111.209
490336 5.45378e+06 101.138
490334 5.45378e+06 101.138
490345 5.45377e+06 111.209
490345 5.45377e+06 101.138
490344 5.45377e+06 101.138
490344 5.45377e+06 111.209
490340 5.45378e+06 101.138
490340 5.45378e+06 111.209
490334 5.45378e+06 101.138
490335 5.45378e+06 111.209
490334 5.45378e+06 111.209
490335 5.45378e+06 101.138
490330 5.45378e+06 111.209
490331 5.45378e+06 111.209
490330 5.45378e+06 101.138
490330 5.45378e+06 111.209
490331 5.45378e+06 101.138
490330 5.45378e+06 101.138
490329 5.45377e+06 111.209
490329 5.45377e+06 101.138
490329 5.45377e+06 101.138
490329 5.45377e+06 101.138
490329 5.45377e+06 111.209
490329 5.45377e+06 111.209
490335 5.45378e+06 101.138
490335 5.45378e+06 111.209
490329 5.45377e+06 111.209
490335 5.45378e+06 111.209
490335 5.45378e+06 101.138
490329 5.45377e+06 101.138
490329 5.45378e+06 101.138
490329 5.45378e+06 111.209
490341 5.45378e+06 111.209
490341 5.45378e+06 101.138
490330 5.45378e+06 111.209
490332 5.45378e+06 101.138
490330 5.45378e+06 101.138
490332 5.45378e+06 111.209
490329 5.45377e+06 111.209
490329 5.45377e+06 101.138
490343 5.45376e+06 101.138
490343 5.45376e+06 101.138
490344 5.45376e+06 101.138
490344 5.45376e+06 111.209
490343 5.45376e+06 111.209
490343 5.45376e+06 111.209
490329 5.45377e+06 111.209
490329 5.45377e+06 101.138
490333 5.45378e+06 101.138
490333 5.45378e+06 111.209
490330 5.45378e+06 111.209
490330 5.45378e+06 101.138
490336 5.45378e+06 111.209
490336 5.45378e+06 101.138
490331 5.45378e+06 111.209
490331 5.45378e+06 101.138
490336 5.45378e+06 111.209
490336 5.45378e+06 101.138
490344 5.45377e+06 111.209
490344 5.45377e+06 101.138
490344 5.45377e+06 101.138
490344 5.45377e+06 101.138
490344 5.45377e+06 111.209
490344 5.45377e+06 111.209
490344 5.45377e+06 111.209
490344 5.45377e+06 101.138
490344 5.45376e+06 111.209
490344 5.45376e+06 101.138
490346 5.45377e+06 101.138
490346 5.45377e+06 111.209
490336 5.45376e+06 101.138
490329 5.45377e+06 111.209
490329 5.45377e+06 101.138
490336 5.45376e+06 111.209
490329 5.45377e+06 111.209
490329 5.45377e+06 101.138
490342 5.45376e+06 111.209
490342 5.45376e+06 101.138
490330 5.45378e+06 111.209
490330 5.45378e+06 101.138
490329 5.45377e+06 111.209
490329 5.45377e+06 101.138
490329 5.45377e+06 101.138
490329 5.45377e+06 111.209
490344 5.45377e+06 101.138
490344 5.45377e+06 111.209
490330 5.45376e+06 111.209
490330 5.45376e+06 101.138
490331 5.45376e+06 101.138
490329 5.45376e+06 101.138
490331 5.45376e+06 111.209
490329 5.45376e+06 111.209
490331 5.45376e+06 111.209
490331 5.45376e+06 101.138
490329 5.45377e+06 111.209
490329 5.45377e+06 101.138
490332 5.45376e+06 101.138
490332 5.45376e+06 111.209
490332 5.45376e+06 111.209
490332 5.45376e+06 101.138
490329 5.45377e+06 111.209
490329 5.45377e+06 101.138
490331 5.45376e+06 101.138
490331 5.45376e+06 111.209
490330 5.45376e+06 111.209
490330 5.45376e+06 101.138
490333 5.45376e+06 111.209
490333 5.45376e+06 101.138
490333 5.45376e+06 101.138
490333 5.45376e+06 111.209
490344 5.45377e+06 111.209
490346 5.45377e+06 101.138
490344 5.45377e+06 101.138
490346 5.45377e+06 111.209
490334 5.45376e+06 101.138
490334 5.45376e+06 111.209
490329 5.45377e+06 111.209
490329 5.45377e+06 101.138
490346 5.45377e+06 101.138
490346 5.45377e+06 111.209
490347 5.45377e+06 101.138
490347 5.45377e+06 101.138
490347 5.45377e+06 111.209
490347 5.45377e+06 101.138
490347 5.45377e+06 111.209
490347 5.45377e+06 111.209
490334 5.45376e+06 111.209
490334 5.45376e+06 101.138
490329 5.45377e+06 111.209
490329 5.45377e+06 101.138
490329 5.45377e+06 111.209
490329 5.45377e+06 101.138
490329 5.45376e+06 111.209
490329 5.45376e+06 101.138
490330 5.45376e+06 101.138
490330 5.45376e+06 111.209
490330 5.45376e+06 111.209
490330 5.45376e+06 101.138
490347 5.45378e+06 101.138
490347 5.45378e+06 111.209
490347 5.45378e+06 101.138
490347 5.45378e+06 111.209
490347 5.45378e+06 111.209
490347 5.45378e+06 101.138
490347 5.45377e+06 101.138
490347 5.45377e+06 111.209
490341 5.45376e+06 111.209
490340 5.45376e+06 111.209
490340 5.45376e+06 101.138
490341 5.45376e+06 101.138
490339 5.45376e+06 111.209
490339 5.45376e+06 101.138
490347 5.45377e+06 111.209
490347 5.45377e+06 101.138
490347 5.45377e+06 111.209
490347 5.45377e+06 101.138
490346 5.45377e+06 101.138
490346 5.45377e+06 111.209
490335 5.45376e+06 111.209
490335 5.45376e+06 101.138
490344 5.45378e+06 111.209
490345 5.45378e+06 111.209
490345 5.45378e+06 101.138
490344 5.45378e+06 101.138
490341 5.45376e+06 111.209
490341 5.45376e+06 101.138
490338 5.45376e+06 111.209
490338 5.45376e+06 101.138
490346 5.45377e+06 111.209
490346 5.45377e+06 101.138
490343 5.45378e+06 101.138
490343 5.45378e+06 111.209
490335 5.45376e+06 111.209
490335 5.45376e+06 101.138
490329 5.45377e+06 101.138
490329 5.45377e+06 111.209
490329 5.45377e+06 101.138
490329 5.45377e+06 111.209
490343 5.45378e+06 101.138
490343 5.45378e+06 111.209
490338 5.45376e+06 111.209
490338 5.45376e+06 101.138
490337 5.45376e+06 111.209
490337 5.45376e+06 101.138
490346 5.45378e+06 111.209
490346 5.45378e+06 101.138
490343 5.45378e+06 101.138
490343 5.45378e+06 111.209
490339 5.45376e+06 111.209
490339 5.45376e+06 101.138
490329 5.45377e+06 111.209
490329 5.45377e+06 101.138
490329 5.45377e+06 101.138
490329 5.45377e+06 111.209
490345 5.45378e+06 111.209
490345 5.45378e+06 101.138
490344 5.45378e+06 111.209
490344 5.45378e+06 101.138
490347 5.45378e+06 111.209
490347 5.45378e+06 101.138
490346 5.45378e+06 101.138
490346 5.45378e+06 111.209
490346 5.45378e+06 111.209
490346 5.45378e+06 101.138
490329 5.45377e+06 111.209
490329 5.45377e+06 101.138
3 0 1 3
3 3 2 0
3 3 2 1
3 0 1 4
3 5 2 0
3 0 4 5
3 13 5 4
3 1 2 12
3 14 13 12
3 5 13 14
3 15 12 2
3 15 14 12
3 12 13 16
3 16 13 4
3 1 12 17
3 12 16 17
3 9 11 18
3 20 19 18
3 9 18 20
3 20 19 9
3 21 19 18
3 21 18 11
3 25 23 22
3 22 24 25
3 26 23 22
3 27 26 22
3 27 24 22
3 27 26 24
3 30 29 28
3 28 30 31
3 29 30 31
3 33 32 28
3 28 31 32
3 31 32 33
3 28 29 33
3 29 31 33
3 34 11 9
3 35 34 9
3 9 19 35
3 34 21 11
3 37 35 34
3 37 36 35
3 38 37 34
3 34 38 39
3 21 34 40
3 19 35 41
3 41 40 36
3 35 36 41
3 34 39 40
3 40 39 36
3 42 8 7
3 42 7 3
3 8 42 43
3 0 8 43
3 1 17 42
3 16 17 42
3 43 42 16
3 43 16 4
3 42 3 1
3 4 3 1
3 4 3 0
3 43 4 0
3 46 44 18
3 44 45 46
3 18 45 46
3 47 45 44
3 20 44 47
3 18 20 44
3 36 37 48
3 37 38 48
3 36 39 48
3 49 48 39
3 49 48 38
3 49 39 38
3 52 51 50
3 53 52 50
3 53 52 51
3 50 51 54
3 54 53 51
3 55 54 50
3 50 53 55
3 55 54 53
3 30 56 57
3 57 56 31
3 57 31 30
3 56 32 31
3 30 31 32
3 56 30 28
3 28 32 56
3 28 30 32
3 20 47 59
3 58 45 18
3 19 20 59
3 21 20 19
3 18 21 58
3 21 20 18
3 59 58 41
3 59 41 19
3 40 41 58
3 21 40 58
3 23 58 59
3 59 47 23
3 23 26 58
3 26 45 58
3 40 25 24
3 24 40 61
3 25 41 60
3 25 40 41
3 61 27 24
3 24 25 27
3 22 25 60
3 22 25 27
3 60 59 41
3 40 41 59
3 40 58 61
3 40 58 59
3 27 26 23
3 26 27 61
3 60 23 22
3 22 23 27
3 23 59 60
3 59 26 23
3 26 58 59
3 61 58 26
3 9 10 11
3 63 11 10
3 62 9 6
3 10 9 6
3 10 38 63
3 6 37 62
3 35 34 11
3 63 34 11
3 9 35 62
3 9 11 35
3 34 35 38
3 63 38 34
3 35 37 62
3 38 37 35
3 23 47 64
3 65 45 26
3 46 64 65
3 65 46 45
3 47 46 45
3 64 47 44
3 64 46 44
3 47 46 44
3 24 64 65
3 65 26 24
3 64 25 23
3 24 25 64
3 2 5 66
3 2 3 66
3 2 3 5
3 67 66 5
3 0 5 67
3 0 3 5
3 66 37 6
3 38 66 67
3 67 38 10
3 66 38 37
3 67 8 0
3 3 7 66
3 7 8 10
3 67 10 8
3 66 7 6
3 6 7 10
3 71 70 68
3 71 70 69
3 73 72 68
3 68 70 72
3 74 73 68
3 75 71 69
3 68 74 76
3 68 76 77
3 77 71 68
3 71 75 77
3 12 13 78
3 12 13 15
3 12 78 79
3 15 78 79
3 79 15 12
3 78 15 14
3 78 14 13
3 15 14 13
3 82 81 80
3 80 81 83
3 83 80 15
3 15 81 83
3 14 80 82
3 14 15 80
3 84 83 81
3 84 82 81
3 81 82 83
3 80 84 85
3 82 84 85
3 85 82 80
3 80 83 84
3 80 82 83
3 29 84 85
3 85 84 30
3 85 30 29
3 29 33 84
3 33 30 29
3 28 30 84
3 84 33 28
3 28 30 33
3 73 74 86
3 86 73 69
3 87 86 69
3 87 75 69
3 87 77 75
3 86 76 74
3 53 55 86
3 55 53 52
3 86 55 50
3 50 52 55
3 87 86 50
3 50 52 87
3 52 77 87
3 86 76 53
3 24 46 89
3 24 25 46
3 25 44 88
3 25 44 46
3 46 65 89
3 65 46 44
3 44 64 88
3 44 64 65
3 24 65 89
3 24 25 65
3 88 64 25
3 65 64 25
3 90 81 15
3 14 82 91
3 5 14 91
3 90 15 2
3 5 91 92
3 93 90 2
3 91 82 29
3 33 81 90
3 92 91 29
3 33 90 93
3 70 72 94
3 70 71 94
3 72 71 70
3 68 94 95
3 95 94 72
3 68 72 95
3 68 71 94
3 72 71 68
3 96 97 99
3 99 98 97
3 96 100 101
3 96 99 101
3 102 100 96
3 103 102 96
3 103 97 96
3 97 98 103
3 100 102 107
3 106 103 98
3 106 107 108
3 108 107 102
3 106 108 109
3 109 108 102
3 103 106 109
3 102 103 109
3 98 99 106
3 107 101 100
3 99 105 106
3 107 104 101
3 106 107 110
3 110 107 104
3 111 106 105
3 106 110 111
3 112 113 114
3 114 113 96
3 97 112 115
3 112 114 115
3 112 103 102
3 97 103 112
3 103 102 97
3 102 97 96
3 113 112 102
3 113 102 96
3 108 109 116
3 107 108 116
3 109 108 107
3 109 116 117
3 117 109 106
3 106 107 109
3 118 117 116
3 111 117 118
3 110 116 119
3 116 118 119
3 116 110 107
3 107 110 111
3 111 107 106
3 106 111 117
3 71 121 122
3 68 120 123
3 68 95 120
3 68 71 95
3 71 94 95
3 122 94 71
3 123 120 79
3 122 121 78
3 15 79 120
3 79 15 14
3 122 78 14
3 79 78 14
3 120 95 15
3 14 94 122
3 28 30 124
3 30 57 124
3 28 30 57
3 56 124 125
3 28 124 125
3 125 56 28
3 56 57 124
3 28 56 57
3 124 119 118
3 119 124 125
3 110 124 125
3 110 119 125
3 124 111 110
3 111 118 124
3 56 125 126
3 56 57 125
3 127 124 57
3 125 124 57
3 126 125 110
3 125 111 110
3 111 124 125
3 111 124 127
3 127 111 105
3 126 110 104
3 127 105 57
3 56 57 105
3 126 104 56
3 105 104 56
3 12 13 128
3 12 13 79
3 12 128 129
3 129 79 12
3 128 78 13
3 79 78 13
3 123 128 129
3 129 123 79
3 128 123 121
3 128 121 78
3 130 131 133
3 133 132 130
3 131 132 133
3 130 134 135
3 130 132 135
3 135 134 132
3 130 131 134
3 131 132 134
3 130 77 52
3 52 53 130
3 135 130 53
3 53 76 135
3 71 77 130
3 71 76 77
3 76 71 68
3 135 76 68
3 123 130 135
3 68 123 135
3 130 123 121
3 130 121 71
3 137 85 30
3 28 30 85
3 28 84 136
3 28 84 85
3 137 136 80
3 80 85 137
3 136 83 80
3 85 83 80
3 136 84 83
3 83 84 85
3 136 125 28
3 28 30 125
3 30 124 125
3 30 124 137
3 119 125 136
3 118 119 136
3 118 119 125
3 118 124 125
3 118 136 137
3 137 124 118
3 138 81 33
3 29 82 139
3 29 33 85
3 139 85 29
3 33 84 138
3 33 84 85
3 82 85 139
3 81 82 85
3 138 84 81
3 81 84 85
3 2 5 67
3 67 140 141
3 141 67 5
3 66 67 140
3 2 66 140
3 67 66 2
3 92 93 140
3 140 93 2
3 92 140 141
3 5 92 141
3 115 142 143
3 97 115 143
3 142 115 114
3 142 114 96
3 143 99 97
3 97 99 101
3 96 101 142
3 96 97 101
3 143 142 105
3 143 105 99
3 101 104 142
3 104 105 142
3 144 145 146
3 146 145 114
3 144 146 147
3 147 146 114
3 115 144 147
3 114 115 147
3 113 144 145
3 145 114 113
3 113 114 115
3 144 113 112
3 112 115 144
3 115 113 112
3 151 150 149
3 148 149 152
3 152 151 149
3 148 149 153
3 153 150 148
3 149 150 153
3 148 150 154
3 148 152 155
3 151 152 155
3 155 154 148
3 54 156 157
3 157 54 51
3 158 157 156
3 158 157 51
3 159 158 156
3 159 158 51
3 55 51 50
3 159 51 50
3 54 55 156
3 51 54 55
3 87 55 50
3 87 156 159
3 50 87 159
3 55 86 156
3 86 87 156
3 87 86 55
3 160 95 72
3 70 72 95
3 161 160 94
3 70 94 161
3 160 95 94
3 70 94 95
3 158 160 161
3 70 158 161
3 72 157 160
3 160 158 157
3 131 134 162
3 134 135 162
3 135 134 131
3 130 131 135
3 131 162 163
3 163 131 130
3 162 135 123
3 135 123 121
3 121 130 135
3 163 130 121
3 123 129 162
3 121 123 129
3 128 129 162
3 121 128 129
3 128 162 163
3 121 128 163
3 150 151 164
3 150 164 165
3 154 164 165
3 165 154 150
3 164 155 151
3 154 155 164
3 164 134 131
3 163 134 131
3 165 164 163
3 165 164 131
3 131 163 165
3 134 162 164
3 162 163 164
3 134 162 163
3 166 165 154
3 166 155 154
3 154 155 165
3 155 164 165
3 155 166 167
3 155 164 167
3 162 163 166
3 163 165 166
3 162 163 165
3 162 164 165
3 167 166 162
3 167 164 162
3 117 168 169
3 169 118 117
3 117 118 119
3 116 119 168
3 116 117 168
3 119 117 116
3 169 137 118
3 118 119 137
3 119 136 168
3 119 136 137
3 169 168 80
3 80 137 169
3 168 83 80
3 137 83 80
3 168 136 83
3 137 136 83
3 170 171 172
3 43 171 172
3 170 172 173
3 43 170 173
3 173 172 43
3 171 170 42
3 170 43 42
3 171 43 42
3 87 73 69
3 175 87 69
3 73 86 174
3 87 86 73
3 175 159 87
3 86 87 159
3 86 156 174
3 86 156 159
3 158 159 175
3 159 158 157
3 156 157 174
3 156 157 159
3 69 70 175
3 72 73 174
3 174 157 72
3 175 158 70
3 176 83 80
3 83 80 14
3 177 176 80
3 177 176 14
3 14 80 177
3 176 83 15
3 176 15 14
3 83 15 14
3 128 163 179
3 128 129 163
3 178 162 129
3 163 162 129
3 178 167 162
3 162 163 167
3 167 166 163
3 163 166 179
3 180 179 128
3 129 178 181
3 148 179 180
3 181 178 152
3 178 155 152
3 155 154 152
3 148 154 179
3 148 152 154
3 155 167 178
3 167 155 154
3 154 166 167
3 179 166 154
3 183 182 80
3 169 182 183
3 80 169 183
3 182 83 80
3 169 83 80
3 182 168 83
3 182 169 168
3 169 168 83
3 66 67 184
3 37 66 67
3 66 184 185
3 185 66 37
3 38 67 184
3 67 38 37
3 184 49 48
3 49 48 37
3 185 184 48
3 37 48 185
3 184 49 38
3 49 38 37
3 186 93 92
3 93 186 187
3 187 186 33
3 33 93 187
3 186 92 29
3 29 33 186
3 12 13 17
3 12 17 189
3 188 16 13
3 17 16 13
3 188 180 128
3 181 188 189
3 129 181 189
3 188 181 180
3 12 13 129
3 12 129 189
3 188 128 13
3 129 128 13
3 42 43 188
3 43 42 17
3 42 188 189
3 17 42 189
3 188 43 16
3 16 17 43
3 191 190 161
3 191 161 94
3 161 95 94
3 95 160 190
3 190 161 160
3 161 160 95
3 191 94 14
3 15 95 190
3 177 190 191
3 14 177 191
3 177 15 14
3 190 177 176
3 190 176 15
3 177 176 15
3 193 192 177
3 193 177 80
3 177 83 80
3 176 177 192
3 83 176 192
3 83 176 177
3 193 192 183
3 193 183 80
3 183 83 80
3 83 182 192
3 182 183 192
3 83 182 183
3 194 181 152
3 195 194 148
3 148 180 195
3 194 152 148
3 170 181 194
3 194 173 170
3 173 194 195
3 195 180 173
3 173 180 196
3 197 181 170
3 173 170 42
3 42 170 197
3 196 173 43
3 173 43 42
3 42 43 189
3 197 189 42
3 43 188 196
3 43 188 189
3 189 181 180
3 197 189 181
3 180 188 196
3 180 188 189
3 199 191 161
3 191 161 160
3 198 190 160
3 191 190 160
3 177 191 199
3 191 177 176
3 176 190 198
3 176 190 191
3 199 198 158
3 199 161 158
3 157 158 198
3 157 158 161
3 198 160 157
3 157 160 161
3 193 198 199
3 177 193 199
3 193 177 176
3 198 192 176
3 198 193 192
3 193 192 176
3 66 67 141
3 141 200 201
3 201 141 67
3 140 141 200
3 200 140 66
3 66 140 141
3 66 185 200
3 66 67 185
3 201 200 184
3 67 184 201
3 184 185 200
3 67 184 185
3 186 187 202
3 92 186 202
3 92 186 187
3 203 202 187
3 93 187 203
3 92 93 187
3 140 141 202
3 141 140 93
3 140 202 203
3 203 140 93
3 202 141 92
3 92 93 141
3 173 172 171
3 173 204 205
3 172 173 205
3 204 173 170
3 170 171 204
3 170 171 173
3 205 204 195
3 205 195 172
3 204 195 194
3 171 194 204
3 195 173 170
3 207 195 173
3 170 194 206
3 170 194 195
3 205 173 170
3 173 205 207
3 206 204 170
3 205 204 170
3 207 205 195
3 205 195 194
3 194 204 206
3 205 204 194
3 153 152 148
3 209 208 153
3 209 153 148
3 208 152 149
3 149 153 208
3 153 152 149
3 208 209 210
3 210 209 148
3 208 210 211
3 152 208 211
3 213 195 172
3 171 194 212
3 172 210 213
3 210 172 171
3 212 211 171
3 211 210 171
3 148 195 213
3 195 152 148
3 212 194 152
3 195 194 152
3 213 210 148
3 152 211 212
3 214 203 140
3 203 141 140
3 215 202 141
3 141 202 203
3 140 141 201
3 141 201 215
3 140 200 214
3 201 200 140
3 201 185 184
3 215 201 184
3 214 200 185
3 201 200 185
3 214 185 48
3 48 49 214
3 185 49 48
3 215 214 49
3 49 184 215
3 185 184 49
3 187 203 214
3 186 187 214
3 186 187 203
3 186 214 215
3 186 202 215
3 186 202 203
