ply
format ascii 1.0
comment Created by Open3D
element vertex 102
property double x
property double y
property double z
element face 316
property list uchar uint vertex_indices
end_header
490277 5.45374e+06 113.935
490276 5.45374e+06 103.864
490276 5.45374e+06 113.935
490276 5.45374e+06 103.864
490277 5.45374e+06 103.864
490276 5.45374e+06 113.935
490276 5.45374e+06 113.935
490276 5.45374e+06 103.864
490276 5.45374e+06 113.935
490276 5.45374e+06 103.864
490276 5.45374e+06 103.864
490276 5.45374e+06 113.935
490276 5.45374e+06 113.935
490277 5.45374e+06 113.935
490277 5.45374e+06 103.864
490276 5.45374e+06 103.864
490276 5.45374e+06 113.935
490276 5.45374e+06 103.864
490278 5.45374e+06 103.864
490278 5.45374e+06 113.935
490276 5.45374e+06 113.935
490276 5.45374e+06 103.864
490278 5.45374e+06 103.864
490278 5.45374e+06 113.935
490280 5.45374e+06 113.935
490280 5.45374e+06 113.935
490280 5.45374e+06 103.864
490280 5.45374e+06 103.864
490276 5.45374e+06 103.864
490276 5.45374e+06 113.935
490276 5.45374e+06 103.864
490276 5.45374e+06 113.935
490284 5.45374e+06 103.864
490284 5.45374e+06 113.935
490284 5.45374e+06 103.864
490284 5.45374e+06 113.935
490284 5.45374e+06 103.864
490284 5.45374e+06 113.935
490278 5.45374e+06 103.864
490276 5.45374e+06 103.864
490278 5.45374e+06 113.935
490278 5.45374e+06 103.864
490276 5.45374e+06 113.935
490278 5.45374e+06 113.935
490284 5.45374e+06 103.864
490283 5.45374e+06 113.935
490283 5.45374e+06 103.864
490284 5.45374e+06 113.935
490283 5.45374e+06 113.935
490283 5.45374e+06 103.864
490282 5.45374e+06 113.935
490282 5.45374e+06 103.864
490276 5.45374e+06 113.935
490279 5.45374e+06 103.864
490276 5.45374e+06 103.864
490279 5.45374e+06 113.935
490276 5.45374e+06 113.935
490276 5.45374e+06 103.864
490281 5.45374e+06 113.935
490281 5.45374e+06 103.864
490279 5.45374e+06 103.864
490279 5.45374e+06 113.935
490276 5.45374e+06 103.864
490276 5.45374e+06 113.935
490284 5.45374e+06 103.864
490284 5.45374e+06 113.935
490284 5.45374e+06 103.864
490284 5.45374e+06 113.935
490281 5.45374e+06 113.935
490281 5.45374e+06 103.864
490277 5.45374e+06 113.935
490277 5.45374e+06 103.864
490281 5.45374e+06 113.935
490281 5.45374e+06 103.864
490276 5.45374e+06 103.864
490276 5.45374e+06 113.935
490279 5.45374e+06 113.935
490279 5.45374e+06 103.864
490278 5.45374e+06 103.864
490278 5.45374e+06 113.935
490276 5.45374e+06 103.864
490276 5.45374e+06 113.935
490279 5.45374e+06 103.864
490279 5.45374e+06 113.935
490282 5.45374e+06 113.935
490282 5.45374e+06 103.864
490283 5.45374e+06 103.864
490283 5.45374e+06 113.935
490282 5.45374e+06 103.864
490282 5.45374e+06 113.935
490283 5.45374e+06 113.935
490283 5.45374e+06 103.864
490281 5.45374e+06 103.864
490281 5.45374e+06 113.935
490284 5.45374e+06 103.864
490284 5.45374e+06 113.935
490280 5.45374e+06 113.935
490280 5.45374e+06 103.864
490282 5.45374e+06 113.935
490282 5.45374e+06 103.864
490280 5.45374e+06 103.864
490280 5.45374e+06 113.935
3 2 1 0
3 1 2 3
3 0 1 4
3 1 3 4
3 0 2 5
3 2 3 5
3 0 5 6
3 6 5 3
3 3 4 7
3 3 6 7
3 0 6 8
3 0 8 9
3 6 8 9
3 9 4 0
3 9 7 4
3 9 7 6
3 12 11 10
3 10 11 13
3 11 12 13
3 10 13 14
3 10 14 15
3 15 12 10
3 18 14 13
3 19 18 13
3 19 13 12
3 18 15 14
3 20 19 12
3 15 18 21
3 23 22 18
3 22 21 18
3 18 19 23
3 19 20 23
3 24 19 18
3 25 19 18
3 19 24 25
3 18 26 27
3 18 25 26
3 27 24 18
3 28 17 15
3 12 15 17
3 12 16 29
3 17 16 12
3 15 21 28
3 29 20 12
3 30 28 17
3 28 30 31
3 28 29 31
3 31 29 16
3 22 23 28
3 21 22 28
3 29 28 23
3 29 23 20
3 26 27 32
3 25 26 32
3 32 27 24
3 33 32 24
3 25 32 33
3 33 25 24
3 36 34 32
3 36 35 32
3 36 35 34
3 32 33 37
3 32 33 35
3 33 35 37
3 37 34 32
3 37 35 34
3 41 39 38
3 38 40 41
3 38 39 42
3 38 42 43
3 38 40 43
3 43 42 40
3 44 45 47
3 48 47 45
3 46 45 44
3 45 46 48
3 49 46 44
3 49 48 46
3 47 48 50
3 51 49 44
3 51 44 34
3 44 37 34
3 37 44 47
3 37 47 50
3 27 52 54
3 54 53 27
3 55 52 24
3 24 27 52
3 31 52 55
3 54 53 30
3 54 30 17
3 52 31 16
3 56 52 16
3 57 56 52
3 52 54 57
3 57 54 17
3 59 58 49
3 59 51 49
3 58 49 48
3 48 50 58
3 59 58 34
3 34 51 59
3 58 37 34
3 58 50 37
3 61 24 19
3 27 24 19
3 60 27 18
3 18 19 27
3 19 23 61
3 23 22 19
3 18 22 60
3 22 19 18
3 61 55 24
3 27 53 60
3 23 29 61
3 22 23 29
3 22 28 60
3 29 28 22
3 29 31 61
3 31 30 29
3 28 30 60
3 30 29 28
3 31 55 61
3 30 53 60
3 16 62 63
3 56 62 63
3 63 56 16
3 16 17 62
3 62 57 17
3 56 57 62
3 42 62 63
3 63 62 8
3 8 42 63
3 62 39 9
3 62 9 8
3 62 42 39
3 65 35 33
3 33 35 36
3 64 36 32
3 32 33 36
3 66 64 36
3 67 66 36
3 35 65 67
3 67 36 35
3 68 65 64
3 68 67 65
3 69 68 64
3 64 66 69
3 54 57 64
3 64 57 56
3 57 56 54
3 65 64 56
3 52 56 65
3 56 54 52
3 65 33 24
3 33 27 24
3 64 32 27
3 27 32 33
3 27 54 64
3 24 27 54
3 24 52 54
3 24 52 65
3 9 39 71
3 70 42 8
3 39 41 71
3 40 42 70
3 71 41 4
3 4 40 41
3 0 40 70
3 40 4 0
3 4 9 71
3 4 8 9
3 70 8 0
3 0 4 8
3 33 37 72
3 37 34 33
3 32 33 34
3 32 34 73
3 59 72 73
3 34 59 73
3 59 37 34
3 37 58 72
3 58 59 72
3 37 58 59
3 25 33 72
3 72 26 25
3 33 26 25
3 73 72 26
3 26 32 73
3 26 32 33
3 63 57 56
3 75 74 63
3 56 63 75
3 57 62 74
3 62 63 74
3 57 62 63
3 74 76 77
3 74 75 76
3 65 75 76
3 64 74 77
3 65 57 56
3 75 65 56
3 74 64 57
3 57 64 65
3 38 77 78
3 76 78 79
3 79 76 43
3 76 77 78
3 78 41 38
3 43 41 38
3 40 78 79
3 79 43 40
3 78 41 40
3 40 41 43
3 81 80 75
3 81 75 63
3 62 63 75
3 62 74 80
3 74 75 80
3 62 74 75
3 81 80 43
3 81 43 42
3 39 42 43
3 80 39 38
3 38 43 80
3 43 39 38
3 42 63 81
3 39 42 63
3 80 62 39
3 39 62 63
3 38 43 81
3 43 81 83
3 38 80 82
3 38 80 81
3 75 81 83
3 74 75 81
3 82 80 74
3 81 80 74
3 82 77 38
3 83 76 43
3 77 76 75
3 83 76 75
3 74 77 82
3 74 75 77
3 84 85 88
3 85 86 88
3 89 85 84
3 84 87 89
3 90 87 84
3 84 90 91
3 87 90 91
3 91 88 84
3 91 88 86
3 86 87 91
3 92 86 85
3 93 92 89
3 93 89 87
3 85 89 92
3 86 92 94
3 94 87 86
3 95 93 87
3 87 94 95
3 94 92 66
3 66 67 94
3 67 93 95
3 95 94 67
3 68 92 93
3 67 68 93
3 92 69 68
3 92 69 66
3 96 79 76
3 76 77 96
3 76 77 79
3 97 96 78
3 97 96 77
3 97 78 77
3 96 79 78
3 79 78 77
3 98 93 92
3 93 92 85
3 99 98 92
3 85 92 99
3 98 93 89
3 93 89 85
3 85 88 89
3 99 88 85
3 98 89 84
3 89 88 84
3 98 91 90
3 88 90 91
3 91 98 99
3 88 91 99
3 84 90 98
3 84 88 90
3 100 97 77
3 76 77 97
3 76 96 101
3 76 96 97
3 65 68 69
3 65 68 101
3 100 69 64
3 69 65 64
3 65 76 101
3 64 77 100
3 100 99 97
3 96 97 99
3 99 98 96
3 96 98 101
3 100 92 69
3 69 92 93
3 68 93 101
3 93 69 68
3 100 99 92
3 99 93 92
3 93 98 101
3 99 98 93
