ply
format ascii 1.0
comment Created by Open3D
element vertex 210
property double x
property double y
property double z
element face 756
property list uchar uint vertex_indices
end_header
490296 5.45377e+06 102.635
490296 5.45377e+06 112.706
490288 5.45377e+06 112.706
490288 5.45377e+06 112.706
490288 5.45377e+06 102.635
490288 5.45377e+06 102.635
490296 5.45377e+06 102.635
490296 5.45377e+06 112.706
490304 5.45377e+06 102.635
490304 5.45377e+06 102.635
490298 5.45377e+06 102.635
490298 5.45377e+06 112.706
490304 5.45377e+06 112.706
490304 5.45377e+06 112.706
490288 5.45377e+06 112.706
490288 5.45377e+06 102.635
490294 5.45377e+06 112.706
490294 5.45377e+06 102.635
490295 5.45377e+06 102.635
490300 5.45376e+06 102.635
490300 5.45376e+06 112.706
490295 5.45377e+06 112.706
490297 5.45377e+06 102.635
490297 5.45377e+06 112.706
490299 5.45377e+06 112.706
490299 5.45377e+06 102.635
490299 5.45376e+06 112.706
490299 5.45376e+06 102.635
490288 5.45377e+06 102.635
490288 5.45377e+06 112.706
490288 5.45377e+06 112.706
490288 5.45377e+06 102.635
490288 5.45377e+06 112.706
490291 5.45377e+06 102.635
490288 5.45377e+06 102.635
490291 5.45377e+06 112.706
490303 5.45377e+06 102.635
490303 5.45376e+06 112.706
490303 5.45377e+06 112.706
490303 5.45376e+06 112.706
490303 5.45376e+06 102.635
490303 5.45376e+06 102.635
490303 5.45377e+06 102.635
490303 5.45377e+06 112.706
490303 5.45378e+06 102.635
490304 5.45378e+06 102.635
490304 5.45378e+06 112.706
490303 5.45378e+06 112.706
490302 5.45378e+06 102.635
490302 5.45378e+06 112.706
490287 5.45377e+06 112.706
490287 5.45377e+06 102.635
490288 5.45377e+06 102.635
490287 5.45378e+06 102.635
490288 5.45377e+06 112.706
490287 5.45378e+06 112.706
490288 5.45377e+06 102.635
490288 5.45377e+06 112.706
490301 5.45378e+06 112.706
490302 5.45378e+06 102.635
490301 5.45378e+06 102.635
490302 5.45378e+06 112.706
490303 5.45377e+06 102.635
490303 5.45377e+06 112.706
490294 5.45377e+06 102.635
490294 5.45377e+06 112.706
490293 5.45377e+06 112.706
490293 5.45377e+06 102.635
490303 5.45377e+06 112.706
490303 5.45377e+06 102.635
490300 5.45376e+06 102.635
490300 5.45376e+06 112.706
490291 5.45377e+06 102.635
490290 5.45377e+06 102.635
490291 5.45377e+06 112.706
490290 5.45377e+06 112.706
490289 5.45377e+06 102.635
490289 5.45377e+06 112.706
490288 5.45377e+06 102.635
490288 5.45377e+06 102.635
490288 5.45377e+06 112.706
490288 5.45377e+06 112.706
490288 5.45377e+06 102.635
490288 5.45377e+06 112.706
490304 5.45377e+06 112.706
490304 5.45377e+06 102.635
490303 5.45377e+06 102.635
490303 5.45377e+06 112.706
490301 5.45376e+06 112.706
490301 5.45376e+06 102.635
490304 5.45378e+06 102.635
490304 5.45378e+06 112.706
490303 5.45378e+06 112.706
490303 5.45378e+06 102.635
490304 5.45377e+06 112.706
490304 5.45377e+06 102.635
490304 5.45378e+06 112.706
490304 5.45378e+06 102.635
490288 5.45377e+06 112.706
490288 5.45377e+06 102.635
490294 5.45377e+06 102.635
490294 5.45377e+06 112.706
490303 5.45377e+06 102.635
490303 5.45377e+06 112.706
490303 5.45377e+06 112.706
490303 5.45377e+06 102.635
490293 5.45377e+06 102.635
490293 5.45377e+06 112.706
490301 5.45376e+06 102.635
490302 5.45376e+06 112.706
490301 5.45376e+06 112.706
490302 5.45376e+06 102.635
490304 5.45378e+06 112.706
490304 5.45378e+06 102.635
490292 5.45377e+06 112.706
490292 5.45377e+06 102.635
490304 5.45377e+06 112.706
490304 5.45377e+06 102.635
490288 5.45377e+06 112.706
490288 5.45377e+06 102.635
490290 5.45377e+06 102.635
490290 5.45377e+06 112.706
490288 5.45377e+06 112.706
490288 5.45377e+06 102.635
490304 5.45377e+06 102.635
490304 5.45377e+06 112.706
490304 5.45378e+06 112.706
490304 5.45378e+06 102.635
490304 5.45378e+06 102.635
490304 5.45378e+06 112.706
490304 5.45378e+06 112.706
490304 5.45378e+06 102.635
490302 5.45376e+06 112.706
490302 5.45376e+06 102.635
490304 5.45378e+06 102.635
490304 5.45378e+06 112.706
490304 5.45378e+06 102.635
490304 5.45378e+06 112.706
490304 5.45378e+06 102.635
490304 5.45378e+06 112.706
490304 5.45377e+06 102.635
490304 5.45377e+06 112.706
490289 5.45378e+06 102.635
490288 5.45378e+06 112.706
490288 5.45378e+06 112.706
490288 5.45378e+06 102.635
490289 5.45378e+06 112.706
490288 5.45378e+06 102.635
490288 5.45378e+06 112.706
490288 5.45378e+06 102.635
490303 5.45377e+06 112.706
490303 5.45377e+06 102.635
490293 5.45377e+06 102.635
490293 5.45377e+06 112.706
490304 5.45377e+06 112.706
490304 5.45377e+06 102.635
490288 5.45378e+06 102.635
490288 5.45378e+06 112.706
490294 5.45378e+06 102.635
490294 5.45378e+06 102.635
490294 5.45378e+06 112.706
490294 5.45378e+06 112.706
490288 5.45378e+06 112.706
490288 5.45378e+06 102.635
490289 5.45378e+06 102.635
490289 5.45378e+06 112.706
490289 5.45378e+06 102.635
490289 5.45378e+06 112.706
490293 5.45378e+06 112.706
490293 5.45378e+06 102.635
490295 5.45378e+06 102.635
490295 5.45378e+06 112.706
490288 5.45378e+06 102.635
490288 5.45378e+06 112.706
490292 5.45378e+06 102.635
490288 5.45378e+06 102.635
490290 5.45378e+06 112.706
490290 5.45378e+06 102.635
490288 5.45378e+06 112.706
490292 5.45378e+06 112.706
490296 5.45378e+06 102.635
490296 5.45378e+06 112.706
490297 5.45378e+06 102.635
490297 5.45378e+06 112.706
490300 5.45378e+06 102.635
490300 5.45378e+06 112.706
490288 5.45378e+06 102.635
490288 5.45378e+06 112.706
490288 5.45378e+06 102.635
490288 5.45378e+06 112.706
490288 5.45378e+06 112.706
490288 5.45378e+06 102.635
490297 5.45378e+06 112.706
490297 5.45378e+06 102.635
490298 5.45378e+06 112.706
490298 5.45378e+06 102.635
490297 5.45378e+06 102.635
490297 5.45378e+06 112.706
490298 5.45378e+06 102.635
490298 5.45378e+06 112.706
490288 5.45378e+06 112.706
490288 5.45378e+06 102.635
490290 5.45378e+06 102.635
490290 5.45378e+06 112.706
490288 5.45378e+06 102.635
490288 5.45378e+06 112.706
490290 5.45378e+06 102.635
490290 5.45378e+06 112.706
490288 5.45378e+06 102.635
490288 5.45378e+06 112.706
3 0 1 2
3 0 1 3
3 1 2 3
3 0 3 4
3 0 2 5
3 5 4 0
3 1 6 7
3 3 6 7
3 7 3 1
3 3 4 6
3 1 3 4
3 6 1 0
3 0 4 6
3 4 1 0
3 10 9 8
3 8 10 11
3 8 9 12
3 8 12 13
3 8 11 13
3 11 12 13
3 14 3 2
3 14 4 3
3 15 14 5
3 4 14 15
3 4 5 15
3 14 5 2
3 2 5 16
3 1 2 16
3 1 2 5
3 16 1 0
3 5 1 0
3 17 16 0
3 17 16 5
3 0 5 17
3 0 18 19
3 20 19 18
3 21 20 18
3 21 20 1
3 0 17 18
3 17 1 0
3 16 18 21
3 1 16 21
3 16 17 18
3 1 16 17
3 20 22 23
3 1 20 23
3 22 19 0
3 22 20 19
3 23 7 1
3 7 1 0
3 0 6 22
3 0 6 7
3 23 11 7
3 6 10 22
3 11 23 24
3 25 22 10
3 26 23 22
3 26 24 23
3 27 26 22
3 22 25 27
3 28 15 5
3 28 5 2
3 2 5 15
3 28 15 14
3 2 14 15
3 29 28 14
3 29 28 2
3 29 14 2
3 30 31 32
3 30 31 34
3 30 33 34
3 31 33 34
3 35 32 30
3 35 33 30
3 30 29 2
3 2 5 30
3 2 5 29
3 30 29 28
3 29 28 5
3 34 30 28
3 34 30 5
3 5 28 34
3 36 38 39
3 39 38 37
3 36 39 40
3 36 40 41
3 36 41 42
3 36 42 43
3 43 38 36
3 37 38 43
3 44 45 48
3 46 45 44
3 49 47 44
3 47 46 44
3 46 47 49
3 44 48 49
3 50 29 14
3 14 15 29
3 28 50 51
3 15 28 51
3 28 29 50
3 29 28 15
3 53 51 50
3 53 52 51
3 50 54 55
3 55 53 50
3 51 52 56
3 57 54 50
3 4 51 56
3 57 50 3
3 4 15 51
3 15 4 3
3 50 14 3
3 3 14 15
3 58 59 60
3 60 58 48
3 60 59 48
3 61 59 58
3 48 59 61
3 58 49 48
3 49 58 61
3 48 49 61
3 24 62 63
3 63 62 11
3 11 24 63
3 10 11 62
3 24 25 62
3 62 25 10
3 64 65 66
3 2 64 65
3 2 65 66
3 67 64 5
3 2 5 64
3 67 66 64
3 68 25 24
3 68 63 24
3 24 25 63
3 62 63 68
3 25 62 63
3 62 68 69
3 69 68 25
3 25 62 69
3 20 70 71
3 71 23 20
3 19 20 70
3 23 20 19
3 19 22 70
3 19 22 23
3 71 70 26
3 71 26 23
3 70 27 26
3 23 26 27
3 22 27 70
3 27 23 22
3 33 72 73
3 33 35 73
3 72 74 75
3 75 74 35
3 75 73 72
3 75 73 35
3 72 76 77
3 77 74 72
3 32 74 77
3 76 72 31
3 32 35 74
3 72 33 31
3 31 78 79
3 78 32 31
3 32 78 80
3 32 80 81
3 83 82 78
3 82 79 78
3 79 82 83
3 83 80 78
3 83 81 80
3 83 81 79
3 84 13 11
3 10 11 13
3 8 84 85
3 85 10 8
3 84 13 8
3 13 10 8
3 84 63 11
3 10 11 63
3 62 63 84
3 10 62 63
3 62 84 85
3 10 62 85
3 25 69 86
3 86 25 24
3 69 25 24
3 86 69 68
3 69 68 24
3 87 86 68
3 87 86 24
3 87 68 24
3 18 21 88
3 21 19 18
3 89 88 18
3 19 88 89
3 89 19 18
3 20 21 88
3 19 20 88
3 19 20 21
3 45 46 90
3 45 46 47
3 91 90 46
3 91 47 46
3 90 45 44
3 47 45 44
3 93 92 90
3 47 92 93
3 90 91 92
3 47 91 92
3 93 90 44
3 44 47 93
3 7 6 4
3 95 6 4
3 3 7 94
3 3 4 7
3 3 94 96
3 94 95 97
3 97 95 4
3 97 96 94
3 7 11 94
3 94 11 10
3 95 94 10
3 95 10 6
3 79 98 99
3 31 79 99
3 79 81 98
3 32 81 98
3 31 34 99
3 31 32 34
3 30 32 98
3 30 32 34
3 99 98 28
3 99 34 28
3 98 29 28
3 34 29 28
3 29 30 98
3 29 30 34
3 2 16 17
3 2 16 101
3 100 17 5
3 2 5 17
3 2 5 65
3 65 100 101
3 2 65 101
3 100 64 5
3 100 65 64
3 65 64 5
3 100 18 17
3 21 18 17
3 16 21 101
3 16 17 21
3 100 89 18
3 18 21 89
3 100 89 88
3 89 88 21
3 101 100 88
3 21 88 101
3 26 27 102
3 26 102 103
3 24 26 103
3 102 27 25
3 87 25 24
3 103 102 87
3 103 87 24
3 86 87 102
3 25 86 102
3 87 86 25
3 86 87 104
3 87 103 104
3 86 87 103
3 103 102 86
3 86 104 105
3 105 102 86
3 26 71 104
3 71 27 26
3 105 104 70
3 105 70 27
3 104 71 70
3 71 70 27
3 104 103 26
3 26 27 103
3 27 102 103
3 27 102 105
3 64 67 106
3 67 65 64
3 107 66 65
3 67 66 65
3 2 106 107
3 107 66 2
3 5 67 106
3 2 5 106
3 64 65 101
3 101 106 107
3 107 101 65
3 64 100 106
3 100 101 106
3 64 100 101
3 110 109 37
3 41 108 111
3 111 108 89
3 88 109 110
3 19 89 108
3 19 20 89
3 20 88 89
3 20 88 110
3 19 20 71
3 110 71 20
3 19 70 108
3 19 70 71
3 37 71 110
3 108 70 41
3 48 49 112
3 112 49 46
3 45 112 113
3 48 112 113
3 45 48 113
3 112 46 45
3 114 89 88
3 114 101 88
3 88 89 101
3 101 100 89
3 89 114 115
3 115 100 89
3 101 107 114
3 107 101 100
3 106 107 114
3 100 106 107
3 106 114 115
3 115 106 100
3 115 114 5
3 5 34 115
3 2 5 114
3 2 5 34
3 114 30 2
3 34 30 2
3 33 35 114
3 35 34 33
3 33 114 115
3 115 34 33
3 114 35 30
3 35 34 30
3 117 116 95
3 97 116 117
3 95 97 117
3 96 97 116
3 97 96 95
3 116 95 94
3 116 96 94
3 96 95 94
3 119 118 99
3 119 118 79
3 79 99 119
3 118 81 79
3 99 81 79
3 98 99 118
3 81 98 118
3 81 98 99
3 72 76 120
3 76 74 72
3 121 120 77
3 121 77 74
3 120 77 76
3 74 76 77
3 120 73 72
3 74 73 72
3 75 120 121
3 74 75 121
3 73 75 120
3 73 74 75
3 82 80 78
3 123 122 82
3 123 82 78
3 80 83 122
3 122 83 82
3 80 82 83
3 76 122 123
3 31 76 123
3 122 77 32
3 76 77 122
3 32 80 122
3 80 32 31
3 123 78 31
3 80 78 31
3 124 85 84
3 63 84 85
3 84 124 125
3 63 84 125
3 124 85 62
3 62 63 85
3 69 68 63
3 125 68 63
3 124 69 62
3 62 63 69
3 87 69 68
3 125 124 87
3 125 87 68
3 86 87 124
3 124 86 69
3 87 86 69
3 113 126 127
3 48 113 127
3 48 49 113
3 126 113 112
3 126 112 49
3 113 112 49
3 127 60 48
3 48 49 60
3 49 58 126
3 60 58 49
3 128 127 126
3 60 127 128
3 129 126 58
3 129 128 126
3 45 130 131
3 45 113 131
3 45 46 130
3 113 46 45
3 130 112 46
3 113 112 46
3 131 130 127
3 131 127 113
3 127 113 112
3 112 126 130
3 126 127 130
3 112 126 127
3 133 132 89
3 89 111 133
3 88 89 132
3 132 109 88
3 132 39 37
3 132 40 39
3 40 132 133
3 133 41 40
3 133 111 41
3 37 109 132
3 134 117 97
3 117 97 96
3 134 117 116
3 117 116 96
3 135 134 116
3 96 116 135
3 136 134 97
3 96 135 137
3 128 134 138
3 128 129 134
3 129 134 135
3 139 135 129
3 134 136 138
3 139 137 135
3 9 10 140
3 141 140 12
3 11 12 141
3 140 12 9
3 10 95 140
3 95 11 10
3 141 140 94
3 141 94 11
3 140 95 94
3 95 94 11
3 143 144 145
3 146 144 142
3 143 144 146
3 142 144 147
3 147 145 142
3 144 145 147
3 149 148 142
3 142 145 149
3 149 148 145
3 148 146 142
3 143 146 148
3 143 145 148
3 150 71 37
3 41 70 151
3 71 104 150
3 71 104 105
3 70 105 151
3 105 71 70
3 151 150 42
3 151 42 41
3 150 43 42
3 37 43 150
3 86 87 105
3 151 105 86
3 150 104 87
3 87 104 105
3 87 125 150
3 86 87 125
3 150 125 124
3 125 124 86
3 151 150 124
3 86 124 151
3 2 5 107
3 2 107 153
3 152 106 5
3 107 106 5
3 152 115 5
3 2 5 115
3 2 114 153
3 2 114 115
3 152 115 106
3 106 107 115
3 153 114 107
3 107 114 115
3 154 141 94
3 141 95 94
3 95 140 155
3 95 140 141
3 117 95 94
3 117 154 155
3 95 117 155
3 154 116 94
3 154 117 116
3 117 116 94
3 12 141 154
3 141 12 9
3 155 140 9
3 141 140 9
3 154 13 8
3 8 9 13
3 155 154 8
3 155 9 8
3 154 13 12
3 9 12 13
3 156 57 56
3 57 156 157
3 54 156 157
3 54 57 157
3 156 54 52
3 156 56 52
3 159 158 156
3 160 159 156
3 156 157 160
3 161 160 157
3 163 158 156
3 163 162 156
3 156 157 162
3 157 161 162
3 166 165 164
3 146 165 166
3 164 165 167
3 167 165 146
3 166 164 142
3 142 146 166
3 164 149 142
3 142 146 149
3 167 164 148
3 146 148 167
3 164 149 148
3 149 148 146
3 168 161 158
3 160 161 168
3 169 168 158
3 158 159 169
3 170 169 168
3 159 169 170
3 168 170 171
3 160 168 171
3 52 54 157
3 157 172 173
3 54 157 173
3 172 157 156
3 172 156 52
3 52 156 157
3 52 53 172
3 173 172 55
3 173 55 54
3 53 55 172
3 177 175 174
3 174 175 178
3 174 178 179
3 179 178 176
3 158 169 174
3 174 161 158
3 169 161 158
3 168 169 174
3 169 168 161
3 179 174 168
3 161 174 179
3 179 168 161
3 165 166 174
3 165 174 179
3 179 176 165
3 177 174 166
3 3 96 181
3 180 97 4
3 97 180 182
3 183 181 96
3 4 56 180
3 181 57 3
3 56 57 157
3 181 157 57
3 56 156 180
3 56 156 157
3 156 159 180
3 156 157 159
3 181 160 157
3 157 159 160
3 182 180 170
3 170 171 182
3 171 181 183
3 183 182 171
3 159 170 180
3 181 171 160
3 97 182 184
3 185 184 183
3 185 183 96
3 182 183 184
3 96 137 185
3 184 136 97
3 184 138 136
3 137 139 185
3 58 184 185
3 185 129 58
3 58 60 184
3 60 128 184
3 185 139 129
3 128 138 184
3 162 163 186
3 163 162 157
3 162 186 187
3 187 162 157
3 186 163 156
3 156 157 163
3 156 172 186
3 156 172 173
3 157 173 187
3 156 157 173
3 53 55 173
3 187 173 55
3 186 172 53
3 173 172 53
3 186 188 189
3 188 186 53
3 189 188 53
3 189 187 186
3 55 187 189
3 53 55 189
3 148 167 190
3 190 149 148
3 167 149 148
3 191 190 164
3 149 190 191
3 149 164 191
3 190 167 164
3 149 164 167
3 193 195 196
3 194 195 196
3 193 194 195
3 197 196 194
3 197 194 192
3 192 193 194
3 185 183 182
3 185 196 197
3 183 185 197
3 196 185 184
3 196 184 182
3 185 184 182
3 182 193 196
3 193 183 182
3 193 192 183
3 197 192 183
3 185 60 58
3 58 185 199
3 60 184 198
3 60 184 185
3 195 194 61
3 199 194 61
3 198 195 59
3 195 61 59
3 59 60 198
3 61 60 59
3 199 61 58
3 61 60 58
3 184 185 197
3 199 197 185
3 184 196 198
3 184 196 197
3 194 195 197
3 199 197 194
3 198 196 195
3 197 196 195
3 201 200 175
3 175 177 201
3 200 178 175
3 176 178 200
3 200 189 187
3 188 189 200
3 187 188 189
3 201 200 186
3 188 200 201
3 186 188 201
3 186 187 200
3 188 187 186
3 202 201 200
3 177 201 202
3 200 202 203
3 203 200 176
3 187 163 162
3 162 187 205
3 163 186 204
3 163 186 187
3 186 201 204
3 186 187 201
3 201 200 187
3 205 200 187
3 204 201 175
3 175 178 201
3 178 200 205
3 201 200 178
3 175 178 179
3 205 179 178
3 204 175 174
3 174 175 179
3 204 174 158
3 158 174 179
3 161 179 205
3 158 161 179
3 205 162 161
3 158 163 204
3 206 202 191
3 190 203 207
3 166 177 206
3 207 176 165
3 207 203 176
3 177 202 206
3 206 191 164
3 164 167 191
3 207 190 167
3 191 190 167
3 165 166 167
3 207 167 165
3 164 166 206
3 164 166 167
3 149 191 208
3 191 149 148
3 209 190 148
3 191 190 148
3 208 188 149
3 149 188 189
3 148 189 209
3 148 149 189
3 188 201 208
3 188 189 201
3 189 200 209
3 189 200 201
3 209 203 190
3 191 202 208
3 201 202 208
3 201 202 203
3 203 201 200
3 200 203 209
