ply
format ascii 1.0
comment Created by Open3D
element vertex 196
property double x
property double y
property double z
element face 700
property list uchar uint vertex_indices
end_header
490329 5.45372e+06 101.661
490332 5.45371e+06 101.661
490332 5.45371e+06 111.732
490339 5.45373e+06 101.661
490339 5.45373e+06 111.732
490329 5.45372e+06 111.732
490344 5.45371e+06 111.732
490344 5.45371e+06 101.661
490339 5.45371e+06 111.732
490339 5.45371e+06 101.661
490344 5.45371e+06 101.661
490344 5.45371e+06 111.732
490343 5.45371e+06 101.661
490343 5.45371e+06 111.732
490343 5.45371e+06 101.661
490343 5.45371e+06 111.732
490337 5.45373e+06 101.661
490335 5.45373e+06 101.661
490333 5.45373e+06 101.661
490333 5.45373e+06 111.732
490335 5.45373e+06 111.732
490337 5.45373e+06 111.732
490330 5.45372e+06 111.732
490330 5.45372e+06 101.661
490344 5.45371e+06 111.732
490344 5.45371e+06 111.732
490344 5.45371e+06 101.661
490344 5.45371e+06 101.661
490345 5.45372e+06 111.732
490345 5.45372e+06 101.661
490340 5.45373e+06 101.661
490345 5.45372e+06 101.661
490345 5.45372e+06 111.732
490340 5.45373e+06 111.732
490329 5.45372e+06 111.732
490329 5.45372e+06 101.661
490328 5.45372e+06 101.661
490328 5.45372e+06 111.732
490342 5.45371e+06 101.661
490342 5.45371e+06 111.732
490341 5.45371e+06 101.661
490341 5.45371e+06 111.732
490330 5.45373e+06 111.732
490330 5.45373e+06 101.661
490330 5.45373e+06 101.661
490330 5.45373e+06 111.732
490344 5.45373e+06 111.732
490344 5.45373e+06 101.661
490345 5.45373e+06 101.661
490345 5.45373e+06 101.661
490345 5.45373e+06 111.732
490345 5.45373e+06 111.732
490342 5.45373e+06 111.732
490342 5.45373e+06 111.732
490342 5.45373e+06 101.661
490345 5.45372e+06 111.732
490342 5.45373e+06 101.661
490345 5.45372e+06 101.661
490343 5.45373e+06 111.732
490343 5.45373e+06 101.661
490345 5.45372e+06 111.732
490345 5.45372e+06 111.732
490345 5.45372e+06 101.661
490345 5.45372e+06 101.661
490345 5.45372e+06 101.661
490345 5.45372e+06 111.732
490341 5.45371e+06 111.732
490341 5.45371e+06 101.661
490345 5.45372e+06 101.661
490345 5.45372e+06 111.732
490345 5.45372e+06 111.732
490345 5.45372e+06 101.661
490345 5.45372e+06 101.661
490345 5.45372e+06 111.732
490337 5.45373e+06 111.732
490337 5.45373e+06 101.661
490339 5.45373e+06 111.732
490341 5.45373e+06 111.732
490341 5.45373e+06 101.661
490339 5.45373e+06 101.661
490344 5.45371e+06 111.732
490344 5.45371e+06 101.661
490340 5.45373e+06 111.732
490340 5.45373e+06 101.661
490328 5.45372e+06 101.661
490328 5.45372e+06 111.732
490329 5.45372e+06 111.732
490329 5.45372e+06 101.661
490337 5.45371e+06 101.661
490337 5.45371e+06 111.732
490333 5.45373e+06 111.732
490332 5.45373e+06 101.661
490333 5.45373e+06 101.661
490331 5.45373e+06 101.661
490331 5.45373e+06 111.732
490332 5.45373e+06 111.732
490330 5.45372e+06 111.732
490330 5.45372e+06 101.661
490345 5.45373e+06 111.732
490345 5.45373e+06 101.661
490345 5.45373e+06 101.661
490345 5.45373e+06 111.732
490345 5.45373e+06 111.732
490345 5.45373e+06 101.661
490338 5.45373e+06 101.661
490338 5.45373e+06 111.732
490345 5.45372e+06 101.661
490345 5.45372e+06 111.732
490345 5.45372e+06 101.661
490345 5.45372e+06 111.732
490345 5.45373e+06 101.661
490345 5.45373e+06 111.732
490345 5.45372e+06 101.661
490345 5.45372e+06 111.732
490345 5.45371e+06 111.732
490345 5.45371e+06 101.661
490345 5.45373e+06 111.732
490345 5.45373e+06 101.661
490332 5.45371e+06 111.732
490334 5.45371e+06 101.661
490334 5.45371e+06 111.732
490332 5.45371e+06 101.661
490329 5.45372e+06 101.661
490329 5.45372e+06 111.732
490328 5.45372e+06 111.732
490328 5.45372e+06 101.661
490328 5.45372e+06 101.661
490328 5.45372e+06 111.732
490339 5.45371e+06 101.661
490339 5.45371e+06 111.732
490328 5.45371e+06 101.661
490329 5.45371e+06 111.732
490328 5.45372e+06 101.661
490328 5.45372e+06 111.732
490328 5.45371e+06 111.732
490329 5.45371e+06 101.661
490328 5.45372e+06 111.732
490328 5.45372e+06 101.661
490330 5.45373e+06 101.661
490330 5.45373e+06 111.732
490328 5.45372e+06 101.661
490328 5.45372e+06 111.732
490330 5.45373e+06 111.732
490330 5.45373e+06 101.661
490330 5.45373e+06 111.732
490330 5.45373e+06 101.661
490345 5.45372e+06 101.661
490345 5.45372e+06 111.732
490345 5.45371e+06 111.732
490345 5.45371e+06 101.661
490345 5.45371e+06 111.732
490345 5.45371e+06 101.661
490328 5.45372e+06 111.732
490328 5.45372e+06 101.661
490328 5.45372e+06 101.661
490328 5.45372e+06 111.732
490331 5.45371e+06 111.732
490331 5.45371e+06 101.661
490328 5.45372e+06 101.661
490328 5.45372e+06 111.732
490329 5.45371e+06 101.661
490328 5.45371e+06 101.661
490329 5.45371e+06 111.732
490328 5.45371e+06 111.732
490330 5.45371e+06 101.661
490330 5.45371e+06 111.732
490345 5.45372e+06 111.732
490345 5.45372e+06 101.661
490345 5.45372e+06 111.732
490345 5.45372e+06 101.661
490331 5.45371e+06 111.732
490331 5.45371e+06 101.661
490328 5.45371e+06 111.732
490328 5.45371e+06 101.661
490328 5.45371e+06 101.661
490328 5.45371e+06 111.732
490328 5.45372e+06 111.732
490328 5.45372e+06 101.661
490330 5.45371e+06 101.661
490330 5.45371e+06 111.732
490338 5.45371e+06 101.661
490338 5.45371e+06 111.732
490338 5.45371e+06 101.661
490338 5.45371e+06 111.732
490337 5.45371e+06 101.661
490337 5.45371e+06 111.732
490335 5.45371e+06 111.732
490335 5.45371e+06 111.732
490336 5.45371e+06 111.732
490336 5.45371e+06 101.661
490335 5.45371e+06 101.661
490335 5.45371e+06 101.661
490336 5.45371e+06 111.732
490336 5.45371e+06 101.661
490334 5.45371e+06 111.732
490334 5.45371e+06 101.661
3 0 1 2
3 3 1 0
3 5 4 0
3 0 2 5
3 5 4 2
3 4 3 0
3 9 8 7
3 10 7 6
3 10 9 7
3 6 7 11
3 11 8 6
3 7 8 11
3 12 10 6
3 9 10 12
3 6 12 13
3 13 8 6
3 15 14 13
3 15 14 8
3 8 13 15
3 14 12 9
3 14 9 8
3 14 13 12
3 16 17 18
3 21 20 16
3 19 20 21
3 20 17 16
3 19 21 22
3 16 18 23
3 0 16 23
3 22 21 5
3 21 16 4
3 4 5 21
3 16 4 3
3 3 4 5
3 0 3 16
3 5 3 0
3 11 24 25
3 26 25 24
3 27 26 24
3 7 26 27
3 27 24 10
3 27 10 7
3 11 10 7
3 24 10 6
3 24 11 6
3 6 10 11
3 30 29 28
3 28 29 31
3 29 30 31
3 28 31 32
3 33 30 28
3 28 32 33
3 34 5 2
3 1 2 5
3 35 34 0
3 0 1 35
3 34 5 0
3 5 1 0
3 36 35 34
3 1 35 36
3 34 36 37
3 37 34 2
3 39 38 15
3 39 38 8
3 39 15 8
3 38 9 8
3 15 9 8
3 14 15 38
3 9 14 38
3 9 14 15
3 32 40 41
3 4 32 41
3 40 31 3
3 40 32 31
3 1 2 40
3 40 3 1
3 41 40 2
3 2 4 41
3 42 43 44
3 18 42 43
3 44 43 18
3 18 19 42
3 42 44 45
3 45 42 19
3 0 42 43
3 23 42 43
3 43 23 0
3 0 5 42
3 5 22 42
3 22 23 42
3 48 47 46
3 49 47 46
3 47 48 49
3 46 49 50
3 46 48 51
3 51 50 46
3 52 53 55
3 52 56 57
3 54 56 57
3 57 55 52
3 52 53 58
3 52 56 59
3 54 56 59
3 59 58 52
3 32 60 61
3 60 62 63
3 63 62 31
3 63 61 60
3 32 41 60
3 31 32 41
3 40 60 62
3 62 40 31
3 40 41 60
3 31 40 41
3 64 65 66
3 65 64 39
3 66 65 39
3 64 66 67
3 38 64 67
3 64 39 38
3 73 72 69
3 55 69 73
3 72 71 57
3 72 71 69
3 54 57 72
3 73 55 53
3 73 72 58
3 73 58 53
3 54 59 72
3 58 59 72
3 4 21 74
3 74 4 3
3 3 4 21
3 21 16 3
3 75 74 3
3 75 16 3
3 74 21 20
3 74 20 17
3 17 20 21
3 75 74 17
3 75 17 16
3 21 17 16
3 33 76 77
3 76 77 78
3 76 78 79
3 30 78 79
3 79 76 3
3 3 31 79
3 76 4 3
3 76 32 4
3 79 31 30
3 76 33 32
3 81 80 27
3 81 27 26
3 27 26 25
3 80 25 24
3 24 27 80
3 27 25 24
3 7 80 81
3 81 26 7
3 11 25 80
3 7 11 80
3 29 57 83
3 82 55 28
3 83 57 56
3 55 56 57
3 52 55 82
3 56 55 52
3 82 77 52
3 56 78 83
3 83 30 29
3 33 30 29
3 28 33 82
3 33 29 28
3 83 78 30
3 33 77 82
3 84 36 35
3 84 37 36
3 37 36 35
3 34 35 84
3 34 35 37
3 34 84 85
3 37 84 85
3 34 37 85
3 0 5 35
3 35 86 87
3 87 35 0
3 86 35 34
3 86 34 5
3 35 34 5
3 0 5 43
3 0 43 87
3 5 42 86
3 43 42 5
3 86 45 44
3 45 44 43
3 87 86 44
3 43 44 87
3 42 45 86
3 42 43 45
3 40 41 88
3 1 40 88
3 1 40 41
3 41 88 89
3 89 88 2
3 89 41 2
3 1 2 88
3 1 2 41
3 91 92 93
3 95 94 90
3 94 90 20
3 94 20 17
3 93 92 17
3 17 93 94
3 92 18 17
3 19 20 90
3 92 44 18
3 90 45 19
3 92 91 44
3 95 90 45
3 18 23 97
3 96 22 19
3 43 19 18
3 18 43 97
3 19 42 96
3 19 42 43
3 23 43 97
3 22 23 43
3 96 42 22
3 43 42 22
3 100 99 98
3 49 99 100
3 49 50 99
3 98 99 101
3 50 98 101
3 101 99 50
3 47 49 100
3 50 49 47
3 46 50 98
3 46 47 50
3 98 58 46
3 47 59 100
3 100 59 56
3 59 58 56
3 52 58 98
3 52 56 58
3 98 77 52
3 98 78 77
3 100 98 78
3 56 78 100
3 47 102 103
3 103 102 48
3 103 48 47
3 48 51 102
3 51 48 47
3 102 51 46
3 102 47 46
3 46 47 51
3 78 79 104
3 79 78 77
3 76 77 79
3 76 77 105
3 104 75 3
3 75 4 3
3 4 74 105
3 4 74 75
3 104 79 3
3 79 4 3
3 4 76 79
3 4 76 105
3 17 75 104
3 104 20 17
3 75 20 17
3 75 74 20
3 20 104 105
3 105 74 20
3 104 100 78
3 100 78 77
3 98 100 104
3 100 98 77
3 105 104 98
3 77 98 105
3 70 106 107
3 65 70 107
3 106 68 64
3 106 70 68
3 106 67 66
3 65 66 67
3 107 106 66
3 65 66 107
3 106 67 64
3 64 65 67
3 40 62 108
3 40 41 62
3 62 60 41
3 109 60 41
3 109 70 60
3 60 62 70
3 62 68 108
3 62 68 70
3 41 70 109
3 108 68 40
3 73 110 111
3 58 73 111
3 58 59 73
3 110 72 59
3 72 73 110
3 73 72 59
3 46 58 111
3 110 59 47
3 47 103 110
3 103 47 46
3 110 103 102
3 46 102 103
3 111 110 102
3 111 102 46
3 61 112 113
3 32 61 113
3 112 63 31
3 61 63 112
3 112 31 29
3 29 31 32
3 113 112 28
3 28 32 113
3 112 29 28
3 32 29 28
3 10 114 115
3 10 27 115
3 114 10 6
3 27 10 6
3 114 24 6
3 27 24 6
3 81 114 115
3 27 81 115
3 24 27 81
3 114 80 24
3 114 81 80
3 81 80 24
3 117 116 49
3 117 49 48
3 116 50 49
3 50 51 116
3 103 116 117
3 48 103 117
3 103 51 48
3 51 102 116
3 116 103 102
3 51 102 103
3 118 119 120
3 121 119 118
3 121 118 1
3 1 119 121
3 2 118 120
3 118 2 1
3 122 37 36
3 37 122 123
3 123 37 2
3 1 36 122
3 122 121 1
3 121 2 1
3 123 122 118
3 2 118 123
3 122 121 118
3 121 118 2
3 124 85 37
3 36 37 85
3 36 84 125
3 36 84 85
3 124 125 126
3 126 125 84
3 126 85 84
3 85 124 127
3 124 126 127
3 85 126 127
3 37 123 124
3 123 37 36
3 125 122 36
3 36 122 123
3 118 121 124
3 124 123 118
3 123 121 118
3 123 122 121
3 125 124 121
3 121 122 125
3 40 41 128
3 128 67 40
3 129 128 41
3 41 66 129
3 9 38 128
3 9 38 39
3 8 128 129
3 129 39 8
3 128 9 8
3 39 9 8
3 38 67 128
3 129 66 39
3 133 132 130
3 134 131 130
3 130 133 134
3 131 133 134
3 130 131 135
3 135 132 130
3 34 85 136
3 136 35 34
3 85 35 34
3 84 85 136
3 35 84 85
3 84 136 137
3 35 136 137
3 137 84 35
3 84 85 140
3 140 137 84
3 84 85 137
3 141 140 136
3 141 140 85
3 141 136 85
3 136 137 140
3 137 136 85
3 143 142 93
3 143 93 91
3 142 94 93
3 142 95 94
3 138 142 143
3 91 138 143
3 142 139 95
3 138 139 142
3 44 91 145
3 144 95 45
3 145 138 91
3 144 139 95
3 145 87 44
3 44 45 87
3 45 86 144
3 87 86 45
3 87 138 145
3 138 87 86
3 86 139 144
3 139 138 86
3 147 66 41
3 40 67 146
3 147 107 66
3 107 67 66
3 67 106 146
3 107 106 67
3 147 70 41
3 40 68 146
3 147 107 70
3 107 70 68
3 68 106 146
3 107 106 68
3 149 148 68
3 149 148 64
3 64 68 149
3 64 65 148
3 65 70 148
3 148 70 68
3 148 15 13
3 12 13 148
3 15 13 12
3 14 148 149
3 149 148 12
3 12 14 149
3 148 15 14
3 12 14 15
3 115 150 151
3 10 115 151
3 115 10 6
3 150 114 6
3 150 115 114
3 115 114 6
3 151 12 10
3 13 12 10
3 150 13 6
3 13 10 6
3 149 150 151
3 12 149 151
3 12 13 149
3 150 148 13
3 150 149 148
3 149 148 13
3 152 133 132
3 132 152 154
3 132 153 154
3 155 152 133
3 152 155 156
3 152 154 157
3 157 154 153
3 157 156 152
3 132 133 134
3 134 158 159
3 159 134 133
3 158 134 130
3 130 132 158
3 134 132 130
3 132 154 158
3 154 133 132
3 154 152 133
3 133 152 159
3 126 154 158
3 158 127 126
3 127 158 159
3 159 152 127
3 160 120 119
3 119 160 161
3 119 120 161
3 120 160 162
3 160 162 163
3 120 162 163
3 163 161 160
3 163 161 120
3 160 135 130
3 130 134 160
3 130 134 135
3 162 160 134
3 131 160 162
3 131 134 162
3 131 135 160
3 131 134 135
3 165 164 156
3 165 156 155
3 156 157 164
3 153 157 164
3 132 153 164
3 164 133 132
3 133 164 165
3 165 155 133
3 28 113 166
3 113 29 28
3 167 112 29
3 113 112 29
3 71 112 113
3 71 112 167
3 166 113 69
3 69 71 113
3 166 69 55
3 57 71 167
3 29 57 167
3 166 55 28
3 64 65 149
3 169 149 64
3 65 148 168
3 149 148 65
3 149 15 14
3 169 149 14
3 15 148 168
3 15 148 149
3 39 65 168
3 65 39 38
3 169 64 38
3 65 64 38
3 39 38 14
3 169 38 14
3 15 39 168
3 39 15 14
3 170 120 118
3 118 120 121
3 171 121 119
3 119 120 121
3 125 121 118
3 171 125 121
3 118 124 170
3 125 124 118
3 124 127 170
3 127 125 124
3 126 170 171
3 171 126 125
3 126 127 170
3 125 126 127
3 156 165 170
3 156 157 170
3 156 157 165
3 157 170 171
3 171 164 157
3 165 164 157
3 170 165 120
3 171 164 119
3 134 159 172
3 159 134 130
3 172 159 158
3 130 158 159
3 173 172 158
3 173 158 130
3 172 162 134
3 130 134 162
3 130 160 162
3 130 160 173
3 172 163 162
3 161 162 163
3 162 161 160
3 160 161 173
3 172 173 174
3 174 173 161
3 161 163 174
3 172 174 175
3 163 172 175
3 175 174 163
3 177 154 126
3 127 152 176
3 152 156 176
3 152 154 156
3 177 157 154
3 154 156 157
3 156 170 176
3 156 170 171
3 177 171 157
3 156 157 171
3 176 170 127
3 171 170 127
3 126 171 177
3 126 127 171
3 162 120 119
3 179 162 120
3 178 160 119
3 119 160 162
3 135 160 178
3 135 160 162
3 131 162 179
3 162 135 131
3 119 164 178
3 120 165 179
3 178 164 132
3 165 164 132
3 179 165 133
3 165 133 132
3 132 135 178
3 179 133 131
3 9 128 180
3 9 128 129
3 181 129 8
3 129 9 8
3 9 180 182
3 183 181 8
3 128 180 182
3 183 181 129
3 185 183 129
3 128 182 184
3 88 89 184
3 184 88 40
3 89 88 40
3 185 184 89
3 41 89 185
3 40 41 89
3 40 41 129
3 185 129 41
3 40 128 184
3 40 128 129
3 184 9 8
3 185 184 8
3 185 183 8
3 184 182 9
3 188 187 186
3 189 188 186
3 187 188 189
3 186 190 191
3 186 189 190
3 189 190 191
3 191 187 186
3 187 189 191
3 88 89 186
3 1 88 89
3 190 186 88
3 1 186 190
3 1 88 190
3 2 89 186
3 1 2 186
3 1 2 89
3 192 185 89
3 88 89 185
3 88 184 193
3 88 184 185
3 88 89 190
3 193 190 88
3 192 186 89
3 190 186 89
3 190 189 188
3 193 190 189
3 192 188 186
3 190 188 186
3 192 185 8
3 185 9 8
3 9 184 193
3 185 184 9
3 8 188 192
3 189 188 8
3 193 189 9
3 8 9 189
3 186 187 194
3 190 187 186
3 195 191 190
3 187 190 191
3 194 187 120
3 119 120 187
3 119 191 195
3 119 187 191
3 195 119 1
3 2 120 194
3 1 2 190
3 1 190 195
3 194 186 2
3 190 186 2
