ply
format ascii 1.0
comment Created by Open3D
element vertex 236
property double x
property double y
property double z
element face 856
property list uchar uint vertex_indices
end_header
490276 5.45376e+06 103.218
490288 5.45376e+06 113.288
490276 5.45376e+06 113.288
490287 5.45376e+06 113.288
490288 5.45376e+06 103.218
490287 5.45376e+06 103.218
490288 5.45376e+06 113.288
490289 5.45376e+06 103.218
490288 5.45376e+06 103.218
490289 5.45376e+06 113.288
490286 5.45376e+06 113.288
490286 5.45376e+06 103.218
490289 5.45375e+06 113.288
490289 5.45375e+06 103.218
490289 5.45375e+06 103.218
490298 5.45375e+06 113.288
490298 5.45375e+06 103.218
490287 5.45375e+06 113.288
490289 5.45375e+06 113.288
490287 5.45375e+06 103.218
490291 5.45375e+06 103.218
490291 5.45375e+06 113.288
490295 5.45375e+06 113.288
490296 5.45375e+06 113.288
490296 5.45375e+06 103.218
490295 5.45375e+06 103.218
490276 5.45376e+06 103.218
490275 5.45376e+06 113.288
490276 5.45376e+06 113.288
490275 5.45376e+06 103.218
490284 5.45376e+06 113.288
490283 5.45375e+06 103.218
490283 5.45375e+06 113.288
490284 5.45376e+06 103.218
490278 5.45376e+06 113.288
490275 5.45376e+06 113.288
490275 5.45376e+06 113.288
490275 5.45376e+06 103.218
490275 5.45376e+06 103.218
490278 5.45376e+06 103.218
490277 5.45376e+06 113.288
490277 5.45376e+06 113.288
490277 5.45376e+06 103.218
490277 5.45376e+06 103.218
490298 5.45376e+06 103.218
490298 5.45376e+06 113.288
490298 5.45376e+06 113.288
490298 5.45376e+06 103.218
490295 5.45376e+06 103.218
490295 5.45376e+06 113.288
490292 5.45375e+06 113.288
490292 5.45375e+06 103.218
490288 5.45375e+06 113.288
490288 5.45375e+06 103.218
490288 5.45375e+06 103.218
490288 5.45375e+06 113.288
490285 5.45375e+06 113.288
490285 5.45375e+06 103.218
490275 5.45376e+06 103.218
490275 5.45376e+06 113.288
490275 5.45376e+06 103.218
490275 5.45375e+06 113.288
490275 5.45376e+06 113.288
490275 5.45375e+06 103.218
490277 5.45375e+06 103.218
490277 5.45375e+06 113.288
490275 5.45376e+06 113.288
490275 5.45376e+06 103.218
490295 5.45375e+06 103.218
490295 5.45375e+06 113.288
490298 5.45376e+06 103.218
490298 5.45376e+06 113.288
490298 5.45375e+06 103.218
490298 5.45375e+06 113.288
490298 5.45376e+06 113.288
490298 5.45376e+06 103.218
490298 5.45376e+06 103.218
490298 5.45376e+06 113.288
490298 5.45375e+06 103.218
490298 5.45375e+06 113.288
490287 5.45376e+06 103.218
490287 5.45376e+06 113.288
490277 5.45376e+06 113.288
490277 5.45376e+06 103.218
490275 5.45376e+06 103.218
490275 5.45376e+06 113.288
490277 5.45375e+06 103.218
490277 5.45375e+06 113.288
490279 5.45376e+06 113.288
490279 5.45376e+06 103.218
490290 5.45376e+06 113.288
490290 5.45376e+06 103.218
490293 5.45376e+06 103.218
490293 5.45376e+06 113.288
490293 5.45376e+06 113.288
490292 5.45376e+06 113.288
490293 5.45376e+06 103.218
490292 5.45376e+06 103.218
490293 5.45375e+06 103.218
490293 5.45375e+06 113.288
490276 5.45376e+06 103.218
490276 5.45376e+06 113.288
490275 5.45376e+06 113.288
490275 5.45376e+06 103.218
490289 5.45376e+06 113.288
490289 5.45376e+06 103.218
490289 5.45376e+06 103.218
490289 5.45376e+06 113.288
490288 5.45375e+06 113.288
490288 5.45375e+06 103.218
490293 5.45375e+06 103.218
490293 5.45375e+06 103.218
490293 5.45375e+06 113.288
490293 5.45375e+06 113.288
490276 5.45375e+06 113.288
490276 5.45375e+06 103.218
490276 5.45375e+06 103.218
490276 5.45375e+06 113.288
490287 5.45375e+06 113.288
490287 5.45375e+06 103.218
490286 5.45375e+06 113.288
490286 5.45375e+06 103.218
490296 5.45375e+06 103.218
490296 5.45375e+06 113.288
490298 5.45376e+06 113.288
490298 5.45376e+06 103.218
490296 5.45375e+06 113.288
490296 5.45375e+06 103.218
490296 5.45375e+06 103.218
490296 5.45375e+06 113.288
490294 5.45375e+06 103.218
490294 5.45375e+06 113.288
490294 5.45375e+06 113.288
490294 5.45375e+06 103.218
490282 5.45375e+06 113.288
490283 5.45375e+06 113.288
490285 5.45375e+06 113.288
490285 5.45375e+06 103.218
490282 5.45375e+06 103.218
490283 5.45375e+06 103.218
490279 5.45375e+06 103.218
490279 5.45375e+06 113.288
490279 5.45375e+06 113.288
490279 5.45375e+06 103.218
490279 5.45375e+06 113.288
490279 5.45375e+06 103.218
490299 5.45376e+06 113.288
490299 5.45376e+06 103.218
490297 5.45376e+06 103.218
490297 5.45376e+06 103.218
490296 5.45376e+06 103.218
490296 5.45376e+06 113.288
490297 5.45376e+06 113.288
490297 5.45376e+06 113.288
490296 5.45376e+06 113.288
490296 5.45376e+06 103.218
490292 5.45375e+06 103.218
490292 5.45375e+06 113.288
490290 5.45376e+06 113.288
490290 5.45376e+06 103.218
490294 5.45376e+06 103.218
490294 5.45376e+06 113.288
490298 5.45376e+06 113.288
490298 5.45376e+06 103.218
490297 5.45375e+06 113.288
490298 5.45375e+06 113.288
490297 5.45375e+06 103.218
490298 5.45375e+06 103.218
490297 5.45375e+06 113.288
490297 5.45375e+06 103.218
490297 5.45375e+06 103.218
490297 5.45375e+06 113.288
490295 5.45376e+06 113.288
490295 5.45376e+06 103.218
490283 5.45376e+06 113.288
490283 5.45376e+06 103.218
490283 5.45376e+06 103.218
490283 5.45376e+06 113.288
490282 5.45376e+06 113.288
490282 5.45376e+06 103.218
490278 5.45376e+06 103.218
490278 5.45376e+06 113.288
490281 5.45375e+06 103.218
490281 5.45375e+06 113.288
490281 5.45375e+06 113.288
490281 5.45375e+06 103.218
490278 5.45375e+06 103.218
490278 5.45375e+06 113.288
490279 5.45376e+06 103.218
490279 5.45376e+06 113.288
490279 5.45376e+06 113.288
490279 5.45376e+06 103.218
490291 5.45376e+06 113.288
490291 5.45376e+06 103.218
490298 5.45376e+06 103.218
490298 5.45376e+06 113.288
490298 5.45376e+06 103.218
490298 5.45376e+06 113.288
490294 5.45376e+06 103.218
490294 5.45376e+06 113.288
490286 5.45375e+06 113.288
490286 5.45375e+06 103.218
490285 5.45375e+06 103.218
490285 5.45375e+06 113.288
490298 5.45375e+06 113.288
490298 5.45375e+06 103.218
490296 5.45375e+06 113.288
490296 5.45375e+06 103.218
490280 5.45376e+06 103.218
490281 5.45376e+06 113.288
490280 5.45376e+06 113.288
490281 5.45376e+06 103.218
490282 5.45376e+06 103.218
490282 5.45376e+06 113.288
490281 5.45375e+06 103.218
490281 5.45375e+06 113.288
490281 5.45376e+06 103.218
490280 5.45376e+06 113.288
490281 5.45376e+06 113.288
490280 5.45376e+06 103.218
490279 5.45376e+06 113.288
490279 5.45376e+06 103.218
490298 5.45376e+06 103.218
490298 5.45376e+06 113.288
490299 5.45376e+06 113.288
490299 5.45376e+06 103.218
490298 5.45376e+06 113.288
490298 5.45376e+06 103.218
490298 5.45375e+06 113.288
490298 5.45375e+06 103.218
490280 5.45375e+06 113.288
490280 5.45375e+06 103.218
490290 5.45376e+06 103.218
490290 5.45376e+06 113.288
490285 5.45375e+06 113.288
490285 5.45375e+06 103.218
3 8 7 6
3 4 7 8
3 6 7 9
3 9 7 4
3 9 6 1
3 9 4 1
3 8 5 4
3 6 3 1
3 4 3 1
3 3 4 5
3 3 6 10
3 11 10 6
3 6 8 11
3 11 8 5
3 13 12 8
3 11 12 13
3 13 11 8
3 12 11 10
3 11 10 8
3 6 10 12
3 12 8 6
3 10 8 6
3 21 20 14
3 13 14 20
3 14 13 12
3 18 14 12
3 21 18 14
3 21 18 12
3 18 22 23
3 24 23 22
3 24 23 18
3 22 18 14
3 24 18 14
3 25 22 14
3 22 24 25
3 25 24 14
3 26 27 28
3 2 26 28
3 28 27 2
3 29 27 26
3 26 2 0
3 29 26 0
3 32 31 30
3 11 30 33
3 30 31 33
3 33 31 11
3 30 11 10
3 32 30 10
3 36 35 34
3 37 36 34
3 34 35 38
3 34 38 39
3 39 37 34
3 39 38 37
3 40 42 43
3 26 42 43
3 40 41 42
3 41 40 28
3 40 29 27
3 27 28 40
3 27 28 29
3 26 28 29
3 29 40 43
3 43 29 26
3 48 47 44
3 47 46 44
3 44 45 49
3 46 45 44
3 45 46 49
3 49 48 44
3 18 21 50
3 20 21 50
3 21 20 18
3 50 18 14
3 14 18 20
3 14 50 51
3 51 50 20
3 51 20 14
3 52 19 17
3 52 53 54
3 19 52 54
3 19 53 54
3 55 53 52
3 17 52 55
3 10 32 56
3 57 56 31
3 57 31 11
3 56 32 31
3 13 11 10
3 11 13 57
3 56 12 10
3 13 12 10
3 53 55 56
3 53 54 55
3 53 56 57
3 57 54 53
3 56 55 52
3 55 54 52
3 13 54 57
3 56 52 12
3 64 58 38
3 65 62 58
3 35 62 65
3 58 64 65
3 58 66 67
3 58 62 66
3 66 62 35
3 38 58 67
3 23 24 68
3 24 25 68
3 23 24 25
3 68 25 22
3 25 23 22
3 22 68 69
3 69 68 23
3 69 23 22
3 73 72 71
3 77 76 71
3 77 73 71
3 76 75 71
3 76 75 72
3 71 72 75
3 72 76 78
3 76 78 79
3 79 77 76
3 79 77 73
3 10 11 80
3 10 80 81
3 3 80 81
3 3 10 81
3 3 5 80
3 80 11 5
3 42 82 83
3 37 42 83
3 82 42 41
3 82 41 36
3 83 82 39
3 83 39 37
3 39 37 36
3 34 39 82
3 82 36 34
3 39 36 34
3 85 66 35
3 38 67 84
3 84 67 29
3 67 66 29
3 27 66 85
3 27 29 66
3 35 36 85
3 37 38 84
3 29 43 84
3 43 29 27
3 85 40 27
3 43 40 27
3 84 43 42
3 41 42 43
3 85 41 40
3 40 41 43
3 36 41 85
3 84 42 37
3 86 38 35
3 86 64 38
3 87 86 35
3 65 86 87
3 35 65 87
3 64 65 86
3 39 88 89
3 38 39 89
3 35 38 39
3 34 39 88
3 34 35 88
3 34 35 39
3 35 87 88
3 87 38 35
3 88 87 86
3 87 86 38
3 89 88 86
3 89 86 38
3 94 93 92
3 93 94 95
3 96 94 92
3 97 96 92
3 94 96 98
3 96 97 98
3 99 95 94
3 94 98 99
3 101 100 2
3 2 27 101
3 0 2 100
3 100 29 0
3 102 29 27
3 102 101 100
3 27 101 102
3 103 100 29
3 103 102 100
3 29 102 103
3 7 8 9
3 7 8 105
3 104 9 6
3 6 8 9
3 7 105 106
3 9 104 107
3 107 104 21
3 20 105 106
3 6 8 13
3 105 13 8
3 6 12 104
3 6 12 13
3 105 20 13
3 12 21 104
3 108 18 12
3 18 13 12
3 13 14 109
3 13 14 18
3 109 54 13
3 12 52 108
3 17 18 108
3 17 18 19
3 19 18 14
3 14 19 109
3 19 54 109
3 54 19 17
3 108 52 17
3 54 52 17
3 111 110 98
3 113 112 110
3 99 112 113
3 113 111 110
3 96 98 110
3 96 98 99
3 94 96 110
3 94 96 99
3 94 110 112
3 112 99 94
3 59 62 114
3 59 60 114
3 62 60 59
3 58 60 62
3 115 114 60
3 115 60 58
3 62 65 114
3 65 64 62
3 64 62 58
3 115 64 58
3 65 87 114
3 64 65 87
3 86 114 115
3 115 86 64
3 114 87 86
3 64 86 87
3 116 63 60
3 61 63 116
3 63 61 60
3 61 116 117
3 59 61 117
3 59 60 61
3 60 115 116
3 59 60 115
3 59 114 115
3 59 114 117
3 116 115 86
3 116 87 86
3 115 87 86
3 115 114 87
3 87 116 117
3 117 114 87
3 17 55 118
3 19 118 119
3 19 53 119
3 118 19 17
3 53 55 57
3 57 118 119
3 119 57 53
3 56 57 118
3 55 56 118
3 55 56 57
3 121 120 19
3 19 119 121
3 17 19 120
3 119 19 17
3 120 118 17
3 119 118 17
3 121 120 57
3 57 119 121
3 56 57 120
3 56 57 119
3 120 118 56
3 56 118 119
3 23 122 123
3 23 69 123
3 23 24 122
3 23 24 69
3 122 68 24
3 69 68 24
3 122 123 124
3 124 123 69
3 122 124 125
3 68 122 125
3 126 125 124
3 126 124 123
3 123 124 125
3 122 123 125
3 125 126 127
3 127 125 122
3 126 123 23
3 23 24 126
3 23 24 123
3 123 122 24
3 127 126 24
3 127 122 24
3 125 127 128
3 128 125 124
3 124 125 127
3 126 127 128
3 124 126 127
3 126 128 129
3 124 128 129
3 129 126 124
3 14 111 130
3 131 130 113
3 131 113 18
3 111 113 130
3 130 25 22
3 18 22 25
3 22 130 131
3 18 22 131
3 130 25 14
3 25 18 14
3 113 131 132
3 111 113 131
3 131 130 111
3 133 130 111
3 112 113 132
3 111 112 113
3 132 112 110
3 110 111 112
3 133 132 110
3 133 111 110
3 132 131 22
3 132 25 22
3 131 25 22
3 25 130 131
3 25 132 133
3 25 130 133
3 132 74 71
3 71 75 132
3 71 74 75
3 133 132 70
3 133 132 75
3 70 75 133
3 132 74 70
3 70 74 75
3 136 135 134
3 137 136 134
3 134 135 139
3 134 138 139
3 138 137 134
3 137 138 139
3 87 141 142
3 86 140 143
3 140 142 144
3 144 142 141
3 145 143 140
3 140 144 145
3 86 89 140
3 89 87 86
3 142 140 88
3 142 88 87
3 88 89 140
3 89 88 87
3 146 46 45
3 146 47 46
3 47 46 45
3 44 146 147
3 47 146 147
3 147 47 44
3 44 45 146
3 44 45 47
3 148 149 150
3 148 150 151
3 149 150 151
3 152 149 148
3 149 151 152
3 148 152 153
3 148 151 153
3 151 152 153
3 44 45 154
3 44 45 48
3 44 154 155
3 155 48 44
3 45 49 154
3 49 48 45
3 49 151 154
3 155 154 150
3 155 150 48
3 150 151 154
3 156 51 14
3 51 18 14
3 18 50 157
3 18 50 51
3 14 111 156
3 157 113 18
3 99 113 157
3 156 111 98
3 156 98 97
3 95 99 157
3 50 95 157
3 156 97 51
3 9 107 158
3 7 106 159
3 91 158 159
3 7 91 159
3 7 9 91
3 158 91 90
3 158 90 9
3 9 90 91
3 20 21 158
3 158 107 21
3 20 158 159
3 20 106 159
3 161 160 94
3 94 112 161
3 94 96 160
3 94 96 112
3 96 110 160
3 96 110 112
3 160 133 110
3 110 112 133
3 160 133 132
3 133 132 112
3 161 160 132
3 112 132 161
3 162 69 22
3 69 25 22
3 25 68 163
3 25 68 69
3 162 124 69
3 68 125 163
3 133 75 71
3 163 133 75
3 71 132 162
3 133 132 71
3 25 133 163
3 133 25 22
3 162 132 22
3 133 132 22
3 77 76 75
3 75 76 163
3 162 77 71
3 77 75 71
3 163 125 78
3 79 124 162
3 77 79 162
3 77 78 79
3 163 78 76
3 78 77 76
3 15 164 165
3 164 16 15
3 15 16 165
3 164 166 167
3 16 164 166
3 167 166 16
3 167 165 164
3 16 165 167
3 170 169 78
3 171 168 79
3 78 125 169
3 168 124 79
3 168 129 124
3 129 125 124
3 128 129 168
3 125 128 129
3 128 168 169
3 125 128 169
3 169 168 166
3 166 169 170
3 164 168 171
3 164 166 168
3 70 74 133
3 173 133 70
3 74 132 172
3 133 132 74
3 46 74 172
3 46 47 74
3 173 70 47
3 47 70 74
3 172 49 46
3 47 48 173
3 172 161 132
3 161 133 132
3 172 161 160
3 133 160 161
3 160 172 173
3 133 160 173
3 172 151 49
3 173 172 150
3 48 150 173
3 172 151 150
3 33 32 31
3 175 174 33
3 31 33 175
3 174 33 30
3 30 32 174
3 30 32 33
3 174 135 32
3 139 174 175
3 31 139 175
3 174 139 135
3 176 33 11
3 33 11 10
3 177 30 10
3 33 30 10
3 176 175 33
3 175 33 30
3 30 174 175
3 177 174 30
3 81 11 10
3 177 176 81
3 10 81 177
3 80 81 176
3 11 80 176
3 11 80 81
3 176 177 178
3 178 177 135
3 176 178 179
3 139 176 179
3 139 175 176
3 175 139 135
3 175 174 135
3 177 174 135
3 180 89 39
3 34 39 89
3 88 180 181
3 34 88 181
3 88 89 180
3 34 88 89
3 181 180 28
3 181 41 28
3 180 42 26
3 26 28 180
3 39 83 180
3 34 39 83
3 34 82 181
3 83 82 34
3 180 83 42
3 83 42 41
3 181 82 41
3 83 82 41
3 137 143 182
3 136 141 183
3 182 183 184
3 134 183 184
3 138 182 185
3 185 184 182
3 134 136 138
3 134 136 183
3 182 138 137
3 138 137 136
3 143 145 182
3 144 145 182
3 183 182 144
3 183 144 141
3 186 116 86
3 186 117 116
3 117 116 86
3 187 186 117
3 187 117 87
3 117 87 86
3 87 141 187
3 86 143 186
3 186 143 137
3 136 137 186
3 136 186 187
3 187 141 136
3 88 188 189
3 142 188 189
3 88 142 189
3 88 89 188
3 88 89 142
3 188 142 140
3 188 140 89
3 142 140 89
3 190 145 144
3 190 144 142
3 145 144 142
3 191 190 145
3 191 145 140
3 140 142 145
3 190 189 142
3 140 142 189
3 188 189 190
3 140 188 189
3 188 190 191
3 140 188 191
3 192 50 21
3 51 50 21
3 20 192 193
3 20 51 193
3 20 21 192
3 20 21 51
3 51 97 193
3 192 95 50
3 92 192 193
3 193 97 92
3 92 93 192
3 93 95 192
3 149 194 196
3 194 195 196
3 149 195 196
3 197 194 152
3 197 195 194
3 197 195 152
3 149 152 194
3 149 152 195
3 92 96 198
3 198 93 92
3 96 93 92
3 93 198 199
3 199 94 93
3 96 94 93
3 199 161 94
3 94 96 161
3 96 160 198
3 161 160 96
3 198 173 160
3 173 161 160
3 198 173 172
3 161 172 173
3 199 198 172
3 161 172 199
3 203 202 135
3 135 136 203
3 202 139 135
3 137 139 202
3 137 201 202
3 201 137 136
3 203 200 136
3 136 200 201
3 202 121 120
3 202 201 121
3 120 121 201
3 201 200 120
3 120 202 203
3 120 200 203
3 73 165 204
3 165 73 72
3 72 167 205
3 167 165 72
3 167 166 165
3 205 204 166
3 205 167 166
3 164 166 204
3 204 165 164
3 166 165 164
3 78 79 204
3 204 79 73
3 78 204 205
3 205 78 72
3 128 169 207
3 128 129 169
3 129 168 206
3 169 168 129
3 207 169 166
3 164 166 169
3 206 168 164
3 164 168 169
3 207 166 24
3 23 24 166
3 206 164 23
3 166 164 23
3 23 24 127
3 207 127 24
3 23 126 206
3 23 126 127
3 126 129 206
3 126 127 129
3 129 128 127
3 207 128 127
3 210 209 208
3 81 208 210
3 81 209 210
3 208 81 80
3 208 209 211
3 80 208 211
3 210 208 181
3 88 181 210
3 88 89 181
3 180 181 208
3 89 180 208
3 89 180 181
3 189 208 210
3 88 189 210
3 88 89 189
3 208 189 188
3 208 188 89
3 189 188 89
3 177 178 213
3 179 178 177
3 176 179 212
3 176 177 179
3 80 81 177
3 81 177 213
3 80 176 212
3 80 176 177
3 213 209 81
3 80 211 212
3 212 185 179
3 178 184 213
3 184 209 213
3 212 211 185
3 215 184 178
3 179 185 214
3 138 185 214
3 134 184 215
3 135 178 215
3 214 179 139
3 214 139 138
3 139 138 135
3 134 135 215
3 134 135 138
3 218 217 216
3 210 217 218
3 216 217 219
3 208 216 219
3 218 216 209
3 209 210 218
3 209 211 216
3 209 210 211
3 208 211 216
3 208 210 211
3 221 191 188
3 188 189 191
3 189 190 220
3 189 190 191
3 220 210 189
3 188 189 210
3 188 208 210
3 188 208 221
3 220 217 210
3 208 219 221
3 145 191 221
3 144 145 191
3 144 190 220
3 191 190 144
3 221 219 145
3 144 217 220
3 222 147 44
3 44 45 147
3 223 146 45
3 147 146 45
3 150 155 222
3 150 151 155
3 223 154 151
3 155 154 151
3 222 155 44
3 44 45 155
3 45 154 223
3 45 154 155
3 148 153 222
3 222 150 148
3 153 150 148
3 223 222 153
3 223 153 151
3 150 151 153
3 224 147 146
3 224 223 222
3 146 223 224
3 147 222 225
3 222 224 225
3 147 224 225
3 153 149 148
3 227 149 148
3 226 153 152
3 149 152 153
3 153 223 226
3 223 153 148
3 223 222 148
3 227 222 148
3 226 224 223
3 225 224 223
3 222 223 225
3 227 225 222
3 197 224 226
3 225 224 197
3 225 197 194
3 194 225 227
3 226 197 152
3 149 152 197
3 149 194 197
3 227 194 149
3 229 170 78
3 228 171 79
3 78 205 229
3 205 79 78
3 228 204 79
3 79 204 205
3 166 170 229
3 164 171 228
3 229 205 166
3 164 166 205
3 164 204 228
3 164 204 205
3 182 183 185
3 231 185 182
3 183 184 230
3 185 184 183
3 184 209 230
3 231 211 185
3 209 218 230
3 218 211 209
3 231 216 211
3 218 216 211
3 230 218 217
3 219 218 217
3 231 219 216
3 216 218 219
3 144 183 230
3 144 145 183
3 231 182 145
3 183 182 145
3 145 219 231
3 230 217 144
3 20 193 232
3 20 21 193
3 233 192 21
3 193 192 21
3 91 193 232
3 193 91 90
3 90 192 233
3 90 192 193
3 232 159 91
3 159 91 90
3 90 158 233
3 90 158 159
3 159 158 21
3 233 158 21
3 20 159 232
3 20 21 159
3 135 203 234
3 203 139 135
3 235 202 139
3 203 202 139
3 31 32 57
3 31 57 235
3 234 56 32
3 57 56 32
3 32 135 234
3 235 139 31
3 234 203 120
3 203 121 120
3 235 202 121
3 203 202 121
3 121 57 56
3 235 121 57
3 234 120 56
3 121 120 56
