ply
format ascii 1.0
comment Created by Open3D
element vertex 84
property double x
property double y
property double z
element face 256
property list uchar uint vertex_indices
end_header
490318 5.45375e+06 101.685
490322 5.45376e+06 101.685
490322 5.45376e+06 111.756
490317 5.45375e+06 101.685
490318 5.45375e+06 111.756
490317 5.45375e+06 111.756
490322 5.45376e+06 111.756
490322 5.45376e+06 101.685
490322 5.45375e+06 101.685
490322 5.45375e+06 111.756
490312 5.45375e+06 111.756
490312 5.45376e+06 111.756
490312 5.45376e+06 111.756
490312 5.45376e+06 101.685
490312 5.45375e+06 101.685
490312 5.45376e+06 101.685
490313 5.45375e+06 101.685
490313 5.45375e+06 111.756
490312 5.45376e+06 111.756
490312 5.45376e+06 101.685
490315 5.45375e+06 111.756
490315 5.45375e+06 101.685
490316 5.45375e+06 101.685
490316 5.45375e+06 111.756
490315 5.45376e+06 111.756
490315 5.45376e+06 101.685
490315 5.45375e+06 111.756
490315 5.45375e+06 101.685
490315 5.45376e+06 101.685
490313 5.45376e+06 101.685
490313 5.45376e+06 111.756
490316 5.45376e+06 101.685
490315 5.45376e+06 111.756
490316 5.45376e+06 111.756
490314 5.45376e+06 101.685
490314 5.45376e+06 111.756
490322 5.45376e+06 101.685
490318 5.45376e+06 101.685
490322 5.45376e+06 111.756
490318 5.45376e+06 111.756
490322 5.45376e+06 111.756
490322 5.45376e+06 101.685
490322 5.45376e+06 111.756
490322 5.45376e+06 101.685
490313 5.45375e+06 111.756
490313 5.45375e+06 101.685
490312 5.45376e+06 111.756
490312 5.45376e+06 101.685
490315 5.45375e+06 101.685
490315 5.45375e+06 111.756
490320 5.45375e+06 101.685
490320 5.45375e+06 111.756
490323 5.45376e+06 101.685
490321 5.45376e+06 111.756
490321 5.45376e+06 101.685
490323 5.45376e+06 111.756
490323 5.45376e+06 101.685
490323 5.45376e+06 111.756
490323 5.45376e+06 111.756
490323 5.45376e+06 101.685
490320 5.45375e+06 111.756
490320 5.45375e+06 101.685
490322 5.45375e+06 111.756
490322 5.45375e+06 101.685
490312 5.45375e+06 111.756
490312 5.45375e+06 111.756
490312 5.45375e+06 101.685
490312 5.45375e+06 101.685
490314 5.45376e+06 101.685
490314 5.45376e+06 111.756
490320 5.45376e+06 111.756
490320 5.45376e+06 101.685
490320 5.45376e+06 111.756
490320 5.45376e+06 101.685
490322 5.45376e+06 111.756
490322 5.45376e+06 101.685
490323 5.45376e+06 101.685
490323 5.45376e+06 111.756
490322 5.45375e+06 101.685
490322 5.45375e+06 101.685
490322 5.45375e+06 111.756
490322 5.45375e+06 111.756
490322 5.45375e+06 111.756
490322 5.45375e+06 101.685
3 0 1 2
3 3 1 0
3 5 4 0
3 0 2 4
3 5 4 2
3 0 3 5
3 6 5 2
3 6 5 3
3 7 6 1
3 7 6 3
3 1 3 7
3 6 2 1
3 8 2 1
3 4 2 1
3 4 8 9
3 2 8 9
3 9 4 2
3 8 4 0
3 0 1 8
3 0 1 4
3 10 11 12
3 13 11 10
3 14 13 10
3 13 14 15
3 10 14 16
3 16 15 14
3 17 16 10
3 10 12 17
3 12 15 18
3 19 18 15
3 15 16 19
3 18 17 12
3 17 18 20
3 21 19 18
3 21 19 16
3 21 20 18
3 5 23 24
3 3 22 25
3 24 23 20
3 25 22 21
3 22 23 26
3 20 23 26
3 21 22 27
3 22 26 27
3 5 4 3
3 23 22 4
3 4 5 23
3 0 4 22
3 22 3 0
3 0 3 4
3 28 29 30
3 31 29 28
3 29 30 31
3 28 30 32
3 33 32 30
3 33 31 30
3 32 28 24
3 24 32 33
3 31 28 25
3 28 25 24
3 35 34 18
3 35 30 18
3 34 29 19
3 30 29 19
3 34 19 18
3 30 19 18
3 35 34 32
3 35 32 30
3 29 30 32
3 34 32 28
3 28 29 34
3 32 29 28
3 36 37 39
3 39 38 37
3 36 39 40
3 38 39 40
3 41 37 36
3 37 38 41
3 36 42 43
3 38 42 43
3 36 40 42
3 38 40 42
3 43 41 36
3 43 41 38
3 45 44 14
3 45 16 14
3 17 16 14
3 10 14 44
3 10 17 44
3 10 14 17
3 45 21 16
3 17 20 44
3 20 26 44
3 44 27 26
3 27 44 45
3 21 27 45
3 13 46 47
3 47 15 13
3 11 12 46
3 46 13 11
3 47 46 19
3 47 19 15
3 12 15 19
3 18 19 46
3 12 18 46
3 19 18 12
3 26 48 49
3 49 26 23
3 26 27 48
3 23 26 27
3 22 27 48
3 27 23 22
3 49 48 4
3 49 23 4
3 48 4 0
3 23 4 0
3 0 22 48
3 23 22 0
3 54 53 52
3 55 53 52
3 40 53 55
3 54 52 36
3 36 52 56
3 57 56 52
3 57 55 52
3 40 55 57
3 7 58 59
3 1 7 59
3 7 2 1
3 6 7 58
3 58 6 2
3 7 6 2
3 58 9 2
3 9 2 1
3 59 58 8
3 59 8 1
3 58 9 8
3 9 8 1
3 9 8 0
3 61 8 0
3 4 9 60
3 9 4 0
3 50 4 0
3 61 60 50
3 61 50 0
3 60 51 4
3 60 51 50
3 4 50 51
3 60 62 63
3 62 60 9
3 63 62 9
3 63 61 60
3 8 61 63
3 63 9 8
3 65 64 11
3 11 13 65
3 13 66 67
3 67 65 13
3 14 13 11
3 13 14 66
3 10 11 64
3 10 11 14
3 64 44 10
3 10 44 45
3 14 45 66
3 10 14 45
3 45 65 67
3 67 66 45
3 44 64 65
3 65 45 44
3 19 21 68
3 21 20 19
3 69 20 18
3 20 19 18
3 21 25 68
3 69 24 20
3 19 34 68
3 19 34 35
3 69 35 18
3 35 19 18
3 68 34 28
3 35 34 28
3 32 35 69
3 35 32 28
3 32 25 24
3 69 32 24
3 25 28 68
3 32 28 25
3 70 6 5
3 5 6 7
3 71 7 3
3 7 5 3
3 6 70 72
3 7 71 73
3 71 31 25
3 24 33 70
3 3 25 71
3 5 24 70
3 39 37 31
3 71 37 31
3 70 39 33
3 31 33 39
3 72 70 53
3 73 71 54
3 70 40 39
3 37 39 40
3 36 37 71
3 40 37 36
3 71 54 36
3 70 53 40
3 36 40 43
3 43 74 75
3 36 43 75
3 74 42 40
3 74 43 42
3 43 42 40
3 74 57 56
3 40 57 74
3 75 74 56
3 75 56 36
3 53 54 55
3 77 55 53
3 76 54 52
3 52 54 55
3 77 72 53
3 76 73 54
3 52 59 76
3 59 55 52
3 77 58 55
3 55 58 59
3 6 72 77
3 7 73 76
3 76 59 7
3 6 7 59
3 6 58 77
3 6 58 59
3 63 78 79
3 62 63 79
3 81 80 62
3 62 79 81
3 78 63 61
3 61 62 63
3 60 62 80
3 62 61 60
3 50 61 78
3 61 51 50
3 51 60 80
3 51 60 61
3 82 51 50
3 82 80 51
3 50 78 83
3 83 82 50
3 78 79 83
3 79 82 83
3 82 81 80
3 79 81 82
