ply
format ascii 1.0
comment Created by Open3D
element vertex 44
property double x
property double y
property double z
element face 124
property list uchar uint vertex_indices
end_header
490292 5.45373e+06 103.379
490292 5.45373e+06 113.45
490292 5.45373e+06 103.379
490292 5.45373e+06 103.379
490292 5.45373e+06 113.45
490292 5.45373e+06 113.45
490288 5.45373e+06 113.45
490289 5.45373e+06 103.379
490289 5.45373e+06 113.45
490289 5.45373e+06 103.379
490288 5.45373e+06 103.379
490289 5.45373e+06 113.45
490289 5.45373e+06 103.379
490288 5.45373e+06 113.45
490288 5.45373e+06 103.379
490289 5.45373e+06 113.45
490288 5.45373e+06 103.379
490288 5.45373e+06 113.45
490287 5.45373e+06 113.45
490287 5.45373e+06 113.45
490287 5.45373e+06 103.379
490287 5.45373e+06 103.379
490287 5.45373e+06 103.379
490287 5.45373e+06 113.45
490290 5.45373e+06 113.45
490290 5.45373e+06 103.379
490290 5.45373e+06 103.379
490290 5.45373e+06 113.45
490287 5.45373e+06 103.379
490287 5.45373e+06 113.45
490292 5.45373e+06 103.379
490292 5.45373e+06 103.379
490292 5.45373e+06 113.45
490292 5.45373e+06 113.45
490290 5.45373e+06 103.379
490290 5.45373e+06 113.45
490291 5.45373e+06 103.379
490291 5.45373e+06 113.45
490290 5.45373e+06 103.379
490290 5.45373e+06 113.45
490288 5.45373e+06 103.379
490288 5.45373e+06 113.45
490287 5.45373e+06 113.45
490287 5.45373e+06 103.379
3 0 1 3
3 3 2 0
3 3 2 1
3 0 4 5
3 4 1 0
3 5 4 1
3 5 2 0
3 1 2 5
3 6 8 9
3 6 9 10
3 7 9 10
3 11 8 6
3 14 13 6
3 6 10 14
3 14 12 10
3 6 13 15
3 7 10 12
3 15 11 6
3 19 17 16
3 19 18 17
3 20 19 16
3 18 19 20
3 21 20 16
3 18 20 21
3 23 22 16
3 18 22 23
3 16 17 23
3 17 18 23
3 22 21 16
3 18 21 22
3 25 24 7
3 25 9 7
3 7 11 24
3 8 11 24
3 26 9 8
3 26 25 24
3 9 25 26
3 27 26 24
3 8 24 27
3 27 26 8
3 28 20 19
3 20 19 17
3 29 28 19
3 29 19 17
3 28 20 16
3 16 17 20
3 29 28 15
3 29 17 15
3 12 15 28
3 28 16 12
3 31 30 3
3 1 3 31
3 1 32 33
3 1 31 33
3 4 3 1
3 32 30 4
3 1 4 32
3 0 4 30
3 0 3 30
3 4 3 0
3 34 30 25
3 35 34 30
3 30 32 35
3 35 32 24
3 26 30 31
3 26 31 33
3 33 32 27
3 33 27 26
3 30 26 25
3 25 26 27
3 32 27 24
3 27 25 24
3 4 17 37
3 17 4 0
3 36 16 0
3 0 16 17
3 36 34 16
3 17 35 37
3 37 32 4
3 0 4 32
3 0 30 36
3 32 30 0
3 37 35 32
3 32 34 35
3 30 34 36
3 30 32 34
3 15 17 39
3 12 16 38
3 17 35 39
3 16 34 38
3 38 34 25
3 39 35 24
3 7 12 38
3 11 15 39
3 38 25 7
3 25 11 7
3 39 24 11
3 11 24 25
3 12 15 40
3 15 40 41
3 13 40 41
3 41 15 13
3 12 14 40
3 40 14 13
3 42 41 13
3 13 14 42
3 41 14 13
3 43 42 14
3 14 40 43
3 41 40 14
3 20 28 29
3 20 42 43
3 20 28 43
3 19 29 42
3 42 20 19
3 29 20 19
3 42 29 15
3 29 15 12
3 43 28 12
3 29 28 12
3 15 41 42
3 12 15 41
3 12 40 43
3 41 40 12
