ply
format ascii 1.0
comment Created by Open3D
element vertex 176
property double x
property double y
property double z
element face 604
property list uchar uint vertex_indices
end_header
490227 5.45372e+06 114.816
490227 5.45372e+06 104.745
490227 5.45372e+06 114.816
490225 5.45373e+06 104.745
490227 5.45372e+06 104.745
490225 5.45373e+06 114.816
490227 5.45372e+06 114.816
490227 5.45372e+06 104.745
490241 5.45372e+06 114.816
490241 5.45372e+06 114.816
490241 5.45372e+06 114.816
490241 5.45372e+06 104.745
490241 5.45372e+06 104.745
490241 5.45372e+06 104.745
490239 5.45372e+06 114.816
490239 5.45372e+06 104.745
490241 5.45372e+06 114.816
490241 5.45372e+06 104.745
490241 5.45372e+06 104.745
490241 5.45372e+06 114.816
490237 5.45372e+06 104.745
490236 5.45372e+06 104.745
490236 5.45372e+06 114.816
490237 5.45372e+06 114.816
490229 5.45372e+06 104.745
490228 5.45372e+06 114.816
490229 5.45372e+06 114.816
490232 5.45372e+06 114.816
490232 5.45372e+06 104.745
490228 5.45372e+06 104.745
490226 5.45373e+06 114.816
490226 5.45373e+06 104.745
490233 5.45373e+06 104.745
490226 5.45373e+06 104.745
490233 5.45373e+06 114.816
490226 5.45373e+06 114.816
490226 5.45373e+06 104.745
490226 5.45373e+06 114.816
490229 5.45372e+06 114.816
490229 5.45372e+06 104.745
490226 5.45373e+06 104.745
490225 5.45373e+06 104.745
490225 5.45373e+06 114.816
490225 5.45373e+06 104.745
490225 5.45373e+06 114.816
490226 5.45373e+06 114.816
490225 5.45373e+06 114.816
490225 5.45373e+06 104.745
490225 5.45373e+06 104.745
490225 5.45373e+06 114.816
490239 5.45372e+06 104.745
490241 5.45373e+06 114.816
490239 5.45372e+06 114.816
490241 5.45373e+06 104.745
490241 5.45372e+06 114.816
490241 5.45372e+06 104.745
490225 5.45373e+06 104.745
490225 5.45373e+06 114.816
490225 5.45373e+06 104.745
490225 5.45373e+06 104.745
490225 5.45373e+06 114.816
490225 5.45373e+06 114.816
490241 5.45373e+06 104.745
490241 5.45373e+06 114.816
490241 5.45373e+06 114.816
490241 5.45373e+06 114.816
490241 5.45373e+06 104.745
490241 5.45373e+06 104.745
490241 5.45373e+06 114.816
490241 5.45373e+06 114.816
490241 5.45373e+06 104.745
490241 5.45373e+06 104.745
490241 5.45373e+06 114.816
490241 5.45373e+06 104.745
490234 5.45372e+06 114.816
490234 5.45372e+06 104.745
490241 5.45372e+06 104.745
490241 5.45373e+06 104.745
490241 5.45373e+06 114.816
490241 5.45372e+06 114.816
490227 5.45372e+06 114.816
490227 5.45372e+06 104.745
490225 5.45373e+06 104.745
490225 5.45373e+06 114.816
490234 5.45373e+06 114.816
490234 5.45373e+06 104.745
490235 5.45373e+06 104.745
490234 5.45373e+06 104.745
490234 5.45373e+06 114.816
490235 5.45373e+06 114.816
490231 5.45373e+06 114.816
490231 5.45373e+06 104.745
490241 5.45373e+06 104.745
490241 5.45373e+06 114.816
490237 5.45373e+06 104.745
490237 5.45373e+06 114.816
490236 5.45373e+06 104.745
490236 5.45373e+06 114.816
490240 5.45372e+06 114.816
490240 5.45372e+06 104.745
490241 5.45372e+06 114.816
490241 5.45372e+06 104.745
490241 5.45373e+06 114.816
490241 5.45373e+06 104.745
490241 5.45373e+06 104.745
490241 5.45373e+06 114.816
490241 5.45373e+06 104.745
490241 5.45373e+06 114.816
490241 5.45373e+06 114.816
490241 5.45373e+06 104.745
490233 5.45372e+06 104.745
490233 5.45372e+06 114.816
490235 5.45372e+06 104.745
490235 5.45372e+06 114.816
490234 5.45372e+06 114.816
490234 5.45372e+06 104.745
490232 5.45372e+06 114.816
490232 5.45372e+06 104.745
490241 5.45372e+06 104.745
490241 5.45372e+06 114.816
490241 5.45373e+06 114.816
490241 5.45373e+06 104.745
490225 5.45373e+06 114.816
490225 5.45373e+06 104.745
490230 5.45373e+06 114.816
490229 5.45374e+06 114.816
490239 5.45373e+06 114.816
490229 5.45374e+06 104.745
490230 5.45373e+06 104.745
490239 5.45373e+06 104.745
490237 5.45373e+06 104.745
490237 5.45373e+06 114.816
490241 5.45373e+06 114.816
490241 5.45373e+06 104.745
490241 5.45373e+06 114.816
490241 5.45373e+06 104.745
490241 5.45373e+06 114.816
490241 5.45373e+06 104.745
490234 5.45372e+06 104.745
490234 5.45372e+06 114.816
490235 5.45372e+06 104.745
490235 5.45372e+06 114.816
490227 5.45373e+06 114.816
490227 5.45373e+06 104.745
490225 5.45373e+06 114.816
490225 5.45373e+06 104.745
490235 5.45373e+06 114.816
490235 5.45373e+06 104.745
490231 5.45373e+06 104.745
490231 5.45373e+06 114.816
490238 5.45373e+06 114.816
490238 5.45373e+06 104.745
490239 5.45373e+06 104.745
490239 5.45373e+06 114.816
490236 5.45373e+06 104.745
490236 5.45373e+06 114.816
490241 5.45373e+06 114.816
490241 5.45373e+06 104.745
490239 5.45373e+06 114.816
490239 5.45373e+06 104.745
490228 5.45372e+06 114.816
490228 5.45372e+06 104.745
490227 5.45372e+06 104.745
490227 5.45372e+06 114.816
490227 5.45372e+06 104.745
490227 5.45372e+06 114.816
490228 5.45374e+06 114.816
490228 5.45374e+06 104.745
490229 5.45374e+06 104.745
490229 5.45374e+06 114.816
490235 5.45373e+06 114.816
490235 5.45373e+06 104.745
490228 5.45374e+06 104.745
490228 5.45374e+06 114.816
490227 5.45374e+06 114.816
490227 5.45374e+06 104.745
3 8 9 10
3 8 10 11
3 9 10 11
3 8 12 13
3 13 11 8
3 11 12 13
3 12 9 8
3 9 11 12
3 18 15 14
3 17 15 14
3 15 17 18
3 14 16 17
3 19 16 14
3 19 17 16
3 19 18 14
3 17 18 19
3 14 15 20
3 21 15 14
3 21 20 15
3 22 21 14
3 14 20 23
3 23 22 14
3 26 25 24
3 24 26 27
3 27 26 25
3 24 27 28
3 24 25 29
3 29 28 24
3 30 31 32
3 33 31 30
3 33 32 31
3 30 32 34
3 30 34 35
3 30 33 35
3 36 32 31
3 32 34 36
3 31 32 34
3 37 36 34
3 30 34 37
3 34 31 30
3 36 35 33
3 31 33 36
3 31 33 35
3 35 36 37
3 37 35 30
3 35 31 30
3 33 38 39
3 7 33 39
3 33 35 38
3 38 35 6
3 4 7 39
3 7 4 0
3 38 6 0
3 0 6 7
3 0 26 38
3 39 38 24
3 39 24 4
3 38 26 24
3 40 41 42
3 40 41 43
3 40 43 44
3 40 44 45
3 45 42 40
3 45 44 42
3 48 47 41
3 41 42 48
3 49 46 42
3 49 48 42
3 48 47 40
3 45 46 49
3 45 48 49
3 48 45 40
3 46 45 42
3 41 42 45
3 45 41 40
3 47 41 40
3 52 51 50
3 23 51 52
3 50 51 53
3 20 50 53
3 50 20 15
3 15 20 23
3 14 23 52
3 23 15 14
3 15 18 50
3 19 18 15
3 19 15 14
3 52 19 14
3 54 52 50
3 19 52 54
3 55 50 18
3 55 54 50
3 44 56 57
3 42 56 57
3 42 44 57
3 56 42 41
3 56 43 41
3 56 44 43
3 59 58 36
3 60 59 58
3 61 60 58
3 61 60 37
3 34 58 61
3 61 37 34
3 58 34 32
3 32 34 37
3 32 36 58
3 37 36 32
3 62 64 65
3 65 64 63
3 62 64 66
3 62 66 67
3 68 65 62
3 65 68 69
3 62 68 70
3 62 70 71
3 62 67 71
3 63 65 69
3 75 74 20
3 20 53 75
3 74 51 23
3 74 23 20
3 39 74 75
3 75 53 39
3 74 39 38
3 38 51 74
3 77 76 53
3 79 78 76
3 51 78 79
3 76 77 78
3 53 52 51
3 79 76 52
3 79 52 51
3 76 52 50
3 76 53 50
3 50 52 53
3 80 29 25
3 25 26 80
3 29 26 25
3 29 80 81
3 24 29 81
3 24 26 29
3 81 80 4
3 4 24 81
3 0 4 80
3 80 26 0
3 83 60 5
3 3 59 82
3 82 59 36
3 37 60 83
3 35 37 83
3 37 35 33
3 82 36 33
3 33 36 37
3 82 7 3
3 7 5 3
3 7 6 5
3 5 6 83
3 82 33 7
3 6 35 83
3 87 86 85
3 84 88 89
3 87 85 32
3 88 84 34
3 87 86 53
3 51 84 89
3 87 53 39
3 38 51 84
3 87 33 32
3 84 35 34
3 87 39 33
3 33 35 39
3 35 38 84
3 35 38 39
3 90 88 34
3 85 88 90
3 85 90 91
3 32 85 91
3 34 61 90
3 32 34 61
3 58 61 90
3 32 58 61
3 58 90 91
3 91 58 32
3 53 86 92
3 93 92 89
3 51 89 93
3 86 89 92
3 92 77 53
3 78 92 93
3 93 78 51
3 92 78 77
3 92 70 68
3 68 92 93
3 69 92 93
3 93 69 68
3 92 71 70
3 69 71 92
3 94 71 67
3 63 94 95
3 63 69 95
3 94 67 63
3 71 94 96
3 97 96 94
3 97 95 94
3 97 95 69
3 17 16 15
3 15 17 99
3 98 16 14
3 16 15 14
3 13 16 17
3 99 17 13
3 8 16 98
3 16 13 8
3 98 9 8
3 8 9 13
3 99 13 12
3 13 12 9
3 14 22 98
3 22 15 14
3 99 21 15
3 22 21 15
3 98 22 9
3 9 21 22
3 12 21 99
3 9 12 21
3 101 100 18
3 101 55 18
3 18 19 100
3 19 54 100
3 52 54 100
3 52 54 55
3 101 100 50
3 101 55 50
3 100 52 50
3 55 52 50
3 102 103 104
3 73 102 103
3 104 103 73
3 102 73 72
3 72 102 105
3 102 104 105
3 73 103 106
3 106 73 72
3 72 73 103
3 106 103 102
3 72 102 103
3 107 106 102
3 107 106 72
3 107 102 72
3 108 107 106
3 64 106 107
3 64 107 108
3 66 106 109
3 106 66 64
3 106 108 109
3 110 39 38
3 110 75 39
3 75 39 38
3 110 75 74
3 75 74 38
3 111 110 74
3 111 110 38
3 111 74 38
3 113 112 23
3 22 112 113
3 113 23 22
3 112 21 20
3 112 22 21
3 20 23 112
3 27 111 116
3 27 28 111
3 111 110 28
3 117 110 28
3 116 111 38
3 111 39 38
3 39 110 111
3 39 110 117
3 26 27 116
3 28 27 26
3 24 28 117
3 24 26 28
3 116 38 26
3 39 38 26
3 24 39 117
3 24 26 39
3 119 118 78
3 119 79 78
3 77 78 118
3 77 78 79
3 76 77 118
3 76 77 79
3 52 79 119
3 79 52 50
3 118 76 50
3 79 76 50
3 118 101 50
3 101 52 50
3 118 101 100
3 52 100 101
3 100 118 119
3 52 100 119
3 104 120 121
3 121 120 73
3 121 104 73
3 72 73 120
3 72 105 120
3 104 105 120
3 5 60 122
3 3 122 123
3 123 59 3
3 3 5 122
3 60 61 122
3 61 60 59
3 123 122 58
3 58 59 123
3 122 61 58
3 61 59 58
3 63 67 130
3 95 67 63
3 131 130 95
3 131 130 63
3 63 95 131
3 94 95 130
3 130 94 67
3 67 94 95
3 132 133 134
3 135 133 132
3 109 133 135
3 108 132 134
3 132 108 107
3 109 108 107
3 132 107 106
3 106 107 109
3 106 132 135
3 135 109 106
3 137 136 103
3 137 136 104
3 137 104 103
3 136 105 104
3 103 104 105
3 136 105 102
3 102 103 136
3 102 103 105
3 74 111 139
3 111 75 74
3 75 110 138
3 75 110 111
3 110 115 138
3 115 111 110
3 138 115 114
3 115 114 111
3 114 138 139
3 111 114 139
3 138 75 20
3 20 23 138
3 20 23 75
3 75 74 23
3 139 138 23
3 23 74 139
3 141 113 23
3 20 23 113
3 20 112 140
3 20 112 113
3 140 115 112
3 112 113 115
3 141 114 113
3 113 114 115
3 23 139 141
3 20 23 139
3 140 138 20
3 139 138 20
3 141 139 114
3 114 115 139
3 140 138 115
3 139 138 115
3 43 44 142
3 44 45 142
3 43 44 45
3 142 45 40
3 45 43 40
3 40 142 143
3 43 142 143
3 143 43 40
3 91 144 145
3 58 91 145
3 58 61 91
3 144 90 61
3 144 91 90
3 91 90 61
3 145 123 58
3 58 61 123
3 61 122 144
3 123 122 61
3 145 144 56
3 56 123 145
3 56 57 144
3 123 57 56
3 57 122 144
3 123 122 57
3 90 91 146
3 88 90 146
3 88 90 91
3 147 146 85
3 147 146 91
3 85 91 147
3 146 88 85
3 91 88 85
3 146 71 69
3 96 146 147
3 71 146 147
3 71 96 147
3 96 97 146
3 146 97 69
3 91 147 148
3 90 91 147
3 146 148 149
3 149 146 90
3 148 147 146
3 90 146 147
3 148 145 91
3 145 91 90
3 90 144 149
3 90 144 145
3 56 145 148
3 56 57 148
3 56 57 145
3 57 144 145
3 149 148 57
3 57 144 149
3 151 150 129
3 152 151 129
3 126 129 150
3 126 150 153
3 66 109 151
3 64 108 150
3 151 133 109
3 108 134 150
3 133 151 152
3 153 150 134
3 151 67 66
3 63 64 150
3 150 131 63
3 131 67 63
3 150 131 130
3 67 130 131
3 151 150 130
3 151 130 67
3 130 151 154
3 130 131 151
3 131 150 155
3 151 150 131
3 154 151 128
3 151 128 124
3 124 150 151
3 155 150 124
3 124 149 155
3 128 148 154
3 95 97 155
3 97 96 95
3 154 96 94
3 96 95 94
3 155 131 95
3 94 95 131
3 94 130 154
3 131 130 94
3 154 147 96
3 147 97 96
3 97 146 155
3 97 146 147
3 146 149 155
3 149 147 146
3 154 148 147
3 147 148 149
3 157 156 106
3 157 156 135
3 157 135 106
3 156 107 106
3 135 107 106
3 156 135 132
3 156 132 107
3 135 132 107
3 159 158 137
3 159 137 103
3 102 103 137
3 102 136 158
3 136 137 158
3 137 136 102
3 158 107 102
3 102 103 107
3 103 106 159
3 107 106 103
3 159 157 106
3 157 107 106
3 107 156 158
3 107 156 157
3 159 157 135
3 132 135 157
3 132 156 158
3 132 156 157
3 129 158 159
3 159 152 129
3 158 129 126
3 126 153 158
3 133 152 159
3 158 153 134
3 159 135 133
3 133 134 135
3 158 134 132
3 135 134 132
3 25 29 81
3 161 160 81
3 29 81 161
3 80 81 160
3 25 80 160
3 25 80 81
3 27 28 162
3 160 161 162
3 28 161 162
3 160 162 163
3 27 160 163
3 27 162 163
3 28 29 161
3 160 27 25
3 81 161 164
3 80 81 164
3 80 81 161
3 80 164 165
3 80 160 165
3 80 160 161
3 164 162 1
3 1 2 164
3 162 2 1
3 165 164 2
3 165 163 2
3 163 162 2
3 161 162 164
3 163 162 161
3 160 161 163
3 160 163 165
3 43 44 166
3 44 57 166
3 43 44 57
3 43 166 167
3 167 56 43
3 43 56 57
3 57 149 166
3 56 57 149
3 56 148 149
3 56 148 167
3 124 128 166
3 166 149 124
3 167 166 128
3 167 148 128
3 168 128 127
3 168 127 125
3 125 127 128
3 125 168 169
3 124 125 169
3 124 125 128
3 168 167 128
3 167 128 124
3 168 167 166
3 167 166 124
3 169 168 166
3 169 166 124
3 170 146 69
3 69 146 147
3 171 147 71
3 69 71 147
3 170 93 89
3 86 89 93
3 171 92 86
3 93 92 86
3 93 92 71
3 71 92 171
3 69 93 170
3 69 71 93
3 171 86 85
3 170 89 88
3 147 88 85
3 85 147 171
3 88 146 170
3 88 146 147
3 172 169 168
3 172 168 167
3 167 168 169
3 169 172 173
3 166 169 173
3 169 167 166
3 175 174 172
3 175 172 143
3 175 174 143
3 174 173 172
3 142 173 174
3 142 143 174
3 44 166 167
3 44 166 173
3 172 167 43
3 43 44 167
3 143 142 44
3 173 142 44
3 43 143 172
3 43 44 143
